<?xml version="1.0" encoding="utf-8"?>
<!-- Generator: Adobe Illustrator 19.2.0, SVG Export Plug-In . SVG Version: 6.00 Build 0)  -->
<svg version="1.1" id="Layer_1" xmlns="http://www.w3.org/2000/svg" xmlns:xlink="http://www.w3.org/1999/xlink" x="0px" y="0px"
	 viewBox="0 0 81.6 81.6" style="enable-background:new 0 0 81.6 81.6;" xml:space="preserve">
<style type="text/css">
	.st0{fill:#430098;}
	.st1{fill:#FFB819;}
	.st2{fill:none;}
	.st3{fill:#FFFFFF;}
	.st4{fill:#4A3494;}
	.st5{fill:#58595B;}
	.st6{fill:#414042;}
	.st7{fill:#564C9F;}
	.st8{fill:#FFB819;stroke:#FFB819;stroke-width:0.2835;stroke-miterlimit:10;}
</style>
<circle class="st1" cx="40.8" cy="40.8" r="40.8"/>
<g>
	<g>
		<g>
			<g>
				<path class="st3" d="M50.6,32.7L44.8,32L41,38.7L37,40.1l-5.2,0.4l-1.9,0.5c0,0,2.9,13.6,18.1,12.6L46,43.9
					C46,43.9,52,41.8,50.6,32.7z"/>
			</g>
		</g>
	</g>
	<g>
		<g>
			<g>
				<g>
					<g>
						<path class="st4" d="M45.8,55.1c-1.3,0-3.4-0.1-5.6-0.8c-4.5-1.3-10-4.8-11-14.3c0-0.4,0.1-0.8,0.4-1.1
							c0.3-0.3,0.7-0.5,1.1-0.4l9,0.4c0.8-1.2,2.4-3.9,3.2-7.1c0.2-0.7,0.8-1.1,1.5-1.1L51,31c0.6,0,1.1,0.4,1.3,1
							c0.7,2.5,0.6,8.2-4.7,12.3l1.5,9.1c0,0.1,0,0.2,0,0.2C49.1,55.1,47.7,55.1,45.8,55.1z M32.3,41.4c0.9,5.4,3.9,8.8,8.7,10.2
							c2,0.6,3.8,0.7,5,0.7l-1.4-8.4c-0.1-0.6,0.1-1.1,0.6-1.4c4.4-3,4.7-6.9,4.5-8.7l-4.3-0.3c-1.3,4.3-3.7,7.5-3.8,7.6
							c-0.3,0.4-0.7,0.6-1.2,0.6L32.3,41.4z"/>
					</g>
				</g>
			</g>
		</g>
		<g>
			<g>
				<g>
					<g>
						<path class="st4" d="M42.6,70.1c-2.3,0-3.1-1.5-3.1-2.2l0-0.1V53.1h2.9v14.1c0.1,0,0.4,0,0.5,0V53.8h2.9l0,14
							C45.7,68.6,44.9,70.1,42.6,70.1z"/>
					</g>
				</g>
			</g>
		</g>
		<g>
			<g>
				<g>
					<g>
						<path class="st4" d="M31.7,47.1l-14.6-3.7c-0.7-0.3-2-1.3-1.4-3.6c0.5-2.3,2.1-2.6,2.9-2.5l0.1,0l13,3.2L31,43.3l-12.5-3
							c0,0.1-0.1,0.2-0.1,0.3c0,0.1,0,0.2,0,0.3l14,3.6L31.7,47.1z"/>
					</g>
				</g>
			</g>
		</g>
		<g>
			<g>
				<g>
					<g>
						<polygon class="st4" points="29,37 28.3,34.2 43.8,30.3 64.5,30.8 64.4,33.6 44.2,33.2 						"/>
					</g>
				</g>
			</g>
		</g>
		<g>
			<g>
				<g>
					<g>
						<path class="st4" d="M47.5,31.6c-2.9,0-5.3-2.4-5.3-5.4c0-2.9,2.4-5.3,5.3-5.3c3,0,5.3,2.4,5.3,5.3
							C52.8,29.2,50.4,31.6,47.5,31.6z M47.5,23.7c-1.4,0-2.5,1.1-2.5,2.5c0,1.4,1.1,2.5,2.5,2.5c1.4,0,2.5-1.1,2.5-2.5
							C50,24.9,48.9,23.7,47.5,23.7z"/>
					</g>
				</g>
			</g>
		</g>
		<g>
			<g>
				<g>
					<g>
						<circle class="st4" cx="43.9" cy="22.6" r="2.1"/>
					</g>
				</g>
			</g>
		</g>
	</g>
</g>
</svg>
