<?xml version="1.0" encoding="utf-8"?>
<!-- Generator: Adobe Illustrator 19.2.0, SVG Export Plug-In . SVG Version: 6.00 Build 0)  -->
<svg version="1.1" id="Layer_1" xmlns="http://www.w3.org/2000/svg" xmlns:xlink="http://www.w3.org/1999/xlink" x="0px" y="0px"
	 viewBox="0 0 81.6 81.6" style="enable-background:new 0 0 81.6 81.6;" xml:space="preserve">
<style type="text/css">
	.st0{fill:#430098;}
	.st1{fill:#FFB819;}
	.st2{fill:none;}
	.st3{fill:#FFFFFF;}
	.st4{fill:#4A3494;}
	.st5{fill:#58595B;}
	.st6{fill:#414042;}
	.st7{fill:#564C9F;}
	.st8{fill:#FFB819;stroke:#FFB819;stroke-width:0.2835;stroke-miterlimit:10;}
</style>
<g>
	<circle class="st3" cx="40.8" cy="40.8" r="40.8"/>
	<g>
		<g>
			<g>
				<g>
					<g>
						
							<rect x="39" y="27.3" transform="matrix(0.7299 -0.6835 0.6835 0.7299 -13.5824 37.3448)" class="st4" width="2.9" height="17.2"/>
					</g>
				</g>
			</g>
			<g>
				<g>
					<g>
						
							<rect x="40.6" y="23.6" transform="matrix(0.7566 -0.6538 0.6538 0.7566 -9.4838 34.8583)" class="st4" width="2.9" height="13"/>
					</g>
				</g>
			</g>
		</g>
		<g>
			<g>
				<g>
					<g>
						<g>
							
								<rect x="39.9" y="25.1" transform="matrix(0.7366 -0.6763 0.6763 0.7366 -11.4084 36.577)" class="st1" width="2.7" height="15.6"/>
						</g>
					</g>
				</g>
			</g>
			<g>
				<g>
					<g>
						<g>
							<g>
								<path class="st1" d="M36.3,62.9c-2.4,0.2-4-18.3-4.5-20l2.6-0.8c1,3.3,3.3,8.2,5.2,8c2.3-0.1,5-4.8,5.9-7.1l2.5,1
									c-0.4,0.9-1.6,19.7-6.1,20C41.8,64.1,39.3,66.2,36.3,62.9z"/>
							</g>
						</g>
					</g>
				</g>
				<g>
					<g>
						<g>
							<g>
								
									<rect x="32.8" y="31.1" transform="matrix(0.8636 -0.5042 0.5042 0.8636 -10.879 24.6689)" class="st1" width="14.8" height="2.7"/>
							</g>
						</g>
					</g>
				</g>
				<g>
					<g>
						<g>
							<g>
								<path class="st4" d="M39.3,66.2c-1.8,0-3.6-0.6-5.1-2.4L34,63.5l-0.1-0.4c-0.1-0.6-2.1-14.8-2.3-24.3
									c-0.1-5.3,1.8-9.4,3.6-13.4c1.6-3.4,3-6.6,3.1-10.3l2.7,0c-0.1,4.3-1.7,7.9-3.3,11.4c-1.7,3.7-3.4,7.5-3.4,12.2
									c0.1,8.5,1.9,21.2,2.2,23.6c1.9,2,4.9,0.8,5.9,0.3c3.2-5.7,3.4-20.9,2.8-23.7c-0.6-2.7-0.1-6.3,0.4-10
									c0.1-0.7,0.2-1.4,0.3-2.1c0.5-4.4,3.7-12.4,3.8-12.7l2.5,1c0,0.1-3.2,8-3.7,12c-0.1,0.7-0.2,1.4-0.3,2.1
									c-0.4,3.4-0.9,6.8-0.4,9.1c0.6,3,0.6,19.7-3.3,26l-0.2,0.3l-0.3,0.2C43,65.5,41.2,66.2,39.3,66.2z"/>
							</g>
						</g>
					</g>
				</g>
			</g>
		</g>
		<g>
			<g>
				<g>
					<path class="st4" d="M40.3,51.7c-0.3,0-0.6,0-0.9-0.1c-5-1.1-7.4-9.3-7.7-10.2l2.8-0.8c0.5,1.9,2.7,7.5,5.5,8.1
						c2.2,0.5,4.3-4.6,5-7l2.8,0.8C47.5,43.5,45.1,51.7,40.3,51.7z"/>
				</g>
			</g>
		</g>
		<g>
			<g>
				<g>
					<g>
						
							<rect x="32.9" y="27.6" transform="matrix(0.879 -0.4769 0.4769 0.879 -8.9129 23.0552)" class="st4" width="16.1" height="2.9"/>
					</g>
				</g>
			</g>
			<g>
				<g>
					<g>
						
							<rect x="32" y="33.9" transform="matrix(0.8669 -0.4986 0.4986 0.8669 -12.3128 24.6157)" class="st4" width="15.8" height="2.9"/>
					</g>
				</g>
			</g>
		</g>
	</g>
</g>
</svg>
