<?xml version="1.0" encoding="utf-8"?>
<!-- Generator: Adobe Illustrator 19.2.0, SVG Export Plug-In . SVG Version: 6.00 Build 0)  -->
<svg version="1.1" id="Layer_1" xmlns="http://www.w3.org/2000/svg" xmlns:xlink="http://www.w3.org/1999/xlink" x="0px" y="0px"
	 viewBox="0 0 81.6 81.6" style="enable-background:new 0 0 81.6 81.6;" xml:space="preserve">
<style type="text/css">
	.st0{fill:#430098;}
	.st1{fill:#FFB819;}
	.st2{fill:none;}
	.st3{fill:#FFFFFF;}
	.st4{fill:#4A3494;}
	.st5{fill:#58595B;}
	.st6{fill:#414042;}
	.st7{fill:#564C9F;}
	.st8{fill:#FFB819;stroke:#FFB819;stroke-width:0.2835;stroke-miterlimit:10;}
</style>
<circle class="st4" cx="40.8" cy="40.8" r="40.8"/>
<g>
	<path class="st1" d="M26.6,41.4c0.7-0.3,4.7-0.4,4.7-0.4l4.8-8.2l4,9.6l3.4-6.1l4.7,6.3l4.3,0.4L47,45.5l-2.8-2.9L39.9,50l-4.1-9.2
		l-2.7,3.9l-4.8,0.2C28.2,44.9,25.6,41.9,26.6,41.4z"/>
	<g>
		<path class="st3" d="M42,59.2c-0.1,0-0.3,0-0.4-0.1c-0.2-0.1-0.4-0.2-0.5-0.4L28,46.3c-5.3-5.3-4.5-10.1-3.5-12.5
			c1.8-4.4,6.5-7.2,9.7-7.2c4.4,0,6.7,1.9,7.8,3.1c1-1.2,3.4-3.1,7.8-3.1c3.2,0,7.9,2.7,9.7,7.2c1,2.4,1.9,7.3-3.5,12.5L42.9,58.7
			c-0.1,0.1-0.2,0.3-0.4,0.3C42.3,59.1,42.2,59.1,42,59.2C42,59.2,42,59.2,42,59.2z M34.2,28.6c-2.6,0-6.4,2.4-7.8,5.9
			c-1,2.4-1.2,6.1,3,10.3L42,56.7l12.6-11.9c4.2-4.2,4-7.9,3-10.3c-1.5-3.5-5.2-5.9-7.8-5.9c-4.9,0-6.5,2.8-6.6,2.9l-0.3,0.5
			c-0.2,0.4-0.6,0.6-0.9,0.6c-0.4,0-0.8-0.3-0.9-0.6l-0.2-0.6C40.8,31.4,39.1,28.6,34.2,28.6z"/>
	</g>
	<g>
		<path class="st3" d="M39.7,50.8C39.7,50.8,39.6,50.8,39.7,50.8c-0.4,0-0.8-0.3-0.9-0.6l-3.3-7.4L34,45.2c-0.2,0.3-0.5,0.5-0.9,0.5
			l0,0l-5,0c-0.6,0-1-0.5-1-1c0-0.6,0.5-1,1-1h0l4.4,0l2.2-3.6c0.2-0.3,0.5-0.5,0.9-0.5c0.4,0,0.7,0.3,0.9,0.6l3.3,7.4l3.4-5.7
			c0.2-0.3,0.5-0.5,0.8-0.5c0.3,0,0.7,0.1,0.9,0.4l2,2.6l2.1-0.7l-1.2,0c-0.3,0-0.6-0.2-0.8-0.4l-3.4-4.9l-2.6,5.2
			c-0.2,0.4-0.6,0.5-0.9,0.6c-0.4,0-0.8-0.3-0.9-0.6l-3.3-8.1l-3.8,6.5c-0.2,0.3-0.5,0.5-0.9,0.5h-4.6c-0.6,0-1-0.4-1-1
			c0-0.6,0.5-1,1-1h4l4.5-7.7c0.2-0.3,0.6-0.5,0.9-0.5c0.4,0,0.7,0.3,0.9,0.6l3.2,7.9l2.3-4.7c0.2-0.3,0.5-0.5,0.8-0.6
			c0.4,0,0.7,0.1,0.9,0.4l4.1,5.9l6.1,0.2c0.2,0,0.4,0.1,0.5,0.2c0.3,0.2,0.6,0.6,0.5,1c-0.1,0.4-0.3,0.8-0.6,0.9l-8,2.6
			c-0.4,0.1-0.8,0-1.1-0.3l-1.6-2l-3.7,6.2C40.4,50.6,40,50.8,39.7,50.8z"/>
	</g>
</g>
</svg>
