<?xml version="1.0" encoding="utf-8"?>
<!-- Generator: Adobe Illustrator 19.2.0, SVG Export Plug-In . SVG Version: 6.00 Build 0)  -->
<svg version="1.1" id="Layer_1" xmlns="http://www.w3.org/2000/svg" xmlns:xlink="http://www.w3.org/1999/xlink" x="0px" y="0px"
	 viewBox="0 0 81.6 81.6" style="enable-background:new 0 0 81.6 81.6;" xml:space="preserve">
<style type="text/css">
	.st0{fill:#430098;}
	.st1{fill:#FFB819;}
	.st2{fill:none;}
	.st3{fill:#FFFFFF;}
	.st4{fill:#4A3494;}
	.st5{fill:#58595B;}
	.st6{fill:#414042;}
	.st7{fill:#564C9F;}
	.st8{fill:#FFB819;stroke:#FFB819;stroke-width:0.2835;stroke-miterlimit:10;}
</style>
<g>
	<circle class="st3" cx="40.8" cy="40.8" r="40.8"/>
	<g>
		<g>
			<g>
				<g>
					<g>
						<path class="st4" d="M31.4,28v23.6c-1.1-0.8-2.6-1.4-4.2-1.4c-3.7,0-6.6,2.6-6.6,5.9c0,3.2,3,5.9,6.6,5.9
							c3.5,0,6.4-2.4,6.6-5.4h0V37.3l17.6-3.5v14.3c-1.1-0.8-2.6-1.4-4.2-1.4c-3.7,0-6.6,2.6-6.6,5.9c0,3.2,3,5.9,6.6,5.9
							c3.7,0,6.6-2.6,6.6-5.9v-29L31.4,28z M27.2,59.6c-2.3,0-4.2-1.6-4.2-3.5c0-1.9,1.9-3.5,4.2-3.5c2.3,0,4.2,1.6,4.2,3.5
							C31.4,58,29.5,59.6,27.2,59.6z M33.8,34.9V30l17.6-3.4v4.8L33.8,34.9z M47.1,56.1c-2.3,0-4.2-1.6-4.2-3.5
							c0-1.9,1.9-3.5,4.2-3.5c2.3,0,4.2,1.6,4.2,3.5C51.4,54.6,49.5,56.1,47.1,56.1z"/>
					</g>
				</g>
			</g>
			<g>
				<g>
					<g>
						<g>
							<polygon class="st1" points="33.8,34.9 33.8,30 51.4,26.6 51.4,31.4 							"/>
						</g>
					</g>
				</g>
			</g>
		</g>
	</g>
</g>
</svg>
