<?xml version="1.0" encoding="utf-8"?>
<!-- Generator: Adobe Illustrator 16.0.0, SVG Export Plug-In . SVG Version: 6.00 Build 0)  -->
<!DOCTYPE svg PUBLIC "-//W3C//DTD SVG 1.1//EN" "http://www.w3.org/Graphics/SVG/1.1/DTD/svg11.dtd">
<svg version="1.1" id="Layer_1" xmlns="http://www.w3.org/2000/svg" xmlns:xlink="http://www.w3.org/1999/xlink" x="0px" y="0px"
	 width="19.495px" height="21.042px" viewBox="0 0 19.495 21.042" enable-background="new 0 0 19.495 21.042" xml:space="preserve">
<g>
	<g>
		<path fill="#430098" d="M19.462,8.782c0.01-1.17,0.021-2.177,0.02-2.257c0-2.128-0.715-3.642-1.957-4.755
			c-1.825-1.634-4.261-1.673-4.73-1.66C12.212,0.044,11.61,0,10.969,0c-0.465,0-0.955,0.017-1.465,0.052L7.631,0.211
			C7.327,0.25,6.922,0.287,6.391,0.323c-2.5,0.171-4.425,0.275-5.723,0.308L0.127,0.644L0.058,1.182
			C0.002,1.606-0.014,1.996,0.012,2.337C0.032,2.638,0.1,3.055,0.22,3.613l0.104,0.485l0.496,0.015
			c0.659,0.018,0.86,0.14,0.896,0.165c0,0.001,0.121,0.092,0.154,0.562c0.02,0.302-0.004,0.745-0.071,1.325l-0.886,8.75
			c-0.04,0.432-0.081,0.809-0.123,1.137c-0.023,0.181-0.047,0.346-0.072,0.495L0.711,16.6c-0.024,0.334-0.01,0.664,0.043,0.978
			c0.235,1.411,1.201,2.61,2.527,3.147c0.246,0.142,0.788,0.318,1.96,0.318c1.031,0,2.359-0.136,3.946-0.403l0.124-0.021
			c0.924-0.157,1.583-0.319,2.013-0.491c0.399-0.125,0.797-0.273,1.192-0.432l0.011,0.034c5.013-1.522,6.966-4.491,6.926-7.629
			c0-0.026,0-0.059-0.001-0.086l0.024-0.576c0.008-0.146,0.016-0.295,0.018-0.444l0.001-0.243
			C19.498,10.213,19.485,9.543,19.462,8.782z M15.975,16.243c-0.125-0.003-0.249-0.008-0.372-0.023
			c-0.731-0.09-1.194-0.431-1.411-1.042c-0.229-0.641-0.1-1.212,0.385-1.701c1.024-1.033,2.257-1.458,3.602-1.297
			C18.067,13.562,17.492,14.931,15.975,16.243z M10.639,9.243c0.092,1.913,0.117,2.255,0.133,2.482
			c0.018,0.25,0.023,0.332,0.109,2.553c0.029,0.743-0.246,1.354-0.819,1.821c-0.646,0.525-1.289,0.852-1.968,1.001
			c-0.4,0.088-0.807,0.113-1.227,0.072c-0.742-0.072-1.2-0.392-1.437-1.004c-0.245-0.635-0.132-1.21,0.341-1.711
			c0.139-0.149,0.292-0.293,0.453-0.428c0.952-0.804,2.093-1.117,3.33-0.946c0.033,0.007,0.066,0.013,0.101,0.019
			c0.046,0.009,0.093,0.018,0.118,0.021l0.065,0.011l0.801-0.097l-0.272-5.292L10.34,7.458c-0.041-0.44-0.054-0.879-0.067-1.344
			c-0.011-0.328-0.021-0.657-0.041-1.006l0.317-0.13c0.764-0.317,1.553-0.646,2.318-1.011c1.066-0.51,2.117-1.045,3.118-1.56
			c0.189,0.126,0.376,0.264,0.555,0.425c0.653,0.589,1.144,1.302,1.394,2.25l-0.051,0.024c-0.186,0.082-0.344,0.151-0.501,0.219
			l-1.491,0.639c-1.422,0.609-2.892,1.24-4.346,1.828C10.699,8.133,10.612,8.718,10.639,9.243z M14.562,17.259
			c-1.183,0.724-2.406,1.287-3.641,1.671l-0.051,0.018c-0.231,0.096-0.729,0.246-1.771,0.426l-0.128,0.021
			c-1.516,0.255-2.771,0.384-3.731,0.384c-0.616,0-0.975-0.055-1.162-0.099l-0.278-0.109C2.855,19.207,2.166,18.365,2,17.37
			c-0.035-0.207-0.045-0.428-0.03-0.653c0.024-0.153,0.048-0.321,0.071-0.504c0.045-0.34,0.088-0.732,0.129-1.175l0.883-8.736
			c0.077-0.658,0.102-1.164,0.075-1.55C3.08,4.046,2.854,3.543,2.455,3.254C2.192,3.064,1.833,2.943,1.361,2.886
			C1.303,2.563,1.278,2.366,1.271,2.25c-0.008-0.116-0.01-0.24-0.006-0.373c1.284-0.045,3.033-0.144,5.212-0.293
			c0.556-0.039,0.986-0.078,1.287-0.117l1.838-0.155c1.191-0.083,2.266-0.047,3.243,0.078l0.003,0.028
			c0.008,0,0.267,0.005,0.648,0.061c0.366,0.068,0.716,0.15,1.047,0.25c-0.727,0.369-1.473,0.741-2.219,1.099
			c-0.736,0.351-1.51,0.672-2.259,0.983L9.691,3.966c-0.52,0.214-0.764,0.6-0.726,1.142C8.988,5.456,9,5.803,9.01,6.151
			c0.014,0.464,0.027,0.945,0.072,1.422l0.229,4.215c-1.467-0.104-2.777,0.327-3.899,1.274c-0.198,0.166-0.388,0.346-0.561,0.53
			c-0.81,0.86-1.022,1.936-0.599,3.032c0.412,1.062,1.273,1.688,2.494,1.806c0.557,0.053,1.092,0.02,1.618-0.096
			c0.864-0.189,1.703-0.611,2.494-1.255c0.886-0.72,1.329-1.705,1.285-2.849c-0.087-2.243-0.093-2.332-0.113-2.597
			c-0.016-0.22-0.04-0.553-0.13-2.451c-0.006-0.085-0.002-0.137,0-0.164c0.021-0.012,0.057-0.031,0.117-0.055
			c1.468-0.594,2.943-1.227,4.37-1.84l1.489-0.638c0.075-0.032,0.148-0.064,0.225-0.098c0.015,0.301,0.026,0.575,0.038,0.854
			c0.028,0.889,0.072,2.472,0.073,3.664c-1.731-0.177-3.259,0.393-4.533,1.681c-0.832,0.838-1.073,1.909-0.679,3.016
			c0.284,0.793,0.819,1.353,1.569,1.651C14.568,17.257,14.564,17.258,14.562,17.259z"/>
		<path fill="#FFB819" d="M14.576,13.477c-0.484,0.489-0.613,1.061-0.385,1.701c0.217,0.611,0.68,0.951,1.411,1.042
			c0.123,0.015,0.247,0.02,0.372,0.023c1.518-1.312,2.093-2.681,2.203-4.063C16.833,12.018,15.601,12.443,14.576,13.477z"/>
		<path fill="#FFB819" d="M15.985,2.407c-1.001,0.515-2.052,1.049-3.118,1.56c-0.766,0.365-1.555,0.694-2.318,1.011l-0.317,0.13
			c0.021,0.35,0.03,0.678,0.041,1.006c0.014,0.464,0.026,0.904,0.067,1.344l0.027,0.287l0.272,5.292l-0.801,0.097l-0.065-0.011
			c-0.025-0.004-0.072-0.013-0.118-0.021c-0.034-0.006-0.067-0.012-0.101-0.019c-1.237-0.17-2.378,0.143-3.33,0.946
			c-0.161,0.135-0.314,0.279-0.453,0.428c-0.473,0.501-0.586,1.077-0.341,1.711c0.236,0.613,0.694,0.933,1.437,1.004
			c0.42,0.042,0.826,0.017,1.227-0.072c0.679-0.149,1.322-0.476,1.968-1.001c0.573-0.466,0.849-1.078,0.819-1.821
			c-0.086-2.221-0.092-2.304-0.109-2.553c-0.016-0.228-0.041-0.569-0.133-2.482c-0.026-0.525,0.061-1.11,0.906-1.452
			c1.454-0.588,2.924-1.219,4.346-1.828l1.491-0.639c0.157-0.068,0.315-0.138,0.501-0.219l0.051-0.024
			c-0.25-0.948-0.74-1.661-1.394-2.25C16.361,2.671,16.175,2.534,15.985,2.407z"/>
	</g>
</g>
</svg>
