<?xml version="1.0" encoding="utf-8"?>
<!-- Generator: Adobe Illustrator 16.0.0, SVG Export Plug-In . SVG Version: 6.00 Build 0)  -->
<!DOCTYPE svg PUBLIC "-//W3C//DTD SVG 1.1//EN" "http://www.w3.org/Graphics/SVG/1.1/DTD/svg11.dtd">
<svg version="1.1" id="Layer_1" xmlns="http://www.w3.org/2000/svg" xmlns:xlink="http://www.w3.org/1999/xlink" x="0px" y="0px"
	 width="24.794px" height="25.152px" viewBox="0 0 24.794 25.152" enable-background="new 0 0 24.794 25.152" xml:space="preserve">
<g>
	<g>
		<path fill="#430098" d="M24.794,5.232l-6.972-0.146c0.65-0.495,1.077-1.27,1.077-2.15c0-1.495-1.214-2.71-2.709-2.71
			c-0.347,0-0.678,0.072-0.982,0.191C15.01,0.169,14.719,0,14.378,0c-0.596,0-1.079,0.485-1.079,1.079
			c0,0.331,0.157,0.616,0.391,0.813c-0.135,0.321-0.21,0.673-0.21,1.043c0,0.84,0.393,1.582,0.993,2.079l-0.134-0.002L6.477,6.979
			l0.352,1.407l6.746-1.687c-0.432,1.182-1.007,2.142-1.312,2.608L7.698,9.126C7.491,9.118,7.285,9.201,7.144,9.353
			c-0.133,0.14-0.194,0.325-0.189,0.515l-5.34-1.296L1.55,8.558C1.159,8.5,0.35,8.689,0.069,9.829
			c-0.278,1.139,0.352,1.682,0.727,1.81l7.123,1.81c1.045,2.055,2.714,3.085,4.223,3.595v6.909l0.003,0.065
			c0.036,0.393,0.413,1.134,1.585,1.134c1.174,0,1.55-0.742,1.585-1.134l0.004-6.47c0.006,0,0.015,0,0.021,0
			c0.936,0,1.675,0,1.675-0.777c0-0.04-0.003-0.08-0.011-0.119l-0.773-4.584c2.288-1.759,2.678-4.074,2.518-5.514l6.016,0.125
			L24.794,5.232z M15.033,11.146c-0.234,0.158-0.355,0.44-0.308,0.72l0.714,4.233c-0.597,0.005-1.53-0.042-2.534-0.333
			c-2.443-0.711-3.923-2.444-4.402-5.156l4.101,0.162c0.237,0.005,0.467-0.1,0.609-0.29c0.055-0.072,1.249-1.68,1.919-3.856
			l2.175,0.13C17.391,7.653,17.278,9.619,15.033,11.146z M16.19,1.676c0.693,0,1.26,0.564,1.26,1.26c0,0.694-0.566,1.26-1.26,1.26
			c-0.694,0-1.261-0.566-1.261-1.26C14.93,2.24,15.496,1.676,16.19,1.676z M1.454,10.311c0.004-0.035,0.011-0.08,0.024-0.138
			c0.015-0.056,0.028-0.1,0.041-0.131l5.675,1.378c0.029,0.127,0.062,0.251,0.095,0.373L1.454,10.311z M13.866,23.693
			c-0.068,0.011-0.204,0.011-0.272,0v-6.293c0.092,0.015,0.184,0.03,0.272,0.042V23.693z"/>
		<path fill="#FFB819" d="M15.132,6.625c-0.67,2.176-1.864,3.784-1.919,3.856c-0.143,0.19-0.372,0.295-0.609,0.29l-4.101-0.162
			c0.479,2.712,1.959,4.445,4.402,5.156c1.004,0.292,1.938,0.339,2.534,0.333l-0.714-4.233c-0.048-0.28,0.073-0.562,0.308-0.72
			c2.245-1.526,2.357-3.493,2.273-4.391L15.132,6.625z"/>
	</g>
</g>
</svg>
