<?xml version="1.0" encoding="utf-8"?>
<!-- Generator: Adobe Illustrator 16.0.0, SVG Export Plug-In . SVG Version: 6.00 Build 0)  -->
<!DOCTYPE svg PUBLIC "-//W3C//DTD SVG 1.1//EN" "http://www.w3.org/Graphics/SVG/1.1/DTD/svg11.dtd">
<svg version="1.1" id="Layer_1" xmlns="http://www.w3.org/2000/svg" xmlns:xlink="http://www.w3.org/1999/xlink" x="0px" y="0px"
	 width="137.729px" height="70.527px" viewBox="0 0 137.729 70.527" enable-background="new 0 0 137.729 70.527"
	 xml:space="preserve">
<g>
	<g>
		<g>
			<g>
				<g>
					<g>
						<g>
							<g>
								<g>
									<path fill="#430098" d="M132.672,13.93c-0.099-0.02-0.189-0.036-0.29-0.057l0.362-1.01
										c1.042-2.293,1.681-4.062,1.916-5.301c0.376-1.967-0.083-3.227-1.375-3.776c-1.041,0.294-2.361,0.486-3.964,0.578
										c-1.605,0.091-3.148,0.07-4.635-0.061c-0.308,1.162-0.854,2.684-1.639,4.565c0.038,0.079-0.897,2.405-1.014,2.365
										c-0.3-0.1-0.6-0.196-0.896-0.287c0,0-7.765-3.168-11.6-1.281c-0.026,0.012-0.049,0.022-0.07,0.033
										c-0.02,0.009-0.038,0.018-0.057,0.027c-0.817,0.402-1.264,0.621-1.467,0.72c-0.827,0.498-1.62,1.123-2.381,1.895
										c-1.834,1.861-3.156,4.111-3.965,6.748l-1.18,3.783l-0.054,0.006c0.439-1.321,0.8-2.785,1.078-4.387
										c0.277-1.603,0.429-2.928,0.453-3.978c0.004-0.598-0.007-1.008-0.033-1.229c-0.078-0.665-0.274-1.211-0.587-1.641
										c-0.312-0.43-0.804-0.792-1.475-1.087c-1.754,0.955-3.505,1.714-5.251,2.276c-1.745,0.562-3.738,1.013-5.978,1.352
										c-0.339,1.237-0.416,2.647-0.225,4.231c1.249-0.148,2.125-0.101,2.62,0.138c0.495,0.242,0.792,0.768,0.888,1.577
										c0.043,0.361,0.037,1.073-0.014,2.121c-0.02,0.191-0.517,4.496-4.004,9.191c-0.869,1.039-1.895,1.998-3.108,2.78
										c-0.111,0.07-0.211,0.128-0.312,0.186c-0.574,0.326-1.068,0.472-1.477,0.434c-0.403-0.036-0.642-0.235-0.72-0.596
										c-0.03-0.135-0.037-0.293-0.022-0.476c0.051-0.556,0.354-1.682,0.92-3.382l3.471-10.586
										c0.221-0.799,0.346-1.347,0.373-1.643c0.114-1.256-0.345-2.379-1.373-3.366c-1.698,0.221-3.74,0.354-6.129,0.398
										c-1.903-0.805-3.999-1.311-6.291-1.518c-4.952-0.447-8.904,0.407-11.855,2.562c-2.953,2.156-4.991,5.139-6.118,8.949
										c-0.393,1.457-0.644,2.793-0.754,4.012c-0.239,2.661,0.161,4.932,1.202,6.815c1.042,1.882,2.948,2.949,5.718,3.199
										c2.552,0.231,4.811-0.44,6.779-2.015c1.967-1.572,3.787-4.185,5.457-7.835l0.165,0.014c-0.65,1.433-1.146,2.822-1.493,4.17
										c-0.128,0.583-0.205,1.043-0.235,1.375c-0.145,1.589,0.194,2.896,1.015,3.919c0.82,1.026,2.209,1.624,4.169,1.804
										c0.223,0.02,0.442,0.033,0.662,0.044c0.011,0.001,0.022,0.001,0.033,0.001c0.243,0.011,0.483,0.016,0.718,0.015
										c3.582,0.02,6.536-1.354,8.88-3.246c1.282-1.031,2.381-2.217,3.303-3.413c0.092-0.119,0.183-0.239,0.271-0.359
										l-0.001,0.022c1.066-1.351,2.11-2.957,2.731-4.654c0,0-0.497,2.927-1.745,5.81h-0.002c0,0-0.162,0.244-0.24,0.722
										c-0.236,1.449,0.004,3.056,1.927,4.135c4.032,2.26,8.658-1.215,8.646-6.39c0,0,0.298-8.47,1.368-10.576
										c0.698-1.354,1.492-2.083,2.376-2.188c0.479-0.057,0.915,0.079,1.31,0.405c0.394,0.327,0.622,0.748,0.683,1.264
										c0.027,0.222,0.028,0.389,0.004,0.505c0.225,0.01,0.577-0.013,1.057-0.069c1.916-0.227,3.518-0.753,4.802-1.578
										c-0.178-1.811-0.206-3.777-0.082-5.904c0.001-0.016,0.001-0.031,0.002-0.047c1.431-0.093,3.36,0.093,5.929,0.873
										l-3.028,6.676c-0.836,1.806-3.65,6.941-3.972,8.618c-0.471,2.478-0.233,4.507,0.712,6.085
										c0.946,1.578,2.659,2.603,5.138,3.075c1.64,0.312,3.415,0.311,5.329-0.005c1.908-0.316,3.377-0.867,4.395-1.656
										c0.088-0.662,0.07-1.403-0.06-2.221c-0.126-0.817-0.325-1.516-0.593-2.095c-0.434,0.294-0.897,0.499-1.392,0.613
										c-0.496,0.114-0.94,0.132-1.342,0.056c-0.583-0.112-0.979-0.356-1.191-0.737c-0.209-0.379-0.228-1.025-0.055-1.937
										c0.234-1.238,3.055-6.3,3.982-8.39l2.395-5.457c2.09,0.372,4.111,0.53,5.454,0.159c0.199-0.034,0.312-0.06,0.312-0.06
										c0.033-0.021,0.065-0.047,0.099-0.076c0.005-0.004,1.112-0.806,1.697-4.522C137.729,14.143,135.777,14.283,132.672,13.93z
										 M74.899,21.151c-1.188,4.065-2.466,6.968-3.832,8.708c-1.367,1.74-2.625,2.559-3.77,2.455
										c-1.221-0.111-1.73-1.256-1.535-3.437c0.114-1.256,0.434-2.736,0.96-4.44c0.686-2.248,1.482-3.955,2.392-5.122
										c0.905-1.166,2.023-1.691,3.354-1.57c0.48,0.043,1.049,0.15,1.703,0.321c0.655,0.173,1.177,0.368,1.568,0.589
										L74.899,21.151z"/>
								</g>
							</g>
						</g>
						<g>
							<g>
								<path fill="#430098" d="M1.623,36.873c0.058-0.354,0.114-0.747,0.169-1.175C1.705,36.081,1.652,36.474,1.623,36.873z"/>
							</g>
						</g>
						<path fill="#FFB819" d="M53.426,1.331c-0.213-0.351-0.443-0.62-0.688-0.826c-0.067-0.067-0.136-0.136-0.212-0.206
							c-0.013,0.007-0.023,0.015-0.034,0.022C50.36-1.068,47.307,2.48,46.561,2.83c-0.176,0.083-0.295,0.228-0.375,0.405
							c-0.011,0.002-0.021,0.004-0.031,0.005c-0.005,0.034-0.007,0.068-0.013,0.102c-0.103,0.29-0.116,0.645-0.098,0.963
							c-0.033,0.662-0.009,1.363,0.091,2.118c0.779-0.08,0.928,0.066,1.183,0.329c0.235,0.243,0.403,0.596,0.428,1.275
							c0,0-0.359,4.202,0.717,5.407c1.075,1.204,4.731-1.693,5.126-3.9l0.16-2.827l0.134-2.816
							c-0.008-0.564-0.031-1.015-0.077-1.349C53.737,2.039,53.611,1.636,53.426,1.331z"/>
						<g>
							<g>
								<g>
									<path fill="#FFB819" d="M40.248,26.759c0,0-6.978-0.175-9.232,3.943l0.004,0.007c-0.086,0.144-0.145,0.307-0.161,0.485
										c-0.048,0.613,0.409,1.15,1.021,1.199c0.032,0.002,0.062-0.001,0.093,0l0.003,0.008c0,0,0.871,0.092,1.754-0.976
										c0.882-1.068,3.702-3.451,6.188-3.67C42.404,27.536,41.493,26.712,40.248,26.759z"/>
									<path fill="#FFB819" d="M27.2,8.803c0,0-2.23,0.747-2.238,1.766c-0.008,1.018,7.253-2.68,10.058-3.297
										c2.804-0.617,3.317-3.735,0.398-2.478C32.497,6.05,27.2,8.803,27.2,8.803z"/>
									<path fill="#FFB819" d="M19.802,29.318c0,0-3.344-0.082-6.15,1.232c-1.247,0.584-2.389,1.443-3.083,2.71l0.005,0.009
										c-0.087,0.143-0.146,0.306-0.16,0.484c-0.05,0.613,0.407,1.15,1.021,1.199c0.032,0.003,0.062,0,0.094,0l0.003,0.008
										c0,0,0.871,0.092,1.752-0.977c0.401-0.487,1.21-1.248,2.202-1.951c1.185-0.84,2.634-1.6,3.985-1.719
										C21.958,30.096,21.045,29.273,19.802,29.318z"/>
								</g>
							</g>
							<path fill="#430098" d="M40.988,11.382c-0.898,0.393-1.501,0.663-2.107,0.924c-4.455,1.898-8.89,3.84-13.376,5.653
								c-1.026,0.415-1.224,0.88-1.173,1.914c0.452,9.458,0.19,2.069,0.556,11.529c0.083,2.126-0.72,3.97-2.405,5.34
								c-1.56,1.268-3.252,2.175-5.104,2.582c-1.034,0.228-2.118,0.302-3.257,0.191c-2.077-0.202-3.708-1.181-4.493-3.214
								c-0.779-2.015-0.361-3.902,1.073-5.425c0.374-0.397,0.761-0.761,1.161-1.097c2.452-2.066,5.373-2.953,8.756-2.485
								c0.187,0.027,0.371,0.07,0.559,0.098c0.035,0.007,0.074-0.009,0.205-0.028L20.83,16.648c-0.021-0.21-0.042-0.427-0.062-0.656
								c-0.173-1.861-0.137-3.74-0.263-5.606c-0.047-0.659,0.197-0.946,0.769-1.182c2.044-0.852,4.097-1.683,6.094-2.638
								c2.671-1.276,5.311-2.623,7.941-3.981c-3.772-1.908-8.733-2.653-14.892-2.229l-4.223,0.355
								c-0.734,0.095-1.709,0.183-2.923,0.266C7.505,1.375,3.123,1.611,0.121,1.687C0.007,2.566-0.027,3.353,0.022,4.045
								C0.063,4.653,0.213,5.558,0.47,6.76c1.353,0.038,2.306,0.254,2.855,0.652c0.55,0.399,0.864,1.183,0.944,2.354
								c0.053,0.778-0.001,1.873-0.165,3.278L2.081,33.047c-0.094,1.005-0.19,1.884-0.289,2.65
								c-0.055,0.428-0.111,0.822-0.169,1.175c-0.045,0.62-0.026,1.254,0.082,1.895c0.483,2.896,2.47,5.161,5.023,6.146l0.003,0.004
								c0,0,1.848,1.477,12.602-0.333c0.005-0.001,0.01-0.002,0.016-0.002c0.088-0.015,0.172-0.029,0.261-0.044
								c2.177-0.373,3.552-0.729,4.361-1.061c2.939-0.917,5.82-2.237,8.647-3.968c0.98-0.6,1.887-1.301,2.718-2.099
								c-0.418,0-0.839-0.024-1.271-0.077c-2.071-0.257-3.678-1.279-4.41-3.332c-0.727-2.035-0.258-3.909,1.217-5.393
								c2.746-2.775,6.088-3.969,10.006-3.323c0.154,0.027,0.309,0.064,0.465,0.095c0.029,0.007,0.059,0.013,0.091,0.019
								c0.037,0.008,0.076-0.008,0.205-0.022c0.02-0.473,0.055-0.962,0.061-1.451c0.004-0.174,0.004-0.358,0.005-0.542
								c0.014-3.161-0.169-7.646-0.41-12.194L40.988,11.382z"/>
						</g>
					</g>
				</g>
			</g>
			<g>
				<path fill="#FFB819" d="M53.655,61.296c-0.165-0.134-0.35-0.191-0.55-0.175c-0.199,0.016-0.367,0.108-0.5,0.275
					c-0.333,0.35-0.666,0.646-0.999,0.888c-0.333,0.241-0.747,0.5-1.238,0.774c-0.492,0.276-1.062,0.513-1.713,0.713
					c-0.649,0.2-1.373,0.342-2.174,0.425s-1.674,0.066-2.624-0.05c-1.418-0.167-2.574-0.875-3.474-2.124
					c-0.568-0.818-1.014-1.842-1.339-3.075c-0.325-1.233-0.538-2.667-0.637-4.299l2.899-0.351c0.216-0.033,0.388-0.128,0.513-0.288
					c0.123-0.158,0.169-0.345,0.137-0.562c-0.032-0.2-0.129-0.366-0.286-0.5c-0.16-0.133-0.338-0.182-0.538-0.149l-2.774,0.325
					c-0.017-0.533-0.013-1.087,0.012-1.663c0.024-0.575,0.055-1.17,0.089-1.787c0.065-1.1,0.161-2.146,0.286-3.137
					c0.125-0.992,0.25-1.859,0.374-2.6c0.126-0.741,0.233-1.333,0.325-1.775c0.092-0.441,0.139-0.671,0.139-0.687
					c0.033-0.183,0-0.362-0.101-0.538c-0.1-0.175-0.241-0.287-0.424-0.337c-0.185-0.066-0.363-0.054-0.539,0.037
					c-0.174,0.092-0.303,0.23-0.386,0.413c0,0.017-0.099,0.275-0.288,0.775c-0.192,0.5-0.454,1.159-0.788,1.975
					c-0.333,0.816-0.737,1.742-1.211,2.775c-0.477,1.033-0.998,2.083-1.563,3.149c-0.434,0.817-0.858,1.575-1.273,2.275
					c-0.418,0.7-0.835,1.34-1.252,1.925l-1.898,0.225c-0.2,0.033-0.368,0.129-0.5,0.287c-0.135,0.159-0.185,0.347-0.15,0.563
					c0.033,0.184,0.121,0.337,0.263,0.462c0.142,0.125,0.305,0.188,0.487,0.188h0.075l0.424-0.05
					c-0.716,0.85-1.391,1.466-2.023,1.849c-0.617,0.417-1.217,0.626-1.8,0.626c-0.217,0-0.397,0.075-0.538,0.225
					c-0.142,0.15-0.213,0.325-0.213,0.525c0,0.216,0.071,0.396,0.213,0.537c0.141,0.143,0.321,0.213,0.538,0.213
					c0.866,0,1.741-0.284,2.624-0.85c0.751-0.5,1.533-1.208,2.35-2.125l0.999-1.25l4.301-0.525c0.034,0.333,0.062,0.65,0.087,0.95
					c0.025,0.3,0.053,0.6,0.088,0.9c0.35,2.649,1.041,4.716,2.075,6.199c1.116,1.599,2.616,2.525,4.498,2.775
					c0.3,0.032,0.602,0.058,0.899,0.075c0.302,0.016,0.594,0.024,0.876,0.024c0.433,0,0.865-0.021,1.3-0.062
					c0.435-0.042,0.857-0.104,1.274-0.188c0.552-0.116,1.088-0.27,1.612-0.462c0.525-0.192,1.038-0.421,1.538-0.688
					c0.849-0.466,1.487-0.909,1.913-1.325c0.424-0.417,0.653-0.641,0.686-0.675c0.135-0.15,0.192-0.329,0.175-0.537
					C53.914,61.6,53.822,61.429,53.655,61.296z M37.058,48.411c-0.033,0.375-0.065,0.754-0.1,1.138
					c-0.034,0.667-0.063,1.313-0.087,1.938c-0.025,0.625-0.029,1.237-0.014,1.837l-3.123,0.375c0.315-0.483,0.628-1,0.936-1.55
					c0.309-0.55,0.621-1.125,0.938-1.725c0.285-0.533,0.555-1.058,0.813-1.575c0.258-0.517,0.503-1.025,0.736-1.525
					C37.124,47.674,37.09,48.036,37.058,48.411z"/>
				<path fill="#FFB819" d="M115.553,67.859c-0.14-0.148-0.312-0.228-0.514-0.238c-0.015-0.007-0.422-0.041-1.225-0.098
					c-0.799-0.056-1.833-0.196-3.096-0.417c-0.577-0.092-1.214-0.22-1.911-0.384c-0.699-0.165-1.432-0.361-2.201-0.589
					c-0.01-0.004-0.021-0.008-0.032-0.012l0.063-0.127l0.009-0.002c0.152-0.36,0.303-0.734,0.455-1.127
					c0.166-0.435,0.33-0.907,0.494-1.417c0.461-1.461,0.856-3.025,1.188-4.691c0.05-0.245,0.093-0.48,0.142-0.725l-0.007,0
					c0.285-1.303,0.567-2.532,0.853-3.685c0.285-1.156,0.571-2.137,0.854-2.941c0.084-0.185,0.08-0.368-0.012-0.553
					c-0.093-0.185-0.231-0.319-0.417-0.402c-0.183-0.084-0.372-0.084-0.563,0c-0.194,0.083-0.33,0.218-0.416,0.402
					c-0.22,0.486-0.438,1.039-0.666,1.658c-0.225,0.622-0.465,1.283-0.717,1.987c-0.044,0.128-0.094,0.262-0.14,0.391
					c-0.001,0.008-0.004,0.015-0.004,0.022c-0.075,0.165-0.157,0.357-0.258,0.527c-0.142,0.241-0.295,0.479-0.462,0.712
					c-0.04,0.057-0.079,0.106-0.12,0.161c-0.356,0.487-0.705,0.874-1.042,1.152c-0.376,0.308-0.704,0.462-0.988,0.462
					c-0.182,0-0.316-0.025-0.399-0.075c-0.084-0.049-0.15-0.108-0.199-0.175c-0.085-0.1-0.16-0.288-0.225-0.563
					c-0.068-0.274-0.076-0.699-0.025-1.274c0.05-0.575,0.183-1.329,0.399-2.263c0.215-0.933,0.566-2.099,1.05-3.499
					c0.067-0.2,0.055-0.391-0.038-0.575c-0.091-0.183-0.229-0.316-0.412-0.399c-0.199-0.066-0.392-0.055-0.574,0.037
					c-0.186,0.092-0.317,0.238-0.399,0.438c-0.621,1.805-1.056,3.333-1.299,4.588c-0.113,0.189-0.236,0.383-0.378,0.586
					c-0.132,0.184-0.279,0.397-0.437,0.638c-0.159,0.243-0.336,0.488-0.537,0.737c-0.468,0.584-0.908,1.029-1.325,1.338
					c-0.416,0.308-0.774,0.462-1.074,0.462c-0.067,0-0.143-0.008-0.225-0.025c-0.083-0.017-0.143-0.041-0.176-0.075
					c-0.034-0.033-0.067-0.121-0.1-0.262c-0.033-0.142-0.033-0.396,0-0.763c0.032-0.3,0.092-0.637,0.175-1.012
					c0.082-0.375,0.183-0.804,0.3-1.288l0.249-1c0.251-0.983,0.423-1.783,0.514-2.4c0.091-0.616-0.005-1.116-0.287-1.5
					c-0.101-0.116-0.239-0.229-0.414-0.337s-0.411-0.163-0.711-0.163c-0.385,0-0.778,0.134-1.188,0.399
					c-0.409,0.268-0.871,0.675-1.386,1.225c-0.352,0.384-0.727,0.837-1.127,1.363c-0.399,0.525-0.817,1.121-1.25,1.787l-0.249,0.351
					c0.149-0.8,0.241-1.466,0.274-2c0.033-0.533,0.039-0.975,0.012-1.325c-0.025-0.35-0.071-0.625-0.137-0.825
					c-0.066-0.2-0.141-0.358-0.225-0.475c-0.133-0.149-0.279-0.271-0.438-0.362c-0.158-0.091-0.337-0.137-0.537-0.137
					c-0.384,0-0.78,0.134-1.188,0.399c-0.41,0.268-0.872,0.675-1.388,1.225c-0.233,0.284-0.487,0.593-0.762,0.926
					c-0.275,0.333-0.556,0.7-0.838,1.099l0.925-2.625c0.082-0.2,0.079-0.391-0.013-0.575s-0.237-0.316-0.438-0.4
					c-0.183-0.067-0.371-0.054-0.563,0.038c-0.19,0.091-0.32,0.229-0.387,0.412c-0.415,1.167-0.809,2.283-1.174,3.349
					c-0.136,0.396-0.264,0.768-0.389,1.128c-0.01,0.018-0.027,0.029-0.038,0.047c-0.098,0.2-0.225,0.399-0.373,0.599
					c-0.134,0.184-0.292,0.388-0.477,0.613c-0.182,0.225-0.391,0.454-0.624,0.688c-1.215,1.217-2.541,1.825-3.976,1.825
					c-0.481,0-0.957-0.083-1.424-0.25c-0.466-0.167-0.808-0.492-1.025-0.975c1.019-0.083,1.934-0.375,2.751-0.875
					c0.433-0.25,0.837-0.55,1.213-0.899c0.373-0.351,0.703-0.733,0.986-1.15c0.433-0.65,0.721-1.296,0.862-1.937
					c0.142-0.642,0.12-1.196-0.062-1.663c-0.167-0.383-0.416-0.662-0.75-0.837c-0.333-0.175-0.724-0.238-1.174-0.188
					c-0.484,0.05-1.009,0.234-1.575,0.55c-0.566,0.316-1.092,0.725-1.576,1.225c-0.564,0.583-1.031,1.229-1.399,1.938
					c-0.224,0.432-0.401,0.877-0.546,1.332c-0.001,0.002-0.003,0.003-0.003,0.005c-0.117,0.2-0.25,0.409-0.399,0.625
					c-0.133,0.184-0.279,0.397-0.437,0.638c-0.16,0.243-0.338,0.479-0.539,0.712c-0.467,0.583-0.906,1.033-1.324,1.349
					c-0.417,0.318-0.776,0.476-1.075,0.476c-0.184,0-0.32-0.029-0.413-0.088c-0.091-0.058-0.153-0.121-0.188-0.187
					c-0.083-0.116-0.158-0.33-0.225-0.638s-0.058-0.804,0.024-1.487c0.101-0.966,0.393-2.233,0.875-3.8
					c0.35-1.149,0.802-2.44,1.352-3.874c0.549-1.433,1.216-3.049,1.999-4.849c0.082-0.184,0.088-0.375,0.013-0.575
					c-0.074-0.2-0.213-0.342-0.413-0.425c-0.183-0.083-0.371-0.083-0.562,0s-0.329,0.217-0.412,0.4
					c-0.234,0.55-0.487,1.15-0.763,1.8c-0.275,0.649-0.558,1.333-0.85,2.05s-0.574,1.45-0.851,2.2
					c-0.173,0.473-0.335,0.943-0.492,1.41c-0.491-0.473-1.133-0.631-1.693-0.66c-0.254-0.036-0.524-0.023-0.808,0.036
					c-0.224,0.031-0.382,0.069-0.433,0.082l0.011,0.039c-0.066,0.022-0.13,0.04-0.195,0.068c-0.6,0.25-1.2,0.65-1.801,1.2
					c-0.634,0.583-1.179,1.242-1.639,1.975c-0.271,0.437-0.5,0.895-0.693,1.367c-0.034,0.039-0.065,0.083-0.092,0.132
					c0,0.017-0.13,0.23-0.387,0.638c-0.26,0.409-0.598,0.862-1.014,1.362c-0.484,0.583-0.938,1.033-1.362,1.349
					c-0.425,0.318-0.786,0.476-1.088,0.476c-0.133,0-0.233-0.021-0.3-0.062c-0.065-0.042-0.116-0.088-0.15-0.138
					c-0.182-0.232-0.278-0.7-0.286-1.399c-0.01-0.7,0.153-1.674,0.487-2.924c0.017-0.066,0.023-0.13,0.023-0.194
					c0.436-1.538,0.115-3.032-0.884-3.711c-0.504-0.342-1.138-0.376-1.665-0.317c-0.328,0.013-0.677,0.093-1.049,0.248
					c-0.602,0.25-1.199,0.65-1.801,1.2c-0.633,0.583-1.179,1.242-1.636,1.975c-0.291,0.464-0.531,0.95-0.73,1.453
					c-0.018,0.026-0.042,0.043-0.059,0.072c-0.099,0.2-0.224,0.399-0.375,0.599c-0.132,0.184-0.285,0.388-0.46,0.613
					c-0.177,0.225-0.381,0.454-0.614,0.688c-1.249,1.217-2.583,1.825-4,1.825c-1.031,0-1.758-0.25-2.175-0.75
					c-0.349-0.417-0.45-1.025-0.299-1.825c0.133-0.633,0.35-1.246,0.648-1.837c0.302-0.591,0.677-1.128,1.126-1.612
					c0.45-0.467,0.867-0.792,1.251-0.975c0.381-0.183,0.69-0.275,0.924-0.275c0.034,0,0.078,0.017,0.137,0.05
					c0.06,0.034,0.105,0.142,0.138,0.325c0.066,0.284,0.059,0.555-0.025,0.813c-0.082,0.258-0.175,0.413-0.273,0.462
					c-0.184,0.084-0.309,0.225-0.376,0.424c-0.065,0.2-0.059,0.392,0.025,0.576c0.084,0.183,0.225,0.308,0.425,0.375
					c0.199,0.067,0.393,0.059,0.574-0.025c0.5-0.233,0.852-0.674,1.05-1.324c0.084-0.267,0.135-0.542,0.151-0.825
					s-0.01-0.55-0.076-0.8c-0.115-0.483-0.329-0.862-0.637-1.137s-0.679-0.413-1.112-0.413c-0.5,0-1.038,0.154-1.612,0.463
					c-0.576,0.309-1.122,0.729-1.637,1.262c-0.552,0.583-1.013,1.233-1.389,1.95c-0.374,0.717-0.637,1.467-0.787,2.25
					c-0.149,0.784-0.141,1.42,0.025,1.912c0.167,0.493,0.357,0.872,0.574,1.138c0.717,0.867,1.833,1.3,3.35,1.3
					c0.917,0,1.804-0.196,2.664-0.587c0.823-0.376,1.597-0.922,2.322-1.63c0.021,0.17,0.047,0.337,0.088,0.494
					c0.118,0.399,0.297,0.741,0.537,1.024c0.242,0.284,0.538,0.492,0.888,0.625c0.518,0.184,1.075,0.175,1.675-0.025
					c0.566-0.167,1.143-0.491,1.724-0.975c0.235-0.2,0.467-0.42,0.702-0.662c0.233-0.241,0.458-0.504,0.674-0.788
					c0.051,0.767,0.251,1.375,0.601,1.825c0.383,0.517,0.925,0.775,1.624,0.775c0.634,0,1.309-0.267,2.023-0.8
					c0.252-0.2,0.51-0.43,0.776-0.688c0.204-0.197,0.408-0.423,0.611-0.665c0.021,0.12,0.034,0.241,0.064,0.353
					c0.115,0.399,0.296,0.741,0.536,1.024c0.241,0.284,0.538,0.492,0.889,0.625c0.132,0.034,0.262,0.063,0.387,0.087
					c0.125,0.026,0.263,0.038,0.412,0.038c0.284,0,0.575-0.05,0.874-0.15c0.567-0.167,1.143-0.491,1.726-0.975
					c0.251-0.217,0.497-0.45,0.738-0.7s0.479-0.525,0.711-0.825c0.017,0.367,0.067,0.688,0.15,0.963
					c0.083,0.275,0.192,0.529,0.325,0.762c0.15,0.217,0.371,0.429,0.663,0.637c0.291,0.209,0.696,0.313,1.212,0.313
					c0.633,0,1.309-0.267,2.025-0.8c0.516-0.416,1.032-0.941,1.549-1.575c0.012-0.015,0.022-0.029,0.035-0.044
					c0.158,0.445,0.337,0.795,0.539,1.044c0.718,0.867,1.834,1.3,3.349,1.3c0.919,0,1.805-0.196,2.662-0.587
					c0.543-0.247,1.062-0.574,1.56-0.965c-0.144,0.43-0.222,0.663-0.222,0.678c-0.065,0.184-0.058,0.358,0.025,0.525
					c0.084,0.167,0.218,0.291,0.399,0.375c0.101,0.05,0.202,0.075,0.302,0.075c0.133,0,0.257-0.033,0.373-0.1
					c0.117-0.066,0.21-0.166,0.275-0.3c0.284-0.516,0.541-0.979,0.775-1.387c0.232-0.408,0.512-0.871,0.837-1.388
					c0.325-0.516,0.663-1.041,1.013-1.574c0.517-0.767,0.971-1.4,1.363-1.9c0.392-0.5,0.731-0.899,1.024-1.2
					c0.291-0.3,0.529-0.516,0.712-0.65c0.184-0.133,0.325-0.225,0.426-0.274c0.016,0.083,0.028,0.212,0.036,0.387
					c0.01,0.175,0.004,0.409-0.012,0.7c-0.018,0.292-0.049,0.649-0.102,1.075c-0.048,0.425-0.132,0.938-0.248,1.538
					c-0.084,0.484-0.175,0.946-0.275,1.387c-0.101,0.441-0.195,0.846-0.287,1.212c-0.092,0.367-0.172,0.684-0.239,0.951
					c-0.064,0.267-0.115,0.45-0.148,0.55c-0.066,0.184-0.06,0.362,0.026,0.537c0.082,0.175,0.215,0.304,0.399,0.388
					c0.183,0.083,0.364,0.091,0.55,0.025c0.183-0.066,0.315-0.191,0.399-0.375c0.283-0.516,0.541-0.979,0.775-1.387
					c0.232-0.408,0.512-0.871,0.838-1.388c0.322-0.516,0.661-1.041,1.011-1.574c0.584-0.867,1.087-1.563,1.514-2.087
					c0.424-0.525,0.783-0.933,1.073-1.226c0.292-0.291,0.521-0.487,0.688-0.587c0.165-0.1,0.282-0.158,0.35-0.175
					c0,0.067,0,0.151,0,0.25c0,0.1-0.018,0.242-0.05,0.425c-0.05,0.25-0.113,0.525-0.188,0.825c-0.074,0.3-0.154,0.634-0.236,1
					l-0.25,1.025c-0.117,0.483-0.225,0.95-0.326,1.399c-0.101,0.45-0.165,0.871-0.198,1.262c-0.034,0.392-0.023,0.751,0.036,1.076
					c0.058,0.325,0.179,0.612,0.363,0.862c0.365,0.45,0.899,0.675,1.6,0.675c0.632,0,1.307-0.267,2.024-0.8
					c0.507-0.409,1.016-0.924,1.522-1.543c0.071,0.607,0.236,1.099,0.501,1.468c0.151,0.2,0.371,0.396,0.663,0.587
					c0.292,0.192,0.679,0.288,1.162,0.288c0.422,0,0.85-0.124,1.289-0.369c0.215-0.121,0.731-0.492,1.078-0.768
					c-0.204,1.208-0.445,2.421-0.72,3.554l0.02,0.004c-0.11,0.393-0.225,0.781-0.346,1.162c-0.161,0.543-0.331,1.041-0.503,1.492
					c-0.174,0.451-0.354,0.874-0.54,1.268c-0.643-0.158-1.215-0.273-1.711-0.344c-0.498-0.071-0.925-0.109-1.276-0.111
					c-0.771,0.031-1.431,0.245-1.986,0.636c-0.521,0.374-0.878,0.833-1.074,1.379c-0.164,0.493-0.196,0.972-0.093,1.438
					c0.104,0.464,0.329,0.858,0.679,1.179c0.453,0.4,1.006,0.596,1.659,0.585c0.656-0.011,1.384-0.208,2.19-0.594
					c0.902-0.475,1.699-1.287,2.389-2.44l0.007-0.015c0.089,0.028,0.179,0.059,0.266,0.085c0.796,0.245,1.563,0.449,2.299,0.613
					c0.736,0.166,1.407,0.302,2.014,0.409c0.642,0.106,1.237,0.198,1.781,0.274c0.546,0.075,1.017,0.132,1.417,0.169
					c0.396,0.036,0.706,0.061,0.937,0.077c0.226,0.014,0.354,0.017,0.376,0.011c0.203,0.01,0.382-0.055,0.543-0.201
					c0.159-0.142,0.245-0.316,0.256-0.519C115.765,68.186,115.692,68.007,115.553,67.859z M59.036,52.993
					c-0.521,1.153-1.028,2.048-1.531,2.68c-0.518,0.65-0.958,1.133-1.326,1.45c-0.449,0.367-0.84,0.596-1.174,0.687
					c-0.333,0.092-0.591,0.105-0.775,0.038c-0.282-0.1-0.458-0.378-0.525-0.837c-0.066-0.458-0.008-1.013,0.176-1.662
					c0.185-0.683,0.47-1.338,0.862-1.962c0.392-0.625,0.847-1.179,1.363-1.663c0.482-0.45,0.911-0.745,1.286-0.887
					c0.213-0.08,0.521-0.173,0.521-0.173c0.343-0.064,0.711-0.077,0.884,0.041C59.236,51.002,59.395,51.943,59.036,52.993z
					 M71.026,52.792l-0.021,0.056c-0.018,0.021-0.029,0.039-0.029,0.05c-0.534,1.199-1.057,2.125-1.574,2.774
					c-0.516,0.65-0.958,1.133-1.325,1.45c-0.45,0.367-0.841,0.596-1.175,0.687c-0.332,0.092-0.591,0.105-0.774,0.038
					c-0.284-0.1-0.457-0.378-0.524-0.837c-0.066-0.458-0.009-1.013,0.175-1.662c0.184-0.683,0.47-1.338,0.862-1.962
					c0.391-0.625,0.846-1.179,1.362-1.663c0.483-0.45,0.912-0.745,1.287-0.887c0.261-0.098,0.459-0.152,0.603-0.165l0.003-0.008
					c0.379-0.016,0.811,0.036,1.029,0.265C71.209,51.224,71.303,51.862,71.026,52.792z M79.626,51.898
					c0.434-0.45,0.854-0.775,1.261-0.976c0.411-0.2,0.729-0.316,0.964-0.35c0.033-0.016,0.074-0.025,0.125-0.025
					c0.167,0,0.25,0.042,0.25,0.125c0.084,0.183,0.075,0.475-0.025,0.874c-0.101,0.4-0.309,0.833-0.625,1.3
					c-0.435,0.65-0.971,1.171-1.612,1.562c-0.642,0.392-1.337,0.629-2.088,0.713c0.134-0.601,0.351-1.175,0.65-1.725
					C78.827,52.848,79.191,52.348,79.626,51.898z M102.804,68.577c-0.479,0.255-0.907,0.398-1.292,0.432
					c-0.386,0.032-0.673-0.04-0.864-0.216c-0.123-0.095-0.197-0.232-0.232-0.406c-0.031-0.175-0.01-0.355,0.067-0.543
					c0.104-0.306,0.304-0.549,0.6-0.729c0.293-0.18,0.65-0.278,1.067-0.297l0.025-0.001c0.235,0.007,0.535,0.037,0.896,0.089
					c0.365,0.051,0.781,0.126,1.257,0.224C103.867,67.802,103.359,68.286,102.804,68.577z"/>
			</g>
		</g>
	</g>
</g>
</svg>
