<svg xmlns="http://www.w3.org/2000/svg" viewBox="0 0 137.73 45.48"><defs><style>.a{fill:#430098;}.b{fill:#ffb819;}</style></defs><title>dart-logo</title><path class="a" d="M132.67,13.93l-.29-.06.36-1a25,25,0,0,0,1.92-5.3c.38-2-.08-3.22-1.37-3.77a19.29,19.29,0,0,1-4,.57,32.29,32.29,0,0,1-4.63-.06,38.2,38.2,0,0,1-1.64,4.57,11.92,11.92,0,0,1-1,2.36l-.89-.28s-7.77-3.17-11.6-1.29l-.07,0-.06,0-1.47.72a12,12,0,0,0-2.38,1.89,16.25,16.25,0,0,0-4,6.75l-1.18,3.78h-.06a30.65,30.65,0,0,0,1.08-4.39,26.93,26.93,0,0,0,.45-4,9.71,9.71,0,0,0,0-1.23,3.38,3.38,0,0,0-.59-1.64,3.44,3.44,0,0,0-1.47-1.08,30.86,30.86,0,0,1-5.25,2.27,38.8,38.8,0,0,1-6,1.35,10.81,10.81,0,0,0-.22,4.23,5.33,5.33,0,0,1,2.62.14,1.83,1.83,0,0,1,.88,1.58,14.58,14.58,0,0,1,0,2.12,20.56,20.56,0,0,1-4,9.19,13.87,13.87,0,0,1-3.11,2.78l-.31.19a2.67,2.67,0,0,1-1.48.43.72.72,0,0,1-.72-.6,1.42,1.42,0,0,1,0-.47,18.84,18.84,0,0,1,.92-3.38L86.59,19.8A12.16,12.16,0,0,0,87,18.16a4,4,0,0,0-1.37-3.37,55.68,55.68,0,0,1-6.13.4,20.8,20.8,0,0,0-6.29-1.52Q65.75,13,61.31,16.23a16.55,16.55,0,0,0-6.12,9,24.17,24.17,0,0,0-.75,4A11.66,11.66,0,0,0,55.64,36q1.56,2.82,5.72,3.2a9.14,9.14,0,0,0,6.78-2q3-2.36,5.46-7.83h.16a25.94,25.94,0,0,0-1.49,4.17A11.87,11.87,0,0,0,72,34.92a5.3,5.3,0,0,0,1,3.92,5.78,5.78,0,0,0,4.17,1.8l.66,0h.75a13.77,13.77,0,0,0,8.88-3.25A20,20,0,0,0,90.81,34a4.22,4.22,0,0,0,.27-.36v0a17.25,17.25,0,0,0,2.73-4.65,28.22,28.22,0,0,1-1.74,5.81h0a2,2,0,0,0-.24.72,3.66,3.66,0,0,0,1.92,4.14c4,2.26,8.66-1.22,8.65-6.39,0,0,.3-8.47,1.37-10.58q1-2,2.37-2.19a1.69,1.69,0,0,1,1.31.41,1.86,1.86,0,0,1,.69,1.26,1.7,1.7,0,0,1,0,.51,6.83,6.83,0,0,0,1.06-.07,11.2,11.2,0,0,0,4.8-1.58,36.94,36.94,0,0,1-.08-5.9v0a16.93,16.93,0,0,1,5.93.87l-3,6.68c-.83,1.81-3.65,6.94-4,8.62a8.52,8.52,0,0,0,.71,6.08q1.43,2.37,5.14,3.08a15.14,15.14,0,0,0,5.33,0,9.61,9.61,0,0,0,4.39-1.65,8.94,8.94,0,0,0-.65-4.32,4.1,4.1,0,0,1-1.39.61,3.1,3.1,0,0,1-1.34.06,1.59,1.59,0,0,1-1.19-.74,3.09,3.09,0,0,1-.06-1.93c.23-1.24,3.06-6.3,4-8.39l2.4-5.46a13.79,13.79,0,0,0,5.45.16l.31-.06a.39.39,0,0,0,.1-.08s1.11-.8,1.7-4.52A30.52,30.52,0,0,1,132.67,13.93ZM74.9,21.15q-1.79,6.11-3.83,8.71T67.3,32.31c-1.22-.11-1.73-1.25-1.54-3.43a23,23,0,0,1,1-4.44,16.19,16.19,0,0,1,2.39-5.13,3.68,3.68,0,0,1,3.36-1.57,10.44,10.44,0,0,1,1.7.33,6.6,6.6,0,0,1,1.57.58Z" transform="translate(0 0)"/><path class="a" d="M1.62,36.87c.06-.35.12-.74.17-1.17A8.91,8.91,0,0,0,1.62,36.87Z" transform="translate(0 0)"/><path class="b" d="M53.43,1.33A3.71,3.71,0,0,0,52.74.5L52.53.3l0,0c-2.13-1.39-5.18,2.16-5.93,2.51a.8.8,0,0,0-.37.4h0s0,.07,0,.1a2.81,2.81,0,0,0-.1,1,11.92,11.92,0,0,0,.1,2.12c.77-.08.92.07,1.18.33A1.84,1.84,0,0,1,47.75,8s-.36,4.2.71,5.4,4.73-1.69,5.13-3.9l.16-2.82.13-2.82a11.7,11.7,0,0,0-.07-1.35A3.32,3.32,0,0,0,53.43,1.33Z" transform="translate(0 0)"/><path class="b" d="M40.25,26.76s-7-.18-9.23,3.94h0a1.14,1.14,0,0,0-.16.48,1.11,1.11,0,0,0,1,1.2H32a2.2,2.2,0,0,0,1.75-1c.88-1.07,3.7-3.46,6.19-3.67S41.49,26.71,40.25,26.76Z" transform="translate(0 0)"/><path class="b" d="M27.2,8.8S25,9.55,25,10.57,32.22,7.89,35,7.27s3.32-3.73.4-2.48S27.2,8.8,27.2,8.8Z" transform="translate(0 0)"/><path class="b" d="M19.8,29.32a15.73,15.73,0,0,0-6.15,1.23,6.53,6.53,0,0,0-3.08,2.71h0a1.3,1.3,0,0,0-.16.48,1.11,1.11,0,0,0,1,1.2h.09a2.19,2.19,0,0,0,1.75-1A13,13,0,0,1,15.49,32a8.74,8.74,0,0,1,4-1.72C22,30.1,21.05,29.27,19.8,29.32Z" transform="translate(0 0)"/><path class="a" d="M41,11.38l-2.11.93C34.43,14.2,30,16.15,25.51,18a1.58,1.58,0,0,0-1.18,1.91c.45,9.46.19,2.07.56,11.53a6.3,6.3,0,0,1-2.41,5.34,12.17,12.17,0,0,1-5.1,2.58,10.35,10.35,0,0,1-3.26.2A5,5,0,0,1,9.63,36.3a4.92,4.92,0,0,1,1.07-5.42,14.88,14.88,0,0,1,1.16-1.1,10.79,10.79,0,0,1,8.76-2.49l.56.1s.07,0,.2,0l-.55-10.71q0-.31-.06-.66c-.18-1.86-.14-3.74-.27-5.6a1,1,0,0,1,.77-1.19c2.05-.85,4.1-1.68,6.1-2.63,2.67-1.28,5.31-2.63,7.94-4Q29.65-.27,20.42.36L16.19.71c-.73.1-1.71.18-2.92.27q-8.64.6-13.15.71A12.2,12.2,0,0,0,0,4.05,20.59,20.59,0,0,0,.47,6.76a5.36,5.36,0,0,1,2.86.65,3,3,0,0,1,.94,2.36A18.74,18.74,0,0,1,4.1,13l-2,20c-.09,1-.19,1.88-.29,2.65-.05.43-.11.82-.17,1.17a8.13,8.13,0,0,0,.09,1.9,8,8,0,0,0,5,6.14h0s1.85,1.47,12.6-.34h0l.26,0A22.44,22.44,0,0,0,24,43.48a38.74,38.74,0,0,0,8.65-4,15.79,15.79,0,0,0,2.72-2.1,9.36,9.36,0,0,1-1.28-.08,5.09,5.09,0,0,1-3.19-8.72,10.91,10.91,0,0,1,10-3.32l.46.09.09,0a1.17,1.17,0,0,0,.21,0c0-.48,0-1,.06-1.45,0-.18,0-.36,0-.55,0-3.16-.17-7.64-.41-12.19Z" transform="translate(0 0)"/></svg>