<svg xmlns="http://www.w3.org/2000/svg" viewBox="0 0 254.6 67.04"><defs><style>.a{fill:aqua;}.b{fill:blue;}.c{fill:#ff0;}.d{fill:red;}.e{fill:#e31c24;}.f{fill:#39ab4a;}.g{fill:#008845;}.h{fill:#f0f;}.i{fill:#e75a24;}.j{fill:lime;}.k{fill:#ed891e;}.l{fill:#22ab73;}.m{fill:#231f20;}.n{opacity:0.24;}.o{fill:#e41e79;}.p{fill:#662d88;}.q{fill:#e41c24;}.r{fill:#29a2d9;}.s{fill:#39ac4a;}.t{fill:#430098;}.u{fill:#ffb819;}</style></defs><title>dart-buble-navbar</title><path class="a" d="M68.26,10.89c1.32.42,2.62.13,2.9-.66S70.6,8.45,69.28,8s-2.62-.13-2.9.66S66.94,10.46,68.26,10.89Zm-.12-2.65c.43-.2,1.06.18,1.41.85s.28,1.38-.15,1.59S68.34,10.5,68,9.82,67.7,8.44,68.14,8.24Z" transform="translate(-2.48 0.01)"/><polygon class="b" points="67.98 23.04 68.81 24.03 73.08 18.39 72.26 17.4 67.98 23.04"/><polygon class="b" points="71.02 26.69 71.83 27.68 76.11 22.04 75.29 21.05 71.02 26.69"/><polygon class="b" points="74.35 27.43 73.88 27.78 67.86 20.54 68.34 20.19 74.35 27.43"/><polygon class="b" points="76.3 24.48 75.83 24.84 69.81 17.6 70.29 17.24 76.3 24.48"/><path class="b" d="M84,12l1.49.65-7.89-7a2.9,2.9,0,0,0,1.78-1.48c.65-1.17.55-2.43-.22-2.82s-1.93.24-2.58,1.41a2.24,2.24,0,0,0,0,2.67Z" transform="translate(-2.48 0.01)"/><path class="b" d="M83.9,11.28l1.53,1.36s-.14.22-.65.1c-2.91-.71-2.84,1.9-5.45.54-.18-.1-.08-.26.09-.21C81.73,13.85,81.29,11.34,83.9,11.28Z" transform="translate(-2.48 0.01)"/><path class="a" d="M68.26,10.89c1.32.42,2.62.13,2.9-.66S70.6,8.45,69.28,8s-2.62-.13-2.9.66S66.94,10.46,68.26,10.89Zm-.12-2.65c.43-.2,1.06.18,1.41.85s.28,1.38-.15,1.59S68.34,10.5,68,9.82,67.7,8.44,68.14,8.24Z" transform="translate(-2.48 0.01)"/><path class="b" d="M84,12l1.49.65-7.89-7a2.9,2.9,0,0,0,1.78-1.48c.65-1.17.55-2.43-.22-2.82s-1.93.24-2.58,1.41a2.24,2.24,0,0,0,0,2.67Z" transform="translate(-2.48 0.01)"/><path class="b" d="M83.9,11.28l1.53,1.36s-.14.22-.65.1c-2.91-.71-2.84,1.9-5.45.54-.18-.1-.08-.26.09-.21C81.73,13.85,81.29,11.34,83.9,11.28Z" transform="translate(-2.48 0.01)"/><polygon class="c" points="45.54 8.89 45.37 8.47 43.3 9.93 43.47 10.34 45.54 8.89"/><polygon class="c" points="44.93 7.35 44.77 6.94 42.7 8.39 42.86 8.81 44.93 7.35"/><polygon class="c" points="43.9 6.76 44.1 6.7 45.3 9.73 45.1 9.81 43.9 6.76"/><polygon class="c" points="42.91 7.56 43.11 7.48 44.31 10.53 44.11 10.6 42.91 7.56"/><path class="d" d="M35.51,17.16l.32.18,4.06-6.43a2.14,2.14,0,0,0,1.39,1c1,.27,1.91,0,2.09-.58S42.89,10,41.92,9.77a1.86,1.86,0,0,0-2,.42Z" transform="translate(-2.48 0.01)"/><path class="d" d="M41.63,19l.33.18,4-6.43a2.2,2.2,0,0,0,1.39,1c1,.26,1.92,0,2.09-.58S49,11.84,48,11.58A1.86,1.86,0,0,0,46,12Z" transform="translate(-2.48 0.01)"/><polygon class="d" points="33.99 15.66 40.44 17.65 39.36 19.36 32.91 17.37 33.99 15.66"/><path class="a" d="M38.73,22.63c.89.47,1.86.41,2.17-.13s-.17-1.34-1.06-1.8-1.87-.4-2.18.13S37.83,22.17,38.73,22.63ZM39,20.72c.33-.1.74.25.9.78s0,1-.32,1.12-.74-.26-.9-.78S38.65,20.81,39,20.72Z" transform="translate(-2.48 0.01)"/><path class="a" d="M49.92,22l.31.1,2.3-6.13a1.88,1.88,0,0,0,1.36.61c.88.07,1.62-.3,1.67-.83s-.63-1-1.51-1.07a1.58,1.58,0,0,0-1.64.68C52.35,15.5,49.92,22,49.92,22Z" transform="translate(-2.48 0.01)"/><path class="a" d="M42.93,5.83l.41-.72L39.17,8.74a1.46,1.46,0,0,0-.75-.94c-.61-.38-1.31-.38-1.55,0s.05,1,.66,1.34A1.35,1.35,0,0,0,39,9.24Z" transform="translate(-2.48 0.01)"/><path class="a" d="M42.53,5.82l.81-.71s.12.09,0,.33c-.51,1.42.93,1.5.07,2.74-.06.09-.15,0-.11-.06C43.86,7,42.46,7.12,42.53,5.82Z" transform="translate(-2.48 0.01)"/><path class="b" d="M50.13,23.85l1,.63-4.75-5.94a2.17,2.17,0,0,0,1.47-.86c.62-.76.71-1.68.21-2s-1.42-.05-2,.71a1.62,1.62,0,0,0-.34,1.92Z" transform="translate(-2.48 0.01)"/><path class="b" d="M50.18,23.33l.93,1.15s-.14.15-.48,0c-2-.85-2.3,1-4-.26-.11-.09,0-.19.1-.13C48.29,24.92,48.3,23.06,50.18,23.33Z" transform="translate(-2.48 0.01)"/><path class="b" d="M74.77,2.93l-.19,0L75.4,6.8a1.17,1.17,0,0,0-.9.08c-.48.23-.74.64-.59.92s.65.34,1.13.11.68-.55.62-.83C75.63,7,74.77,2.93,74.77,2.93Z" transform="translate(-2.48 0.01)"/><path class="b" d="M71.75,4.28l-.2,0,.82,3.82a1.22,1.22,0,0,0-.9.09c-.47.23-.73.64-.59.92s.66.33,1.13.11.68-.56.62-.83C72.61,8.32,71.75,4.28,71.75,4.28Z" transform="translate(-2.48 0.01)"/><polygon class="b" points="72.49 3.85 69.27 5.23 69.06 4.21 72.27 2.83 72.49 3.85"/><path class="e" d="M78.77,10.14V9.71l-9.54.3a2.38,2.38,0,0,0,.13-2c-.36-1.12-1.25-1.85-2-1.64s-1,1.3-.69,2.41,1.07,1.7,1.76,1.68Z" transform="translate(-2.48 0.01)"/><path class="f" d="M51.9,4.8l-.66-.44,3.14,4.09a1.49,1.49,0,0,0-1,.56c-.43.51-.51,1.13-.17,1.39s1,.06,1.39-.45a1.12,1.12,0,0,0,.26-1.3Z" transform="translate(-2.48 0.01)"/><path class="f" d="M51.85,5.15l-.61-.79s.09-.1.33,0c1.34.6,1.57-.68,2.7.22.08.07,0,.14-.06.09C53.16,4.1,53.12,5.36,51.85,5.15Z" transform="translate(-2.48 0.01)"/><path class="c" d="M64,9.42l.58-1.08-6,5.59a2.19,2.19,0,0,0-1.15-1.38c-.94-.53-2-.51-2.33,0s.12,1.44,1.06,2a2,2,0,0,0,2.2.1Z" transform="translate(-2.48 0.01)"/><path class="c" d="M63.43,9.43,64.6,8.34s.18.12.06.49C64,11,66.12,11,64.89,12.9c-.08.14-.21,0-.16-.07C65.46,11.14,63.38,11.37,63.43,9.43Z" transform="translate(-2.48 0.01)"/><path class="c" d="M62.27,10.5l1.17-1.09s.18.12.06.49C62.81,12,65,12.09,63.73,14c-.08.13-.21,0-.16-.08C64.3,12.21,62.22,12.44,62.27,10.5Z" transform="translate(-2.48 0.01)"/><path class="g" d="M50,7c-.5-.44-1.14-.56-1.44-.26s-.13.9.37,1.35,1.14.57,1.44.27S50.47,7.4,50,7Zm-.51,1.22c-.24,0-.44-.29-.45-.66s.17-.68.4-.68.44.28.45.65S49.69,8.16,49.46,8.17Z" transform="translate(-2.48 0.01)"/><path class="h" d="M67,22.81l.28-.21-4.72-5.54a2.06,2.06,0,0,0,1.37-.86c.57-.74.63-1.62.14-2s-1.35,0-1.92.73a1.56,1.56,0,0,0-.27,1.84Z" transform="translate(-2.48 0.01)"/><path class="h" d="M70.67,18.28l.28-.22-4.73-5.54a2.05,2.05,0,0,0,1.38-.86c.57-.74.63-1.62.14-2s-1.36,0-1.92.73a1.54,1.54,0,0,0-.27,1.84Z" transform="translate(-2.48 0.01)"/><polygon class="h" points="59.69 26.11 67.36 16.77 68.61 18.24 60.94 27.58 59.69 26.11"/><path class="h" d="M63.27,27.4l.28-.22-4.72-5.54a2.07,2.07,0,0,0,1.38-.86c.57-.74.63-1.62.13-2s-1.35,0-1.92.73a1.54,1.54,0,0,0-.26,1.84Z" transform="translate(-2.48 0.01)"/><path class="i" d="M59.24,7.74h.23l0-4.71a1.42,1.42,0,0,0,1.08.09c.62-.16,1-.59.93-1s-.7-.54-1.31-.38-.94.51-.94.85C59.2,2.77,59.24,7.74,59.24,7.74Z" transform="translate(-2.48 0.01)"/><path class="i" d="M63.15,6.81h.23l0-4.71a1.44,1.44,0,0,0,1.09.09c.61-.16,1-.59.92-1S64.67.69,64.05.85s-.94.51-.94.85C63.11,1.84,63.15,6.81,63.15,6.81Z" transform="translate(-2.48 0.01)"/><polygon class="i" points="56.75 6.65 60.9 5.72 60.91 6.97 56.76 7.9 56.75 6.65"/><path class="j" d="M66.83,4.59l.09.06,1.27-1.79a.6.6,0,0,0,.38.3c.28.09.55,0,.61-.14s-.11-.37-.39-.46a.54.54,0,0,0-.59.09Z" transform="translate(-2.48 0.01)"/><path class="j" d="M68.54,5.2l.09.06L69.9,3.47a.6.6,0,0,0,.38.3c.28.09.55,0,.61-.14s-.11-.37-.39-.46a.54.54,0,0,0-.59.09Z" transform="translate(-2.48 0.01)"/><polygon class="j" points="62.92 3.57 66.45 4.85 66.11 5.33 62.58 4.04 62.92 3.57"/><path class="j" d="M65.1,4l.09.05,1.27-1.79a.6.6,0,0,0,.38.3c.28.09.55,0,.61-.13s-.11-.38-.39-.47a.54.54,0,0,0-.59.09Z" transform="translate(-2.48 0.01)"/><path class="c" d="M70.94,9l-.3,0L70,14.84a1.76,1.76,0,0,0-1.34-.27c-.79.12-1.37.6-1.3,1.08s.79.76,1.58.64,1.25-.5,1.3-.93C70.23,15.2,70.94,9,70.94,9Z" transform="translate(-2.48 0.01)"/><polygon class="h" points="48.45 15.46 48.14 15.3 47.7 17.07 48 17.23 48.45 15.46"/><polygon class="h" points="47.33 14.87 47.03 14.71 46.59 16.47 46.89 16.63 47.33 14.87"/><polygon class="h" points="46.45 15 46.53 14.87 48.73 16.05 48.66 16.18 46.45 15"/><polygon class="h" points="46.29 15.9 46.37 15.77 48.57 16.95 48.49 17.08 46.29 15.9"/><path class="a" d="M57.53,6.46,58,6.4l-2.74-.46a.69.69,0,0,0,.17-.56c0-.33-.24-.59-.47-.58s-.38.31-.35.65A.6.6,0,0,0,55,6Z" transform="translate(-2.48 0.01)"/><path class="a" d="M57.42,6.31,58,6.4s0,.07-.13.11c-.73.24-.33.79-1.1.85,0,0-.06-.05,0-.06C57.32,7.16,56.86,6.67,57.42,6.31Z" transform="translate(-2.48 0.01)"/><path class="a" d="M56.89,6.23l.53.08s0,.07-.12.11c-.74.24-.34.8-1.11.85,0,0,0,0,0-.06C56.8,7.07,56.33,6.59,56.89,6.23Z" transform="translate(-2.48 0.01)"/><path class="k" d="M57.75,10.69c.73-.33,1.15-.94.93-1.38s-1-.53-1.71-.2-1.15,1-.93,1.38S57,11,57.75,10.69Zm-1.17-1c.1-.25.52-.34,1-.19s.7.47.61.72-.52.33-1,.18S56.49,9.88,56.58,9.64Z" transform="translate(-2.48 0.01)"/><path class="b" d="M58.77.48,53,3.06a1.64,1.64,0,0,0-.47-1.25C52,1.22,51.29,1,50.9,1.31s-.28,1.06.25,1.65a1.5,1.5,0,0,0,1.54.58L58.9.74ZM51.54,2.74c-.48-.34-.73-.79-.56-1s.7-.11,1.18.23.73.79.56,1S52,3.08,51.54,2.74Z" transform="translate(-2.48 0.01)"/><path class="f" d="M212.35,9.11l.88.51-4.35-4.93a1.88,1.88,0,0,0,1.23-.8c.5-.68.54-1.47.09-1.77s-1.22,0-1.72.68a1.4,1.4,0,0,0-.21,1.67Z" transform="translate(-2.48 0.01)"/><path class="f" d="M212.38,8.66l.85,1s-.12.13-.42,0c-1.76-.65-1.93,1-3.45-.06-.1-.08,0-.17.08-.12C210.82,10.11,210.75,8.5,212.38,8.66Z" transform="translate(-2.48 0.01)"/><path class="j" d="M87.6,1.44l-.12-.06L86,3.75a.8.8,0,0,0-.52-.35c-.36-.09-.7,0-.76.22s.18.47.54.56A.7.7,0,0,0,86,4Z" transform="translate(-2.48 0.01)"/><path class="j" d="M85.37.81,85.25.75,83.81,3.12a.8.8,0,0,0-.52-.35c-.36-.09-.7,0-.76.22s.18.47.54.56a.68.68,0,0,0,.73-.16Z" transform="translate(-2.48 0.01)"/><polygon class="j" points="87.03 2.66 82.44 1.32 82.82 0.69 87.41 2.03 87.03 2.66"/><path class="j" d="M89.84,2.09,89.73,2,88.28,4.4A.84.84,0,0,0,87.76,4c-.36-.09-.7,0-.76.23s.18.46.54.55a.68.68,0,0,0,.74-.16C88.31,4.59,89.84,2.09,89.84,2.09Z" transform="translate(-2.48 0.01)"/><path class="l" d="M86.16,14.82h.38l.31-7.52a2.25,2.25,0,0,0,1.73.23c1-.21,1.69-.87,1.54-1.46s-1.06-.91-2.05-.7-1.54.74-1.57,1.29C86.49,6.88,86.16,14.82,86.16,14.82Z" transform="translate(-2.48 0.01)"/><path class="m" d="M95.39,7.7c-.76.07-1.33.49-1.29.94s.69.77,1.45.7,1.33-.49,1.29-.94S96.15,7.64,95.39,7.7ZM96.07,9c-.17.19-.57.13-.91-.13s-.46-.63-.29-.82.57-.14.9.13S96.23,8.8,96.07,9Z" transform="translate(-2.48 0.01)"/><path class="b" d="M89.58,9.37l7-3.73a2.06,2.06,0,0,0,.7,1.54c.73.71,1.7.93,2.17.5s.26-1.36-.47-2.07A1.87,1.87,0,0,0,97,5l-7.62,4Zm9-3.45c.63.4,1,1,.79,1.23s-.88.19-1.51-.2-1-1-.8-1.23S97.9,5.53,98.54,5.92Z" transform="translate(-2.48 0.01)"/><g class="n"><polygon class="c" points="107.06 49.25 107.1 49.94 110.86 48.66 110.82 47.98 107.06 49.25"/><polygon class="c" points="107.23 51.78 107.27 52.47 111.03 51.19 110.99 50.51 107.23 51.78"/><polygon class="c" points="108.48 53.09 108.15 53.11 107.82 48.09 108.15 48.08 108.48 53.09"/><polygon class="c" points="110.32 52.35 109.99 52.37 109.66 47.35 109.98 47.33 110.32 52.35"/><path class="d" d="M132,42.31l-.4-.42-9.06,7.8a3.14,3.14,0,0,0-1.59-2c-1.33-.82-2.84-.83-3.38,0s.1,2.1,1.42,2.91,2.53.8,3.19.24Z" transform="translate(-2.48 0.01)"/><path class="d" d="M123.77,37l-.39-.42-9.06,7.81a3.22,3.22,0,0,0-1.6-2.06c-1.32-.81-2.83-.82-3.37,0s.1,2.09,1.43,2.91,2.52.81,3.18.24Z" transform="translate(-2.48 0.01)"/><polygon class="d" points="127.39 44.15 118.78 38.44 121.18 36.37 129.8 42.08 127.39 44.15"/><path class="a" d="M129.83,32.81c-1.11-1.06-2.58-1.39-3.29-.73s-.38,2.06.72,3.13,2.58,1.4,3.28.73S130.93,33.88,129.83,32.81Zm-1.3,2.74c-.54,0-1-.7-1-1.55s.45-1.53,1-1.52,1,.69,1,1.54S129.07,35.55,128.53,35.55Z" transform="translate(-2.48 0.01)"/><path class="a" d="M112.91,29l-.41-.29-6.3,8.1a2.88,2.88,0,0,0-1.73-1.48c-1.27-.48-2.56-.25-2.88.51s.46,1.77,1.73,2.24a2.54,2.54,0,0,0,2.76-.3C106.25,37.56,112.91,29,112.91,29Z" transform="translate(-2.48 0.01)"/><path class="a" d="M115.63,55.93l-1,.88,7.91-3.59a2.21,2.21,0,0,0,.65,1.72c.74.81,1.77,1.12,2.31.68s.39-1.46-.35-2.27a2.06,2.06,0,0,0-2.13-.8Z" transform="translate(-2.48 0.01)"/><path class="a" d="M116.21,56.11l-1.54.7s-.13-.17.11-.5c1.44-1.89-.67-2.61,1.2-4.09.13-.1.23,0,.14.13C114.81,53.78,116.94,54.22,116.21,56.11Z" transform="translate(-2.48 0.01)"/><polygon class="b" points="131.62 19.5 131.32 18.11 123.99 21.74 124.29 23.14 131.62 19.5"/><polygon class="b" points="130.51 14.36 130.21 12.96 122.88 16.59 123.18 17.99 130.51 14.36"/><polygon class="b" points="127.54 12 128.21 11.87 130.41 22.09 129.74 22.21 127.54 12"/><polygon class="b" points="124 14.03 124.67 13.91 126.86 24.12 126.19 24.25 124 14.03"/><path class="b" d="M113.5,26.14l-1.16-1.37,4.23,10.85a3.47,3.47,0,0,0-2.59.64c-1.28.86-1.85,2.18-1.28,3s2.07.69,3.35-.17,1.73-1.92,1.42-2.71Z" transform="translate(-2.48 0.01)"/><path class="b" d="M113.17,26.88l-.82-2.11s.27-.15.71.21c2.56,2.12,3.89-.55,5.8,2.09.13.19-.07.3-.21.17C116.74,25.33,115.83,28.08,113.17,26.88Z" transform="translate(-2.48 0.01)"/><path class="b" d="M67.05,46.59l.3,0,.61-6a1.78,1.78,0,0,0,1.37.26c.81-.13,1.4-.63,1.31-1.12S69.83,39,69,39.09s-1.27.53-1.32,1C67.69,40.23,67.05,46.59,67.05,46.59Z" transform="translate(-2.48 0.01)"/><path class="b" d="M72.17,45.89l.3,0,.61-6a1.78,1.78,0,0,0,1.37.25c.81-.13,1.4-.62,1.31-1.11s-.81-.77-1.62-.64-1.27.53-1.32,1C72.81,39.53,72.17,45.89,72.17,45.89Z" transform="translate(-2.48 0.01)"/><polygon class="b" points="64.72 45.18 70.14 44.51 69.98 46.11 64.56 46.78 64.72 45.18"/><path class="e" d="M64.54,34.19l-.19.65,14.29,3.64a3.76,3.76,0,0,0-1.15,2.89c0,1.81,1,3.28,2.18,3.28s2.17-1.47,2.17-3.28c0-1.63-.79-3-1.82-3.24Z" transform="translate(-2.48 0.01)"/><path class="f" d="M101.84,53.6l.77.95-2.72-7.41a2.36,2.36,0,0,0,1.77-.41c.88-.56,1.29-1.45.91-2s-1.39-.49-2.27.07-1.2,1.29-1,1.82C99.37,46.85,101.84,53.6,101.84,53.6Z" transform="translate(-2.48 0.01)"/><path class="f" d="M102.08,53.1l.53,1.45s-.19.1-.48-.16c-1.71-1.47-2.65.33-3.9-1.49-.09-.12,0-.2.13-.1C99.64,54.11,100.29,52.26,102.08,53.1Z" transform="translate(-2.48 0.01)"/><path class="c" d="M86.07,41.57l-1.38,1.35,11.6-5.69a3.33,3.33,0,0,0,1.06,2.54c1.13,1.18,2.69,1.59,3.47.91s.5-2.18-.63-3.37S97.82,35.82,97,36.23Z" transform="translate(-2.48 0.01)"/><path class="c" d="M87,41.81l-2.26,1.11s-.21-.25.14-.75c2-2.87-1.12-3.86,1.59-6.14.19-.15.34,0,.21.19C84.74,38.4,87.94,39,87,41.81Z" transform="translate(-2.48 0.01)"/><path class="c" d="M89.17,40.72l-2.26,1.11s-.21-.25.15-.75c2-2.87-1.13-3.86,1.58-6.14.19-.16.35,0,.21.19C87,37.31,90.17,37.87,89.17,40.72Z" transform="translate(-2.48 0.01)"/><path class="g" d="M105.72,51.24c.53.88,1.43,1.33,2,1s.63-1.28.09-2.16-1.43-1.32-2-1S105.19,50.37,105.72,51.24Zm1.34-1.57c.35.09.51.61.35,1.16s-.57.93-.92.84-.52-.61-.36-1.16S106.71,49.58,107.06,49.67Z" transform="translate(-2.48 0.01)"/><path class="d" d="M88,20.45l-.52.19,4.38,10.24a3.28,3.28,0,0,0-2.45.68c-1.2.86-1.7,2.14-1.14,2.85s2,.6,3.2-.26,1.59-1.88,1.27-2.62Z" transform="translate(-2.48 0.01)"/><path class="d" d="M80.41,25.6l-.51.2L84.27,36a3.33,3.33,0,0,0-2.45.69c-1.2.86-1.7,2.14-1.14,2.85s2,.6,3.2-.26,1.59-1.88,1.27-2.62Z" transform="translate(-2.48 0.01)"/><polygon class="d" points="94.25 17.66 78.45 28.22 77.29 25.5 93.09 14.95 94.25 17.66"/><path class="d" d="M95.7,15.25l-.52.19,4.37,10.24a3.3,3.3,0,0,0-2.45.68c-1.19.86-1.7,2.14-1.13,2.85s2,.6,3.19-.26,1.59-1.88,1.28-2.62C100.31,26,95.7,15.25,95.7,15.25Z" transform="translate(-2.48 0.01)"/><path class="i" d="M92.36,46.11,92,46l-2.19,7a2.18,2.18,0,0,0-1.56-.61c-1,0-1.81.44-1.83,1s.78,1.1,1.77,1.12A1.78,1.78,0,0,0,90,53.7Z" transform="translate(-2.48 0.01)"/><path class="i" d="M86.12,45.81l-.35-.1-2.19,7a2.18,2.18,0,0,0-1.56-.6c-1,0-1.81.44-1.82,1S81,54.23,82,54.26a1.77,1.77,0,0,0,1.79-.86C83.82,53.2,86.12,45.81,86.12,45.81Z" transform="translate(-2.48 0.01)"/><polygon class="i" points="89.37 47.76 82.78 47.37 83.36 45.51 89.95 45.91 89.37 47.76"/><path class="j" d="M79.62,47.53l-.11-.13-2.73,2.12a1,1,0,0,0-.43-.62c-.37-.25-.8-.28-1-.06s0,.61.36.86a.83.83,0,0,0,.91.12Z" transform="translate(-2.48 0.01)"/><path class="j" d="M77.37,45.89l-.11-.12-2.73,2.11a.93.93,0,0,0-.43-.61c-.37-.25-.8-.28-1-.06s0,.6.36.86a.85.85,0,0,0,.92.12C74.48,48.12,77.37,45.89,77.37,45.89Z" transform="translate(-2.48 0.01)"/><polygon class="j" points="78.77 49.7 74.14 46.28 74.87 45.72 79.49 49.13 78.77 49.7"/><path class="j" d="M81.89,49.18l-.11-.12-2.73,2.11a1,1,0,0,0-.43-.61c-.37-.25-.8-.28-1-.06s0,.61.36.86a.85.85,0,0,0,.92.12Z" transform="translate(-2.48 0.01)"/><path class="c" d="M75.6,39.26l.43.17L79.81,31a2.68,2.68,0,0,0,1.86,1c1.24.17,2.32-.3,2.43-1s-.79-1.48-2-1.64a2.26,2.26,0,0,0-2.37.82C79.6,30.35,75.6,39.26,75.6,39.26Z" transform="translate(-2.48 0.01)"/><polygon class="h" points="105.87 38.25 106.24 38.62 107.73 36.2 107.36 35.83 105.87 38.25"/><polygon class="h" points="107.23 39.61 107.6 39.98 109.09 37.56 108.72 37.19 107.23 39.61"/><polygon class="h" points="108.61 39.79 108.43 39.95 105.72 37.26 105.89 37.1 108.61 39.79"/><polygon class="h" points="109.27 38.53 109.09 38.7 106.38 36 106.56 35.84 109.27 38.53"/><path class="a" d="M94.28,48.74l-.65-.1,3.84,1.86a1.12,1.12,0,0,0-.51.75c-.11.52.07,1,.41,1.06s.72-.29.83-.81a.91.91,0,0,0-.31-1Z" transform="translate(-2.48 0.01)"/><path class="a" d="M94.38,49l-.74-.36s0-.11.23-.11c1.2,0,.87-1,2-.78.08,0,.06.09,0,.08C94.92,47.79,95.37,48.71,94.38,49Z" transform="translate(-2.48 0.01)"/><path class="a" d="M95.12,49.36,94.37,49s0-.1.24-.11c1.2,0,.87-1,2-.78.08,0,.06.1,0,.09C95.65,48.14,96.11,49.07,95.12,49.36Z" transform="translate(-2.48 0.01)"/><path class="k" d="M96,42.37c-1.24.17-2.15.91-2,1.65s1.21,1.2,2.45,1,2.14-.91,2-1.65S97.19,42.2,96,42.37Zm1.23,2.07c-.26.33-.93.27-1.5-.13s-.81-1-.55-1.33.92-.26,1.49.14S97.45,44.11,97.19,44.44Z" transform="translate(-2.48 0.01)"/></g><polygon class="c" points="181.89 40.55 181.97 41.62 187.84 39.63 187.76 38.56 181.89 40.55"/><polygon class="c" points="182.16 44.51 182.23 45.58 188.1 43.59 188.03 42.52 182.16 44.51"/><polygon class="c" points="184.12 46.56 183.61 46.59 183.08 38.74 183.59 38.72 184.12 46.56"/><polygon class="c" points="186.99 45.39 186.48 45.42 185.95 37.58 186.46 37.55 186.99 45.39"/><path class="a" d="M216.07,14.88c-1.72-1.67-4-2.18-5.13-1.15s-.6,3.22,1.12,4.89,4,2.18,5.13,1.15S217.8,16.55,216.07,14.88Zm-2,4.27c-.85,0-1.53-1.09-1.52-2.41s.71-2.4,1.56-2.39,1.53,1.09,1.51,2.41S214.9,19.16,214.05,19.15Z" transform="translate(-2.48 0.01)"/><path class="a" d="M189.65,8.94,189,8.49l-9.85,12.65a4.49,4.49,0,0,0-2.71-2.32c-2-.74-4-.38-4.49.81s.72,2.75,2.71,3.5c1.78.67,3.59.44,4.3-.47C179.24,22.29,189.65,8.94,189.65,8.94Z" transform="translate(-2.48 0.01)"/><path class="a" d="M193.89,51l-1.49,1.37,12.35-5.61a3.44,3.44,0,0,0,1,2.68c1.15,1.28,2.77,1.76,3.61,1.07s.6-2.28-.55-3.55-2.43-1.64-3.33-1.24Z" transform="translate(-2.48 0.01)"/><path class="a" d="M194.8,51.28l-2.4,1.09s-.21-.27.17-.78c2.24-3-1-4.08,1.87-6.39.21-.16.37,0,.21.2C192.61,47.64,195.94,48.32,194.8,51.28Z" transform="translate(-2.48 0.01)"/><path class="b" d="M190.57,4.45l-1.81-2.13,6.61,16.94a5.47,5.47,0,0,0-4.05,1c-2,1.35-2.9,3.41-2,4.61s3.23,1.07,5.23-.27c1.8-1.21,2.7-3,2.22-4.22C196.59,19.9,190.57,4.45,190.57,4.45Z" transform="translate(-2.48 0.01)"/><path class="b" d="M190.05,5.61l-1.29-3.29s.43-.24,1.11.33c4,3.31,6.08-.87,9.07,3.26.2.29-.1.47-.32.26C195.63,3.19,194.21,7.48,190.05,5.61Z" transform="translate(-2.48 0.01)"/><path class="b" d="M118,36.4l.47,0,1-9.41a2.82,2.82,0,0,0,2.14.4c1.26-.2,2.18-1,2-1.74s-1.27-1.2-2.53-1-2,.83-2.06,1.51C119,26.47,118,36.4,118,36.4Z" transform="translate(-2.48 0.01)"/><path class="b" d="M126,35.3l.48,0,1-9.41a2.82,2.82,0,0,0,2.14.4c1.26-.2,2.18-1,2.05-1.74s-1.27-1.2-2.54-1-2,.83-2,1.51C127,25.37,126,35.3,126,35.3Z" transform="translate(-2.48 0.01)"/><polygon class="b" points="115.74 34.2 124.22 33.15 123.97 35.64 115.49 36.7 115.74 34.2"/><path class="e" d="M114.07,17l-.29,1,22.33,5.68a5.81,5.81,0,0,0-1.79,4.52c0,2.82,1.52,5.12,3.39,5.12s3.4-2.3,3.4-5.13c0-2.54-1.23-4.64-2.84-5Z" transform="translate(-2.48 0.01)"/><path class="f" d="M172.35,47.36l1.2,1.48-4.24-11.58a3.73,3.73,0,0,0,2.76-.63c1.38-.89,2-2.28,1.43-3.1s-2.18-.77-3.56.12-1.87,2-1.56,2.83Z" transform="translate(-2.48 0.01)"/><path class="f" d="M172.72,46.58l.83,2.26s-.29.15-.75-.24c-2.67-2.3-4.14.51-6.1-2.34-.13-.2.07-.31.22-.16C168.91,48.16,169.93,45.26,172.72,46.58Z" transform="translate(-2.48 0.01)"/><path class="c" d="M147.71,28.57l-2.16,2.1,18.13-8.89a5.18,5.18,0,0,0,1.65,4c1.77,1.85,4.2,2.49,5.43,1.44s.78-3.42-1-5.27c-1.6-1.66-3.72-2.34-5-1.69Z" transform="translate(-2.48 0.01)"/><path class="c" d="M149.08,28.94l-3.53,1.73s-.32-.4.23-1.17c3.19-4.48-1.76-6,2.48-9.59.29-.24.54,0,.32.29C145.64,23.61,150.64,24.48,149.08,28.94Z" transform="translate(-2.48 0.01)"/><path class="c" d="M152.56,27.24,149,29s-.33-.4.22-1.17c3.19-4.49-1.76-6,2.49-9.6.29-.24.54,0,.32.29C149.12,21.91,154.11,22.78,152.56,27.24Z" transform="translate(-2.48 0.01)"/><path class="g" d="M178.41,43.67c.83,1.37,2.23,2.08,3.14,1.58s1-2,.15-3.37-2.24-2.08-3.14-1.58S177.59,42.31,178.41,43.67Zm2.09-2.46c.55.14.8,1,.56,1.82s-.89,1.45-1.45,1.31-.8-1-.56-1.82S180,41.07,180.5,41.21Z" transform="translate(-2.48 0.01)"/><path class="i" d="M157.54,35.65l-.55-.16-3.42,10.95a3.36,3.36,0,0,0-2.44-.95c-1.55,0-2.83.68-2.85,1.61s1.21,1.71,2.76,1.74c1.39,0,2.55-.54,2.8-1.33C153.94,47.2,157.54,35.65,157.54,35.65Z" transform="translate(-2.48 0.01)"/><path class="i" d="M147.8,35.19l-.56-.16L143.83,46a3.44,3.44,0,0,0-2.45-.95c-1.54,0-2.82.69-2.85,1.61s1.21,1.71,2.76,1.75c1.39,0,2.56-.55,2.8-1.34Z" transform="translate(-2.48 0.01)"/><polygon class="i" points="154.27 38.23 143.97 37.61 144.87 34.71 155.17 35.33 154.27 38.23"/><path class="j" d="M137.63,37.87l-.17-.2L133.19,41a1.44,1.44,0,0,0-.66-1c-.58-.39-1.26-.43-1.52-.09s0,.95.57,1.34a1.28,1.28,0,0,0,1.42.18Z" transform="translate(-2.48 0.01)"/><path class="j" d="M134.12,35.32l-.17-.2-4.27,3.3a1.47,1.47,0,0,0-.67-1c-.57-.39-1.25-.43-1.52-.09s0,1,.57,1.34a1.31,1.31,0,0,0,1.43.19Z" transform="translate(-2.48 0.01)"/><polygon class="j" points="137.7 41.25 130.47 35.91 131.6 35.03 138.83 40.37 137.7 41.25"/><path class="j" d="M141.18,40.46l-.17-.2-4.27,3.31a1.44,1.44,0,0,0-.66-1c-.58-.4-1.26-.44-1.52-.1s0,1,.56,1.34a1.33,1.33,0,0,0,1.43.19Z" transform="translate(-2.48 0.01)"/><path class="c" d="M131.36,25l.67.26L137.94,12a4.19,4.19,0,0,0,2.9,1.51c1.93.26,3.63-.46,3.8-1.62s-1.25-2.3-3.17-2.55c-1.73-.24-3.28.33-3.7,1.28Z" transform="translate(-2.48 0.01)"/><path class="l" d="M124.85,62.55l.66.27,5.91-13.19a4.14,4.14,0,0,0,2.91,1.51c1.92.26,3.62-.46,3.8-1.62S136.88,47.23,135,47c-1.73-.23-3.27.33-3.7,1.29Z" transform="translate(-2.48 0.01)"/><polygon class="h" points="180.04 23.37 180.61 23.95 182.94 20.16 182.37 19.59 180.04 23.37"/><polygon class="h" points="182.17 25.5 182.75 26.07 185.07 22.28 184.5 21.71 182.17 25.5"/><polygon class="h" points="184.31 25.77 184.03 26.02 179.8 21.82 180.08 21.56 184.31 25.77"/><polygon class="h" points="185.35 23.81 185.08 24.06 180.84 19.85 181.12 19.6 185.35 23.81"/><path class="a" d="M160.54,39.76l-1-.15,6,2.9a1.71,1.71,0,0,0-.8,1.18c-.18.81.1,1.55.64,1.66s1.12-.46,1.29-1.27a1.4,1.4,0,0,0-.48-1.6Z" transform="translate(-2.48 0.01)"/><path class="a" d="M160.7,40.18l-1.17-.57s.05-.16.37-.17c1.88,0,1.36-1.6,3.18-1.21.13,0,.09.14,0,.13C161.54,38.28,162.25,39.71,160.7,40.18Z" transform="translate(-2.48 0.01)"/><path class="a" d="M161.85,40.73l-1.17-.56s0-.16.37-.17c1.88,0,1.36-1.61,3.18-1.22.13,0,.09.15,0,.14C162.68,38.83,163.4,40.27,161.85,40.73Z" transform="translate(-2.48 0.01)"/><path class="k" d="M163.16,29.81c-1.94.27-3.35,1.43-3.18,2.58s1.89,1.88,3.82,1.61,3.35-1.43,3.17-2.58S165.09,29.54,163.16,29.81ZM165.09,33c-.41.52-1.45.42-2.34-.21s-1.28-1.55-.87-2.06,1.44-.42,2.33.21S165.49,32.53,165.09,33Z" transform="translate(-2.48 0.01)"/><path class="m" d="M146.35,55.8c-1.39-.36-2.72,0-3,.85s.69,1.81,2.08,2.18,2.72,0,3-.85S147.75,56.17,146.35,55.8Zm.29,2.74c-.43.24-1.11-.12-1.52-.8s-.37-1.42.06-1.65,1.11.12,1.52.8S147.07,58.31,146.64,58.54Z" transform="translate(-2.48 0.01)"/><path class="b" d="M134.81,55.05,150,52.91a3.82,3.82,0,0,0,.16,3.2c.8,1.72,2.36,2.74,3.5,2.27s1.44-2.25.65-4c-.71-1.55-2.05-2.52-3.14-2.36L134.7,54.36Zm18.41-.4c.86,1.11,1.11,2.32.55,2.7s-1.7-.22-2.56-1.33-1.1-2.33-.55-2.71S152.37,53.54,153.22,54.65Z" transform="translate(-2.48 0.01)"/><path class="d" d="M191.46,13l.18-.31-6.73-3.45A2,2,0,0,0,185.85,8c.23-.92-.08-1.77-.68-1.9s-1.28.49-1.51,1.4a1.61,1.61,0,0,0,.51,1.83Z" transform="translate(-2.48 0.01)"/><path class="d" d="M193,7.32l.18-.31-6.73-3.45a2,2,0,0,0,.94-1.33c.23-.9-.08-1.75-.68-1.89s-1.28.49-1.5,1.4a1.61,1.61,0,0,0,.5,1.84Z" transform="translate(-2.48 0.01)"/><polygon class="d" points="187.41 12.23 189.16 6.21 190.95 7.13 189.19 13.15 187.41 12.23"/><path class="a" d="M196.9,2.84c.44-.84.33-1.74-.22-2s-1.36.21-1.8,1-.33,1.73.23,2S196.47,3.68,196.9,2.84Zm-2-.16c-.11-.31.23-.69.75-.86s1.05-.07,1.16.24-.23.69-.76.86S195.05,3,194.94,2.68Z" transform="translate(-2.48 0.01)"/><path class="a" d="M179.6,26.69l-.74-.36L182.73,30a1.46,1.46,0,0,0-.93.72c-.35.58-.33,1.23.06,1.44s1-.09,1.34-.67a1.15,1.15,0,0,0,0-1.36Z" transform="translate(-2.48 0.01)"/><path class="a" d="M179.61,27.05l-.75-.71s.08-.12.33-.05c1.47.41,1.48-.92,2.79-.18.09.06,0,.14,0,.11C180.77,25.78,180.94,27.07,179.61,27.05Z" transform="translate(-2.48 0.01)"/><path class="a" d="M169.27,4.36c.41-.85.29-1.74-.27-2s-1.36.24-1.77,1.09-.3,1.74.27,2S168.85,5.21,169.27,4.36Zm-2-.12c-.12-.3.21-.7.74-.88s1-.08,1.16.22-.22.7-.74.88S167.42,4.54,167.3,4.24Z" transform="translate(-2.48 0.01)"/><path class="a" d="M151.9,1.53l-.75-.34,3.95,3.62a1.45,1.45,0,0,0-.91.74c-.34.58-.31,1.23.09,1.43s1-.11,1.32-.69a1.16,1.16,0,0,0,0-1.36Z" transform="translate(-2.48 0.01)"/><path class="a" d="M151.92,1.9l-.76-.7s.07-.12.33-.05C153,1.53,153,.2,154.27.91c.09.06,0,.14-.05.11C153.05.6,153.25,1.89,151.92,1.9Z" transform="translate(-2.48 0.01)"/><polygon class="b" points="174.94 5.82 175.73 5.35 171.88 2.07 171.09 2.54 174.94 5.82"/><polygon class="b" points="177.87 4.08 178.66 3.61 174.81 0.33 174.02 0.8 177.87 4.08"/><polygon class="b" points="178.67 1.91 178.89 2.25 173.08 5.72 172.86 5.37 178.67 1.91"/><polygon class="b" points="176.64 0.38 176.86 0.73 171.05 4.19 170.82 3.85 176.64 0.38"/><polygon class="c" points="127.98 8.47 127.87 8.89 130.36 8.81 130.47 8.39 127.98 8.47"/><polygon class="c" points="127.57 10.01 127.46 10.43 129.95 10.35 130.06 9.93 127.57 10.01"/><polygon class="c" points="128.05 11.02 127.85 10.97 128.66 7.92 128.86 7.97 128.05 11.02"/><polygon class="c" points="129.3 10.91 129.1 10.86 129.91 7.81 130.1 7.86 129.3 10.91"/><path class="d" d="M145.22,8.41l-.15-.32-7,3a1.94,1.94,0,0,0-.54-1.51c-.63-.72-1.53-1-2-.63s-.36,1.26.26,2a1.78,1.78,0,0,0,1.85.72Z" transform="translate(-2.48 0.01)"/><path class="d" d="M141.39,3.76l-.15-.32-7,3a2,2,0,0,0-.54-1.52c-.63-.72-1.52-1-2-.63s-.37,1.27.26,2a1.77,1.77,0,0,0,1.84.72Z" transform="translate(-2.48 0.01)"/><polygon class="d" points="141.11 9.12 137.13 4.16 138.97 3.36 142.96 8.33 141.11 9.12"/><path class="a" d="M145.83,2.36c-.44-.84-1.25-1.3-1.8-1s-.65,1.16-.2,2,1.25,1.3,1.8,1S146.28,3.19,145.83,2.36Zm-1.32,1.39c-.32-.1-.44-.59-.26-1.09s.57-.83.9-.73.44.59.26,1.09S144.84,3.85,144.51,3.75Z" transform="translate(-2.48 0.01)"/><path class="a" d="M130.53,1l-.19-.25L125,4.46a1.68,1.68,0,0,0-.73-1.19c-.66-.52-1.48-.62-1.82-.22s-.08,1.13.58,1.65a1.59,1.59,0,0,0,1.7.32Z" transform="translate(-2.48 0.01)"/><path class="a" d="M132.74,13.55l-.75.35,5.43-.7a1.35,1.35,0,0,0,.05,1.14c.27.62.82,1,1.23.82s.53-.8.25-1.41a1.24,1.24,0,0,0-1.11-.86Z" transform="translate(-2.48 0.01)"/><path class="a" d="M133.05,13.76,132,13.9s0-.13.17-.28c1.23-.86.12-1.67,1.53-2.21.1,0,.14.05.06.1C132.68,12.12,133.86,12.77,133.05,13.76Z" transform="translate(-2.48 0.01)"/><path class="f" d="M125,9.67l.26.7-.12-4.91a1.5,1.5,0,0,0,1.13.08c.64-.18,1.06-.63.94-1s-.73-.55-1.37-.37-1,.54-1,.9C124.88,5.2,125,9.67,125,9.67Z" transform="translate(-2.48 0.01)"/><path class="f" d="M125.24,9.41l0,1s-.13,0-.25-.18c-.73-1.19-1.64-.29-2-1.6,0-.09.07-.11.11,0C123.58,9.57,124.34,8.58,125.24,9.41Z" transform="translate(-2.48 0.01)"/><path class="g" d="M127.78,9c.14.62.58,1,1,1s.63-.65.49-1.27-.58-1-1-1S127.64,8.35,127.78,9Zm1.11-.69c.19.12.18.46,0,.76s-.53.44-.72.33-.18-.46,0-.76S128.7,8.15,128.89,8.27Z" transform="translate(-2.48 0.01)"/><path class="i" d="M120.86,3.48l-.19-.12L118,7.13a1.33,1.33,0,0,0-.81-.64c-.59-.19-1.17-.07-1.29.28s.24.79.82,1a1.15,1.15,0,0,0,1.24-.19C118,7.47,120.86,3.48,120.86,3.48Z" transform="translate(-2.48 0.01)"/><path class="i" d="M117.2,2.18,117,2.05,114.3,5.83a1.29,1.29,0,0,0-.81-.65c-.58-.19-1.16-.07-1.29.28s.24.79.83,1a1.16,1.16,0,0,0,1.24-.18C114.34,6.16,117.2,2.18,117.2,2.18Z" transform="translate(-2.48 0.01)"/><polygon class="i" points="117.75 4.38 113.9 2.95 114.62 1.95 118.46 3.38 117.75 4.38"/><path class="j" d="M113,2l0-.1-2,.77a.55.55,0,0,0-.13-.45c-.17-.21-.42-.31-.57-.21s-.12.36,0,.58a.49.49,0,0,0,.52.23Z" transform="translate(-2.48 0.01)"/><path class="j" d="M112,.64l0-.1-2.05.77a.55.55,0,0,0-.13-.45c-.17-.21-.42-.31-.57-.21s-.12.36,0,.58a.51.51,0,0,0,.52.23Z" transform="translate(-2.48 0.01)"/><polygon class="j" points="111.04 3.61 108.98 0.74 109.52 0.53 111.59 3.41 111.04 3.61"/><path class="j" d="M114,3.41l0-.09-2,.77a.55.55,0,0,0-.13-.45c-.17-.21-.42-.31-.56-.21s-.13.36,0,.58a.51.51,0,0,0,.52.23Z" transform="translate(-2.48 0.01)"/><path class="l" d="M104.94,9.94l.22.18,3.94-4.34a1.6,1.6,0,0,0,.92.91c.7.33,1.44.25,1.65-.17s-.18-1-.88-1.34a1.41,1.41,0,0,0-1.57.06C109.1,5.36,104.94,9.94,104.94,9.94Z" transform="translate(-2.48 0.01)"/><polygon class="h" points="129.48 1.71 129.62 2 131 0.82 130.85 0.54 129.48 1.71"/><polygon class="h" points="130.02 2.77 130.16 3.05 131.54 1.88 131.39 1.59 130.02 2.77"/><polygon class="h" points="130.8 3.12 130.66 3.18 129.59 1.09 129.72 1.02 130.8 3.12"/><polygon class="h" points="131.45 2.49 131.31 2.56 130.24 0.46 130.37 0.4 131.45 2.49"/><path class="a" d="M121.47,5.4l-.37-.18L123,7a.74.74,0,0,0-.46.36c-.17.29-.16.6,0,.71s.49-.05.66-.34a.54.54,0,0,0,0-.66Z" transform="translate(-2.48 0.01)"/><path class="a" d="M121.48,5.58l-.37-.36s0,0,.16,0c.72.2.72-.45,1.37-.09,0,0,0,.06,0,0C122,5,122.13,5.58,121.48,5.58Z" transform="translate(-2.48 0.01)"/><path class="a" d="M121.85,5.92l-.38-.35s0-.06.17,0c.72.2.72-.46,1.36-.1,0,0,0,.07,0,0C122.41,5.29,122.5,5.93,121.85,5.92Z" transform="translate(-2.48 0.01)"/><path class="k" d="M123.75,1.91c-.77-.12-1.46.15-1.54.62s.47.93,1.24,1.05S124.92,3.43,125,3,124.52,2,123.75,1.91Zm.32,1.45c-.22.15-.61,0-.87-.35s-.28-.74-.06-.89.6,0,.86.36S124.29,3.21,124.07,3.36Z" transform="translate(-2.48 0.01)"/><path class="m" d="M114,9.86c-.48-.3-1-.31-1.24,0s0,.77.52,1.08,1,.31,1.23,0S114.49,10.17,114,9.86Zm-.24,1.08c-.2,0-.41-.17-.47-.48s0-.59.23-.62.41.17.47.48S114,10.9,113.76,10.94Z" transform="translate(-2.48 0.01)"/><path class="b" d="M109.7,8.24l6.06.94a1.57,1.57,0,0,0-.35,1.24c.08.75.55,1.32,1,1.28s.84-.7.76-1.45A1.34,1.34,0,0,0,116.32,9l-6.57-1Zm7.07,2c.18.53.12,1-.14,1.1s-.62-.28-.8-.81-.12-1,.14-1.09S116.58,9.7,116.77,10.22Z" transform="translate(-2.48 0.01)"/><polygon class="c" points="99.75 31.27 99.78 31.7 102.12 30.88 102.09 30.45 99.75 31.27"/><polygon class="c" points="99.87 32.85 99.9 33.28 102.24 32.46 102.21 32.03 99.87 32.85"/><polygon class="c" points="100.67 33.66 100.46 33.68 100.21 30.54 100.42 30.53 100.67 33.66"/><polygon class="c" points="101.81 33.19 101.6 33.2 101.36 30.06 101.56 30.05 101.81 33.19"/><path class="j" d="M116.22,26.78l-.25-.26-5.61,4.94a2,2,0,0,0-1-1.27c-.84-.5-1.78-.5-2.12,0s.08,1.31.92,1.81a1.84,1.84,0,0,0,2,.13Z" transform="translate(-2.48 0.01)"/><path class="j" d="M111,23.52l-.25-.26-5.61,4.94a2,2,0,0,0-1-1.27c-.84-.5-1.78-.5-2.11,0s.07,1.31.91,1.81a1.84,1.84,0,0,0,2,.13Z" transform="translate(-2.48 0.01)"/><polygon class="j" points="112.42 27.95 107 24.43 108.48 23.13 113.91 26.64 112.42 27.95"/><path class="a" d="M114.79,20.86c-.7-.67-1.62-.86-2.06-.44s-.22,1.29.47,1.95,1.62.86,2.06.44S115.49,21.52,114.79,20.86ZM114,22.57c-.34,0-.61-.43-.62-1s.27-1,.61-1,.62.43.62,1S114.34,22.57,114,22.57Z" transform="translate(-2.48 0.01)"/><path class="a" d="M104.19,18.59l-.26-.18-3.88,5.11A1.8,1.8,0,0,0,99,22.6c-.8-.29-1.6-.14-1.79.34s.3,1.1,1.1,1.39a1.57,1.57,0,0,0,1.72-.21Z" transform="translate(-2.48 0.01)"/><path class="a" d="M106.08,35.4l-.59.56,4.92-2.3a1.38,1.38,0,0,0,.42,1.07c.46.51,1.11.69,1.45.41s.23-.91-.24-1.42a1.3,1.3,0,0,0-1.34-.48Z" transform="translate(-2.48 0.01)"/><path class="a" d="M106.45,35.51l-1,.45s-.09-.11.07-.31c.88-1.19-.44-1.63.71-2.57.08-.06.15,0,.09.08C105.55,34.06,106.89,34.32,106.45,35.51Z" transform="translate(-2.48 0.01)"/><polygon class="b" points="114.89 12.51 114.69 11.64 110.13 13.96 110.33 14.83 114.89 12.51"/><polygon class="b" points="114.16 9.3 113.96 8.43 109.4 10.75 109.6 11.62 114.16 9.3"/><polygon class="b" points="112.28 7.85 112.7 7.76 114.15 14.13 113.73 14.22 112.28 7.85"/><polygon class="b" points="110.08 9.14 110.5 9.06 111.95 15.43 111.53 15.51 110.08 9.14"/><path class="b" d="M104.53,16.79l-.73-.85,2.72,6.75a2.22,2.22,0,0,0-1.61.42c-.79.55-1.14,1.38-.78,1.86s1.3.41,2.09-.13,1.07-1.21.87-1.7C107,23,104.53,16.79,104.53,16.79Z" transform="translate(-2.48 0.01)"/><path class="b" d="M104.33,17.26l-.53-1.32s.17-.1.45.13c1.62,1.31,2.43-.37,3.64,1.27.08.11,0,.19-.13.1C106.56,16.26,106,18,104.33,17.26Z" transform="translate(-2.48 0.01)"/><path class="b" d="M75.64,29.88h.19l.34-3.77a1.09,1.09,0,0,0,.85.15c.51-.08.87-.4.82-.7s-.52-.48-1-.39-.79.34-.82.61Z" transform="translate(-2.48 0.01)"/><path class="b" d="M78.84,29.4l.19,0,.33-3.77a1.12,1.12,0,0,0,.86.15c.51-.09.87-.4.81-.7s-.51-.48-1-.39-.79.34-.81.61C79.19,25.42,78.84,29.4,78.84,29.4Z" transform="translate(-2.48 0.01)"/><polygon class="b" points="73.24 29 76.63 28.55 76.54 29.55 73.16 30 73.24 29"/><path class="e" d="M74,22.14l-.11.41,9,2.18a2.35,2.35,0,0,0-.7,1.82c0,1.13.64,2,1.39,2s1.35-.93,1.33-2.06a2,2,0,0,0-1.16-2Z" transform="translate(-2.48 0.01)"/><path class="f" d="M97.44,34l.49.58L96.18,30a1.51,1.51,0,0,0,1.1-.27c.55-.36.8-.92.56-1.24s-.88-.3-1.43.06-.74.81-.61,1.14Z" transform="translate(-2.48 0.01)"/><path class="f" d="M97.59,33.72l.34.9s-.11.07-.3-.09c-1.08-.91-1.65.22-2.45-.91-.06-.08,0-.13.08-.06C96.07,34.37,96.46,33.21,97.59,33.72Z" transform="translate(-2.48 0.01)"/><path class="c" d="M87.49,26.62l-.85.85,7.22-3.63a2.07,2.07,0,0,0,.67,1.58c.72.73,1.7,1,2.18.54s.3-1.36-.41-2.1a1.9,1.9,0,0,0-2-.65Z" transform="translate(-2.48 0.01)"/><path class="c" d="M88.05,26.76l-1.41.71s-.13-.16.09-.47c1.25-1.81-.74-2.41.94-3.85.12-.1.22,0,.14.11C86.64,24.64,88.65,25,88.05,26.76Z" transform="translate(-2.48 0.01)"/><path class="c" d="M89.43,26.07l-1.4.7s-.14-.15.08-.47c1.26-1.81-.73-2.4,1-3.84.12-.1.21,0,.13.11C88,24,90,24.28,89.43,26.07Z" transform="translate(-2.48 0.01)"/><path class="g" d="M99.85,32.54c.34.54.9.82,1.27.62s.38-.81,0-1.35-.9-.83-1.27-.63S99.52,32,99.85,32.54Zm.83-1c.22.06.32.38.23.73s-.35.58-.57.53-.33-.38-.24-.73S100.46,31.49,100.68,31.54Z" transform="translate(-2.48 0.01)"/><path class="d" d="M88.55,13.4l-.32.12L91,19.89a2.09,2.09,0,0,0-1.53.45c-.74.54-1.05,1.34-.69,1.79s1.26.36,2-.19,1-1.18.77-1.64Z" transform="translate(-2.48 0.01)"/><path class="d" d="M83.84,16.67l-.32.13,2.81,6.37a2.07,2.07,0,0,0-1.53.44c-.74.55-1,1.35-.69,1.79s1.26.36,2-.18a1.55,1.55,0,0,0,.78-1.65Z" transform="translate(-2.48 0.01)"/><polygon class="d" points="91.51 11.61 81.7 18.3 80.96 16.62 90.77 9.91 91.51 11.61"/><path class="d" d="M93.32,10.09l-.32.13,2.81,6.37a2,2,0,0,0-1.53.45c-.73.54-1,1.34-.68,1.79s1.25.36,2-.19,1-1.18.78-1.64Z" transform="translate(-2.48 0.01)"/><path class="i" d="M91.46,29.41l-.22-.06-1.31,4.39a1.36,1.36,0,0,0-1-.36c-.62,0-1.12.28-1.13.65s.49.68,1.11.69,1-.23,1.11-.55C90.07,34.05,91.46,29.41,91.46,29.41Z" transform="translate(-2.48 0.01)"/><path class="i" d="M87.56,29.27l-.22-.06L86,33.6a1.36,1.36,0,0,0-1-.37c-.62,0-1.13.29-1.13.66s.49.68,1.11.69,1-.23,1.11-.55Z" transform="translate(-2.48 0.01)"/><polygon class="i" points="88.68 30.46 84.55 30.25 84.9 29.09 89.03 29.29 88.68 30.46"/><path class="j" d="M83.5,30.38l-.06-.08-1.7,1.35a.58.58,0,0,0-.27-.39c-.23-.15-.5-.17-.61,0s0,.38.24.54a.51.51,0,0,0,.57.06Z" transform="translate(-2.48 0.01)"/><path class="j" d="M82.09,29.38,82,29.3l-1.7,1.34a.54.54,0,0,0-.27-.38c-.23-.16-.5-.17-.61,0s0,.37.24.53a.52.52,0,0,0,.57.07Z" transform="translate(-2.48 0.01)"/><polygon class="j" points="82.06 31.73 79.15 29.63 79.59 29.27 82.51 31.38 82.06 31.73"/><path class="j" d="M84.94,31.4l-.07-.07-1.7,1.34a.54.54,0,0,0-.27-.38c-.23-.16-.5-.17-.6,0s0,.37.23.53a.54.54,0,0,0,.57.07Z" transform="translate(-2.48 0.01)"/><path class="c" d="M80.93,25.24l.27.11L83.51,20a1.65,1.65,0,0,0,1.17.6c.77.09,1.45-.2,1.51-.67s-.51-.91-1.28-1a1.43,1.43,0,0,0-1.48.53C83.37,19.64,80.93,25.24,80.93,25.24Z" transform="translate(-2.48 0.01)"/><path class="l" d="M78.5,40.32l.27.1,2.3-5.3a1.7,1.7,0,0,0,1.17.59c.78.1,1.45-.2,1.52-.66s-.51-.92-1.29-1a1.39,1.39,0,0,0-1.47.53C80.93,34.72,78.5,40.32,78.5,40.32Z" transform="translate(-2.48 0.01)"/><polygon class="h" points="98.92 24.4 99.16 24.63 100.07 23.11 99.84 22.88 98.92 24.4"/><polygon class="h" points="99.79 25.24 100.02 25.47 100.93 23.95 100.7 23.72 99.79 25.24"/><polygon class="h" points="100.65 25.34 100.53 25.45 98.82 23.78 98.93 23.68 100.65 25.34"/><polygon class="h" points="101.05 24.55 100.94 24.66 99.23 22.99 99.34 22.89 101.05 24.55"/><path class="a" d="M92.68,31l-.4-.05,2.41,1.13a.71.71,0,0,0-.31.48c-.07.32.05.62.26.66s.44-.19.51-.51a.57.57,0,0,0-.2-.64Z" transform="translate(-2.48 0.01)"/><path class="a" d="M92.75,31.21,92.28,31s0-.06.15-.07c.75,0,.53-.65,1.26-.5,0,0,0,.06,0,.06C93.07,30.45,93.37,31,92.75,31.21Z" transform="translate(-2.48 0.01)"/><path class="a" d="M93.21,31.43l-.47-.22s0-.07.15-.07c.75,0,.54-.65,1.27-.5,0,0,0,.06,0,.05C93.54,30.66,93.83,31.24,93.21,31.43Z" transform="translate(-2.48 0.01)"/><path class="k" d="M93.68,27.05c-.77.12-1.33.59-1.26,1.05s.77.74,1.54.63,1.33-.59,1.26-1.05S94.46,26.94,93.68,27.05Zm.79,1.29c-.16.2-.58.17-.94-.08s-.51-.61-.36-.82.58-.17.94.07S94.63,28.13,94.47,28.34Z" transform="translate(-2.48 0.01)"/><path class="m" d="M87.08,37.52c-.56-.14-1.09,0-1.18.35s.28.73.84.87,1.09,0,1.18-.35S87.64,37.67,87.08,37.52Zm.13,1.1c-.18.09-.45,0-.61-.32s-.16-.56,0-.66.45,0,.61.32S87.38,38.52,87.21,38.62Z" transform="translate(-2.48 0.01)"/><path class="b" d="M82.46,37.27l6.06-.92a1.54,1.54,0,0,0,.08,1.28c.33.69,1,1.09,1.41.9s.56-.91.24-1.6A1.38,1.38,0,0,0,89,36l-6.57,1ZM89.82,37c.35.45.45.93.23,1.08s-.68-.08-1-.52-.45-.93-.23-1.08S89.47,36.59,89.82,37Z" transform="translate(-2.48 0.01)"/><polygon class="c" points="176.68 14.91 176.71 15.34 179.05 14.52 179.02 14.09 176.68 14.91"/><polygon class="c" points="176.8 16.49 176.83 16.92 179.18 16.1 179.14 15.67 176.8 16.49"/><polygon class="c" points="177.6 17.31 177.39 17.32 177.15 14.19 177.35 14.17 177.6 17.31"/><polygon class="c" points="178.74 16.83 178.53 16.84 178.29 13.71 178.49 13.69 178.74 16.83"/><path class="d" d="M193.15,10.42l-.25-.26-5.61,4.94a2,2,0,0,0-1-1.27c-.84-.5-1.78-.5-2.11,0s.08,1.31.91,1.81a1.8,1.8,0,0,0,2,.13Z" transform="translate(-2.48 0.01)"/><path class="d" d="M188,7.16l-.25-.26-5.61,4.94a2,2,0,0,0-1-1.27c-.84-.5-1.78-.5-2.11,0s.08,1.31.91,1.81a1.82,1.82,0,0,0,2,.13Z" transform="translate(-2.48 0.01)"/><polygon class="d" points="189.35 11.59 183.93 8.08 185.42 6.77 190.84 10.28 189.35 11.59"/><path class="a" d="M191.72,4.5c-.7-.66-1.62-.86-2.06-.44s-.22,1.29.48,2,1.61.86,2.05.44S192.42,5.16,191.72,4.5Zm-.79,1.72c-.34,0-.61-.43-.62-1s.28-1,.62-1,.61.42.61,1S191.27,6.21,190.93,6.22Z" transform="translate(-2.48 0.01)"/><path class="a" d="M181.12,2.23l-.26-.17L177,7.16a1.8,1.8,0,0,0-1.1-.92c-.79-.29-1.6-.14-1.79.34s.3,1.1,1.1,1.39a1.59,1.59,0,0,0,1.72-.2Z" transform="translate(-2.48 0.01)"/><path class="a" d="M183,19.05l-.59.55,4.92-2.3a1.37,1.37,0,0,0,.42,1.07c.46.51,1.11.69,1.45.41s.23-.91-.24-1.41a1.27,1.27,0,0,0-1.34-.48Z" transform="translate(-2.48 0.01)"/><path class="a" d="M183.38,19.15l-1,.45s-.09-.11.07-.31c.88-1.19-.44-1.63.71-2.56.09-.07.15,0,.09.07C182.48,17.71,183.82,18,183.38,19.15Z" transform="translate(-2.48 0.01)"/><path class="b" d="M181.47,2.43l-.74-.85,2.73,6.76a2.14,2.14,0,0,0-1.62.42c-.79.54-1.14,1.37-.78,1.85s1.3.41,2.09-.13,1.07-1.21.87-1.7C184,8.59,181.47,2.43,181.47,2.43Z" transform="translate(-2.48 0.01)"/><path class="b" d="M181.26,2.9l-.53-1.32s.17-.09.45.13C182.8,3,183.61,1.34,184.82,3c.08.11,0,.19-.12.1C183.49,1.91,182.94,3.63,181.26,2.9Z" transform="translate(-2.48 0.01)"/><path class="b" d="M149.57,20.52l.19,0,.34-3.78a1.15,1.15,0,0,0,.86.16c.5-.09.86-.4.81-.71s-.52-.47-1-.39-.79.34-.82.61Z" transform="translate(-2.48 0.01)"/><path class="b" d="M152.77,20.05H153l.33-3.77a1.12,1.12,0,0,0,.86.15c.51-.08.87-.4.81-.7s-.51-.48-1-.39-.79.34-.81.61Z" transform="translate(-2.48 0.01)"/><polygon class="b" points="147.18 19.65 150.56 19.19 150.47 20.19 147.09 20.65 147.18 19.65"/><path class="e" d="M147.91,12.78l-.11.41,9,2.18a2.37,2.37,0,0,0-.7,1.82c0,1.13.64,2,1.39,2s1.35-.93,1.33-2.06a2,2,0,0,0-1.16-2Z" transform="translate(-2.48 0.01)"/><path class="f" d="M171.37,24.68l.49.59-1.75-4.62a1.54,1.54,0,0,0,1.1-.26c.55-.36.8-.92.56-1.25s-.88-.3-1.42.06-.74.81-.62,1.14Z" transform="translate(-2.48 0.01)"/><path class="f" d="M171.52,24.37l.34.89s-.11.07-.3-.09c-1.08-.91-1.65.22-2.45-.91-.06-.07,0-.12.08-.06C170,25,170.39,23.85,171.52,24.37Z" transform="translate(-2.48 0.01)"/><path class="c" d="M161.43,17.26l-.86.85,7.22-3.63a2,2,0,0,0,.68,1.58c.71.73,1.69,1,2.17.55s.3-1.37-.41-2.1a1.93,1.93,0,0,0-2-.66Z" transform="translate(-2.48 0.01)"/><path class="c" d="M162,17.4l-1.41.71s-.13-.16.09-.47c1.25-1.81-.73-2.4,1-3.84.11-.1.21,0,.13.11C160.58,15.29,162.58,15.62,162,17.4Z" transform="translate(-2.48 0.01)"/><path class="c" d="M163.36,16.71l-1.4.71s-.14-.16.08-.47c1.26-1.81-.73-2.41,1-3.85.12-.1.21,0,.13.11C162,14.59,164,14.92,163.36,16.71Z" transform="translate(-2.48 0.01)"/><path class="g" d="M173.78,23.18c.34.54.91.82,1.27.62s.38-.81,0-1.35-.9-.82-1.26-.62S173.45,22.64,173.78,23.18Zm.83-1c.22,0,.32.38.23.72s-.35.59-.57.53-.33-.38-.23-.73S174.39,22.13,174.61,22.19Z" transform="translate(-2.48 0.01)"/><path class="d" d="M162.48,4l-.32.13L165,10.53a2.09,2.09,0,0,0-1.53.45c-.74.54-1.05,1.35-.68,1.79s1.25.36,2-.18,1-1.19.77-1.65C165.45,10.76,162.48,4,162.48,4Z" transform="translate(-2.48 0.01)"/><path class="d" d="M157.77,7.31l-.32.13,2.81,6.37a2.07,2.07,0,0,0-1.53.44c-.74.55-1,1.35-.68,1.79s1.25.37,2-.18a1.55,1.55,0,0,0,.78-1.65Z" transform="translate(-2.48 0.01)"/><polygon class="d" points="165.44 2.25 155.64 8.95 154.89 7.26 164.7 0.56 165.44 2.25"/><path class="d" d="M167.26.74l-.33.12,2.81,6.37a2.1,2.1,0,0,0-1.53.45c-.73.54-1,1.34-.68,1.79s1.25.36,2-.18a1.55,1.55,0,0,0,.78-1.65Z" transform="translate(-2.48 0.01)"/><path class="i" d="M165.39,20.05l-.22-.06-1.31,4.4a1.36,1.36,0,0,0-1-.37c-.62,0-1.12.28-1.13.65s.49.68,1.11.69a1.12,1.12,0,0,0,1.12-.54Z" transform="translate(-2.48 0.01)"/><path class="i" d="M161.49,19.91l-.22-.06L160,24.24a1.36,1.36,0,0,0-1-.37c-.62,0-1.13.29-1.13.66s.49.68,1.11.69,1-.23,1.11-.55C160.1,24.55,161.49,19.91,161.49,19.91Z" transform="translate(-2.48 0.01)"/><polygon class="i" points="162.61 21.1 158.49 20.89 158.83 19.73 162.96 19.93 162.61 21.1"/><path class="j" d="M157.43,21l-.06-.07-1.7,1.34a.54.54,0,0,0-.27-.38c-.23-.16-.5-.17-.61,0s0,.37.24.53a.54.54,0,0,0,.57.07Z" transform="translate(-2.48 0.01)"/><path class="j" d="M156,20l-.07-.08-1.69,1.34a.58.58,0,0,0-.28-.38c-.23-.15-.5-.17-.6,0s0,.38.23.53a.52.52,0,0,0,.57.07Z" transform="translate(-2.48 0.01)"/><polygon class="j" points="155.99 22.38 153.08 20.27 153.53 19.91 156.44 22.02 155.99 22.38"/><path class="j" d="M158.87,22.05,158.8,22l-1.69,1.34a.63.63,0,0,0-.27-.38c-.24-.16-.51-.17-.61,0s0,.38.23.53a.52.52,0,0,0,.57.07Z" transform="translate(-2.48 0.01)"/><path class="c" d="M154.87,15.89l.27.1,2.3-5.3a1.7,1.7,0,0,0,1.17.59c.77.1,1.45-.2,1.51-.66s-.51-.92-1.28-1a1.37,1.37,0,0,0-1.47.53C157.3,10.29,154.87,15.89,154.87,15.89Z" transform="translate(-2.48 0.01)"/><path class="l" d="M152.43,31l.27.1,2.3-5.3a1.67,1.67,0,0,0,1.18.59c.77.1,1.44-.2,1.51-.66s-.51-.92-1.28-1a1.41,1.41,0,0,0-1.48.53C154.87,25.36,152.43,31,152.43,31Z" transform="translate(-2.48 0.01)"/><polygon class="h" points="172.85 15.04 173.09 15.27 174 13.75 173.77 13.52 172.85 15.04"/><polygon class="h" points="173.72 15.89 173.95 16.11 174.87 14.59 174.63 14.36 173.72 15.89"/><polygon class="h" points="174.58 15.99 174.47 16.09 172.75 14.42 172.86 14.32 174.58 15.99"/><polygon class="h" points="174.98 15.2 174.87 15.3 173.16 13.63 173.27 13.53 174.98 15.2"/><path class="a" d="M166.61,21.69l-.4-.06,2.41,1.14a.66.66,0,0,0-.31.47c-.07.33.05.62.26.66s.45-.19.51-.51a.56.56,0,0,0-.2-.64Z" transform="translate(-2.48 0.01)"/><path class="a" d="M166.68,21.85l-.47-.22s0-.06.15-.07c.75,0,.53-.65,1.26-.5,0,0,0,.06,0,.06C167,21.09,167.3,21.66,166.68,21.85Z" transform="translate(-2.48 0.01)"/><path class="a" d="M167.14,22.07l-.47-.22s0-.06.15-.07c.75,0,.54-.65,1.27-.5,0,0,0,.06,0,.06C167.47,21.31,167.76,21.88,167.14,22.07Z" transform="translate(-2.48 0.01)"/><path class="k" d="M167.61,17.7c-.77.11-1.33.58-1.25,1s.76.74,1.53.63,1.34-.59,1.26-1.05S168.39,17.58,167.61,17.7ZM168.4,19c-.16.21-.58.17-.93-.07s-.52-.62-.36-.83.57-.17.93.08S168.56,18.77,168.4,19Z" transform="translate(-2.48 0.01)"/><path class="m" d="M161,28.17c-.56-.14-1.09,0-1.18.35s.28.72.84.86,1.09,0,1.18-.35S161.57,28.31,161,28.17Zm.13,1.09c-.18.1-.45,0-.61-.31s-.16-.57,0-.66.45,0,.61.31S161.31,29.17,161.14,29.26Z" transform="translate(-2.48 0.01)"/><path class="b" d="M156.39,27.91l6.06-.92a1.54,1.54,0,0,0,.08,1.28c.33.69,1,1.09,1.41.9s.56-.91.24-1.6a1.39,1.39,0,0,0-1.26-.93l-6.58,1Zm7.36-.23c.35.44.46.92.23,1.07s-.68-.07-1-.52-.45-.92-.23-1.08S163.41,27.23,163.75,27.68Z" transform="translate(-2.48 0.01)"/><polygon class="c" points="48.18 4.84 48.22 5.27 50.56 4.45 50.52 4.02 48.18 4.84"/><polygon class="c" points="48.31 6.42 48.34 6.85 50.68 6.03 50.65 5.61 48.31 6.42"/><polygon class="c" points="49.1 7.24 48.9 7.25 48.65 4.12 48.86 4.1 49.1 7.24"/><polygon class="c" points="50.25 6.76 50.04 6.77 49.8 3.64 50 3.62 50.25 6.76"/><path class="a" d="M50.63.16,50.37,0l-3.89,5.1a1.78,1.78,0,0,0-1.09-.92c-.8-.28-1.6-.13-1.79.34s.3,1.1,1.1,1.39a1.59,1.59,0,0,0,1.72-.2Z" transform="translate(-2.48 0.01)"/><path class="a" d="M54.52,9l-.59.55,4.92-2.29a1.38,1.38,0,0,0,.42,1.07c.46.5,1.11.69,1.45.41S61,7.8,60.48,7.3a1.27,1.27,0,0,0-1.34-.48Z" transform="translate(-2.48 0.01)"/><path class="a" d="M54.89,9.09l-1,.44s-.09-.11.06-.31c.89-1.19-.43-1.63.72-2.56.08-.07.15,0,.09.07C54,7.64,55.33,7.9,54.89,9.09Z" transform="translate(-2.48 0.01)"/><path class="b" d="M197.47,1.94l-.73-.85,2.72,6.76a2.12,2.12,0,0,0-1.61.42c-.8.54-1.15,1.37-.78,1.85s1.3.41,2.09-.13,1.07-1.21.87-1.7Z" transform="translate(-2.48 0.01)"/><path class="b" d="M197.27,2.41l-.53-1.32s.17-.09.45.13c1.62,1.31,2.43-.37,3.64,1.27.08.11,0,.19-.13.1C199.49,1.41,199,3.14,197.27,2.41Z" transform="translate(-2.48 0.01)"/><path class="e" d="M18.42.72l-.11.41,9,2.17a2.38,2.38,0,0,0-.7,1.82c0,1.13.63,2,1.39,2s1.35-.94,1.33-2.07a2,2,0,0,0-1.16-2Z" transform="translate(-2.48 0.01)"/><path class="f" d="M41.88,12.61l.49.59L40.62,8.58a1.45,1.45,0,0,0,1.1-.26c.55-.36.8-.92.56-1.25s-.88-.3-1.43.06-.74.81-.61,1.14Z" transform="translate(-2.48 0.01)"/><path class="f" d="M42,12.3l.34.9s-.12.06-.3-.1c-1.08-.9-1.66.23-2.45-.9-.06-.08,0-.13.08-.07C40.51,12.94,40.9,11.78,42,12.3Z" transform="translate(-2.48 0.01)"/><path class="c" d="M31.93,5.19,31.08,6,38.3,2.41A2.07,2.07,0,0,0,39,4c.72.73,1.7,1,2.18.55s.3-1.37-.42-2.1a1.91,1.91,0,0,0-2-.66Z" transform="translate(-2.48 0.01)"/><path class="c" d="M32.48,5.34l-1.4.7s-.13-.15.08-.47c1.26-1.8-.73-2.4.95-3.84.12-.1.22,0,.14.11C31.08,3.22,33.09,3.55,32.48,5.34Z" transform="translate(-2.48 0.01)"/><path class="c" d="M33.87,4.64l-1.41.71s-.13-.16.09-.47c1.25-1.81-.73-2.41,1-3.85.11-.1.21,0,.13.11C32.47,2.52,34.47,2.85,33.87,4.64Z" transform="translate(-2.48 0.01)"/><path class="g" d="M44.29,11.11c.34.55.9.82,1.27.62s.38-.81,0-1.35-.91-.82-1.27-.62S44,10.57,44.29,11.11Zm.83-1c.22.05.32.38.23.72s-.35.59-.58.53-.32-.38-.23-.72S44.9,10.06,45.12,10.12Z" transform="translate(-2.48 0.01)"/><path class="i" d="M35.9,8l-.22-.06-1.32,4.39a1.36,1.36,0,0,0-1-.37c-.62,0-1.13.28-1.13.66s.49.68,1.11.68,1-.23,1.11-.54Z" transform="translate(-2.48 0.01)"/><path class="i" d="M32,7.84l-.22-.06-1.32,4.39a1.32,1.32,0,0,0-1-.36c-.62,0-1.13.28-1.13.65s.49.68,1.11.69,1-.23,1.11-.55C30.61,12.48,32,7.84,32,7.84Z" transform="translate(-2.48 0.01)"/><polygon class="i" points="33.12 9.03 28.99 8.83 29.34 7.66 33.47 7.87 33.12 9.03"/><path class="j" d="M27.94,9l-.06-.08-1.7,1.34a.56.56,0,0,0-.27-.38c-.23-.16-.5-.17-.61,0s0,.38.24.53a.52.52,0,0,0,.57.07Z" transform="translate(-2.48 0.01)"/><path class="j" d="M26.52,8l-.06-.08-1.7,1.34a.58.58,0,0,0-.27-.38c-.23-.15-.5-.17-.61,0s0,.38.24.54a.51.51,0,0,0,.57.06Z" transform="translate(-2.48 0.01)"/><polygon class="j" points="26.5 10.31 23.59 8.2 24.03 7.84 26.95 9.95 26.5 10.31"/><path class="j" d="M29.37,10l-.06-.08-1.7,1.34a.58.58,0,0,0-.27-.38c-.23-.16-.5-.17-.6,0s0,.38.23.53a.52.52,0,0,0,.57.07Z" transform="translate(-2.48 0.01)"/><path class="c" d="M22.37,6.82l.27.1L25,1.62a1.64,1.64,0,0,0,1.17.59c.77.1,1.45-.2,1.51-.66s-.51-.92-1.28-1a1.41,1.41,0,0,0-1.48.53C24.81,1.22,22.37,6.82,22.37,6.82Z" transform="translate(-2.48 0.01)"/><path class="l" d="M22.94,18.89l.27.1,2.3-5.3a1.67,1.67,0,0,0,1.17.59c.78.1,1.45-.2,1.51-.66s-.5-.91-1.28-1a1.42,1.42,0,0,0-1.47.53C25.37,13.29,22.94,18.89,22.94,18.89Z" transform="translate(-2.48 0.01)"/><polygon class="h" points="43.36 2.98 43.59 3.21 44.51 1.68 44.28 1.45 43.36 2.98"/><polygon class="h" points="44.23 3.82 44.46 4.04 45.37 2.52 45.14 2.29 44.23 3.82"/><polygon class="h" points="45.09 3.92 44.97 4.02 43.26 2.35 43.37 2.25 45.09 3.92"/><polygon class="h" points="45.49 3.13 45.38 3.23 43.67 1.56 43.78 1.46 45.49 3.13"/><path class="a" d="M37.12,9.62l-.41-.06,2.42,1.14a.66.66,0,0,0-.31.48c-.07.32,0,.61.26.65s.44-.18.51-.51a.58.58,0,0,0-.2-.64Z" transform="translate(-2.48 0.01)"/><path class="a" d="M37.19,9.79l-.47-.23s0-.06.15-.06c.74,0,.53-.65,1.26-.5,0,0,0,.05,0,.05C37.51,9,37.81,9.59,37.19,9.79Z" transform="translate(-2.48 0.01)"/><path class="a" d="M37.65,10l-.47-.22s0-.06.15-.07c.75,0,.53-.65,1.26-.5,0,0,0,.06,0,.06C38,9.24,38.27,9.81,37.65,10Z" transform="translate(-2.48 0.01)"/><path class="k" d="M38.12,5.63c-.77.11-1.33.58-1.26,1s.77.75,1.54.63,1.33-.58,1.26-1S38.89,5.51,38.12,5.63Zm.79,1.28c-.16.21-.58.17-.94-.07s-.52-.62-.36-.83.58-.17.94.08S39.07,6.7,38.91,6.91Z" transform="translate(-2.48 0.01)"/><path class="m" d="M31.52,16.1c-.56-.14-1.09,0-1.18.35s.28.72.84.86,1.09,0,1.18-.35S32.08,16.24,31.52,16.1Zm.12,1.09c-.17.1-.44,0-.61-.31s-.15-.57,0-.66.45,0,.61.31S31.82,17.1,31.64,17.19Z" transform="translate(-2.48 0.01)"/><path class="b" d="M26.9,15.84,33,14.92A1.56,1.56,0,0,0,33,16.21c.33.68,1,1.08,1.41.89s.56-.91.24-1.59a1.41,1.41,0,0,0-1.27-.94l-6.57,1Zm7.36-.23c.35.44.45.92.23,1.08s-.68-.08-1-.53-.45-.92-.23-1.08S33.91,15.17,34.26,15.61Z" transform="translate(-2.48 0.01)"/><path class="a" d="M49.91,19.61c-.46.9-.89,1.74-1.26,2.48-.77.15-1.51.3-2.19.46-5.76,1.37-6.71,7.93-5.54,7.86a7.11,7.11,0,0,0,6.55-4.57c.14-.29.5-1,.81-1.59,3.36-.64,7.52-1.39,9.55-3.52,2.9-3,.73-6.59-3.85-7.84l1.63-3.2c1.48-2.93,6-1.51,5.4.05-1.74-1.43-4.33,0-3.26,1.52A2.67,2.67,0,0,0,61.84,11C64.11,7.7,57,5.69,55.17,9.23l-1.78,3.51C46.59,11.3,43.14,18.31,49.91,19.61ZM44,25.36a14.38,14.38,0,0,1,3.48-1c-.13.25-.36.68-.75,1.46C44.45,30.26,38,28.41,44,25.36ZM56.8,19.42c-1.5,1.35-4.55,2-7.41,2.53l1.14-2.24c4.65.57,6.46-3.26,4.09-4.67-.23-.13-.52,0-.33.24,1.56,1.94-.9,3.23-3,2.88l2.47-4.86C58.12,14.55,58.61,17.78,56.8,19.42Zm-3.62-6.26L50.71,18C46.68,16.79,49.74,12.57,53.18,13.16Z" transform="translate(-2.48 0.01)"/><path class="o" d="M60.25,40.64l.46-.11-3.23-6.84a3.55,3.55,0,0,0,2.13-.37c1.07-.52,1.57-1.33,1.12-1.82S59.05,31,58,31.56s-1.46,1.17-1.23,1.67C56.85,33.42,60.25,40.64,60.25,40.64Z" transform="translate(-2.48 0.01)"/><path class="o" d="M67.1,37.49l.45-.12-3.23-6.84a3.59,3.59,0,0,0,2.14-.37c1.07-.52,1.57-1.33,1.11-1.82s-1.68-.46-2.75.06-1.46,1.17-1.22,1.67Z" transform="translate(-2.48 0.01)"/><polygon class="o" points="65.17 37.6 64.9 37.02 57.61 40.3 57.88 40.87 65.17 37.6"/><polygon class="o" points="64.32 35.78 57.02 39.05 57.29 39.63 64.59 36.36 64.32 35.78"/><path class="a" d="M26.33,43.8l-.16.13,3.54,2.41a1.29,1.29,0,0,0-.81.51c-.29.4-.25.83.1,1a1.12,1.12,0,0,0,1.16-.48c.27-.36.26-.75,0-.92Z" transform="translate(-2.48 0.01)"/><path class="a" d="M24.38,46.29l-.16.12,3.54,2.42a1.29,1.29,0,0,0-.81.51c-.29.4-.25.83.1,1a1.09,1.09,0,0,0,1.16-.48c.27-.35.26-.74,0-.91Z" transform="translate(-2.48 0.01)"/><polygon class="a" points="21.63 46.35 21.93 46.55 24.04 43.95 23.74 43.74 21.63 46.35"/><polygon class="a" points="22.57 46.99 24.68 44.38 24.38 44.18 22.27 46.79 22.57 46.99"/><path class="d" d="M95.68,36.26l.81.46,13.3-12.29a5.43,5.43,0,0,0,3.42,2.37c2.56.79,5.18.48,5.87-.68s-.83-2.76-3.39-3.54c-2.3-.71-4.64-.53-5.6.36Z" transform="translate(-2.48 0.01)"/><path class="c" d="M218.39,27.63l1.09-2.15c.67-.13,1.31-.26,1.9-.4,5-1.18,5.81-6.86,4.79-6.8a6.12,6.12,0,0,0-5.66,4c-.13.24-.44.85-.71,1.38-2.91.54-6.51,1.2-8.26,3-2.52,2.63-.63,5.71,3.32,6.79l-1.4,2.77c-1.29,2.53-5.18,1.31-4.68,0,1.51,1.24,3.75,0,2.82-1.31a2.32,2.32,0,0,0-3.54.22c-2,2.86,4.22,4.6,5.78,1.53.12-.25.73-1.44,1.54-3C221.27,34.82,224.25,28.76,218.39,27.63Zm5.15-5a12.29,12.29,0,0,1-3,.82c.12-.21.32-.58.66-1.26C223.11,18.41,228.67,20,223.54,22.66ZM212.43,27.8c1.3-1.17,3.94-1.71,6.41-2.2-.3.6-.63,1.26-1,1.94-4-.49-5.6,2.82-3.54,4,.19.12.44,0,.28-.2-1.35-1.68.77-2.8,2.58-2.5L215,33.09C211.28,32,210.86,29.21,212.43,27.8Zm3.13,5.42L217.69,29C221.19,30.07,218.54,33.73,215.56,33.22Z" transform="translate(-2.48 0.01)"/><path class="p" d="M197.34,9.87l-.45.11,3.23,6.84a3.67,3.67,0,0,0-2.14.37c-1.07.52-1.57,1.33-1.11,1.82s1.68.46,2.75-.06,1.46-1.17,1.22-1.66Z" transform="translate(-2.48 0.01)"/><path class="p" d="M190.5,13l-.45.11L193.28,20a3.65,3.65,0,0,0-2.14.37c-1.07.52-1.57,1.33-1.12,1.82s1.69.46,2.76-.06,1.45-1.17,1.22-1.66Z" transform="translate(-2.48 0.01)"/><polygon class="p" points="187.47 12.94 187.74 13.51 195.04 10.24 194.77 9.67 187.47 12.94"/><polygon class="p" points="188.33 14.76 195.62 11.48 195.35 10.91 188.06 14.18 188.33 14.76"/><path class="d" d="M170.51,20.88l-.47-.27-7.75,7.16a3.12,3.12,0,0,0-2-1.38c-1.49-.46-3-.28-3.42.4s.49,1.6,2,2.06a3.75,3.75,0,0,0,3.27-.21Z" transform="translate(-2.48 0.01)"/><path class="q" d="M131.06,62l-.29-.17L126,66.22a2,2,0,0,0-1.22-.85c-.91-.28-1.84-.17-2.08.25s.29,1,1.2,1.26a2.33,2.33,0,0,0,2-.13Z" transform="translate(-2.48 0.01)"/><path class="a" d="M128.22,33.05c-.24.49-.47.94-.68,1.35l-1.18.24c-3.12.74-3.64,4.3-3,4.26a3.83,3.83,0,0,0,3.54-2.48l.44-.86c1.82-.34,4.07-.75,5.17-1.9,1.57-1.64.4-3.57-2.08-4.25.48-.93.83-1.62.88-1.73.8-1.58,3.24-.82,2.92,0-.94-.77-2.34,0-1.76.82a1.44,1.44,0,0,0,2.21-.14c1.23-1.79-2.63-2.87-3.61-.95l-1,1.89C126.43,28.55,124.56,32.35,128.22,33.05ZM125,36.16a7.89,7.89,0,0,1,1.89-.51c-.07.13-.2.36-.41.78C125.27,38.82,121.8,37.81,125,36.16ZM132,33c-.81.73-2.46,1.07-4,1.37l.62-1.21c2.52.3,3.5-1.77,2.21-2.53-.12-.07-.28,0-.18.13.85,1.05-.48,1.75-1.61,1.56l1.34-2.63C132.67,30.31,132.94,32.06,132,33ZM130,29.56l-1.34,2.63C126.48,31.53,128.13,29.24,130,29.56Z" transform="translate(-2.48 0.01)"/><path class="r" d="M87.89,51.07,87,49.8c.2-.28.39-.54.55-.8,1.38-2.16-1.86-4.85-2.25-4.49-1.61,1.5-.26,3.08.08,3.57l.58.82c-.9,1.2-2,2.67-1.61,4,.6,2,3.34,2.65,5.71,1.79.63.9,1.08,1.55,1.16,1.65,1,1.51-1.38,2.28-2,1.53,1.43,0,1.59-1.25.38-1.49-1-.2-1.78.48-1.37,1.27,1,1.86,4.7.56,3.42-1.27l-1.26-1.8C93.66,53.19,91.1,49.61,87.89,51.07Zm-1-3.82a4,4,0,0,1-.76,1.35l-.52-.75C84.08,45.58,87.45,44.42,86.94,47.25Zm-1.48,5.87c-.19-.92.59-2,1.34-3.06l.81,1.16c-2,1.12-.61,3.05,1,2.89.16,0,.19-.15,0-.18C87,53.66,87.2,52.48,88.16,52l1.75,2.5C87.63,55.3,85.68,54.25,85.46,53.12Zm4.75,1.28-1.75-2.5C90.62,51.19,91.8,53.63,90.21,54.4Z" transform="translate(-2.48 0.01)"/><path class="s" d="M144.15,50.71l.42-.1-2.95-6.25a3.24,3.24,0,0,0,1.95-.33c1-.48,1.43-1.22,1-1.67a2.45,2.45,0,0,0-2.52.06c-.87.42-1.33,1.07-1.11,1.52C141,44.12,144.15,50.71,144.15,50.71Z" transform="translate(-2.48 0.01)"/><path class="s" d="M150.4,47.83l.41-.1-2.95-6.25a3.35,3.35,0,0,0,2-.34c1-.47,1.43-1.22,1-1.66s-1.53-.42-2.51.05S147,40.6,147.2,41.05C147.29,41.23,150.4,47.83,150.4,47.83Z" transform="translate(-2.48 0.01)"/><polygon class="s" points="148.43 47.93 148.18 47.41 141.52 50.4 141.77 50.92 148.43 47.93"/><polygon class="s" points="147.65 46.27 140.99 49.26 141.23 49.79 147.89 46.8 147.65 46.27"/><path class="a" d="M231.54,6.14l-.45.89c-.27,0-.54.1-.78.16-2.06.49-2.4,2.84-2,2.81a2.53,2.53,0,0,0,2.34-1.63L231,7.8c1.2-.23,2.69-.5,3.42-1.26,1-1.09.26-2.36-1.38-2.8.32-.62.55-1.08.58-1.15.53-1,2.14-.54,1.94,0-.63-.51-1.55,0-1.17.54a1,1,0,0,0,1.46-.09c.81-1.18-1.74-1.9-2.38-.63-.06.1-.31.6-.64,1.25C230.36,3.17,229.12,5.67,231.54,6.14Zm-2.13,2.05a6.28,6.28,0,0,1,1.25-.34l-.27.52C229.59,10,227.29,9.29,229.41,8.19ZM234,6.07a6.24,6.24,0,0,1-2.65.91c.12-.25.26-.52.4-.8,1.67.2,2.32-1.17,1.47-1.67-.08,0-.19,0-.12.08.56.7-.32,1.16-1.07,1l.89-1.74C234.48,4.33,234.66,5.48,234,6.07Zm-1.3-2.24c-.26.53-.58,1.14-.88,1.74C230.39,5.13,231.48,3.62,232.71,3.83Z" transform="translate(-2.48 0.01)"/><path class="j" d="M235.24,13.66l.17,0-1.16-2.44a1.39,1.39,0,0,0,.77-.13c.38-.19.56-.48.4-.66a1,1,0,0,0-1,0c-.34.17-.52.42-.44.6Z" transform="translate(-2.48 0.01)"/><path class="j" d="M237.69,12.53l.16,0-1.15-2.44a1.28,1.28,0,0,0,.76-.14c.39-.18.56-.47.4-.65s-.6-.16-1,0-.52.42-.44.6Z" transform="translate(-2.48 0.01)"/><polygon class="j" points="235.41 12.58 235.32 12.38 232.71 13.55 232.81 13.75 235.41 12.58"/><polygon class="j" points="235.11 11.93 232.5 13.1 232.59 13.31 235.21 12.14 235.11 11.93"/><path class="h" d="M248.64,9.26l.29.17L253.69,5a2,2,0,0,0,1.22.85c.92.28,1.86.17,2.1-.25s-.29-1-1.21-1.27a2.32,2.32,0,0,0-2,.13Z" transform="translate(-2.48 0.01)"/><path class="h" d="M7.45,10,6.78,11.3c-.4.08-.79.15-1.15.24-3,.72-3.54,4.18-2.92,4.14a3.72,3.72,0,0,0,3.45-2.41c.08-.15.26-.52.43-.84,1.77-.33,4-.73,5-1.85C13.16,9,12,7.1,9.6,6.44l.86-1.69c.78-1.54,3.15-.79,2.84,0-.92-.75-2.28,0-1.71.8a1.41,1.41,0,0,0,2.15-.13c1.2-1.75-2.57-2.81-3.52-.94-.07.16-.44.89-.94,1.85C5.7,5.6,3.88,9.3,7.45,10ZM4.31,13a7.51,7.51,0,0,1,1.84-.51l-.4.77C4.57,15.6,1.19,14.63,4.31,13Zm6.77-3.14c-.79.72-2.4,1-3.91,1.34.19-.36.39-.76.6-1.18,2.46.3,3.41-1.72,2.16-2.46-.12-.07-.27,0-.17.12.82,1-.47,1.71-1.57,1.52l1.3-2.56C11.78,7.32,12,9,11.08,9.88Zm-1.9-3.3L7.87,9.15C5.75,8.5,7.36,6.27,9.18,6.58Z" transform="translate(-2.48 0.01)"/><path class="q" d="M26.94,18.88l.24-.05-1.71-3.62A1.83,1.83,0,0,0,26.6,15c.56-.27.83-.7.59-1s-.89-.24-1.45,0-.77.62-.65.88Z" transform="translate(-2.48 0.01)"/><path class="q" d="M30.55,17.22l.24-.06-1.71-3.61a1.91,1.91,0,0,0,1.13-.19c.56-.28.83-.71.59-1a1.38,1.38,0,0,0-1.45,0c-.51.24-.77.61-.65.87Z" transform="translate(-2.48 0.01)"/><polygon class="q" points="28.36 17.28 28.22 16.98 24.37 18.71 24.52 19.01 28.36 17.28"/><polygon class="q" points="27.91 16.32 24.06 18.05 24.21 18.35 28.05 16.63 27.91 16.32"/><path class="q" d="M179.85,47.68l-.29.18L185,52.32a2.37,2.37,0,0,0-1.46.76c-.58.63-.61,1.36-.06,1.63a2,2,0,0,0,2.06-.67c.53-.57.6-1.21.21-1.54Z" transform="translate(-2.48 0.01)"/><path class="q" d="M176,51.62l-.29.18,5.39,4.46a2.35,2.35,0,0,0-1.46.76c-.59.63-.61,1.36-.06,1.63a2,2,0,0,0,2.06-.66c.53-.58.6-1.22.21-1.54Z" transform="translate(-2.48 0.01)"/><polygon class="q" points="173.09 51.68 173.55 52.05 177.66 47.92 177.21 47.55 173.09 51.68"/><polygon class="q" points="174.53 52.86 178.64 48.73 178.19 48.36 174.07 52.49 174.53 52.86"/><path class="t" d="M176.09,12.4l-.26-.05.32-.85A20.48,20.48,0,0,0,177.83,7c.33-1.65-.07-2.71-1.2-3.17a18.23,18.23,0,0,1-3.48.48,28.89,28.89,0,0,1-4.07,0,30.22,30.22,0,0,1-1.44,3.84,10,10,0,0,1-.89,2L166,9.89s-6.81-2.67-10.18-1.08l-.06,0-.05,0-1.29.61a10.15,10.15,0,0,0-2.09,1.59,13.53,13.53,0,0,0-3.48,5.67l-1,3.19h0a24.8,24.8,0,0,0,.94-3.69,21.64,21.64,0,0,0,.4-3.34c0-.51,0-.85,0-1a2.85,2.85,0,0,0-.51-1.38,3.16,3.16,0,0,0-1.3-.91,27.62,27.62,0,0,1-4.61,1.91,34.43,34.43,0,0,1-5.25,1.14,9,9,0,0,0-.19,3.56,4.77,4.77,0,0,1,2.3.11,1.57,1.57,0,0,1,.78,1.33,13.53,13.53,0,0,1,0,1.78,16.69,16.69,0,0,1-3.51,7.73A11.75,11.75,0,0,1,134,29.46l-.27.16a2.36,2.36,0,0,1-1.3.36.62.62,0,0,1-.63-.5,1.26,1.26,0,0,1,0-.4,15.12,15.12,0,0,1,.81-2.84l3-8.91A8.2,8.2,0,0,0,136,16a3.31,3.31,0,0,0-1.2-2.83,51.52,51.52,0,0,1-5.38.34,18.89,18.89,0,0,0-5.53-1.28q-6.51-.57-10.4,2.15a13.89,13.89,0,0,0-5.37,7.53,19.17,19.17,0,0,0-.67,3.38A9.5,9.5,0,0,0,108.47,31c.91,1.58,2.59,2.48,5,2.69a8.27,8.27,0,0,0,6-1.7,17.85,17.85,0,0,0,4.79-6.59h.14a21.72,21.72,0,0,0-1.31,3.51,8.55,8.55,0,0,0-.2,1.16,4.27,4.27,0,0,0,.89,3.29,5.12,5.12,0,0,0,3.66,1.52l.58,0h.66a12.41,12.41,0,0,0,7.79-2.73,16.78,16.78,0,0,0,2.9-2.87l.24-.3v0a14.64,14.64,0,0,0,2.4-3.92A23.53,23.53,0,0,1,140.45,30h0a1.71,1.71,0,0,0-.21.61,3.05,3.05,0,0,0,1.69,3.48c3.54,1.9,7.6-1,7.59-5.38,0,0,.27-7.12,1.2-8.89.62-1.14,1.31-1.76,2.09-1.84a1.49,1.49,0,0,1,1.15.34,1.52,1.52,0,0,1,.6,1.06,1.43,1.43,0,0,1,0,.42,7.35,7.35,0,0,0,.93-.05,10.24,10.24,0,0,0,4.22-1.33,31.16,31.16,0,0,1-.08-5v0a15.53,15.53,0,0,1,5.2.74l-2.66,5.61c-.73,1.52-3.2,5.84-3.48,7.25a6.86,6.86,0,0,0,.62,5.12,6.34,6.34,0,0,0,4.51,2.59,13.87,13.87,0,0,0,4.68,0,8.82,8.82,0,0,0,3.86-1.39,6.3,6.3,0,0,0-.06-1.87,6.2,6.2,0,0,0-.52-1.76,3.45,3.45,0,0,1-1.22.51,2.81,2.81,0,0,1-1.18.05,1.39,1.39,0,0,1-1-.62,2.54,2.54,0,0,1-.05-1.63c.21-1,2.68-5.3,3.5-7l2.1-4.59a12.69,12.69,0,0,0,4.79.13l.27,0,.09-.06s1-.68,1.49-3.81A26.54,26.54,0,0,1,176.09,12.4Zm-50.72,6.07A22.07,22.07,0,0,1,122,25.79c-1.2,1.47-2.3,2.16-3.31,2.07s-1.52-1.06-1.35-2.89a17.64,17.64,0,0,1,.85-3.74,13.12,13.12,0,0,1,2.1-4.3,3.22,3.22,0,0,1,2.94-1.32,8.33,8.33,0,0,1,1.49.27,5.57,5.57,0,0,1,1.38.49Z" transform="translate(-2.48 0.01)"/><path class="t" d="M61.05,31.69c.05-.29.1-.63.15-1A6.77,6.77,0,0,0,61.05,31.69Z" transform="translate(-2.48 0.01)"/><path class="u" d="M106.52,1.8a2.57,2.57,0,0,0-.6-.69l-.19-.18,0,0c-1.87-1.17-4.55,1.82-5.2,2.11a.64.64,0,0,0-.33.34h0a.25.25,0,0,1,0,.08,2.2,2.2,0,0,0-.09.81,9.92,9.92,0,0,0,.08,1.78c.69-.06.82.06,1,.28a1.43,1.43,0,0,1,.38,1.07s-.32,3.54.63,4.55,4.15-1.42,4.5-3.28l.14-2.38L106.93,4a10.1,10.1,0,0,0-.07-1.13A2.5,2.5,0,0,0,106.52,1.8Z" transform="translate(-2.48 0.01)"/><path class="u" d="M95,23.19S88.83,23,86.85,26.5h0a1,1,0,0,0-.15.41,1,1,0,0,0,.9,1h.08a1.94,1.94,0,0,0,1.54-.82c.78-.9,3.25-2.9,5.44-3.09S96.05,23.15,95,23.19Z" transform="translate(-2.48 0.01)"/><path class="u" d="M83.5,8.08s-2,.63-2,1.49S87.9,7.32,90.37,6.8s2.91-3.14.35-2.09S83.5,8.08,83.5,8.08Z" transform="translate(-2.48 0.01)"/><path class="u" d="M77,25.34a14.33,14.33,0,0,0-5.4,1,5.81,5.81,0,0,0-2.71,2.28h0a.84.84,0,0,0-.14.41.94.94,0,0,0,.89,1h.09a2,2,0,0,0,1.54-.82,10.51,10.51,0,0,1,1.93-1.64,7.8,7.8,0,0,1,3.5-1.44C78.9,26,78.1,25.3,77,25.34Z" transform="translate(-2.48 0.01)"/><path class="t" d="M95.61,10.25,93.76,11C89.85,12.63,86,14.26,82,15.79a1.33,1.33,0,0,0-1,1.61c.4,8,.17,1.74.49,9.69a5.19,5.19,0,0,1-2.11,4.49,10.87,10.87,0,0,1-4.48,2.17,9,9,0,0,1-2.86.16,4.34,4.34,0,0,1-3.94-2.7A4,4,0,0,1,69,26.65a12.46,12.46,0,0,1,1-.92,9.71,9.71,0,0,1,7.69-2.09l.49.08.18,0-.49-9c0-.17,0-.36,0-.55-.16-1.56-.12-3.14-.23-4.71,0-.56.17-.8.67-1C80.09,7.71,81.9,7,83.65,6.2c2.34-1.07,4.66-2.2,7-3.34Q85.66.44,77.55,1l-3.71.3c-.64.08-1.5.15-2.56.22-5.07.34-8.91.54-11.55.6a9.12,9.12,0,0,0-.08,2A15.45,15.45,0,0,0,60,6.37a4.84,4.84,0,0,1,2.5.54,2.49,2.49,0,0,1,.83,2,15.29,15.29,0,0,1-.14,2.76L61.45,28.47c-.08.85-.16,1.59-.25,2.23-.05.36-.1.7-.15,1a6.65,6.65,0,0,0,.07,1.6,6.8,6.8,0,0,0,4.41,5.16h0s1.63,1.24,11.07-.28h0l.23,0a20.24,20.24,0,0,0,3.83-.89,34.23,34.23,0,0,0,7.59-3.34,13.25,13.25,0,0,0,2.38-1.77,10.6,10.6,0,0,1-1.11-.06,4.35,4.35,0,0,1-3.87-2.8,4,4,0,0,1,1.07-4.54A9.83,9.83,0,0,1,95.51,22l.41.08H96s.06,0,.18,0c0-.39,0-.8,0-1.22,0-.14,0-.3,0-.45,0-2.66-.15-6.43-.36-10.26Z" transform="translate(-2.48 0.01)"/></svg>