<?xml version="1.0" encoding="utf-8"?>
<!-- Generator: Adobe Illustrator 22.1.0, SVG Export Plug-In . SVG Version: 6.00 Build 0)  -->
<svg version="1.1" id="Layer_1" xmlns="http://www.w3.org/2000/svg" xmlns:xlink="http://www.w3.org/1999/xlink" x="0px" y="0px"
	 viewBox="0 0 48.2 48.2" style="enable-background:new 0 0 48.2 48.2;" xml:space="preserve">
<style type="text/css">
	.st0{fill:#FFFFFF;}
	.st1{fill:#FFB819;}
	.st2{fill:#430098;}
</style>
<g>
	<g>
		<path class="st0" d="M19.1,13.8c-3,0-5.4,2.4-5.4,5.4v9.6c0,3,2.4,5.4,5.4,5.4h9.6c3,0,5.4-2.4,5.4-5.4v-9.6c0-3-2.4-5.4-5.4-5.4
			C28.7,13.8,19.1,13.8,19.1,13.8z"/>
		<path class="st1" d="M27.4,34.6l0.4-9h1.7l0.7-2.8L27,22.3l0.5-2.9c0,0,1.3-0.3,1.6-0.2c0.3,0.1,0.6-0.5,0.6-0.8s0-1.8,0-1.8
			L26,16.5c0,0-1.3,0.5-1.6,1.1c-0.3,0.6-0.7,0.5-0.8,1.4c-0.1,0.8-0.5,2.8-0.5,3.1s-1.4,0.5-1.4,0.5s-0.4-0.6-0.4,0.1s-0.1,1.6,0,2
			s-0.1,0.7,0.4,0.8c0.5,0.1,1.3-0.2,1.4,0.1c0.1,0.3,0.1,9.5,0.1,9.5"/>
	</g>
	<g>
		<path class="st2" d="M28.1,35.2h-1.7V24.8H29l0.3-1.5h-3v-3.1c0-0.8,0.6-1.6,1.6-1.6h1.2v-1.3h-2.4c-0.2,0-2.4,0.3-2.4,3.1v2.8
			h-2.2v1.7h2.2v10.4h-1.7v-8.7h-2.2v-5.1h2.2v-1.1c0-3.5,2.6-4.7,4-4.8h4.1v4.6H28v1.4h3.4l-1,4.9h-2.3V35.2z"/>
	</g>
	<g>
		<path class="st2" d="M28.7,36.2h-9.6c-4.1,0-7.4-3.3-7.4-7.4v-9.6c0-4.1,3.3-7.4,7.4-7.4h9.6c4.1,0,7.4,3.3,7.4,7.4v9.6
			C36.1,32.9,32.8,36.2,28.7,36.2z M19.1,13.8c-3,0-5.4,2.4-5.4,5.4v9.6c0,3,2.4,5.4,5.4,5.4h9.6c3,0,5.4-2.4,5.4-5.4v-9.6
			c0-3-2.4-5.4-5.4-5.4C28.7,13.8,19.1,13.8,19.1,13.8z"/>
	</g>
</g>
</svg>
