<svg xmlns="http://www.w3.org/2000/svg" xmlns:xlink="http://www.w3.org/1999/xlink" viewBox="0 0 256 144"><defs><style>.a{isolation:isolate;}.b{mask:url(#a);}.c{opacity:0.1;}.c,.h{mix-blend-mode:lighten;}.d{fill:#f0f;}.e{mask:url(#c);}.f{fill:#662d91;}.g{mask:url(#e);}.h{opacity:0.2;}.i{fill:aqua;}.j{mask:url(#g);}.k{fill:#fcee21;}.l{mask:url(#i);}.m{fill:#f7931e;}.n{mask:url(#k);}.o{filter:url(#l);}.p{filter:url(#j);}.q{filter:url(#h);}.r{filter:url(#f);}.s{filter:url(#d);}.t{filter:url(#b);}</style><filter id="b" x="0" y="-8267" width="32" height="32766" filterUnits="userSpaceOnUse" color-interpolation-filters="sRGB"><feFlood flood-color="#fff" result="bg"/><feBlend in="SourceGraphic" in2="bg"/></filter><mask id="a" x="0" y="-8267" width="32" height="32766" maskUnits="userSpaceOnUse"><g class="t"/></mask><filter id="d" x="56" y="-8267" width="32" height="32766" filterUnits="userSpaceOnUse" color-interpolation-filters="sRGB"><feFlood flood-color="#fff" result="bg"/><feBlend in="SourceGraphic" in2="bg"/></filter><mask id="c" x="56" y="-8267" width="32" height="32766" maskUnits="userSpaceOnUse"><g class="s"/></mask><filter id="f" x="168" y="-8267" width="32" height="32766" filterUnits="userSpaceOnUse" color-interpolation-filters="sRGB"><feFlood flood-color="#fff" result="bg"/><feBlend in="SourceGraphic" in2="bg"/></filter><mask id="e" x="168" y="-8267" width="32" height="32766" maskUnits="userSpaceOnUse"><g class="r"/></mask><filter id="h" x="112" y="-8267" width="32" height="32766" filterUnits="userSpaceOnUse" color-interpolation-filters="sRGB"><feFlood flood-color="#fff" result="bg"/><feBlend in="SourceGraphic" in2="bg"/></filter><mask id="g" x="112" y="-8267" width="32" height="32766" maskUnits="userSpaceOnUse"><g class="q"/></mask><filter id="j" x="224" y="-8267" width="32" height="32766" filterUnits="userSpaceOnUse" color-interpolation-filters="sRGB"><feFlood flood-color="#fff" result="bg"/><feBlend in="SourceGraphic" in2="bg"/></filter><mask id="i" x="224" y="-8267" width="32" height="32766" maskUnits="userSpaceOnUse"><g class="p"/></mask><filter id="l" x="58" y="-8267" width="32" height="32766" filterUnits="userSpaceOnUse" color-interpolation-filters="sRGB"><feFlood flood-color="#fff" result="bg"/><feBlend in="SourceGraphic" in2="bg"/></filter><mask id="k" x="58" y="-8267" width="32" height="32766" maskUnits="userSpaceOnUse"><g class="o"/></mask></defs><title>header-bg</title><g class="a"><g class="b"><g class="c"><circle class="d" cx="16" cy="16" r="16"/></g></g><g class="e"><g class="c"><circle class="f" cx="72" cy="16" r="16"/></g></g><g class="g"><g class="h"><circle class="i" cx="184" cy="16" r="16"/></g></g><g class="j"><g class="c"><circle class="k" cx="128" cy="16" r="16"/></g></g><g class="l"><g class="h"><circle class="m" cx="240" cy="16" r="16"/></g></g><g class="n"><g class="c"><circle class="d" cx="74" cy="72" r="16"/></g></g><g class="b"><g class="h"><circle class="m" cx="16" cy="72" r="16"/></g></g><g class="j"><g class="c"><circle class="f" cx="128" cy="72" r="16"/></g></g><g class="g"><g class="c"><circle class="k" cx="184" cy="72" r="16"/></g></g><g class="l"><g class="h"><circle class="i" cx="240" cy="72" r="16"/></g></g><g class="j"><g class="c"><circle class="d" cx="128" cy="128" r="16"/></g></g><g class="n"><g class="h"><circle class="m" cx="74" cy="128" r="16"/></g></g><g class="b"><g class="h"><circle class="i" cx="16" cy="128" r="16"/></g></g><g class="g"><g class="c"><circle class="f" cx="184" cy="128" r="16"/></g></g><g class="l"><g class="c"><circle class="k" cx="240" cy="128" r="16"/></g></g></g></svg>