<?xml version="1.0" encoding="utf-8"?>
<!-- Generator: Adobe Illustrator 16.0.0, SVG Export Plug-In . SVG Version: 6.00 Build 0)  -->
<!DOCTYPE svg PUBLIC "-//W3C//DTD SVG 1.1//EN" "http://www.w3.org/Graphics/SVG/1.1/DTD/svg11.dtd">
<svg version="1.1" id="Layer_1" xmlns="http://www.w3.org/2000/svg" xmlns:xlink="http://www.w3.org/1999/xlink" x="0px" y="0px"
	 width="23.021px" height="20.607px" viewBox="0 0 23.021 20.607" enable-background="new 0 0 23.021 20.607" xml:space="preserve">
<g>
	<g>
		<path fill="#430098" d="M22.554,4.528C21.404,1.732,18.471,0,16.419,0c-2.764,0-4.253,1.217-4.905,1.968
			C10.868,1.228,9.384,0,6.609,0C4.554,0,1.621,1.732,0.472,4.528c-0.627,1.529-1.178,4.59,2.204,7.931l8.261,7.833
			c0.074,0.115,0.181,0.21,0.313,0.267c0.073,0.031,0.159,0.047,0.24,0.047c0.018,0,0.037-0.003,0.055-0.003
			c0.085-0.003,0.165-0.023,0.243-0.057c0.107-0.047,0.199-0.126,0.265-0.219l8.309-7.875C23.73,9.118,23.179,6.057,22.554,4.528z
			 M2.903,10.816c-0.25-0.298-0.47-0.591-0.653-0.879h2.487c0.225,0,0.439-0.122,0.554-0.318l2.378-4.091l2.097,5.13
			c0.098,0.234,0.319,0.389,0.572,0.396c0.236-0.013,0.486-0.128,0.599-0.355l1.626-3.281l2.162,3.088
			c0.114,0.166,0.296,0.264,0.499,0.274l0.758,0.027l-1.336,0.429l-1.291-1.64c-0.133-0.166-0.339-0.26-0.549-0.243
			c-0.21,0.014-0.399,0.128-0.507,0.311l-2.172,3.636l-2.07-4.65C7.96,8.428,7.749,8.283,7.513,8.27
			C7.273,8.256,7.047,8.371,6.926,8.573l-1.379,2.25L2.903,10.816z M19.468,11.53l-7.957,7.542l-7.352-6.97l1.747,0.002
			c0.223,0,0.429-0.115,0.548-0.308l0.926-1.515l2.077,4.667c0.099,0.22,0.309,0.366,0.548,0.379c0.016,0,0.027,0.003,0.042,0.003
			c0.222,0,0.431-0.119,0.548-0.314l2.327-3.896l0.989,1.258c0.17,0.21,0.45,0.294,0.701,0.213l5.074-1.63
			c0.233-0.074,0.356-0.308,0.39-0.552c0.034-0.243-0.12-0.517-0.323-0.652c-0.098-0.067-0.212-0.105-0.331-0.108l-3.834-0.142
			l-2.596-3.71c-0.132-0.183-0.354-0.281-0.571-0.27c-0.228,0.016-0.431,0.151-0.527,0.354l-1.476,2.977L8.365,3.835
			C8.271,3.608,8.057,3.457,7.813,3.44C7.567,3.419,7.341,3.544,7.216,3.757L4.368,8.655H1.84c-0.079,0-0.154,0.018-0.225,0.045
			C1.061,7.227,1.271,5.955,1.658,5.016c0.918-2.232,3.301-3.731,4.951-3.731c3.092,0,4.137,1.777,4.147,1.78l0.146,0.365
			c0.094,0.236,0.321,0.392,0.575,0.402c0.239,0.013,0.485-0.131,0.595-0.362l0.166-0.335c0.041-0.073,1.086-1.85,4.181-1.85
			c1.646,0,4.03,1.499,4.946,3.731C21.986,6.517,22.153,8.872,19.468,11.53z"/>
		<path fill="#FFB819" d="M7.513,8.27C7.749,8.283,7.96,8.428,8.057,8.648l2.07,4.65l2.172-3.636
			c0.107-0.183,0.297-0.297,0.507-0.311c0.21-0.017,0.416,0.077,0.549,0.243l1.291,1.64l1.336-0.429l-0.758-0.027
			c-0.203-0.01-0.385-0.108-0.499-0.274l-2.162-3.088l-1.626,3.281c-0.112,0.227-0.362,0.342-0.599,0.355
			c-0.253-0.006-0.475-0.162-0.572-0.396l-2.097-5.13L5.291,9.618C5.177,9.815,4.962,9.937,4.737,9.937H2.25
			c0.184,0.288,0.403,0.582,0.653,0.879l2.644,0.007l1.379-2.25C7.047,8.371,7.273,8.256,7.513,8.27z"/>
	</g>
</g>
</svg>
