<?xml version="1.0" encoding="utf-8"?>
<!-- Generator: Adobe Illustrator 22.1.0, SVG Export Plug-In . SVG Version: 6.00 Build 0)  -->
<svg version="1.1" id="Layer_1" xmlns="http://www.w3.org/2000/svg" xmlns:xlink="http://www.w3.org/1999/xlink" x="0px" y="0px"
	 viewBox="0 0 48.2 48.2" style="enable-background:new 0 0 48.2 48.2;" xml:space="preserve">
<style type="text/css">
	.st0{fill:#FFFFFF;}
	.st1{fill:#FFB819;}
	.st2{fill:#430098;}
</style>
<g>
	<g>
		<polygon class="st0" points="31.5,13.6 22.5,12.7 17.6,13.3 14.8,15 13,20.4 14.5,33.3 18.7,35 29,35.1 34.1,32.5 35.3,28.8 
			34.6,16.9 		"/>
		<circle class="st1" cx="24.1" cy="24" r="4.3"/>
		<g>
			<g>
				<path class="st2" d="M28.8,36.1h-9.4c-4,0-7.3-3.3-7.3-7.3v-9.4c0-4,3.3-7.3,7.3-7.3h9.4c4,0,7.3,3.3,7.3,7.3v9.4
					C36.1,32.8,32.9,36.1,28.8,36.1z M19.4,14.1c-2.9,0-5.3,2.4-5.3,5.3v9.4c0,2.9,2.4,5.3,5.3,5.3h9.4c2.9,0,5.3-2.4,5.3-5.3v-9.4
					c0-2.9-2.4-5.3-5.3-5.3C28.8,14.1,19.4,14.1,19.4,14.1z"/>
			</g>
			<g>
				<path class="st2" d="M24.1,29.8c-3.2,0-5.8-2.6-5.8-5.8s2.6-5.8,5.8-5.8s5.8,2.6,5.8,5.8C29.9,27.2,27.3,29.8,24.1,29.8z
					 M24.1,20.2c-2.1,0-3.8,1.7-3.8,3.8s1.7,3.8,3.8,3.8s3.8-1.7,3.8-3.8C27.9,22,26.2,20.2,24.1,20.2z"/>
			</g>
			<g>
				<circle class="st2" cx="30.7" cy="18.4" r="1.4"/>
			</g>
		</g>
	</g>
</g>
</svg>
