<?xml version="1.0" encoding="utf-8"?>
<!-- Generator: Adobe Illustrator 22.1.0, SVG Export Plug-In . SVG Version: 6.00 Build 0)  -->
<svg version="1.1" id="Layer_1" xmlns="http://www.w3.org/2000/svg" xmlns:xlink="http://www.w3.org/1999/xlink" x="0px" y="0px"
	 viewBox="0 0 300 150" style="enable-background:new 0 0 300 150;" xml:space="preserve">
<style type="text/css">
	.st0{fill:#430098;}
	.st1{fill:#FFB819;}
	.st2{fill:#FFFFFF;}
	.st3{fill:none;stroke:#FFFFFF;stroke-width:3;stroke-miterlimit:10;}
</style>
<g>
	<rect class="st0" width="300" height="150"/>
	<g>
		<g>
			<g>
				<g>
					<g>
						<g>
							<polygon class="st1" points="277.9,45.2 279.4,44.7 279.8,45.3 278.3,45.8 							"/>
						</g>
					</g>
				</g>
			</g>
			<g>
				<g>
					<g>
						<g>
							<polygon class="st1" points="277.3,44.2 278.8,43.7 279.2,44.4 277.7,44.9 							"/>
						</g>
					</g>
				</g>
			</g>
			<g>
				<g>
					<g>
						<g>
							<polygon class="st1" points="274.8,46.2 276.3,45.7 276.7,46.4 275.2,46.9 							"/>
						</g>
					</g>
				</g>
			</g>
			<g>
				<g>
					<g>
						<g>
							<polygon class="st1" points="274.2,45.2 275.6,44.8 276.1,45.4 274.6,45.9 							"/>
						</g>
					</g>
				</g>
			</g>
			<g>
				<g>
					<g>
						<ellipse class="st1" cx="281.5" cy="52.1" rx="1.4" ry="1"/>
					</g>
				</g>
			</g>
			<g>
				<g>
					<g>
						<path class="st2" d="M282.3,53.3c-1,0.3-2.1,0-2.5-0.7c-0.4-0.7,0-1.5,0.9-1.8c1-0.3,2.1,0,2.5,0.7
							C283.6,52.2,283.2,53,282.3,53.3z M281.1,51.5c-0.5,0.2-0.7,0.5-0.5,0.9c0.2,0.3,0.8,0.5,1.2,0.3s0.7-0.5,0.5-0.9
							C282.1,51.5,281.5,51.3,281.1,51.5z"/>
					</g>
				</g>
			</g>
			<g>
				<g>
					<g>
						<g>
							<polygon class="st2" points="281.7,54.5 283.8,53.8 284.2,54.5 282.1,55.1 							"/>
						</g>
					</g>
				</g>
			</g>
		</g>
		<g>
			<g>
				<g>
					<path class="st2" d="M285.6,51.8c-0.5-0.1-0.7-0.8-0.7-1.1l0-0.1c-0.2-0.9-0.8-1.5-1.6-1.8c-0.9-0.3-2-0.2-2.7-0.1l-1.7-2.6
						l0.6-0.2l-1.5-2.4l-3.4,1.1l1.5,2.4l0.6-0.2l1.7,2.6c-0.6,0.3-1.3,0.8-1.5,1.4c-0.2,0.7,0.1,1.3,0.8,2l0,0
						c0.3,0.2,0.9,0.7,0.7,1.1c-0.6,0.9-0.6,2.1,0.1,3.1c0.7,1.1,2.5,2.2,6.7,0.8c4.3-1.4,4.3-3,3.6-4.1
						C288.2,52.8,287,52.1,285.6,51.8z M276.6,46.2l-0.7-1.1l1.6-0.5l0.7,1.1l-0.6,0.2l2,3.2c0,0-0.1,0-0.1,0c0,0-0.1,0-0.2,0.1
						c0,0-0.1,0-0.2,0.1l-2-3.2L276.6,46.2z M284.8,57.3c-2.8,0.9-4.7,0.8-5.5-0.4c-0.5-0.8-0.6-1.7-0.1-2.5
						c0.5-0.8-0.6-1.7-0.9-1.8c-0.6-0.5-0.8-1-0.6-1.4c0.2-0.6,1.1-1,1.6-1.2l1.1-0.3c0.6-0.2,1.6-0.3,2.4-0.1
						c0.5,0.2,0.9,0.6,1.1,1.3c0,0.2,0.2,1.4,1.4,1.7c1.1,0.2,2.1,0.9,2.6,1.7C288.7,55.3,287.6,56.4,284.8,57.3z"/>
				</g>
			</g>
		</g>
	</g>
	<g>
		<g>
			<g>
				<g>
					<g>
						<path class="st2" d="M147.4,70.5v9.2c-0.5-0.3-1.2-0.5-1.9-0.5c-1.7,0-3,1-3,2.3s1.3,2.3,3,2.3c1.6,0,2.9-0.9,3-2.1h0v-7.5
							l7.9-1.4v5.6c-0.5-0.3-1.2-0.5-1.9-0.5c-1.7,0-3,1-3,2.3s1.3,2.3,3,2.3c1.7,0,3-1,3-2.3V68.7L147.4,70.5z M145.5,82.8
							c-1.1,0-1.9-0.6-1.9-1.4c0-0.8,0.9-1.4,1.9-1.4s1.9,0.6,1.9,1.4C147.4,82.2,146.5,82.8,145.5,82.8z M148.5,73.1v-1.9l7.9-1.3
							v1.9L148.5,73.1z M154.5,81.5c-1.1,0-1.9-0.6-1.9-1.4c0-0.7,0.9-1.4,1.9-1.4c1.1,0,1.9,0.6,1.9,1.4
							C156.4,80.8,155.6,81.5,154.5,81.5z"/>
					</g>
				</g>
			</g>
			<g>
				<g>
					<g>
						<polygon class="st1" points="148.5,73.1 148.5,71.2 156.4,69.9 156.4,71.8 						"/>
					</g>
				</g>
			</g>
		</g>
	</g>
	<g>
		<g>
			<g>
				<g>
					<polygon class="st1" points="70.8,48.8 68.4,46.2 62.1,53.2 62.6,54.8 65.2,54 					"/>
				</g>
			</g>
		</g>
		<g>
			<g>
				<g>
					<g>
						<g>
							<polygon class="st2" points="62.3,54.2 62.9,54.9 61.8,55.8 61.2,55.1 							"/>
						</g>
					</g>
				</g>
			</g>
			<g>
				<g>
					<g>
						<path class="st2" d="M73.3,41.4c0,0-3.1,0-3.9,1.3c-0.8,1.3,1.4,4.1,2.7,5.1c1.3,1,2.1,0.3,2.6,0c0.5-0.3,1.3-2.1,1.3-2.4
							c0-0.3,0.3-1.3,0-1.6c-0.3-0.3-0.9-1.3-1.1-1.4C74.7,42.3,73.3,41.4,73.3,41.4z"/>
					</g>
				</g>
			</g>
			<g>
				<g>
					<g>
						<path class="st2" d="M72,40.8c-2.3,0-4.2,1.9-4.2,4.2c0,0.3,0,0.6,0.1,0.9l-5.9,7c-0.1,0.1-0.3,0.3-0.3,0.5
							c-0.1,0.4,0.1,0.8,0.4,1.3c0.3,0.4,0.7,0.6,1.1,0.6c0,0,0,0,0,0c0.4,0,0.7-0.3,0.8-0.4l7-5.8c0.3,0.1,0.6,0.1,0.9,0.1
							c2.3,0,4.2-1.9,4.2-4.2C76.2,42.7,74.3,40.8,72,40.8z M72.8,42.8v-0.9c0.2,0,0.4,0.1,0.6,0.2v0.7
							C73.3,42.8,72.8,42.8,72.8,42.8z M73.3,43.7v0.6h-0.6v-0.6H73.3z M71.9,42.8h-0.6v-0.9c0.2,0,0.4-0.1,0.6-0.1V42.8z
							 M71.9,43.7v0.6h-0.6v-0.6H71.9z M71.3,45.2h0.6v0.7h-0.6V45.2z M70.4,44.3h-0.5c-0.1-0.2-0.2-0.4-0.3-0.6h0.9L70.4,44.3
							L70.4,44.3z M71.9,46.8V47c0,0-0.1-0.1-0.1-0.1H71.9z M72.8,47.7v-0.9h0.6V48C73.2,47.9,73,47.8,72.8,47.7z M72.8,45.9v-0.7
							h0.6v0.7H72.8z M74.3,45.2h1c0,0.2,0,0.5-0.1,0.7h-0.9C74.3,45.9,74.3,45.2,74.3,45.2z M74.3,44.3v-0.6H75
							c0.1,0.2,0.2,0.4,0.2,0.6H74.3z M74.4,42.8h-0.1v-0.1C74.3,42.7,74.3,42.7,74.4,42.8z M70.4,42.2v0.5h-0.7
							C69.9,42.6,70.1,42.4,70.4,42.2z M63.5,54.3L63.5,54.3c-0.1,0-0.1,0.1-0.2,0.1c-0.1,0-0.2-0.1-0.4-0.3
							c-0.2-0.3-0.3-0.4-0.3-0.5l5.7-6.7c0.4,0.8,1,1.4,1.8,1.8L63.5,54.3z M68.7,45c0-0.2,0-0.5,0.1-0.7c0.6,1.1,1.8,3,3.2,4
							c0,0,0,0,0,0C70.2,48.3,68.7,46.9,68.7,45z M74.3,47.4v-0.6h0.5C74.6,47,74.5,47.2,74.3,47.4z"/>
					</g>
				</g>
			</g>
		</g>
	</g>
	<g>
		<g>
			<g>
				<path class="st3" d="M-411.2,264.3"/>
			</g>
		</g>
	</g>
	<g>
		<g>
			<g>
				<g>
					<g>
						<path class="st2" d="M39.8,72.4c0.2-0.1,0.4-0.1,0.7,0l8.2,3.5l-1.2,0.5c-0.2,0.1-0.4,0.1-0.7,0l-8.2-3.5L39.8,72.4z"/>
					</g>
				</g>
			</g>
			<g>
				<g>
					<g>
						<path class="st2" d="M42.2,71.2c0.2-0.1,0.4-0.1,0.7,0l5.9,2.7l-1.3,0.4c-0.2,0.1-0.4,0.1-0.7,0l-5.9-2.7L42.2,71.2z"/>
					</g>
				</g>
			</g>
		</g>
		<g>
			<g>
				<g>
					<g>
						<g>
							<path class="st1" d="M40.8,71.8c0.2-0.1,0.4-0.1,0.7,0l7.3,3.2l-1.1,0.4c-0.2,0.1-0.4,0.1-0.7,0l-7.3-3.2L40.8,71.8z"/>
						</g>
					</g>
				</g>
			</g>
			<g>
				<g>
					<g>
						<g>
							<g>
								<path class="st1" d="M40.6,82.2c-1.3,0-2.3-3.1-2.9-4.8c-0.2-0.5,0.2-1.1,0.7-1.1l0.3,0c0.3,0,0.6,0.1,0.7,0.3
									c0.8,0.9,2.3,2,3.5,2c1.5,0,3.2-1.1,4-1.8c0.2-0.2,0.4-0.2,0.7-0.2l0.4,0.1c0.5,0.1,0.9,0.6,0.7,1.1
									c-0.5,1.6-1.6,4.8-4.1,4.8C44.6,82.5,42.8,83.1,40.6,82.2z"/>
							</g>
						</g>
					</g>
				</g>
				<g>
					<g>
						<g>
							<g>
								<path class="st1" d="M47.1,72.1c0.2-0.1,0.5,0,0.7,0.1l0.7,0.4l-8.9,2.1c-0.2,0.1-0.5,0-0.7-0.1l-0.7-0.4L47.1,72.1z"/>
							</g>
						</g>
					</g>
				</g>
				<g>
					<g>
						<g>
							<g>
								<path class="st2" d="M42.8,83.1c-1.3,0-2.6-0.2-3.7-0.7l-0.2-0.1l0-0.1c-0.1-0.2-1.6-4.3-1.6-7c-0.1-1.5,1.3-2.7,2.6-3.8
									c0.9-0.8,1.8-1.6,2.1-2.4c0.1-0.4,0.5-0.6,0.8-0.6l0,0c0.7,0,1.1,0.8,0.7,1.4c-0.5,0.7-1.2,1.3-1.9,1.9
									c-1.2,1.1-2.5,2.2-2.5,3.5c0.1,2.1,1,5.2,1.4,6.4c0.1,0.3,0.3,0.5,0.6,0.6c1.2,0.3,2.9,0.1,3.6,0c0.2,0,0.3-0.1,0.4-0.2
									c2.1-1.7,2.3-5.9,1.8-6.7c-0.4-0.8-0.1-1.8,0.3-2.9c0.1-0.2,0.1-0.4,0.2-0.6c0.3-1,1.9-2.7,2.5-3.4c0.2-0.2,0.4-0.3,0.6-0.3
									l1.6,0c0,0-2.5,2.6-2.8,3.8c-0.1,0.2-0.1,0.4-0.2,0.6c-0.3,1-0.6,2-0.3,2.6c0.4,0.9,0.4,5.7-2.4,7.5l-0.1,0.1l-0.2,0
									C45.4,82.9,44.1,83.1,42.8,83.1z"/>
							</g>
						</g>
					</g>
				</g>
			</g>
		</g>
		<g>
			<g>
				<g>
					<path class="st2" d="M43.5,79c-0.2,0-0.4,0-0.7,0c-3.6-0.3-5.4-2.7-5.6-2.9l1.6-0.2c0.3,0,0.6,0.1,0.8,0.3c0.6,0.7,2,1.8,3.7,2
						c1.3,0.1,2.7-0.9,3.3-1.7c0.2-0.2,0.5-0.3,0.7-0.3l1.6,0.2C48.7,76.6,47,79,43.5,79z"/>
				</g>
			</g>
		</g>
		<g>
			<g>
				<g>
					<g>
						<path class="st2" d="M48.2,71c0.2-0.1,0.5,0,0.7,0.2l0.7,0.5l-9.9,2.1c-0.2,0.1-0.5,0-0.7-0.2l-0.7-0.5L48.2,71z"/>
					</g>
				</g>
			</g>
			<g>
				<g>
					<g>
						<path class="st2" d="M47.3,72.8c0.2-0.1,0.5,0,0.7,0.1l0.7,0.5l-9.5,2.2c-0.2,0.1-0.5,0-0.7-0.1L37.7,75L47.3,72.8z"/>
					</g>
				</g>
			</g>
		</g>
	</g>
	<g>
		<g>
			<g>
				<g>
					<path class="st1" d="M175.1,46.7l-1.8-0.2l-1.2,2l-1.2,0.4l-1.6,0.1l-0.6,0.2c0,0,0.9,4.1,5.6,3.8l-0.6-3
						C173.7,50.1,175.5,49.5,175.1,46.7z"/>
				</g>
			</g>
		</g>
		<g>
			<g>
				<g>
					<g>
						<g>
							<path class="st2" d="M173.6,53.5c-0.4,0-1,0-1.7-0.2c-1.4-0.4-3.1-1.5-3.4-4.3c0-0.1,0-0.2,0.1-0.3s0.2-0.1,0.3-0.1l2.8,0.1
								c0.2-0.4,0.7-1.2,1-2.2c0.1-0.2,0.2-0.3,0.5-0.3l2,0.1c0.2,0,0.3,0.1,0.4,0.3c0.2,0.8,0.2,2.5-1.4,3.7l0.5,2.7c0,0,0,0,0,0.1
								C174.6,53.5,174.2,53.5,173.6,53.5z M169.5,49.3c0.3,1.6,1.2,2.6,2.7,3.1c0.6,0.2,1.2,0.2,1.5,0.2l-0.4-2.5
								c0-0.2,0-0.3,0.2-0.4c1.4-0.9,1.4-2.1,1.4-2.6l-1.3-0.1c-0.4,1.3-1.1,2.3-1.2,2.3c-0.1,0.1-0.2,0.2-0.4,0.2L169.5,49.3z"/>
						</g>
					</g>
				</g>
			</g>
			<g>
				<g>
					<g>
						<g>
							<path class="st2" d="M172.6,58c-0.7,0-0.9-0.4-1-0.7l0,0v-4.4h0.9v4.2c0,0,0.1,0,0.2,0v-4h0.9l0,4.2
								C173.6,57.6,173.4,58,172.6,58z"/>
						</g>
					</g>
				</g>
			</g>
			<g>
				<g>
					<g>
						<g>
							<path class="st2" d="M169.3,51.1l-4.5-1.1c-0.2-0.1-0.6-0.4-0.4-1.1c0.2-0.7,0.7-0.8,0.9-0.8l0,0l4,1l-0.2,0.8l-3.8-0.9
								c0,0,0,0,0,0.1c0,0,0,0.1,0,0.1l4.3,1.1L169.3,51.1z"/>
						</g>
					</g>
				</g>
			</g>
			<g>
				<g>
					<g>
						<g>
							<polygon class="st2" points="168.5,48 168.3,47.2 173,46 179.3,46.1 179.3,47 173.1,46.9 							"/>
						</g>
					</g>
				</g>
			</g>
			<g>
				<g>
					<g>
						<g>
							<path class="st2" d="M174.1,46.4c-0.9,0-1.6-0.7-1.6-1.6s0.7-1.6,1.6-1.6c0.9,0,1.6,0.7,1.6,1.6S175,46.4,174.1,46.4z
								 M174.1,44c-0.4,0-0.8,0.3-0.8,0.8s0.3,0.8,0.8,0.8c0.4,0,0.8-0.3,0.8-0.8S174.6,44,174.1,44z"/>
						</g>
					</g>
				</g>
			</g>
			<g>
				<g>
					<g>
						<g>
							<ellipse class="st2" cx="173" cy="43.7" rx="0.7" ry="0.6"/>
						</g>
					</g>
				</g>
			</g>
		</g>
	</g>
	<g>
		<g>
			<g>
				<g>
					<polygon class="st1" points="260.5,70.2 255.2,70.2 249.1,76.7 253.4,76.7 249.6,82.6 261.1,74.5 256.7,74.3 					"/>
				</g>
			</g>
		</g>
		<g>
			<g>
				<g>
					<path class="st2" d="M247.4,84.8l4.9-7.7h-4.4l6.8-7.3h6.9l-3.8,4.2l4.6,0.2L247.4,84.8z M250.3,76.3h4.1l-2.6,4.1l7.9-5.6
						l-4.1-0.1l3.7-4.1h-3.6L250.3,76.3z"/>
				</g>
			</g>
		</g>
	</g>
	<g>
		<g>
			<g>
				<path class="st1" d="M229.7,49.9c-2.6,0-4.8,1.6-4.8,3.5c0,1.9,2.1,3.5,4.8,3.5c2.6,0,4.8-1.6,4.8-3.5
					C234.5,51.4,232.3,49.9,229.7,49.9z M229.7,55.6c-1.7,0-3.1-1-3.1-2.2c0-1.2,1.4-2.2,3.1-2.2c1.7,0,3.1,1,3.1,2.2
					C232.8,54.6,231.4,55.6,229.7,55.6z"/>
			</g>
		</g>
		<g>
			<g>
				<path class="st1" d="M229.6,45.7c-1.3,0-2.4,0.8-2.4,1.8c0,1,1.1,1.8,2.4,1.8c1.3,0,2.4-0.8,2.4-1.8
					C232,46.5,231,45.7,229.6,45.7z"/>
			</g>
		</g>
		<g>
			<g>
				<g>
					<path class="st2" d="M237.3,58.5h-15v-15h15V58.5z M223.7,57.5h12.2V44.6h-12.2V57.5z"/>
				</g>
			</g>
		</g>
		<g>
			<g>
				<g>
					<path class="st2" d="M229.7,57.3c-3,0-5.4-1.8-5.4-3.9s2.4-3.9,5.4-3.9c3,0,5.4,1.8,5.4,3.9S232.7,57.3,229.7,57.3z
						 M229.7,50.5c-2.2,0-4,1.3-4,2.9c0,1.6,1.8,2.9,4,2.9c2.2,0,4-1.3,4-2.9C233.7,51.8,231.9,50.5,229.7,50.5z"/>
				</g>
			</g>
		</g>
		<g>
			<g>
				<g>
					<path class="st2" d="M229.7,55.8c-1.8,0-3.3-1.1-3.3-2.4c0-1.3,1.5-2.4,3.3-2.4c1.8,0,3.3,1.1,3.3,2.4
						C233,54.7,231.5,55.8,229.7,55.8z M229.7,52c-1,0-1.9,0.6-1.9,1.4c0,0.8,0.8,1.4,1.9,1.4c1,0,1.9-0.6,1.9-1.4
						C231.6,52.6,230.7,52,229.7,52z"/>
				</g>
			</g>
		</g>
		<g>
			<g>
				<g>
					<path class="st2" d="M229.7,49.5c-1.7,0-3.1-1-3.1-2.2c0-1.2,1.4-2.2,3.1-2.2c1.7,0,3.1,1,3.1,2.2
						C232.8,48.5,231.4,49.5,229.7,49.5z M229.7,46.1c-0.9,0-1.6,0.5-1.6,1.2c0,0.7,0.7,1.2,1.6,1.2c0.9,0,1.6-0.5,1.6-1.2
						C231.3,46.6,230.6,46.1,229.7,46.1z"/>
				</g>
			</g>
		</g>
		<g>
			<g>
				<g>
					<ellipse class="st2" cx="229.7" cy="47.3" rx="0.9" ry="0.7"/>
				</g>
			</g>
		</g>
		<g>
			<g>
				<g>
					<ellipse class="st2" cx="229.7" cy="53.4" rx="1" ry="0.7"/>
				</g>
			</g>
		</g>
		<g>
			<g>
				<g>
					<g>
						<ellipse class="st2" cx="234.8" cy="45.4" rx="0.4" ry="0.3"/>
					</g>
				</g>
			</g>
			<g>
				<g>
					<g>
						<ellipse class="st2" cx="234.8" cy="56.8" rx="0.4" ry="0.3"/>
					</g>
				</g>
			</g>
			<g>
				<g>
					<g>
						<ellipse class="st2" cx="224.7" cy="56.8" rx="0.4" ry="0.3"/>
					</g>
				</g>
			</g>
			<g>
				<g>
					<g>
						<ellipse class="st2" cx="224.7" cy="45.3" rx="0.4" ry="0.3"/>
					</g>
				</g>
			</g>
		</g>
	</g>
	<g>
		<g>
			<g>
				<g>
					<g>
						<path class="st1" d="M26.5,42.3c0,0,1.2,0.5,1.5,2.2l0.1,4.2l0.2,1.2c0,0-0.4,2.3-2.1,3.6c0,0-0.2-0.1-0.9-0.3
							c-0.6-0.2-0.9-0.3-1-0.5c-0.1-0.2-0.4-0.7-0.4-1c0-0.3-0.3-0.9,0.2-1.1s0.5-0.5,0.9-0.6c0.3-0.1,0.4-0.2,0.8-0.3
							c0.4-0.1,1-0.3,1-0.3l0.2-0.1c0,0,0.3-0.1,0.4-0.2c0.1-0.1,0.1,0,0.3-0.2c0.2-0.2,0.1-1.6,0.1-1.8s-0.5-1.7-0.5-1.7l-4.9,1.9
							c0,0-0.4,0.8-0.3,1.2c0.1,0.4,0.1,3,0,3.3c-0.1,0.4-0.7,1.4-1.4,1.6c-0.7,0.3-1.2,0.6-2,0.4c-0.8-0.2-1,0-1.2-0.4
							c-0.3-0.4-0.7-0.7-0.6-1.1c0-0.4,0.1-1.5,1-1.7c0.9-0.2,1.5-0.5,1.8-0.5c0.3-0.1,0.8-0.2,1.1-0.1c0.3,0.1,0.3,0.5,0.3-0.1
							c0-0.6-0.2-5.1-0.2-5.1s1-1,1.2-1.1C22.3,43.7,26.5,42.3,26.5,42.3z"/>
					</g>
				</g>
			</g>
			<g>
				<g>
					<g>
						<g>
							<g>
								<path class="st2" d="M14.4,53.1c0-0.1,0-0.2,0.1-0.4C14.4,52.9,14.4,53,14.4,53.1z"/>
							</g>
						</g>
					</g>
				</g>
				<g>
					<g>
						<g>
							<g>
								<path class="st2" d="M17.4,56.3c-0.9,0-1.3-0.1-1.5-0.2c-1-0.4-1.8-1.2-1.9-2.2c0-0.2-0.1-0.5,0-0.7l0,0
									c0-0.1,0-0.2,0.1-0.4c0-0.2,0.1-0.5,0.1-0.8l0.7-6.2c0.1-0.4,0.1-0.7,0.1-0.9c0-0.3-0.1-0.4-0.1-0.4c0,0-0.2-0.1-0.7-0.1
									l-0.4,0l-0.1-0.3c-0.1-0.4-0.1-0.7-0.2-0.9c0-0.2,0-0.5,0-0.8l0.1-0.4l0.4,0c1,0,2.5-0.1,4.4-0.2c0.4,0,0.7-0.1,1-0.1
									l1.4-0.1c0.4,0,0.8,0,1.1,0c1.6,0,3,0.3,4.1,0.8l0.8,0.4L26,42.8c-0.9,0.4-1.8,0.8-2.7,1.2c-0.6,0.3-1.2,0.5-1.8,0.7
									l-0.2,0.1c0,0.2,0,0.5,0,0.7c0,0.3,0,0.6,0.1,1l0,0.2l0.2,3.8L21,50.6l0,0c0,0-0.1,0-0.1,0c0,0-0.1,0-0.1,0
									c-1-0.1-1.8,0.1-2.6,0.7c-0.1,0.1-0.2,0.2-0.4,0.3c-0.4,0.4-0.4,0.8-0.3,1.2c0.2,0.4,0.5,0.7,1.1,0.7c0.3,0,0.6,0,0.9-0.1
									c0.5-0.1,1-0.3,1.5-0.7c0.4-0.3,0.7-0.8,0.6-1.3c-0.1-1.6-0.1-1.6-0.1-1.8c0-0.2,0-0.4-0.1-1.8c0-0.4,0-0.8,0.7-1
									c1.1-0.4,2.2-0.9,3.3-1.3l1.1-0.5c0.1,0,0.2-0.1,0.4-0.2l0.4-0.2l0.7-0.4l0,0.8c0.1,1.7,0.1,3,0.1,3.8l0,0.2
									c0,0.1,0,0.2,0,0.3l0,0.5L27.8,50l-0.2,0c-1.1-0.2-2.1,0.1-2.9,0.9c-0.4,0.3-0.5,0.8-0.3,1.2c0.2,0.4,0.5,0.7,1.1,0.7
									c0.1,0,0.2,0,0.4,0H27l-0.9,0.8c-0.3,0.3-0.6,0.5-1,0.7c-1,0.6-2,1-3,1.3c-0.3,0.1-0.8,0.2-1.5,0.3l-0.1,0
									C19.2,56.2,18.2,56.3,17.4,56.3z M16.5,55.3c0.1,0,0.4,0.1,0.9,0.1c0.7,0,1.7-0.1,2.9-0.3l0.1,0c0.8-0.1,1.2-0.2,1.4-0.3
									l0,0c0.9-0.3,1.9-0.7,2.8-1.2c0,0,0,0,0,0c-0.6-0.2-1-0.6-1.2-1.2c-0.3-0.8-0.1-1.6,0.5-2.1c1-0.9,2.2-1.3,3.5-1.2v-0.1
									c0-0.7,0-1.8-0.1-3.1c-0.1,0-0.1,0-0.2,0.1L26,46.3c-1.1,0.4-2.2,0.9-3.4,1.3c0,0-0.1,0-0.1,0c0,0,0,0.1,0,0.1
									c0.1,1.4,0.1,1.6,0.1,1.7c0,0.2,0,0.3,0.1,1.9c0,0.8-0.3,1.5-1,2c-0.6,0.5-1.3,0.8-1.9,0.9c-0.4,0.1-0.8,0.1-1.2,0.1
									c-0.9-0.1-1.6-0.5-1.9-1.3c-0.3-0.8-0.2-1.5,0.5-2.2c0.1-0.1,0.3-0.3,0.4-0.4c0.9-0.7,1.9-1,3-0.9l-0.2-3c0-0.3,0-0.7-0.1-1
									c0-0.2,0-0.5,0-0.7c0-0.4,0.2-0.7,0.6-0.8l0.3-0.1c0.6-0.2,1.2-0.5,1.7-0.7c0.6-0.3,1.1-0.5,1.7-0.8c-1-0.3-2.3-0.4-3.8-0.3
									l-1.4,0.1c-0.2,0-0.6,0.1-1,0.1c-1.7,0.1-3,0.2-4,0.2c0,0.1,0,0.2,0,0.3c0,0.1,0,0.2,0.1,0.5c0.4,0,0.6,0.1,0.8,0.3
									c0.3,0.2,0.5,0.6,0.5,1.1c0,0.3,0,0.6-0.1,1.1L15.1,52c0,0.3-0.1,0.6-0.1,0.8c0,0.1,0,0.3-0.1,0.4c0,0.2,0,0.3,0,0.5
									c0.1,0.7,0.7,1.3,1.4,1.6L16.5,55.3z"/>
							</g>
						</g>
					</g>
				</g>
			</g>
		</g>
		<g>
			<g>
				<g>
					<path class="st2" d="M23,55.3l-0.3-0.9c4.1-1.2,4.6-3,4.6-4.6c0.1-1,0-3.9,0-3.9c0-1.3-0.4-2.2-1.1-2.8c-1.2-1-3-0.8-3-0.8
						l-0.1-0.9c0.1,0,2.2-0.2,3.8,1.1c1,0.8,1.4,2,1.4,3.5c0,0.1,0,3,0,4C28.2,51.9,27.5,54,23,55.3z"/>
				</g>
			</g>
		</g>
	</g>
	<g>
		<g>
			<g>
				<g>
					<rect x="119.7" y="48.1" class="st1" width="1.5" height="7.1"/>
				</g>
			</g>
			<g>
				<g>
					<path class="st2" d="M120.4,55.8c-0.8,0-1.5-0.6-1.5-1.4v-5.7c0-0.8,0.7-1.4,1.5-1.4c0.8,0,1.5,0.6,1.5,1.4v5.7
						C121.9,55.2,121.2,55.8,120.4,55.8z M120.4,48.4c-0.2,0-0.3,0.1-0.3,0.3v5.7c0,0.2,0.1,0.3,0.3,0.3c0.2,0,0.3-0.1,0.3-0.3v-5.7
						C120.7,48.5,120.6,48.4,120.4,48.4z"/>
				</g>
			</g>
			<g>
				<g>
					<path class="st2" d="M119.8,54.9c-2,0-3.7-1.6-3.7-3.6c0-2,1.7-3.6,3.7-3.6v1.1c-1.4,0-2.6,1.1-2.6,2.5c0,1.4,1.1,2.5,2.6,2.5
						V54.9z"/>
				</g>
			</g>
			<g>
				<g>
					<path class="st2" d="M117.7,49.9h-1.2v-3.2c0-1.6,0.5-2.9,1.6-3.9c2.1-2,5.5-2,5.7-2l0,1.1c0,0-3.1,0-4.8,1.6
						c-0.8,0.8-1.2,1.8-1.2,3.1V49.9z"/>
				</g>
			</g>
			<g>
				<g>
					<path class="st2" d="M120.1,44.7l-0.9-0.7c1.6-2.1,4.5-1.8,4.7-1.8l-0.1,1.1C123.7,43.3,121.3,43.1,120.1,44.7z"/>
				</g>
			</g>
		</g>
		<g>
			<g>
				<g>
					<rect x="126" y="48.1" class="st1" width="1.5" height="7.1"/>
				</g>
			</g>
			<g>
				<g>
					<path class="st2" d="M126.8,55.8c-0.8,0-1.5-0.6-1.5-1.4v-5.7c0-0.8,0.7-1.4,1.5-1.4c0.8,0,1.5,0.6,1.5,1.4v5.7
						C128.3,55.2,127.6,55.8,126.8,55.8z M126.8,48.4c-0.2,0-0.3,0.1-0.3,0.3v5.7c0,0.2,0.1,0.3,0.3,0.3c0.2,0,0.3-0.1,0.3-0.3v-5.7
						C127.1,48.5,127,48.4,126.8,48.4z"/>
				</g>
			</g>
			<g>
				<g>
					<path class="st2" d="M127.4,54.9v-1.1c1.4,0,2.6-1.1,2.6-2.5c0-1.4-1.1-2.5-2.6-2.5v-1.1c2,0,3.7,1.6,3.7,3.6
						C131.1,53.3,129.5,54.9,127.4,54.9z"/>
				</g>
			</g>
			<g>
				<g>
					<path class="st2" d="M130.7,49.9h-1.2v-3.2c0-1.3-0.4-2.3-1.2-3.1c-1.7-1.7-4.8-1.6-4.8-1.6l0-1.1c0.1,0,3.6,0,5.7,2
						c1,1,1.6,2.3,1.6,3.9V49.9z"/>
				</g>
			</g>
			<g>
				<g>
					<path class="st2" d="M127.1,44.7c-1.2-1.6-3.6-1.4-3.6-1.3l-0.1-1.1c0.1,0,3.1-0.3,4.7,1.8L127.1,44.7z"/>
				</g>
			</g>
		</g>
	</g>
	<g>
		<g>
			<polygon class="st1" points="199.8,84.1 197.5,84.1 197.5,82.2 196.1,81.9 196.1,72.6 197.5,72.4 197.5,70.7 199.8,70.7 			"/>
			<polygon class="st1" points="206.4,84.1 208.7,84.1 208.7,82.2 210.1,81.9 210.1,72.6 208.7,72.4 208.7,70.7 206.4,70.7 			"/>
		</g>
		<g>
			<g>
				<path class="st2" d="M206.6,79.7h-6.9v-4.9h6.9V79.7z M200.4,78.1h5.4v-1.7h-5.4V78.1z"/>
			</g>
			<g>
				<g>
					<path class="st2" d="M208.3,84.9h-1.8c-0.4,0-0.7-0.6-0.7-1.4V71.3c0-0.8,0.3-1.4,0.7-1.4h1.8c0.4,0,0.7,0.6,0.7,1.4v12.1
						C209,84.2,208.7,84.9,208.3,84.9z M206.6,83.3h1.6V71.5h-1.6V83.3z"/>
				</g>
				<g>
					<path class="st2" d="M209.9,83.3h-1c-0.4,0-0.7-0.6-0.7-1.4V73c0-0.8,0.3-1.4,0.7-1.4h1c0.4,0,0.7,0.6,0.7,1.4v8.9
						C210.6,82.7,210.3,83.3,209.9,83.3z M209,81.7h0.8v-8.5H209V81.7z"/>
				</g>
			</g>
			<g>
				<g>
					<path class="st2" d="M199.7,84.9h-1.8c-0.4,0-0.7-0.6-0.7-1.4V71.3c0-0.8,0.3-1.4,0.7-1.4h1.8c0.4,0,0.7,0.6,0.7,1.4v12.1
						C200.4,84.2,200.1,84.9,199.7,84.9z M198,83.3h1.6V71.5H198C198,71.5,198,83.3,198,83.3z"/>
				</g>
				<g>
					<path class="st2" d="M197.3,83.2h-1c-0.4,0-0.7-0.6-0.7-1.4v-8.9c0-0.8,0.3-1.4,0.7-1.4h1c0.4,0,0.7,0.6,0.7,1.4v8.9
						C198,82.5,197.7,83.2,197.3,83.2z M196.4,81.5h0.8V73h-0.8V81.5z"/>
				</g>
			</g>
		</g>
	</g>
	<g>
		<path class="st1" d="M88.2,75c0.3-0.1,2-0.2,2-0.2l2-3.8l1.7,4.4l1.4-2.8l1.9,2.9l1.8,0.2l-2.3,1.1l-1.1-1.3l-1.8,3.4L92,74.7
			l-1.1,1.8l-2,0.1C88.9,76.6,87.8,75.2,88.2,75z"/>
		<g>
			<path class="st2" d="M94.5,83.2c-0.1,0-0.1,0-0.2,0c-0.1,0-0.2-0.1-0.2-0.2l-5.4-5.7c-2.2-2.4-1.8-4.7-1.4-5.8
				c0.7-2,2.7-3.3,4-3.3c1.8,0,2.8,0.9,3.2,1.4c0.4-0.5,1.4-1.4,3.2-1.4c1.3,0,3.2,1.3,4,3.3c0.4,1.1,0.8,3.3-1.4,5.8L94.9,83
				c0,0.1-0.1,0.1-0.2,0.2C94.7,83.2,94.6,83.2,94.5,83.2C94.5,83.2,94.5,83.2,94.5,83.2z M91.3,69.1c-1.1,0-2.6,1.1-3.2,2.7
				c-0.4,1.1-0.5,2.8,1.2,4.7l5.2,5.5l5.2-5.5c1.8-1.9,1.6-3.6,1.2-4.7c-0.6-1.6-2.2-2.7-3.2-2.7c-2,0-2.7,1.3-2.7,1.3l-0.1,0.2
				c-0.1,0.2-0.2,0.3-0.4,0.3c-0.2,0-0.3-0.1-0.4-0.3L94,70.4C94,70.4,93.4,69.1,91.3,69.1z"/>
		</g>
		<g>
			<path class="st2" d="M93.6,79.3C93.6,79.3,93.6,79.3,93.6,79.3c-0.2,0-0.3-0.1-0.4-0.3l-1.4-3.4l-0.6,1.1
				C91.2,76.9,91,77,90.9,77h0l-2.1,0c-0.2,0-0.4-0.2-0.4-0.5c0-0.3,0.2-0.5,0.4-0.5l0,0l1.8,0l0.9-1.6c0.1-0.1,0.2-0.2,0.4-0.2
				c0.2,0,0.3,0.1,0.4,0.3l1.3,3.4l1.4-2.6c0.1-0.1,0.2-0.2,0.3-0.2c0.1,0,0.3,0.1,0.4,0.2l0.8,1.2l0.9-0.3l-0.5,0
				c-0.1,0-0.3-0.1-0.3-0.2l-1.4-2.2L94.2,76c-0.1,0.2-0.2,0.2-0.4,0.3c-0.2,0-0.3-0.1-0.4-0.3L92,72.2l-1.6,3
				c-0.1,0.1-0.2,0.2-0.4,0.2h-1.9c-0.2,0-0.4-0.2-0.4-0.5c0-0.3,0.2-0.5,0.4-0.5h1.6l1.9-3.6c0.1-0.2,0.2-0.2,0.4-0.2
				s0.3,0.1,0.4,0.3l1.3,3.7l1-2.2c0.1-0.1,0.2-0.2,0.3-0.3c0.1,0,0.3,0.1,0.4,0.2l1.7,2.7l2.5,0.1c0.1,0,0.2,0,0.2,0.1
				c0.1,0.1,0.2,0.3,0.2,0.5s-0.1,0.3-0.3,0.4l-3.3,1.2c-0.2,0.1-0.3,0-0.5-0.2l-0.6-0.9l-1.5,2.8C93.9,79.3,93.7,79.3,93.6,79.3z"
				/>
		</g>
	</g>
</g>
</svg>
