<?xml version="1.0" encoding="utf-8"?>
<!-- Generator: Adobe Illustrator 22.1.0, SVG Export Plug-In . SVG Version: 6.00 Build 0)  -->
<svg version="1.1" id="Layer_1" xmlns="http://www.w3.org/2000/svg" xmlns:xlink="http://www.w3.org/1999/xlink" x="0px" y="0px"
	 viewBox="0 0 53.5 53.5" style="enable-background:new 0 0 53.5 53.5;" xml:space="preserve">
<style type="text/css">
	.st0{fill:#FFFFFF;}
	.st1{fill:#4A3494;}
</style>
<g>
	<circle class="st0" cx="36" cy="11.7" r="3.2"/>
	<circle class="st0" cx="36" cy="41" r="3.2"/>
	<circle class="st0" cx="13.3" cy="25.9" r="3.2"/>
</g>
<path class="st1" d="M35.9,35.1c-1.2,0-2.4,0.4-3.4,1.1L20,28.5c0.3-0.8,0.5-1.7,0.5-2.6c0-0.6-0.1-1.3-0.2-1.8l12.2-7.7
	c1,0.7,2.2,1.2,3.5,1.2c3.2,0,5.9-2.6,5.9-5.9c0-3.2-2.6-5.9-5.9-5.9c-3.2,0-5.9,2.6-5.9,5.9c0,0.4,0,0.8,0.1,1.1L18,20.5
	c-1.2-1.1-2.9-1.7-4.6-1.7c-3.9,0-7.1,3.2-7.1,7.1S9.5,33,13.4,33c1.5,0,2.9-0.5,4-1.2l12.9,7.9C30.1,40.1,30,40.5,30,41
	c0,3.2,2.6,5.9,5.9,5.9c3.2,0,5.9-2.6,5.9-5.9C41.8,37.7,39.1,35.1,35.9,35.1z M35.9,9.2c1.4,0,2.5,1.1,2.5,2.5s-1.1,2.5-2.5,2.5
	s-2.5-1.1-2.5-2.5S34.5,9.2,35.9,9.2z M13.3,28.4c-1.4,0-2.5-1.1-2.5-2.5s1.1-2.5,2.5-2.5s2.5,1.1,2.5,2.5S14.7,28.4,13.3,28.4z
	 M35.9,43.5c-1.4,0-2.5-1.1-2.5-2.5s1.1-2.5,2.5-2.5s2.5,1.1,2.5,2.5S37.3,43.5,35.9,43.5z"/>
</svg>
