<?xml version="1.0" encoding="utf-8"?>
<!-- Generator: Adobe Illustrator 19.2.0, SVG Export Plug-In . SVG Version: 6.00 Build 0)  -->
<svg version="1.1" id="Layer_1" xmlns="http://www.w3.org/2000/svg" xmlns:xlink="http://www.w3.org/1999/xlink" x="0px" y="0px"
	 viewBox="0 0 243 241.2" style="enable-background:new 0 0 243 241.2;" xml:space="preserve">
<style type="text/css">
	.st0{fill:#FFFFFF;}
	.st1{fill:#FFB819;}
	.st2{fill:#430098;}
</style>
<g>
	<g>
		<rect class="st0" width="243" height="241.2"/>
	</g>
	<g>
		<g>
			<g>
				<g>
					<g>
						<g>
							<g>
								
									<rect x="10.2" y="167.2" transform="matrix(0.9106 -0.4132 0.4132 0.9106 -68.2363 19.333)" class="st1" width="0.7" height="0.4"/>
							</g>
						</g>
					</g>
				</g>
				<g>
					<g>
						<g>
							<g>
								
									<rect x="10" y="166.6" transform="matrix(0.9103 -0.414 0.414 0.9103 -68.149 19.2503)" class="st1" width="0.7" height="0.4"/>
							</g>
						</g>
					</g>
				</g>
				<g>
					<g>
						<g>
							<g>
								
									<rect x="8.8" y="167.8" transform="matrix(0.9104 -0.4138 0.4138 0.9104 -68.7209 18.8647)" class="st1" width="0.7" height="0.4"/>
							</g>
						</g>
					</g>
				</g>
				<g>
					<g>
						<g>
							<g>
								
									<rect x="8.6" y="167.3" transform="matrix(0.9105 -0.4136 0.4136 0.9105 -68.4738 18.6967)" class="st1" width="0.7" height="0.4"/>
							</g>
						</g>
					</g>
				</g>
				<g>
					<g>
						<g>
							
								<ellipse transform="matrix(0.9105 -0.4135 0.4135 0.9105 -69.8915 20.1981)" class="st1" cx="11.7" cy="171.6" rx="0.6" ry="0.6"/>
						</g>
					</g>
				</g>
				<g>
					<g>
						<g>
							<path class="st2" d="M12,172.3c-0.4,0.2-0.9,0-1.1-0.4c-0.2-0.4,0-0.9,0.4-1.1c0.4-0.2,0.9,0,1.1,0.4
								C12.6,171.6,12.5,172.1,12,172.3z M11.5,171.2c-0.2,0.1-0.3,0.3-0.2,0.5c0.1,0.2,0.3,0.3,0.5,0.2c0.2-0.1,0.3-0.3,0.2-0.5
								C12,171.2,11.7,171.1,11.5,171.2z"/>
						</g>
					</g>
				</g>
				<g>
					<g>
						<g>
							<g>
								
									<rect x="11.8" y="172.7" transform="matrix(0.9103 -0.4139 0.4139 0.9103 -70.4863 20.6126)" class="st2" width="1" height="0.4"/>
							</g>
						</g>
					</g>
				</g>
			</g>
			<g>
				<g>
					<g>
						<path class="st2" d="M13.5,171.3c-0.2-0.1-0.3-0.4-0.3-0.6v-0.1c-0.1-0.5-0.3-0.9-0.7-1.1c-0.4-0.2-0.9-0.1-1.2-0.1l-0.7-1.6
							l0.2-0.1l-0.6-1.4l-1.5,0.7l0.6,1.4l0.2-0.1l0.7,1.6c-0.2,0.2-0.6,0.5-0.6,0.9c-0.1,0.4,0,0.8,0.4,1.2l0,0
							c0.1,0.1,0.4,0.4,0.3,0.6c-0.2,0.6-0.2,1.2,0,1.9c0.3,0.7,1.1,1.3,2.9,0.5s1.9-1.8,1.6-2.5C14.6,172,14.1,171.5,13.5,171.3z
							 M9.6,168l-0.3-0.7L10,167l0.3,0.7l-0.2,0.1l0.9,1.9h-0.1c0,0-0.1,0-0.1,0.1c0,0-0.1,0-0.1,0.1l-0.9-1.9L9.6,168z M13.1,174.7
							c-1.2,0.6-2,0.4-2.4-0.2c-0.2-0.5-0.2-1.1,0-1.5c0.2-0.5-0.2-1-0.4-1.1c-0.2-0.3-0.3-0.6-0.2-0.9c0.1-0.4,0.4-0.6,0.7-0.7
							l0.4-0.2c0.2-0.1,0.7-0.2,1-0.1c0.2,0.1,0.4,0.4,0.5,0.7c0,0.1,0.1,0.9,0.6,1s0.9,0.5,1.1,1C14.8,173.5,14.3,174.1,13.1,174.7
							z"/>
					</g>
				</g>
			</g>
		</g>
		<g>
			<g>
				<g>
					<g>
						<g>
							<path class="st2" d="M109,198.9v4.6c-0.2-0.2-0.5-0.2-0.8-0.2c-0.7,0-1.3,0.5-1.3,1.1c0,0.6,0.6,1.1,1.3,1.1
								c0.7,0,1.2-0.5,1.3-1.1l0,0v-3.7l3.4-0.7v2.8c-0.2-0.2-0.5-0.2-0.8-0.2c-0.7,0-1.3,0.5-1.3,1.1s0.6,1.1,1.3,1.1
								c0.7,0,1.3-0.5,1.3-1.1V198L109,198.9z M108.2,205c-0.4,0-0.8-0.3-0.8-0.7c0-0.4,0.4-0.7,0.8-0.7c0.4,0,0.8,0.3,0.8,0.7
								C109,204.6,108.6,205,108.2,205z M109.4,200.2v-0.9l3.4-0.7v0.9L109.4,200.2z M112.1,204.3c-0.4,0-0.8-0.3-0.8-0.7
								c0-0.4,0.4-0.7,0.8-0.7s0.8,0.3,0.8,0.7C112.9,204,112.5,204.3,112.1,204.3z"/>
						</g>
					</g>
				</g>
				<g>
					<g>
						<g>
							<polygon class="st1" points="109.4,200.2 109.4,199.2 112.9,198.5 112.9,199.5 							"/>
						</g>
					</g>
				</g>
			</g>
		</g>
		<g>
			<g>
				<g>
					<g>
						<polygon class="st1" points="66.2,140.8 65.2,139.7 62.5,142.7 62.8,143.4 63.9,143 						"/>
					</g>
				</g>
			</g>
			<g>
				<g>
					<g>
						<g>
							<g>
								
									<rect x="62.2" y="143.2" transform="matrix(0.7717 -0.636 0.636 0.7717 -76.9414 72.5174)" class="st2" width="0.6" height="0.4"/>
							</g>
						</g>
					</g>
				</g>
				<g>
					<g>
						<g>
							<path class="st2" d="M67.3,137.7c0,0-1.3,0-1.7,0.6c-0.3,0.6,0.6,1.7,1.1,2.2c0.6,0.4,0.9,0.1,1.1,0c0.2-0.1,0.6-0.9,0.6-1
								s0.1-0.6,0-0.7c-0.1-0.1-0.4-0.6-0.4-0.6C67.8,138.1,67.3,137.7,67.3,137.7z"/>
						</g>
					</g>
				</g>
				<g>
					<g>
						<g>
							<path class="st2" d="M66.7,137.4c-1,0-1.7,0.8-1.7,1.7c0,0.1,0,0.2,0.1,0.4l-2.5,2.9c-0.1,0.1-0.1,0.1-0.1,0.2
								c-0.1,0.2,0,0.3,0.2,0.6c0.1,0.2,0.2,0.2,0.4,0.2l0,0c0.2,0,0.3-0.1,0.4-0.1l2.9-2.4c0.1,0,0.2,0.1,0.4,0.1
								c1,0,1.7-0.8,1.7-1.7C68.5,138.2,67.7,137.4,66.7,137.4z M67,138.2v-0.4c0.1,0,0.2,0.1,0.2,0.1v0.3H67z M67.3,138.7v0.2H67
								v-0.2H67.3z M66.6,138.2h-0.2v-0.4c0.1,0,0.2,0,0.2-0.1V138.2z M66.6,138.7v0.2h-0.2v-0.2H66.6z M66.4,139.3h0.2v0.3h-0.2
								V139.3z M66,138.9h-0.2c-0.1-0.1-0.1-0.2-0.1-0.2H66V138.9z M66.6,140L66.6,140L66.6,140L66.6,140z M67,140.4V140h0.2v0.5
								C67.2,140.4,67.1,140.4,67,140.4z M67,139.6v-0.3h0.2v0.3H67z M67.6,139.3h0.4c0,0.1,0,0.2-0.1,0.3h-0.4V139.3z M67.6,138.9
								v-0.2H68c0.1,0.1,0.1,0.2,0.1,0.2H67.6z M67.7,138.2L67.7,138.2L67.7,138.2L67.7,138.2z M66,138.1v0.2h-0.3
								C65.8,138.2,65.9,138.1,66,138.1z M63.2,143.1L63.2,143.1c0,0-0.1,0.1-0.1,0.1c-0.1,0-0.1-0.1-0.1-0.1
								c-0.1-0.1-0.1-0.2-0.1-0.2l2.4-2.8c0.2,0.3,0.4,0.6,0.7,0.7L63.2,143.1z M65.3,139.2c0-0.1,0-0.2,0-0.3
								c0.2,0.5,0.7,1.2,1.4,1.7l0,0C66,140.6,65.3,140,65.3,139.2z M67.6,140.2V140h0.2C67.8,140.1,67.8,140.2,67.6,140.2z"/>
						</g>
					</g>
				</g>
			</g>
		</g>
		<g>
			<g>
				<g>
					<g>
						<g>
							
								<rect x="101.6" y="138.9" transform="matrix(0.7299 -0.6835 0.6835 0.7299 -68.3622 107.502)" class="st2" width="0.4" height="2.7"/>
						</g>
					</g>
				</g>
				<g>
					<g>
						<g>
							
								<rect x="101.9" y="138.3" transform="matrix(0.7566 -0.6538 0.6538 0.7566 -66.2686 100.6749)" class="st2" width="0.4" height="2.1"/>
						</g>
					</g>
				</g>
			</g>
			<g>
				<g>
					<g>
						<g>
							<g>
								
									<rect x="101.8" y="138.6" transform="matrix(0.7366 -0.6763 0.6763 0.7366 -67.6918 105.8093)" class="st1" width="0.4" height="2.5"/>
							</g>
						</g>
					</g>
				</g>
				<g>
					<g>
						<g>
							<g>
								<g>
									<path class="st1" d="M101.2,144.5c-0.4,0-0.6-2.9-0.7-3.2l0.4-0.1c0.2,0.5,0.5,1.3,0.8,1.2c0.4,0,0.8-0.7,0.9-1.1l0.4,0.2
										c-0.1,0.1-0.2,3.1-1,3.2C102.1,144.7,101.7,145.1,101.2,144.5z"/>
								</g>
							</g>
						</g>
					</g>
					<g>
						<g>
							<g>
								<g>
									
										<rect x="100.7" y="139.5" transform="matrix(0.8635 -0.5043 0.5043 0.8635 -56.5532 70.4179)" class="st1" width="2.4" height="0.4"/>
								</g>
							</g>
						</g>
					</g>
					<g>
						<g>
							<g>
								<g>
									<path class="st2" d="M101.7,145.1c-0.3,0-0.6-0.1-0.8-0.4l-0.1-0.1v-0.1c0-0.1-0.3-2.4-0.4-3.9c0-0.8,0.3-1.5,0.6-2.1
										c0.2-0.6,0.5-1.1,0.5-1.6h0.4c0,0.7-0.2,1.2-0.6,1.8c-0.2,0.6-0.6,1.2-0.6,1.9c0,1.4,0.3,3.4,0.4,3.7
										c0.3,0.3,0.8,0.1,0.9,0.1c0.5-0.9,0.6-3.3,0.4-3.8c-0.1-0.4,0-1,0.1-1.6c0-0.1,0-0.2,0.1-0.3c0.1-0.7,0.6-2,0.6-2h0.4
										c0,0-0.6,1.4-0.6,2.1c0,0.1,0,0.2-0.1,0.3c-0.1,0.6-0.1,1.1-0.1,1.4c0.1,0.5,0.1,3.1-0.5,4.1v0.1h-0.1
										C102.3,145,102,145.1,101.7,145.1z"/>
								</g>
							</g>
						</g>
					</g>
				</g>
			</g>
			<g>
				<g>
					<g>
						<path class="st2" d="M101.8,142.8c-0.1,0-0.1,0-0.1,0c-0.8-0.2-1.2-1.5-1.2-1.6l0.4-0.1c0.1,0.3,0.4,1.2,0.9,1.3
							c0.4,0.1,0.7-0.7,0.8-1.1l0.4,0.1C103,141.5,102.6,142.8,101.8,142.8z"/>
					</g>
				</g>
			</g>
			<g>
				<g>
					<g>
						<g>
							
								<rect x="100.6" y="139" transform="matrix(0.879 -0.4769 0.4769 0.879 -54.0319 65.4497)" class="st2" width="2.6" height="0.4"/>
						</g>
					</g>
				</g>
				<g>
					<g>
						<g>
							
								<rect x="100.5" y="139.9" transform="matrix(0.8668 -0.4986 0.4986 0.8668 -56.3341 69.4034)" class="st2" width="2.5" height="0.4"/>
						</g>
					</g>
				</g>
			</g>
		</g>
		<g>
			<g>
				<g>
					<g>
						<path class="st1" d="M75.1,200l-1-0.1l-0.7,1.2l-0.7,0.2l-0.9,0.1l-0.3,0.1c0,0,0.5,2.4,3.2,2.2l-0.3-1.7
							C74.2,202,75.3,201.7,75.1,200z"/>
					</g>
				</g>
			</g>
			<g>
				<g>
					<g>
						<g>
							<g>
								<path class="st2" d="M74.2,204c-0.2,0-0.6,0-1-0.1c-0.8-0.2-1.7-0.9-1.9-2.5c0-0.1,0-0.1,0.1-0.2c0.1-0.1,0.1-0.1,0.2-0.1
									l1.6,0.1c0.1-0.2,0.4-0.7,0.6-1.2c0-0.1,0.1-0.2,0.2-0.2l1.1,0.1c0.1,0,0.2,0.1,0.2,0.2c0.1,0.4,0.1,1.4-0.8,2.1l0.2,1.6
									c0,0,0,0,0,0.1C74.8,204,74.6,204,74.2,204z M71.9,201.6c0.2,0.9,0.7,1.5,1.5,1.7c0.4,0.1,0.7,0.1,0.9,0.1L74,202
									c0-0.1,0-0.2,0.1-0.2c0.7-0.5,0.8-1.2,0.8-1.5l-0.7-0.1c-0.2,0.7-0.6,1.3-0.7,1.3c-0.1,0.1-0.1,0.1-0.2,0.1L71.9,201.6z"/>
							</g>
						</g>
					</g>
				</g>
				<g>
					<g>
						<g>
							<g>
								<path class="st2" d="M73.7,206.6c-0.4,0-0.6-0.2-0.6-0.4l0,0v-2.6h0.5v2.4c0,0,0.1,0,0.1,0v-2.3h0.5v2.4
									C74.2,206.3,74.1,206.6,73.7,206.6z"/>
							</g>
						</g>
					</g>
				</g>
				<g>
					<g>
						<g>
							<g>
								<path class="st2" d="M71.8,202.6l-2.6-0.6c-0.1-0.1-0.4-0.2-0.2-0.6c0.1-0.4,0.4-0.4,0.5-0.4l0,0l2.2,0.6l-0.1,0.5l-2.2-0.5
									c0,0,0,0,0,0.1v0.1l2.4,0.6L71.8,202.6z"/>
							</g>
						</g>
					</g>
				</g>
				<g>
					<g>
						<g>
							<g>
								<polygon class="st2" points="71.3,200.8 71.2,200.3 73.9,199.7 77.5,199.7 77.4,200.2 73.9,200.2 								"/>
							</g>
						</g>
					</g>
				</g>
				<g>
					<g>
						<g>
							<g>
								<path class="st2" d="M74.5,199.9c-0.5,0-0.9-0.4-0.9-0.9c0-0.5,0.4-0.9,0.9-0.9s0.9,0.4,0.9,0.9
									C75.4,199.5,75,199.9,74.5,199.9z M74.5,198.5c-0.2,0-0.4,0.2-0.4,0.4c0,0.2,0.2,0.4,0.4,0.4s0.4-0.2,0.4-0.4
									C74.9,198.7,74.7,198.5,74.5,198.5z"/>
							</g>
						</g>
					</g>
				</g>
				<g>
					<g>
						<g>
							<g>
								<circle class="st2" cx="73.9" cy="198.3" r="0.4"/>
							</g>
						</g>
					</g>
				</g>
			</g>
		</g>
		<g>
			<g>
				<g>
					<g>
						<polygon class="st1" points="13.3,228.4 11.8,228.4 10.1,231.7 11.3,231.7 10.3,234.7 13.5,230.6 12.3,230.5 						"/>
					</g>
				</g>
			</g>
			<g>
				<g>
					<g>
						<path class="st2" d="M9.7,235.8l1.4-3.9H9.8l1.9-3.7h1.9l-1.1,2.1l1.3,0.1L9.7,235.8z M10.5,231.5h1.2l-0.7,2.1l2.2-2.8
							l-1.2-0.1l1.1-2.1H12L10.5,231.5z"/>
					</g>
				</g>
			</g>
		</g>
		<g>
			<g>
				<g>
					<path class="st1" d="M36,201.2c-0.9,0-1.6,0.7-1.6,1.6c0,0.9,0.7,1.6,1.6,1.6s1.6-0.7,1.6-1.6C37.6,201.9,36.9,201.2,36,201.2z
						 M36,203.8c-0.6,0-1-0.4-1-1c0-0.6,0.4-1,1-1s1,0.4,1,1C37.1,203.4,36.6,203.8,36,203.8z"/>
				</g>
			</g>
			<g>
				<g>
					<path class="st1" d="M36,199.4c-0.4,0-0.8,0.4-0.8,0.8c0,0.4,0.4,0.8,0.8,0.8s0.8-0.4,0.8-0.8C36.8,199.7,36.4,199.4,36,199.4z
						"/>
				</g>
			</g>
			<g>
				<g>
					<g>
						<path class="st2" d="M38.5,205.1h-4.9v-6.8h4.9V205.1z M34,204.7h4v-5.9h-4V204.7z"/>
					</g>
				</g>
			</g>
			<g>
				<g>
					<g>
						<path class="st2" d="M36,204.6c-1,0-1.8-0.8-1.8-1.8c0-1,0.8-1.8,1.8-1.8s1.8,0.8,1.8,1.8C37.8,203.8,37,204.6,36,204.6z
							 M36,201.5c-0.7,0-1.3,0.6-1.3,1.3c0,0.7,0.6,1.3,1.3,1.3c0.7,0,1.3-0.6,1.3-1.3C37.3,202.1,36.7,201.5,36,201.5z"/>
					</g>
				</g>
			</g>
			<g>
				<g>
					<g>
						<path class="st2" d="M36,203.9c-0.6,0-1.1-0.5-1.1-1.1c0-0.6,0.5-1.1,1.1-1.1s1.1,0.5,1.1,1.1C37.1,203.4,36.6,203.9,36,203.9
							z M36,202.2c-0.3,0-0.6,0.2-0.6,0.6c0,0.3,0.2,0.6,0.6,0.6c0.3,0,0.6-0.2,0.6-0.6C36.6,202.5,36.4,202.2,36,202.2z"/>
					</g>
				</g>
			</g>
			<g>
				<g>
					<g>
						<path class="st2" d="M36,201c-0.6,0-1-0.4-1-1s0.4-1,1-1s1,0.4,1,1C37,200.6,36.6,201,36,201z M36,199.5
							c-0.3,0-0.6,0.2-0.6,0.6c0,0.3,0.2,0.6,0.6,0.6s0.6-0.2,0.6-0.6C36.6,199.7,36.3,199.5,36,199.5z"/>
					</g>
				</g>
			</g>
			<g>
				<g>
					<g>
						<circle class="st2" cx="36" cy="200" r="0.3"/>
					</g>
				</g>
			</g>
			<g>
				<g>
					<g>
						<circle class="st2" cx="36" cy="202.8" r="0.3"/>
					</g>
				</g>
			</g>
			<g>
				<g>
					<g>
						<g>
							<circle class="st2" cx="37.7" cy="199.2" r="0.1"/>
						</g>
					</g>
				</g>
				<g>
					<g>
						<g>
							<circle class="st2" cx="37.7" cy="204.4" r="0.1"/>
						</g>
					</g>
				</g>
				<g>
					<g>
						<g>
							<circle class="st2" cx="34.3" cy="204.4" r="0.1"/>
						</g>
					</g>
				</g>
				<g>
					<g>
						<g>
							<circle class="st2" cx="34.3" cy="199.2" r="0.1"/>
						</g>
					</g>
				</g>
			</g>
		</g>
		<g>
			<g>
				<g>
					<g>
						<g>
							<path class="st1" d="M49.6,167.9c0,0,0.5,0.2,0.6,1l0.1,1.8l0.1,0.5c0,0-0.1,1-0.9,1.6c0,0-0.1-0.1-0.4-0.1
								c-0.2-0.1-0.4-0.1-0.4-0.2c-0.1-0.1-0.2-0.3-0.1-0.4c0-0.1-0.1-0.4,0.1-0.5s0.2-0.2,0.4-0.2c0.1-0.1,0.2-0.1,0.3-0.1
								s0.4-0.1,0.4-0.1l0.1-0.1c0,0,0.1-0.1,0.2-0.1c0.1,0,0,0,0.1-0.1c0.1-0.1,0.1-0.7,0.1-0.8c0-0.1-0.2-0.7-0.2-0.7l-2,0.9
								c0,0-0.2,0.3-0.1,0.5c0.1,0.2,0,1.3,0,1.4c-0.1,0.2-0.3,0.6-0.6,0.7c-0.3,0.1-0.5,0.2-0.8,0.2c-0.3-0.1-0.4,0-0.5-0.2
								c-0.1-0.2-0.2-0.3-0.2-0.5c0-0.2,0.1-0.7,0.4-0.7c0.4-0.1,0.6-0.2,0.7-0.2c0.1,0,0.3-0.1,0.4-0.1c0.1,0.1,0.1,0.2,0.1-0.1
								c0-0.2-0.1-2.2-0.1-2.2s0.4-0.4,0.5-0.5C48,168.5,49.6,167.9,49.6,167.9z"/>
						</g>
					</g>
				</g>
				<g>
					<g>
						<g>
							<g>
								<g>
									<path class="st2" d="M44.8,172.6c0-0.1,0-0.1,0-0.2C44.8,172.5,44.8,172.6,44.8,172.6z"/>
								</g>
							</g>
						</g>
					</g>
					<g>
						<g>
							<g>
								<g>
									<path class="st2" d="M46,173.9c-0.4,0-0.6-0.1-0.6-0.1c-0.4-0.2-0.7-0.6-0.8-1c0-0.1,0-0.2,0-0.3l0,0c0-0.1,0-0.1,0-0.1
										c0-0.1,0-0.2,0.1-0.4l0.2-2.7c0-0.2,0-0.3,0-0.4s-0.1-0.2-0.1-0.2s-0.1-0.1-0.2-0.1h-0.1l-0.1-0.1
										c-0.1-0.2-0.1-0.3-0.1-0.4c0-0.1,0-0.2,0-0.4v-0.2h0.2c0.4,0,1-0.1,1.7-0.1c0.2,0,0.3,0,0.4-0.1l0.6-0.1c0.2,0,0.3,0,0.4,0
										c0.7,0,1.2,0.1,1.7,0.3l0.3,0.2l-0.3,0.2c-0.4,0.2-0.7,0.4-1.1,0.6c-0.2,0.1-0.5,0.2-0.7,0.3l-0.1,0.1c0,0.1,0,0.2,0,0.3
										s0,0.2,0,0.4v0.1l0.1,1.6h-0.2l0,0c0,0,0,0-0.1,0c0,0,0,0-0.1,0c-0.4-0.1-0.7,0.1-1.1,0.3c-0.1,0.1-0.1,0.1-0.1,0.1
										c-0.1,0.1-0.2,0.3-0.1,0.6c0.1,0.2,0.2,0.3,0.4,0.3c0.1,0,0.2,0,0.4,0c0.2-0.1,0.4-0.1,0.6-0.3c0.2-0.1,0.2-0.3,0.2-0.6
										c0-0.7,0-0.7-0.1-0.8c0-0.1,0-0.2-0.1-0.7c0-0.2,0-0.4,0.3-0.4c0.4-0.2,0.9-0.4,1.4-0.6l0.4-0.2c0.1,0,0.1-0.1,0.1-0.1
										l0.1-0.1l0.3-0.2v0.3c0.1,0.7,0.1,1.3,0.1,1.7v0.1c0,0.1,0,0.1,0,0.1v0.2h-0.2h-0.1c-0.4-0.1-0.9,0.1-1.2,0.4
										c-0.1,0.1-0.2,0.3-0.1,0.5c0.1,0.2,0.2,0.3,0.4,0.3c0.1,0,0.1,0,0.1,0h0.9l-0.4,0.3c-0.1,0.1-0.2,0.2-0.4,0.3
										c-0.4,0.2-0.8,0.4-1.2,0.6c-0.1,0.1-0.3,0.1-0.6,0.1h-0.1C46.7,173.9,46.3,173.9,46,173.9z M45.7,173.6c0.1,0,0.2,0,0.4,0
										c0.3,0,0.7-0.1,1.2-0.1h0.1c0.3-0.1,0.5-0.1,0.6-0.1l0,0c0.4-0.1,0.7-0.3,1.1-0.5l0,0c-0.2-0.1-0.4-0.2-0.5-0.5
										c-0.1-0.4-0.1-0.7,0.2-0.9c0.4-0.4,0.9-0.6,1.4-0.5v-0.1c0-0.3,0-0.7-0.1-1.4H50l-0.4,0.2c-0.4,0.2-0.9,0.4-1.4,0.6
										c0,0,0,0-0.1,0c0,0,0,0,0,0.1c0,0.6,0.1,0.7,0.1,0.7s0,0.1,0.1,0.8c0,0.4-0.1,0.7-0.4,0.9c-0.2,0.2-0.5,0.3-0.7,0.4
										c-0.2,0.1-0.3,0.1-0.5,0c-0.4-0.1-0.6-0.2-0.7-0.6c-0.1-0.3-0.1-0.7,0.2-0.9c0.1-0.1,0.1-0.1,0.2-0.2
										c0.4-0.3,0.7-0.4,1.2-0.4l-0.2-1.2c0-0.1,0-0.3,0-0.4s0-0.2,0-0.3c0-0.2,0.1-0.3,0.2-0.4l0.1-0.1c0.2-0.1,0.5-0.2,0.7-0.3
										c0.2-0.1,0.4-0.2,0.7-0.3c-0.4-0.1-0.9-0.2-1.6-0.1l-0.6,0.1c-0.1,0-0.2,0-0.4,0.1c-0.7,0.1-1.2,0.1-1.6,0.1
										c0,0.1,0,0.1,0,0.1s0,0.1,0,0.2c0.1,0,0.2,0.1,0.3,0.1c0.1,0.1,0.2,0.2,0.2,0.4c0,0.1,0,0.2,0,0.5l-0.2,2.7
										c0,0.1,0,0.2-0.1,0.4c0,0.1,0,0.1,0,0.2s0,0.1,0,0.2c0.1,0.3,0.2,0.6,0.6,0.7L45.7,173.6z"/>
								</g>
							</g>
						</g>
					</g>
				</g>
			</g>
			<g>
				<g>
					<g>
						<path class="st2" d="M48.3,173.6l-0.1-0.4c1.7-0.5,1.8-1.3,1.9-2c0-0.4,0-1.7,0-1.7c0-0.6-0.1-0.9-0.4-1.2
							c-0.5-0.4-1.2-0.4-1.2-0.4l-0.1-0.4c0.1,0,0.9-0.1,1.5,0.4c0.4,0.4,0.6,0.9,0.6,1.5c0,0.1,0,1.3,0,1.7
							C50.3,172.1,50.1,173,48.3,173.6z"/>
					</g>
				</g>
			</g>
		</g>
		<g>
			<g>
				<g>
					<circle class="st1" cx="49.3" cy="231.6" r="0.9"/>
				</g>
			</g>
			<g>
				<g>
					<path class="st2" d="M49.3,232.8c-0.7,0-1.2-0.6-1.2-1.2c0-0.7,0.6-1.2,1.2-1.2c0.7,0,1.2,0.6,1.2,1.2
						C50.5,232.3,49.9,232.8,49.3,232.8z M49.3,230.9c-0.4,0-0.7,0.3-0.7,0.7c0,0.4,0.3,0.7,0.7,0.7c0.4,0,0.7-0.3,0.7-0.7
						C50,231.2,49.6,230.9,49.3,230.9z"/>
				</g>
			</g>
			<g>
				<g>
					<path class="st2" d="M49.3,235c-1.9,0-3.4-1.5-3.4-3.4c0-1.9,1.5-3.4,3.4-3.4s3.4,1.5,3.4,3.4C52.6,233.5,51.1,235,49.3,235z
						 M49.3,228.7c-1.6,0-2.9,1.3-2.9,2.9c0,1.6,1.3,2.9,2.9,2.9s2.9-1.3,2.9-2.9C52.1,230,50.8,228.7,49.3,228.7z"/>
				</g>
			</g>
			<g>
				<g>
					<g>
						<path class="st2" d="M47.9,231.1l-0.4-0.1c0.2-0.8,1.1-1.2,1.1-1.2l0.2,0.4l-0.1-0.2l0.1,0.2
							C48.8,230.2,48.1,230.6,47.9,231.1z"/>
					</g>
				</g>
				<g>
					<g>
						<path class="st2" d="M47.2,230.9l-0.4-0.1c0.4-1.3,1.6-1.7,1.6-1.7l0.1,0.4l-0.1-0.2l0.1,0.2
							C48.5,229.6,47.5,229.9,47.2,230.9z"/>
					</g>
				</g>
			</g>
			<g>
				<g>
					<g>
						<path class="st2" d="M50,233.5l-0.2-0.4l0.1,0.2l-0.1-0.2c0,0,0.7-0.4,0.9-0.9l0.4,0.1C50.8,233.1,50,233.4,50,233.5z"/>
					</g>
				</g>
				<g>
					<g>
						<path class="st2" d="M50.1,234.1l-0.1-0.4l0.1,0.2l-0.1-0.2c0.1,0,1-0.3,1.3-1.4l0.4,0.1C51.4,233.7,50.2,234,50.1,234.1z"/>
					</g>
				</g>
			</g>
		</g>
		<g>
			<g>
				<g>
					<g>
						<rect x="97.4" y="231.9" class="st1" width="0.6" height="2.9"/>
					</g>
				</g>
				<g>
					<g>
						<path class="st2" d="M97.7,235.2c-0.3,0-0.6-0.2-0.6-0.6v-2.4c0-0.3,0.2-0.6,0.6-0.6c0.3,0,0.6,0.2,0.6,0.6v2.4
							C98.3,234.9,98,235.2,97.7,235.2z M97.7,232.1c-0.1,0-0.1,0.1-0.1,0.1v2.4c0,0.1,0.1,0.1,0.1,0.1s0.1-0.1,0.1-0.1v-2.4
							C97.8,232.1,97.7,232.1,97.7,232.1z"/>
					</g>
				</g>
				<g>
					<g>
						<path class="st2" d="M97.5,234.8c-0.8,0-1.5-0.7-1.5-1.5c0-0.8,0.7-1.5,1.5-1.5v0.4c-0.6,0-1.1,0.4-1.1,1.1
							c0,0.6,0.4,1.1,1.1,1.1V234.8z"/>
					</g>
				</g>
				<g>
					<g>
						<path class="st2" d="M96.6,232.7h-0.4v-1.4c0-0.6,0.2-1.2,0.6-1.6c0.9-0.8,2.2-0.8,2.3-0.8v0.4c0,0-1.2,0-1.9,0.7
							c-0.3,0.3-0.5,0.7-0.5,1.2L96.6,232.7L96.6,232.7z"/>
					</g>
				</g>
				<g>
					<g>
						<path class="st2" d="M97.5,230.6l-0.4-0.2c0.6-0.9,1.8-0.7,1.9-0.7L99,230C99,230,98,229.9,97.5,230.6z"/>
					</g>
				</g>
			</g>
			<g>
				<g>
					<g>
						<rect x="100" y="231.9" class="st1" width="0.6" height="2.9"/>
					</g>
				</g>
				<g>
					<g>
						<path class="st2" d="M100.3,235.2c-0.3,0-0.6-0.2-0.6-0.6v-2.4c0-0.3,0.2-0.6,0.6-0.6s0.6,0.2,0.6,0.6v2.4
							C100.9,234.9,100.6,235.2,100.3,235.2z M100.3,232.1c-0.1,0-0.1,0.1-0.1,0.1v2.4c0,0.1,0.1,0.1,0.1,0.1c0.1,0,0.1-0.1,0.1-0.1
							v-2.4C100.4,232.1,100.3,232.1,100.3,232.1z"/>
					</g>
				</g>
				<g>
					<g>
						<path class="st2" d="M100.5,234.8v-0.4c0.6,0,1.1-0.4,1.1-1.1c0-0.6-0.4-1.1-1.1-1.1v-0.4c0.8,0,1.5,0.7,1.5,1.5
							C102,234.1,101.3,234.8,100.5,234.8z"/>
					</g>
				</g>
				<g>
					<g>
						<path class="st2" d="M101.8,232.7h-0.4v-1.4c0-0.5-0.2-0.9-0.5-1.2c-0.7-0.7-1.9-0.7-1.9-0.7V229c0.1,0,1.4,0,2.3,0.8
							c0.4,0.4,0.6,0.9,0.6,1.6L101.8,232.7L101.8,232.7z"/>
					</g>
				</g>
				<g>
					<g>
						<path class="st2" d="M100.4,230.6c-0.5-0.6-1.4-0.6-1.4-0.6l-0.1-0.4c0.1,0,1.2-0.1,1.9,0.7L100.4,230.6z"/>
					</g>
				</g>
			</g>
		</g>
		<g>
			<g>
				<polygon class="st1" points="20.7,141.7 19.6,141.7 19.6,141.2 18.7,141.2 18.8,138.9 19.6,138.8 19.6,138.4 20.7,138.4 				"/>
				<polygon class="st1" points="24.2,141.7 25.4,141.7 25.4,141.2 26.2,141.2 26.2,138.9 25.4,138.8 25.4,138.4 24.2,138.4 				"/>
			</g>
			<g>
				<g>
					<path class="st2" d="M24.4,140.6h-3.7v-1.2h3.7V140.6z M21.1,140.2h2.9v-0.4h-2.9V140.2z"/>
				</g>
				<g>
					<g>
						<path class="st2" d="M25.2,141.9h-0.9c-0.2,0-0.4-0.2-0.4-0.4v-3.1c0-0.2,0.2-0.4,0.4-0.4h0.9c0.2,0,0.4,0.2,0.4,0.4v3.1
							C25.6,141.8,25.4,141.9,25.2,141.9z M24.3,141.5h0.9v-3h-0.9V141.5z"/>
					</g>
					<g>
						<path class="st2" d="M26.1,141.5h-0.6c-0.2,0-0.4-0.2-0.4-0.4v-2.2c0-0.2,0.2-0.4,0.4-0.4h0.6c0.2,0,0.4,0.2,0.4,0.4v2.2
							C26.5,141.4,26.3,141.5,26.1,141.5z M25.6,141.1H26V139h-0.4V141.1z"/>
					</g>
				</g>
				<g>
					<g>
						<path class="st2" d="M20.7,141.9h-0.9c-0.2,0-0.4-0.2-0.4-0.4v-3.1c0-0.2,0.2-0.4,0.4-0.4h0.9c0.2,0,0.4,0.2,0.4,0.4v3.1
							C21.1,141.8,20.9,141.9,20.7,141.9z M19.8,141.5h0.9v-3h-0.9C19.8,138.6,19.8,141.5,19.8,141.5z"/>
					</g>
					<g>
						<path class="st2" d="M19.4,141.5h-0.6c-0.2,0-0.4-0.2-0.4-0.4v-2.2c0-0.2,0.2-0.4,0.4-0.4h0.6c0.2,0,0.4,0.2,0.4,0.4v2.2
							C19.7,141.4,19.6,141.5,19.4,141.5z M18.9,141.1h0.4V139h-0.4V141.1z"/>
					</g>
				</g>
			</g>
		</g>
		<g>
			<path class="st1" d="M82.4,170.9c0.1-0.1,0.9-0.1,0.9-0.1l1-1.6l0.8,1.9l0.7-1.2l0.9,1.2l0.9,0.1l-1.1,0.5l-0.6-0.6l-0.9,1.4
				l-0.8-1.8l-0.6,0.8l-1,0.1C82.7,171.6,82.2,171,82.4,170.9z"/>
			<g>
				<path class="st2" d="M85.5,174.5L85.5,174.5c-0.1,0-0.1-0.1-0.2-0.1l-2.6-2.5c-1.1-1.1-0.9-2.1-0.7-2.5c0.4-0.9,1.3-1.4,1.9-1.4
					c0.9,0,1.4,0.4,1.6,0.6c0.2-0.2,0.7-0.6,1.6-0.6c0.6,0,1.6,0.6,1.9,1.4c0.2,0.5,0.4,1.4-0.7,2.5l-2.6,2.5l-0.1,0.1
					C85.6,174.5,85.5,174.5,85.5,174.5L85.5,174.5z M84,168.3c-0.5,0-1.3,0.5-1.6,1.2c-0.2,0.5-0.2,1.2,0.6,2.1l2.5,2.4l2.5-2.4
					c0.9-0.9,0.8-1.6,0.6-2.1c-0.3-0.7-1.1-1.2-1.6-1.2c-1,0-1.3,0.6-1.3,0.6l-0.1,0.1c-0.1,0.1-0.1,0.1-0.2,0.1
					c-0.1,0-0.1-0.1-0.2-0.1l-0.1-0.1C85.3,168.9,84.9,168.3,84,168.3z"/>
			</g>
			<g>
				<path class="st2" d="M85,172.8L85,172.8c-0.1,0-0.1-0.1-0.2-0.1l-0.7-1.5l-0.3,0.5c-0.1,0.1-0.1,0.1-0.2,0.1l0,0h-1
					c-0.1,0-0.2-0.1-0.2-0.2s0.1-0.2,0.2-0.2l0,0h0.9l0.4-0.7c0.1-0.1,0.1-0.1,0.2-0.1c0.1,0,0.1,0.1,0.2,0.1l0.7,1.5l0.7-1.1
					c0.1-0.1,0.1-0.1,0.2-0.1c0.1,0,0.1,0,0.2,0.1l0.4,0.5l0.4-0.1h-0.2c-0.1,0-0.1-0.1-0.2-0.1l-0.7-1l-0.5,1.1
					c-0.1,0.1-0.1,0.1-0.2,0.1c-0.1,0-0.1-0.1-0.2-0.1l-0.7-1.6l-0.7,1.3c-0.1,0.1-0.1,0.1-0.2,0.1h-0.9c-0.1,0-0.2-0.1-0.2-0.2
					c0-0.1,0.1-0.2,0.2-0.2h0.8l0.9-1.6c0.1-0.1,0.1-0.1,0.2-0.1c0.1,0,0.1,0.1,0.2,0.1l0.6,1.6l0.5-0.9c0.1-0.1,0.1-0.1,0.2-0.1
					s0.1,0,0.2,0.1l0.8,1.2l1.2,0.1c0.1,0,0.1,0,0.1,0.1s0.1,0.1,0.1,0.2c0,0.1-0.1,0.1-0.1,0.2l-1.6,0.5c-0.1,0-0.2,0-0.2-0.1
					l-0.3-0.4l-0.7,1.2C85.1,172.8,85.1,172.8,85,172.8z"/>
			</g>
		</g>
	</g>
	<g>
		<g>
			<g>
				<g>
					<g>
						<g>
							<g>
								
									<rect x="126.9" y="167.2" transform="matrix(0.9106 -0.4132 0.4132 0.9106 -57.8087 67.5484)" class="st1" width="0.7" height="0.4"/>
							</g>
						</g>
					</g>
				</g>
				<g>
					<g>
						<g>
							<g>
								
									<rect x="126.6" y="166.6" transform="matrix(0.9103 -0.414 0.414 0.9103 -57.6803 67.5562)" class="st1" width="0.7" height="0.4"/>
							</g>
						</g>
					</g>
				</g>
				<g>
					<g>
						<g>
							<g>
								
									<rect x="125.5" y="167.8" transform="matrix(0.9104 -0.4138 0.4138 0.9104 -58.263 67.1469)" class="st1" width="0.7" height="0.4"/>
							</g>
						</g>
					</g>
				</g>
				<g>
					<g>
						<g>
							<g>
								
									<rect x="125.3" y="167.3" transform="matrix(0.9105 -0.4136 0.4136 0.9105 -58.0267 66.9552)" class="st1" width="0.7" height="0.4"/>
							</g>
						</g>
					</g>
				</g>
				<g>
					<g>
						<g>
							
								<ellipse transform="matrix(0.9105 -0.4135 0.4135 0.9105 -59.4488 68.4468)" class="st1" cx="128.4" cy="171.6" rx="0.6" ry="0.6"/>
						</g>
					</g>
				</g>
				<g>
					<g>
						<g>
							<path class="st2" d="M128.7,172.3c-0.4,0.2-0.9,0-1.1-0.4c-0.2-0.4,0-0.9,0.4-1.1c0.4-0.2,0.9,0,1.1,0.4
								C129.3,171.6,129.1,172.1,128.7,172.3z M128.2,171.2c-0.2,0.1-0.3,0.3-0.2,0.5c0.1,0.2,0.3,0.3,0.5,0.2
								c0.2-0.1,0.3-0.3,0.2-0.5C128.6,171.2,128.4,171.1,128.2,171.2z"/>
						</g>
					</g>
				</g>
				<g>
					<g>
						<g>
							<g>
								
									<rect x="128.5" y="172.7" transform="matrix(0.9103 -0.4139 0.4139 0.9103 -60.0219 68.9088)" class="st2" width="1" height="0.4"/>
							</g>
						</g>
					</g>
				</g>
			</g>
			<g>
				<g>
					<g>
						<path class="st2" d="M130.1,171.3c-0.2-0.1-0.3-0.4-0.3-0.6v-0.1c-0.1-0.5-0.3-0.9-0.7-1.1c-0.4-0.2-0.9-0.1-1.2-0.1l-0.7-1.6
							l0.2-0.1l-0.6-1.4l-1.5,0.7l0.6,1.4l0.2-0.1l0.7,1.6c-0.2,0.2-0.6,0.5-0.6,0.9c-0.1,0.4,0,0.8,0.4,1.2l0,0
							c0.1,0.1,0.4,0.4,0.3,0.6c-0.2,0.6-0.2,1.2,0,1.9c0.3,0.7,1.1,1.3,2.9,0.5c1.8-0.8,1.9-1.8,1.6-2.5
							C131.3,172,130.8,171.5,130.1,171.3z M126.3,168l-0.3-0.7l0.7-0.3l0.3,0.7l-0.2,0.1l0.9,1.9h-0.1c0,0-0.1,0-0.1,0.1
							c0,0-0.1,0-0.1,0.1l-0.9-1.9L126.3,168z M129.8,174.7c-1.2,0.6-2,0.4-2.4-0.2c-0.2-0.5-0.2-1.1,0-1.5c0.2-0.5-0.2-1-0.4-1.1
							c-0.2-0.3-0.3-0.6-0.2-0.9c0.1-0.4,0.4-0.6,0.7-0.7l0.4-0.2c0.2-0.1,0.7-0.2,1-0.1c0.2,0.1,0.4,0.4,0.5,0.7
							c0,0.1,0.1,0.9,0.6,1c0.5,0.1,0.9,0.5,1.1,1C131.4,173.5,131,174.1,129.8,174.7z"/>
					</g>
				</g>
			</g>
		</g>
		<g>
			<g>
				<g>
					<g>
						<g>
							<path class="st2" d="M225.7,198.9v4.6c-0.2-0.2-0.5-0.2-0.8-0.2c-0.7,0-1.3,0.5-1.3,1.1c0,0.6,0.6,1.1,1.3,1.1
								c0.7,0,1.2-0.5,1.3-1.1l0,0v-3.7l3.4-0.7v2.8c-0.2-0.2-0.5-0.2-0.8-0.2c-0.7,0-1.3,0.5-1.3,1.1s0.6,1.1,1.3,1.1
								c0.7,0,1.3-0.5,1.3-1.1V198L225.7,198.9z M224.9,205c-0.4,0-0.8-0.3-0.8-0.7c0-0.4,0.4-0.7,0.8-0.7c0.4,0,0.8,0.3,0.8,0.7
								C225.7,204.6,225.3,205,224.9,205z M226.1,200.2v-0.9l3.4-0.7v0.9L226.1,200.2z M228.7,204.3c-0.4,0-0.8-0.3-0.8-0.7
								c0-0.4,0.4-0.7,0.8-0.7c0.4,0,0.8,0.3,0.8,0.7C229.5,204,229.2,204.3,228.7,204.3z"/>
						</g>
					</g>
				</g>
				<g>
					<g>
						<g>
							<polygon class="st1" points="226.1,200.2 226.1,199.2 229.5,198.5 229.5,199.5 							"/>
						</g>
					</g>
				</g>
			</g>
		</g>
		<g>
			<g>
				<g>
					<g>
						<polygon class="st1" points="182.9,140.8 181.9,139.7 179.2,142.7 179.5,143.4 180.6,143 						"/>
					</g>
				</g>
			</g>
			<g>
				<g>
					<g>
						<g>
							<g>
								
									<rect x="178.9" y="143.2" transform="matrix(0.7717 -0.636 0.636 0.7717 -50.3019 146.7274)" class="st2" width="0.6" height="0.4"/>
							</g>
						</g>
					</g>
				</g>
				<g>
					<g>
						<g>
							<path class="st2" d="M184,137.7c0,0-1.3,0-1.7,0.6c-0.3,0.6,0.6,1.7,1.1,2.2c0.6,0.4,0.9,0.1,1.1,0c0.2-0.1,0.6-0.9,0.6-1
								s0.1-0.6,0-0.7s-0.4-0.6-0.4-0.6C184.5,138.1,184,137.7,184,137.7z"/>
						</g>
					</g>
				</g>
				<g>
					<g>
						<g>
							<path class="st2" d="M183.4,137.4c-1,0-1.7,0.8-1.7,1.7c0,0.1,0,0.2,0.1,0.4l-2.5,2.9c-0.1,0.1-0.1,0.1-0.1,0.2
								c-0.1,0.2,0,0.3,0.2,0.6c0.1,0.2,0.2,0.2,0.4,0.2l0,0c0.2,0,0.3-0.1,0.4-0.1l2.9-2.4c0.1,0,0.2,0.1,0.4,0.1
								c1,0,1.7-0.8,1.7-1.7C185.2,138.2,184.4,137.4,183.4,137.4z M183.7,138.2v-0.4c0.1,0,0.2,0.1,0.2,0.1v0.3H183.7z M184,138.7
								v0.2h-0.2v-0.2H184z M183.3,138.2h-0.2v-0.4c0.1,0,0.2,0,0.2-0.1V138.2z M183.3,138.7v0.2h-0.2v-0.2H183.3z M183.1,139.3h0.2
								v0.3h-0.2V139.3z M182.7,138.9h-0.2c-0.1-0.1-0.1-0.2-0.1-0.2h0.4V138.9z M183.3,140L183.3,140L183.3,140L183.3,140z
								 M183.7,140.4V140h0.2v0.5C183.9,140.4,183.8,140.4,183.7,140.4z M183.7,139.6v-0.3h0.2v0.3H183.7z M184.3,139.3h0.4
								c0,0.1,0,0.2-0.1,0.3h-0.4V139.3z M184.3,138.9v-0.2h0.3c0.1,0.1,0.1,0.2,0.1,0.2H184.3z M184.4,138.2L184.4,138.2
								L184.4,138.2L184.4,138.2z M182.7,138.1v0.2h-0.3C182.5,138.2,182.6,138.1,182.7,138.1z M179.8,143.1L179.8,143.1
								c0,0-0.1,0.1-0.1,0.1s-0.1-0.1-0.1-0.1c-0.1-0.1-0.1-0.2-0.1-0.2l2.4-2.8c0.2,0.3,0.4,0.6,0.7,0.7L179.8,143.1z M182,139.2
								c0-0.1,0-0.2,0-0.3c0.2,0.5,0.7,1.2,1.4,1.7l0,0C182.6,140.6,182,140,182,139.2z M184.3,140.2V140h0.2
								C184.5,140.1,184.5,140.2,184.3,140.2z"/>
						</g>
					</g>
				</g>
			</g>
		</g>
		<g>
			<g>
				<g>
					<g>
						<g>
							
								<rect x="218.3" y="138.9" transform="matrix(0.7299 -0.6835 0.6835 0.7299 -36.8492 187.258)" class="st2" width="0.4" height="2.7"/>
						</g>
					</g>
				</g>
				<g>
					<g>
						<g>
							
								<rect x="218.6" y="138.3" transform="matrix(0.7566 -0.6538 0.6538 0.7566 -37.8724 176.9664)" class="st2" width="0.4" height="2.1"/>
						</g>
					</g>
				</g>
			</g>
			<g>
				<g>
					<g>
						<g>
							<g>
								
									<rect x="218.5" y="138.6" transform="matrix(0.7366 -0.6763 0.6763 0.7366 -36.9591 184.7238)" class="st1" width="0.4" height="2.5"/>
							</g>
						</g>
					</g>
				</g>
				<g>
					<g>
						<g>
							<g>
								<g>
									<path class="st1" d="M217.9,144.5c-0.4,0-0.6-2.9-0.7-3.2l0.4-0.1c0.2,0.5,0.5,1.3,0.8,1.2c0.4,0,0.8-0.7,0.9-1.1l0.4,0.2
										c-0.1,0.1-0.2,3.1-1,3.2C218.8,144.7,218.4,145.1,217.9,144.5z"/>
								</g>
							</g>
						</g>
					</g>
					<g>
						<g>
							<g>
								<g>
									
										<rect x="217.3" y="139.5" transform="matrix(0.8635 -0.5043 0.5043 0.8635 -40.6314 129.2577)" class="st1" width="2.4" height="0.4"/>
								</g>
							</g>
						</g>
					</g>
					<g>
						<g>
							<g>
								<g>
									<path class="st2" d="M218.4,145.1c-0.3,0-0.6-0.1-0.8-0.4l-0.1-0.1v-0.1c0-0.1-0.3-2.4-0.4-3.9c0-0.8,0.3-1.5,0.6-2.1
										c0.2-0.6,0.5-1.1,0.5-1.6h0.4c0,0.7-0.2,1.2-0.6,1.8c-0.2,0.6-0.6,1.2-0.6,1.9c0,1.4,0.3,3.4,0.4,3.7
										c0.3,0.3,0.8,0.1,0.9,0.1c0.5-0.9,0.6-3.3,0.4-3.8c-0.1-0.4,0-1,0.1-1.6c0-0.1,0-0.2,0.1-0.3c0.1-0.7,0.6-2,0.6-2h0.4
										c0,0-0.6,1.4-0.6,2.1c0,0.1,0,0.2-0.1,0.3c-0.1,0.6-0.1,1.1-0.1,1.4c0.1,0.5,0.1,3.1-0.5,4.1v0.1h-0.1
										C219,145,218.7,145.1,218.4,145.1z"/>
								</g>
							</g>
						</g>
					</g>
				</g>
			</g>
			<g>
				<g>
					<g>
						<path class="st2" d="M218.5,142.8c-0.1,0-0.1,0-0.1,0c-0.8-0.2-1.2-1.5-1.2-1.6l0.4-0.1c0.1,0.3,0.4,1.2,0.9,1.3
							c0.4,0.1,0.7-0.7,0.8-1.1l0.4,0.1C219.7,141.5,219.3,142.8,218.5,142.8z"/>
					</g>
				</g>
			</g>
			<g>
				<g>
					<g>
						<g>
							
								<rect x="217.3" y="139" transform="matrix(0.879 -0.4769 0.4769 0.879 -39.9093 121.0939)" class="st2" width="2.6" height="0.4"/>
						</g>
					</g>
				</g>
				<g>
					<g>
						<g>
							
								<rect x="217.2" y="139.9" transform="matrix(0.8668 -0.4986 0.4986 0.8668 -40.7947 127.5833)" class="st2" width="2.5" height="0.4"/>
						</g>
					</g>
				</g>
			</g>
		</g>
		<g>
			<g>
				<g>
					<g>
						<path class="st1" d="M191.7,200l-1-0.1l-0.7,1.2l-0.7,0.2l-0.9,0.1l-0.3,0.1c0,0,0.5,2.4,3.2,2.2L191,202
							C190.9,202,192,201.7,191.7,200z"/>
					</g>
				</g>
			</g>
			<g>
				<g>
					<g>
						<g>
							<g>
								<path class="st2" d="M190.9,204c-0.2,0-0.6,0-1-0.1c-0.8-0.2-1.7-0.9-1.9-2.5c0-0.1,0-0.1,0.1-0.2c0.1-0.1,0.1-0.1,0.2-0.1
									l1.6,0.1c0.1-0.2,0.4-0.7,0.6-1.2c0-0.1,0.1-0.2,0.2-0.2l1.1,0.1c0.1,0,0.2,0.1,0.2,0.2c0.1,0.4,0.1,1.4-0.8,2.1l0.2,1.6
									c0,0,0,0,0,0.1C191.5,204,191.2,204,190.9,204z M188.6,201.6c0.2,0.9,0.7,1.5,1.5,1.7c0.4,0.1,0.7,0.1,0.9,0.1l-0.2-1.4
									c0-0.1,0-0.2,0.1-0.2c0.7-0.5,0.8-1.2,0.8-1.5l-0.7-0.1c-0.2,0.7-0.6,1.3-0.7,1.3c-0.1,0.1-0.1,0.1-0.2,0.1L188.6,201.6z"/>
							</g>
						</g>
					</g>
				</g>
				<g>
					<g>
						<g>
							<g>
								<path class="st2" d="M190.4,206.6c-0.4,0-0.6-0.2-0.6-0.4l0,0v-2.6h0.5v2.4c0,0,0.1,0,0.1,0v-2.3h0.5v2.4
									C190.9,206.3,190.7,206.6,190.4,206.6z"/>
							</g>
						</g>
					</g>
				</g>
				<g>
					<g>
						<g>
							<g>
								<path class="st2" d="M188.4,202.6l-2.6-0.6c-0.1-0.1-0.4-0.2-0.2-0.6c0.1-0.4,0.4-0.4,0.5-0.4l0,0l2.2,0.6l-0.1,0.5
									l-2.2-0.5c0,0,0,0,0,0.1v0.1l2.4,0.6L188.4,202.6z"/>
							</g>
						</g>
					</g>
				</g>
				<g>
					<g>
						<g>
							<g>
								<polygon class="st2" points="188,200.8 187.9,200.3 190.6,199.7 194.2,199.7 194.1,200.2 190.6,200.2 								"/>
							</g>
						</g>
					</g>
				</g>
				<g>
					<g>
						<g>
							<g>
								<path class="st2" d="M191.2,199.9c-0.5,0-0.9-0.4-0.9-0.9c0-0.5,0.4-0.9,0.9-0.9s0.9,0.4,0.9,0.9
									C192.1,199.5,191.7,199.9,191.2,199.9z M191.2,198.5c-0.2,0-0.4,0.2-0.4,0.4c0,0.2,0.2,0.4,0.4,0.4s0.4-0.2,0.4-0.4
									C191.6,198.7,191.4,198.5,191.2,198.5z"/>
							</g>
						</g>
					</g>
				</g>
				<g>
					<g>
						<g>
							<g>
								<circle class="st2" cx="190.6" cy="198.3" r="0.4"/>
							</g>
						</g>
					</g>
				</g>
			</g>
		</g>
		<g>
			<g>
				<g>
					<g>
						<polygon class="st1" points="130,228.4 128.5,228.4 126.8,231.7 128,231.7 127,234.7 130.2,230.6 129,230.5 						"/>
					</g>
				</g>
			</g>
			<g>
				<g>
					<g>
						<path class="st2" d="M126.3,235.8l1.4-3.9h-1.2l1.9-3.7h1.9l-1.1,2.1l1.3,0.1L126.3,235.8z M127.1,231.5h1.2l-0.7,2.1l2.2-2.8
							l-1.2-0.1l1.1-2.1h-1.1L127.1,231.5z"/>
					</g>
				</g>
			</g>
		</g>
		<g>
			<g>
				<g>
					<path class="st1" d="M152.7,201.2c-0.9,0-1.6,0.7-1.6,1.6c0,0.9,0.7,1.6,1.6,1.6s1.6-0.7,1.6-1.6
						C154.2,201.9,153.6,201.2,152.7,201.2z M152.7,203.8c-0.6,0-1-0.4-1-1c0-0.6,0.4-1,1-1s1,0.4,1,1
						C153.7,203.4,153.2,203.8,152.7,203.8z"/>
				</g>
			</g>
			<g>
				<g>
					<path class="st1" d="M152.7,199.4c-0.4,0-0.8,0.4-0.8,0.8c0,0.4,0.4,0.8,0.8,0.8s0.8-0.4,0.8-0.8
						C153.5,199.7,153.1,199.4,152.7,199.4z"/>
				</g>
			</g>
			<g>
				<g>
					<g>
						<path class="st2" d="M155.2,205.1h-4.9v-6.8h4.9V205.1z M150.7,204.7h4v-5.9h-4V204.7z"/>
					</g>
				</g>
			</g>
			<g>
				<g>
					<g>
						<path class="st2" d="M152.7,204.6c-1,0-1.8-0.8-1.8-1.8c0-1,0.8-1.8,1.8-1.8s1.8,0.8,1.8,1.8
							C154.5,203.8,153.7,204.6,152.7,204.6z M152.7,201.5c-0.7,0-1.3,0.6-1.3,1.3c0,0.7,0.6,1.3,1.3,1.3c0.7,0,1.3-0.6,1.3-1.3
							C154,202.1,153.4,201.5,152.7,201.5z"/>
					</g>
				</g>
			</g>
			<g>
				<g>
					<g>
						<path class="st2" d="M152.7,203.9c-0.6,0-1.1-0.5-1.1-1.1c0-0.6,0.5-1.1,1.1-1.1s1.1,0.5,1.1,1.1
							C153.8,203.4,153.3,203.9,152.7,203.9z M152.7,202.2c-0.3,0-0.6,0.2-0.6,0.6c0,0.3,0.2,0.6,0.6,0.6c0.3,0,0.6-0.2,0.6-0.6
							C153.3,202.5,153.1,202.2,152.7,202.2z"/>
					</g>
				</g>
			</g>
			<g>
				<g>
					<g>
						<path class="st2" d="M152.7,201c-0.6,0-1-0.4-1-1s0.4-1,1-1s1,0.4,1,1S153.2,201,152.7,201z M152.7,199.5
							c-0.3,0-0.6,0.2-0.6,0.6c0,0.3,0.2,0.6,0.6,0.6s0.6-0.2,0.6-0.6C153.2,199.7,153,199.5,152.7,199.5z"/>
					</g>
				</g>
			</g>
			<g>
				<g>
					<g>
						<circle class="st2" cx="152.7" cy="200" r="0.3"/>
					</g>
				</g>
			</g>
			<g>
				<g>
					<g>
						<circle class="st2" cx="152.7" cy="202.8" r="0.3"/>
					</g>
				</g>
			</g>
			<g>
				<g>
					<g>
						<g>
							<circle class="st2" cx="154.4" cy="199.2" r="0.1"/>
						</g>
					</g>
				</g>
				<g>
					<g>
						<g>
							<circle class="st2" cx="154.4" cy="204.4" r="0.1"/>
						</g>
					</g>
				</g>
				<g>
					<g>
						<g>
							<circle class="st2" cx="151" cy="204.4" r="0.1"/>
						</g>
					</g>
				</g>
				<g>
					<g>
						<g>
							<circle class="st2" cx="151" cy="199.2" r="0.1"/>
						</g>
					</g>
				</g>
			</g>
		</g>
		<g>
			<g>
				<g>
					<g>
						<g>
							<path class="st1" d="M166.3,167.9c0,0,0.5,0.2,0.6,1l0.1,1.8l0.1,0.5c0,0-0.1,1-0.9,1.6c0,0-0.1-0.1-0.4-0.1
								c-0.2-0.1-0.4-0.1-0.4-0.2c-0.1-0.1-0.2-0.3-0.1-0.4c0-0.1-0.1-0.4,0.1-0.5c0.2-0.1,0.2-0.2,0.4-0.2c0.1-0.1,0.2-0.1,0.3-0.1
								s0.4-0.1,0.4-0.1l0.1-0.1c0,0,0.1-0.1,0.2-0.1s0,0,0.1-0.1c0.1-0.1,0.1-0.7,0.1-0.8c0-0.1-0.2-0.7-0.2-0.7l-2,0.9
								c0,0-0.2,0.3-0.1,0.5c0.1,0.2,0,1.3,0,1.4c-0.1,0.2-0.3,0.6-0.6,0.7c-0.3,0.1-0.5,0.2-0.8,0.2c-0.3-0.1-0.4,0-0.5-0.2
								c-0.1-0.2-0.2-0.3-0.2-0.5c0-0.2,0.1-0.7,0.4-0.7c0.4-0.1,0.6-0.2,0.7-0.2c0.1,0,0.3-0.1,0.4-0.1c0.1,0.1,0.1,0.2,0.1-0.1
								c0-0.2-0.1-2.2-0.1-2.2s0.4-0.4,0.5-0.5C164.6,168.5,166.3,167.9,166.3,167.9z"/>
						</g>
					</g>
				</g>
				<g>
					<g>
						<g>
							<g>
								<g>
									<path class="st2" d="M161.5,172.6c0-0.1,0-0.1,0-0.2C161.5,172.5,161.5,172.6,161.5,172.6z"/>
								</g>
							</g>
						</g>
					</g>
					<g>
						<g>
							<g>
								<g>
									<path class="st2" d="M162.6,173.9c-0.4,0-0.6-0.1-0.6-0.1c-0.4-0.2-0.7-0.6-0.8-1c0-0.1,0-0.2,0-0.3l0,0c0-0.1,0-0.1,0-0.1
										c0-0.1,0-0.2,0.1-0.4l0.2-2.7c0-0.2,0-0.3,0-0.4s-0.1-0.2-0.1-0.2s-0.1-0.1-0.2-0.1h-0.1l-0.1-0.1
										c-0.1-0.2-0.1-0.3-0.1-0.4c0-0.1,0-0.2,0-0.4v-0.2h0.2c0.4,0,1-0.1,1.7-0.1c0.2,0,0.3,0,0.4-0.1l0.6-0.1c0.2,0,0.3,0,0.4,0
										c0.7,0,1.2,0.1,1.7,0.3l0.3,0.2L166,168c-0.4,0.2-0.7,0.4-1.1,0.6c-0.2,0.1-0.5,0.2-0.7,0.3l-0.1,0.1c0,0.1,0,0.2,0,0.3
										s0,0.2,0,0.4v0.1l0.1,1.6h-0.2l0,0c0,0,0,0-0.1,0c0,0,0,0-0.1,0c-0.4-0.1-0.7,0.1-1.1,0.3c-0.1,0.1-0.1,0.1-0.1,0.1
										c-0.1,0.1-0.2,0.3-0.1,0.6c0.1,0.2,0.2,0.3,0.4,0.3c0.1,0,0.2,0,0.4,0c0.2-0.1,0.4-0.1,0.6-0.3c0.2-0.1,0.2-0.3,0.2-0.6
										c0-0.7,0-0.7-0.1-0.8c0-0.1,0-0.2-0.1-0.7c0-0.2,0-0.4,0.3-0.4c0.4-0.2,0.9-0.4,1.4-0.6l0.4-0.2c0.1,0,0.1-0.1,0.1-0.1
										l0.1-0.1l0.3-0.2v0.3c0.1,0.7,0.1,1.3,0.1,1.7v0.1c0,0.1,0,0.1,0,0.1v0.2h-0.2h-0.1c-0.4-0.1-0.9,0.1-1.2,0.4
										c-0.1,0.1-0.2,0.3-0.1,0.5c0.1,0.2,0.2,0.3,0.4,0.3c0.1,0,0.1,0,0.1,0h0.9l-0.4,0.3c-0.1,0.1-0.2,0.2-0.4,0.3
										c-0.4,0.2-0.8,0.4-1.2,0.6c-0.1,0.1-0.3,0.1-0.6,0.1h-0.1C163.4,173.9,163,173.9,162.6,173.9z M162.3,173.6
										c0.1,0,0.2,0,0.4,0c0.3,0,0.7-0.1,1.2-0.1h0.1c0.3-0.1,0.5-0.1,0.6-0.1l0,0c0.4-0.1,0.7-0.3,1.1-0.5l0,0
										c-0.2-0.1-0.4-0.2-0.5-0.5c-0.1-0.4-0.1-0.7,0.2-0.9c0.4-0.4,0.9-0.6,1.4-0.5v-0.1c0-0.3,0-0.7-0.1-1.4h-0.1l-0.4,0.2
										c-0.4,0.2-0.9,0.4-1.4,0.6c0,0,0,0-0.1,0c0,0,0,0,0,0.1c0,0.6,0.1,0.7,0.1,0.7s0,0.1,0.1,0.8c0,0.4-0.1,0.7-0.4,0.9
										c-0.2,0.2-0.5,0.3-0.7,0.4c-0.2,0.1-0.3,0.1-0.5,0c-0.4-0.1-0.6-0.2-0.7-0.6c-0.1-0.3-0.1-0.7,0.2-0.9
										c0.1-0.1,0.1-0.1,0.2-0.2c0.4-0.3,0.7-0.4,1.2-0.4l-0.2-1.2c0-0.1,0-0.3,0-0.4s0-0.2,0-0.3c0-0.2,0.1-0.3,0.2-0.4l0.1-0.1
										c0.2-0.1,0.5-0.2,0.7-0.3c0.2-0.1,0.4-0.2,0.7-0.3c-0.4-0.1-0.9-0.2-1.6-0.1l-0.6,0.1c-0.1,0-0.2,0-0.4,0.1
										c-0.7,0.1-1.2,0.1-1.6,0.1c0,0.1,0,0.1,0,0.1s0,0.1,0,0.2c0.1,0,0.2,0.1,0.3,0.1c0.1,0.1,0.2,0.2,0.2,0.4
										c0,0.1,0,0.2,0,0.5l-0.2,2.7c0,0.1,0,0.2-0.1,0.4c0,0.1,0,0.1,0,0.2s0,0.1,0,0.2c0.1,0.3,0.2,0.6,0.6,0.7L162.3,173.6z"/>
								</g>
							</g>
						</g>
					</g>
				</g>
			</g>
			<g>
				<g>
					<g>
						<path class="st2" d="M165,173.6l-0.1-0.4c1.7-0.5,1.8-1.3,1.9-2c0-0.4,0-1.7,0-1.7c0-0.6-0.1-0.9-0.4-1.2
							c-0.5-0.4-1.2-0.4-1.2-0.4l-0.1-0.4c0.1,0,0.9-0.1,1.5,0.4c0.4,0.4,0.6,0.9,0.6,1.5c0,0.1,0,1.3,0,1.7
							C167,172.1,166.8,173,165,173.6z"/>
					</g>
				</g>
			</g>
		</g>
		<g>
			<g>
				<g>
					<circle class="st1" cx="166" cy="231.6" r="0.9"/>
				</g>
			</g>
			<g>
				<g>
					<path class="st2" d="M166,232.8c-0.7,0-1.2-0.6-1.2-1.2c0-0.7,0.6-1.2,1.2-1.2c0.7,0,1.2,0.6,1.2,1.2
						C167.1,232.3,166.6,232.8,166,232.8z M166,230.9c-0.4,0-0.7,0.3-0.7,0.7c0,0.4,0.3,0.7,0.7,0.7c0.4,0,0.7-0.3,0.7-0.7
						C166.7,231.2,166.3,230.9,166,230.9z"/>
				</g>
			</g>
			<g>
				<g>
					<path class="st2" d="M166,235c-1.9,0-3.4-1.5-3.4-3.4c0-1.9,1.5-3.4,3.4-3.4c1.9,0,3.4,1.5,3.4,3.4
						C169.3,233.5,167.8,235,166,235z M166,228.7c-1.6,0-2.9,1.3-2.9,2.9c0,1.6,1.3,2.9,2.9,2.9s2.9-1.3,2.9-2.9
						C168.8,230,167.5,228.7,166,228.7z"/>
				</g>
			</g>
			<g>
				<g>
					<g>
						<path class="st2" d="M164.6,231.1l-0.4-0.1c0.2-0.8,1.1-1.2,1.1-1.2l0.2,0.4l-0.1-0.2l0.1,0.2
							C165.5,230.2,164.8,230.6,164.6,231.1z"/>
					</g>
				</g>
				<g>
					<g>
						<path class="st2" d="M163.9,230.9l-0.4-0.1c0.4-1.3,1.6-1.7,1.6-1.7l0.1,0.4l-0.1-0.2l0.1,0.2
							C165.1,229.6,164.2,229.9,163.9,230.9z"/>
					</g>
				</g>
			</g>
			<g>
				<g>
					<g>
						<path class="st2" d="M166.6,233.5l-0.2-0.4l0.1,0.2l-0.1-0.2c0,0,0.7-0.4,0.9-0.9l0.4,0.1
							C167.5,233.1,166.6,233.4,166.6,233.5z"/>
					</g>
				</g>
				<g>
					<g>
						<path class="st2" d="M166.8,234.1l-0.1-0.4l0.1,0.2l-0.1-0.2c0.1,0,1-0.3,1.3-1.4l0.4,0.1C168.1,233.7,166.9,234,166.8,234.1z
							"/>
					</g>
				</g>
			</g>
		</g>
		<g>
			<g>
				<g>
					<g>
						<rect x="214.1" y="231.9" class="st1" width="0.6" height="2.9"/>
					</g>
				</g>
				<g>
					<g>
						<path class="st2" d="M214.3,235.2c-0.3,0-0.6-0.2-0.6-0.6v-2.4c0-0.3,0.2-0.6,0.6-0.6c0.3,0,0.6,0.2,0.6,0.6v2.4
							C215,234.9,214.7,235.2,214.3,235.2z M214.3,232.1c-0.1,0-0.1,0.1-0.1,0.1v2.4c0,0.1,0.1,0.1,0.1,0.1c0.1,0,0.1-0.1,0.1-0.1
							v-2.4C214.5,232.1,214.4,232.1,214.3,232.1z"/>
					</g>
				</g>
				<g>
					<g>
						<path class="st2" d="M214.2,234.8c-0.8,0-1.5-0.7-1.5-1.5c0-0.8,0.7-1.5,1.5-1.5v0.4c-0.6,0-1.1,0.4-1.1,1.1
							c0,0.6,0.4,1.1,1.1,1.1V234.8z"/>
					</g>
				</g>
				<g>
					<g>
						<path class="st2" d="M213.3,232.7h-0.4v-1.4c0-0.6,0.2-1.2,0.6-1.6c0.9-0.8,2.2-0.8,2.3-0.8v0.4c0,0-1.2,0-1.9,0.7
							c-0.3,0.3-0.5,0.7-0.5,1.2L213.3,232.7L213.3,232.7z"/>
					</g>
				</g>
				<g>
					<g>
						<path class="st2" d="M214.2,230.6l-0.4-0.2c0.6-0.9,1.8-0.7,1.9-0.7l-0.1,0.4C215.7,230,214.7,229.9,214.2,230.6z"/>
					</g>
				</g>
			</g>
			<g>
				<g>
					<g>
						<rect x="216.7" y="231.9" class="st1" width="0.6" height="2.9"/>
					</g>
				</g>
				<g>
					<g>
						<path class="st2" d="M217,235.2c-0.3,0-0.6-0.2-0.6-0.6v-2.4c0-0.3,0.2-0.6,0.6-0.6c0.3,0,0.6,0.2,0.6,0.6v2.4
							C217.6,234.9,217.3,235.2,217,235.2z M217,232.1c-0.1,0-0.1,0.1-0.1,0.1v2.4c0,0.1,0.1,0.1,0.1,0.1s0.1-0.1,0.1-0.1v-2.4
							C217.1,232.1,217,232.1,217,232.1z"/>
					</g>
				</g>
				<g>
					<g>
						<path class="st2" d="M217.2,234.8v-0.4c0.6,0,1.1-0.4,1.1-1.1c0-0.6-0.4-1.1-1.1-1.1v-0.4c0.8,0,1.5,0.7,1.5,1.5
							C218.7,234.1,218,234.8,217.2,234.8z"/>
					</g>
				</g>
				<g>
					<g>
						<path class="st2" d="M218.5,232.7h-0.4v-1.4c0-0.5-0.2-0.9-0.5-1.2c-0.7-0.7-1.9-0.7-1.9-0.7V229c0.1,0,1.4,0,2.3,0.8
							c0.4,0.4,0.6,0.9,0.6,1.6L218.5,232.7L218.5,232.7z"/>
					</g>
				</g>
				<g>
					<g>
						<path class="st2" d="M217.1,230.6c-0.5-0.6-1.4-0.6-1.4-0.6l-0.1-0.4c0.1,0,1.2-0.1,1.9,0.7L217.1,230.6z"/>
					</g>
				</g>
			</g>
		</g>
		<g>
			<g>
				<polygon class="st1" points="137.4,141.7 136.2,141.7 136.2,141.2 135.4,141.2 135.5,138.9 136.2,138.8 136.2,138.4 
					137.4,138.4 				"/>
				<polygon class="st1" points="140.9,141.7 142.1,141.7 142.1,141.2 142.9,141.2 142.8,138.9 142.1,138.8 142.1,138.4 
					140.9,138.4 				"/>
			</g>
			<g>
				<g>
					<path class="st2" d="M141,140.6h-3.7v-1.2h3.7V140.6z M137.7,140.2h2.9v-0.4h-2.9V140.2z"/>
				</g>
				<g>
					<g>
						<path class="st2" d="M141.9,141.9H141c-0.2,0-0.4-0.2-0.4-0.4v-3.1c0-0.2,0.2-0.4,0.4-0.4h0.9c0.2,0,0.4,0.2,0.4,0.4v3.1
							C142.3,141.8,142.1,141.9,141.9,141.9z M141,141.5h0.9v-3H141V141.5z"/>
					</g>
					<g>
						<path class="st2" d="M142.8,141.5h-0.6c-0.2,0-0.4-0.2-0.4-0.4v-2.2c0-0.2,0.2-0.4,0.4-0.4h0.6c0.2,0,0.4,0.2,0.4,0.4v2.2
							C143.2,141.4,143,141.5,142.8,141.5z M142.3,141.1h0.4V139h-0.4V141.1z"/>
					</g>
				</g>
				<g>
					<g>
						<path class="st2" d="M137.4,141.9h-0.9c-0.2,0-0.4-0.2-0.4-0.4v-3.1c0-0.2,0.2-0.4,0.4-0.4h0.9c0.2,0,0.4,0.2,0.4,0.4v3.1
							C137.7,141.8,137.5,141.9,137.4,141.9z M136.5,141.5h0.9v-3h-0.9C136.5,138.6,136.5,141.5,136.5,141.5z"/>
					</g>
					<g>
						<path class="st2" d="M136.1,141.5h-0.6c-0.2,0-0.4-0.2-0.4-0.4v-2.2c0-0.2,0.2-0.4,0.4-0.4h0.6c0.2,0,0.4,0.2,0.4,0.4v2.2
							C136.4,141.4,136.3,141.5,136.1,141.5z M135.6,141.1h0.4V139h-0.4V141.1z"/>
					</g>
				</g>
			</g>
		</g>
		<g>
			<path class="st1" d="M199.1,170.9c0.1-0.1,0.9-0.1,0.9-0.1l1-1.6l0.8,1.9l0.7-1.2l0.9,1.2l0.9,0.1l-1.1,0.5l-0.6-0.6l-0.9,1.4
				l-0.8-1.8l-0.6,0.8l-1,0.1C199.4,171.6,198.9,171,199.1,170.9z"/>
			<g>
				<path class="st2" d="M202.2,174.5L202.2,174.5c-0.1,0-0.1-0.1-0.2-0.1l-2.6-2.5c-1.1-1.1-0.9-2.1-0.7-2.5
					c0.4-0.9,1.3-1.4,1.9-1.4c0.9,0,1.4,0.4,1.6,0.6c0.2-0.2,0.7-0.6,1.6-0.6c0.6,0,1.6,0.6,1.9,1.4c0.2,0.5,0.4,1.4-0.7,2.5
					l-2.6,2.5l-0.1,0.1C202.3,174.5,202.2,174.5,202.2,174.5L202.2,174.5z M200.6,168.3c-0.5,0-1.3,0.5-1.6,1.2
					c-0.2,0.5-0.2,1.2,0.6,2.1l2.5,2.4l2.5-2.4c0.9-0.9,0.8-1.6,0.6-2.1c-0.3-0.7-1.1-1.2-1.6-1.2c-1,0-1.3,0.6-1.3,0.6l-0.1,0.1
					c-0.1,0.1-0.1,0.1-0.2,0.1s-0.1-0.1-0.2-0.1l-0.1-0.1C202,168.9,201.6,168.3,200.6,168.3z"/>
			</g>
			<g>
				<path class="st2" d="M201.7,172.8L201.7,172.8c-0.1,0-0.1-0.1-0.2-0.1l-0.7-1.5l-0.3,0.5c-0.1,0.1-0.1,0.1-0.2,0.1l0,0h-1
					c-0.1,0-0.2-0.1-0.2-0.2s0.1-0.2,0.2-0.2l0,0h0.9l0.4-0.7c0.1-0.1,0.1-0.1,0.2-0.1c0.1,0,0.1,0.1,0.2,0.1l0.7,1.5l0.7-1.1
					c0.1-0.1,0.1-0.1,0.2-0.1c0.1,0,0.1,0,0.2,0.1l0.4,0.5l0.4-0.1h-0.2c-0.1,0-0.1-0.1-0.2-0.1l-0.7-1l-0.5,1.1
					c-0.1,0.1-0.1,0.1-0.2,0.1s-0.1-0.1-0.2-0.1l-0.7-1.6l-0.7,1.3c-0.1,0.1-0.1,0.1-0.2,0.1h-0.9c-0.1,0-0.2-0.1-0.2-0.2
					c0-0.1,0.1-0.2,0.2-0.2h0.8l0.9-1.6c0.1-0.1,0.1-0.1,0.2-0.1c0.1,0,0.1,0.1,0.2,0.1l0.6,1.6l0.5-0.9c0.1-0.1,0.1-0.1,0.2-0.1
					s0.1,0,0.2,0.1l0.8,1.2l1.2,0.1c0.1,0,0.1,0,0.1,0.1s0.1,0.1,0.1,0.2c0,0.1-0.1,0.1-0.1,0.2l-1.6,0.5c-0.1,0-0.2,0-0.2-0.1
					l-0.3-0.4l-0.7,1.2C201.8,172.8,201.8,172.8,201.7,172.8z"/>
			</g>
		</g>
	</g>
	<g>
		<g>
			<g>
				<g>
					<g>
						<g>
							<g>
								
									<rect x="10.2" y="47.6" transform="matrix(0.9106 -0.4132 0.4132 0.9106 -18.8295 8.6478)" class="st1" width="0.7" height="0.4"/>
							</g>
						</g>
					</g>
				</g>
				<g>
					<g>
						<g>
							<g>
								
									<rect x="10" y="47.1" transform="matrix(0.9103 -0.414 0.414 0.9103 -18.6495 8.5228)" class="st1" width="0.7" height="0.4"/>
							</g>
						</g>
					</g>
				</g>
				<g>
					<g>
						<g>
							<g>
								
									<rect x="8.8" y="48.3" transform="matrix(0.9104 -0.4138 0.4138 0.9104 -19.2457 8.1483)" class="st1" width="0.7" height="0.4"/>
							</g>
						</g>
					</g>
				</g>
				<g>
					<g>
						<g>
							<g>
								
									<rect x="8.6" y="47.7" transform="matrix(0.9105 -0.4136 0.4136 0.9105 -19.0229 7.9914)" class="st1" width="0.7" height="0.4"/>
							</g>
						</g>
					</g>
				</g>
				<g>
					<g>
						<g>
							
								<ellipse transform="matrix(0.9105 -0.4135 0.4135 0.9105 -20.4505 9.4973)" class="st1" cx="11.7" cy="52" rx="0.6" ry="0.6"/>
						</g>
					</g>
				</g>
				<g>
					<g>
						<g>
							<path class="st2" d="M12,52.8c-0.4,0.2-0.9,0-1.1-0.4c-0.2-0.4,0-0.9,0.4-1.1c0.4-0.2,0.9,0,1.1,0.4
								C12.6,52.1,12.5,52.6,12,52.8z M11.5,51.6c-0.2,0.1-0.3,0.3-0.2,0.5c0.1,0.2,0.3,0.3,0.5,0.2c0.2-0.1,0.3-0.3,0.2-0.5
								C12,51.6,11.7,51.5,11.5,51.6z"/>
						</g>
					</g>
				</g>
				<g>
					<g>
						<g>
							<g>
								
									<rect x="11.8" y="53.2" transform="matrix(0.9103 -0.4139 0.4139 0.9103 -20.9966 9.8897)" class="st2" width="1" height="0.4"/>
							</g>
						</g>
					</g>
				</g>
			</g>
			<g>
				<g>
					<g>
						<path class="st2" d="M13.5,51.8c-0.2-0.1-0.3-0.4-0.3-0.6v-0.1c-0.1-0.5-0.3-0.9-0.7-1.1c-0.4-0.2-0.9-0.1-1.2-0.1l-0.7-1.6
							l0.2-0.1l-0.6-1.4l-1.5,0.7L9.3,49l0.2-0.1l0.7,1.6c-0.2,0.2-0.6,0.5-0.6,0.9c-0.1,0.4,0,0.8,0.4,1.2l0,0
							c0.1,0.1,0.4,0.4,0.3,0.6c-0.2,0.6-0.2,1.2,0,1.9c0.3,0.7,1.1,1.3,2.9,0.5c1.8-0.8,1.9-1.8,1.6-2.5
							C14.6,52.4,14.1,51.9,13.5,51.8z M9.6,48.4l-0.3-0.7l0.7-0.3l0.3,0.7L10,48.2l0.9,1.9h-0.1c0,0-0.1,0-0.1,0.1
							c0,0-0.1,0-0.1,0.1l-0.9-1.9L9.6,48.4z M13.1,55.1c-1.2,0.6-2,0.4-2.4-0.2c-0.2-0.5-0.2-1.1,0-1.5c0.2-0.5-0.2-1-0.4-1.1
							c-0.2-0.3-0.3-0.6-0.2-0.9c0.1-0.4,0.4-0.6,0.7-0.7l0.4-0.2c0.2-0.1,0.7-0.2,1-0.1c0.2,0.1,0.4,0.4,0.5,0.7
							c0,0.1,0.1,0.9,0.6,1c0.5,0.1,0.9,0.5,1.1,1C14.8,53.9,14.3,54.6,13.1,55.1z"/>
					</g>
				</g>
			</g>
		</g>
		<g>
			<g>
				<g>
					<g>
						<g>
							<path class="st2" d="M109,79.3v4.6c-0.2-0.2-0.5-0.2-0.8-0.2c-0.7,0-1.3,0.5-1.3,1.1c0,0.6,0.6,1.1,1.3,1.1
								c0.7,0,1.2-0.5,1.3-1.1l0,0v-3.7l3.4-0.7v2.8c-0.2-0.2-0.5-0.2-0.8-0.2c-0.7,0-1.3,0.5-1.3,1.1c0,0.6,0.6,1.1,1.3,1.1
								c0.7,0,1.3-0.5,1.3-1.1v-5.6L109,79.3z M108.2,85.4c-0.4,0-0.8-0.3-0.8-0.7s0.4-0.7,0.8-0.7c0.4,0,0.8,0.3,0.8,0.7
								S108.6,85.4,108.2,85.4z M109.4,80.6v-0.9l3.4-0.7v0.9L109.4,80.6z M112.1,84.7c-0.4,0-0.8-0.3-0.8-0.7s0.4-0.7,0.8-0.7
								s0.8,0.3,0.8,0.7S112.5,84.7,112.1,84.7z"/>
						</g>
					</g>
				</g>
				<g>
					<g>
						<g>
							<polygon class="st1" points="109.4,80.6 109.4,79.7 112.9,79 112.9,79.9 							"/>
						</g>
					</g>
				</g>
			</g>
		</g>
		<g>
			<g>
				<g>
					<g>
						<polygon class="st1" points="66.2,21.2 65.2,20.2 62.5,23.1 62.8,23.8 63.9,23.4 						"/>
					</g>
				</g>
			</g>
			<g>
				<g>
					<g>
						<g>
							<g>
								
									<rect x="62.2" y="23.7" transform="matrix(0.7717 -0.636 0.636 0.7717 -0.8977 45.2195)" class="st2" width="0.6" height="0.4"/>
							</g>
						</g>
					</g>
				</g>
				<g>
					<g>
						<g>
							<path class="st2" d="M67.3,18.1c0,0-1.3,0-1.7,0.6c-0.3,0.6,0.6,1.7,1.1,2.2c0.6,0.4,0.9,0.1,1.1,0c0.2-0.1,0.6-0.9,0.6-1
								c0-0.1,0.1-0.6,0-0.7c-0.1-0.1-0.4-0.6-0.4-0.6C67.8,18.5,67.3,18.1,67.3,18.1z"/>
						</g>
					</g>
				</g>
				<g>
					<g>
						<g>
							<path class="st2" d="M66.7,17.9c-1,0-1.7,0.8-1.7,1.7c0,0.1,0,0.2,0.1,0.4l-2.5,2.9c-0.1,0.1-0.1,0.1-0.1,0.2
								c-0.1,0.2,0,0.3,0.2,0.6c0.1,0.2,0.2,0.2,0.4,0.2l0,0c0.2,0,0.3-0.1,0.4-0.1l2.9-2.4c0.1,0,0.2,0.1,0.4,0.1
								c1,0,1.7-0.8,1.7-1.7C68.5,18.7,67.7,17.9,66.7,17.9z M67,18.7v-0.4c0.1,0,0.2,0.1,0.2,0.1v0.3H67z M67.3,19.1v0.2H67v-0.2
								H67.3z M66.6,18.7h-0.2v-0.4c0.1,0,0.2,0,0.2-0.1V18.7z M66.6,19.1v0.2h-0.2v-0.2H66.6z M66.4,19.7h0.2v0.3h-0.2V19.7z
								 M66,19.4h-0.2c-0.1-0.1-0.1-0.2-0.1-0.2H66V19.4z M66.6,20.4L66.6,20.4L66.6,20.4L66.6,20.4z M67,20.8v-0.4h0.2v0.5
								C67.2,20.9,67.1,20.8,67,20.8z M67,20.1v-0.3h0.2v0.3H67z M67.6,19.7h0.4c0,0.1,0,0.2-0.1,0.3h-0.4V19.7z M67.6,19.4v-0.2H68
								c0.1,0.1,0.1,0.2,0.1,0.2H67.6z M67.7,18.7L67.7,18.7L67.7,18.7L67.7,18.7z M66,18.5v0.2h-0.3C65.8,18.6,65.9,18.6,66,18.5z
								 M63.2,23.5L63.2,23.5c0,0-0.1,0.1-0.1,0.1c-0.1,0-0.1-0.1-0.1-0.1c-0.1-0.1-0.1-0.2-0.1-0.2l2.4-2.8
								c0.2,0.3,0.4,0.6,0.7,0.7L63.2,23.5z M65.3,19.7c0-0.1,0-0.2,0-0.3c0.2,0.5,0.7,1.2,1.4,1.7l0,0C66,21,65.3,20.4,65.3,19.7z
								 M67.6,20.7v-0.2h0.2C67.8,20.5,67.8,20.6,67.6,20.7z"/>
						</g>
					</g>
				</g>
			</g>
		</g>
		<g>
			<g>
				<g>
					<g>
						<g>
							
								<rect x="101.6" y="19.3" transform="matrix(0.7299 -0.6835 0.6835 0.7299 13.3646 75.2103)" class="st2" width="0.4" height="2.7"/>
						</g>
					</g>
				</g>
				<g>
					<g>
						<g>
							
								<rect x="101.9" y="18.8" transform="matrix(0.7566 -0.6538 0.6538 0.7566 11.908 71.577)" class="st2" width="0.4" height="2.1"/>
						</g>
					</g>
				</g>
			</g>
			<g>
				<g>
					<g>
						<g>
							<g>
								
									<rect x="101.8" y="19" transform="matrix(0.7366 -0.6763 0.6763 0.7366 13.1727 74.3172)" class="st1" width="0.4" height="2.5"/>
							</g>
						</g>
					</g>
				</g>
				<g>
					<g>
						<g>
							<g>
								<g>
									<path class="st1" d="M101.2,25c-0.4,0-0.6-2.9-0.7-3.2l0.4-0.1c0.2,0.5,0.5,1.3,0.8,1.2c0.4,0,0.8-0.7,0.9-1.1l0.4,0.2
										c-0.1,0.1-0.2,3.1-1,3.2C102.1,25.2,101.7,25.5,101.2,25z"/>
								</g>
							</g>
						</g>
					</g>
					<g>
						<g>
							<g>
								<g>
									
										<rect x="100.7" y="19.9" transform="matrix(0.8635 -0.5043 0.5043 0.8635 3.7405 54.1026)" class="st1" width="2.4" height="0.4"/>
								</g>
							</g>
						</g>
					</g>
					<g>
						<g>
							<g>
								<g>
									<path class="st2" d="M101.7,25.5c-0.3,0-0.6-0.1-0.8-0.4l-0.1-0.1V25c0-0.1-0.3-2.4-0.4-3.9c0-0.8,0.3-1.5,0.6-2.1
										c0.2-0.6,0.5-1.1,0.5-1.6h0.4c0,0.7-0.2,1.2-0.6,1.8c-0.2,0.6-0.6,1.2-0.6,1.9c0,1.4,0.3,3.4,0.4,3.7
										c0.3,0.3,0.8,0.1,0.9,0.1c0.5-0.9,0.6-3.3,0.4-3.8c-0.1-0.4,0-1,0.1-1.6c0-0.1,0-0.2,0.1-0.3c0.1-0.7,0.6-2,0.6-2h0.4
										c0,0-0.6,1.4-0.6,2.1c0,0.1,0,0.2-0.1,0.3c-0.1,0.6-0.1,1.1-0.1,1.4c0.1,0.5,0.1,3.1-0.5,4.1v0.1h-0.1
										C102.3,25.4,102,25.5,101.7,25.5z"/>
								</g>
							</g>
						</g>
					</g>
				</g>
			</g>
			<g>
				<g>
					<g>
						<path class="st2" d="M101.8,23.2c-0.1,0-0.1,0-0.1,0c-0.8-0.2-1.2-1.5-1.2-1.6l0.4-0.1c0.1,0.3,0.4,1.2,0.9,1.3
							c0.4,0.1,0.7-0.7,0.8-1.1l0.4,0.1C103,21.9,102.6,23.2,101.8,23.2z"/>
					</g>
				</g>
			</g>
			<g>
				<g>
					<g>
						<g>
							
								<rect x="100.6" y="19.4" transform="matrix(0.879 -0.4769 0.4769 0.879 2.9874 50.9782)" class="st2" width="2.6" height="0.4"/>
						</g>
					</g>
				</g>
				<g>
					<g>
						<g>
							
								<rect x="100.5" y="20.4" transform="matrix(0.8668 -0.4986 0.4986 0.8668 3.2835 53.48)" class="st2" width="2.5" height="0.4"/>
						</g>
					</g>
				</g>
			</g>
		</g>
		<g>
			<g>
				<g>
					<g>
						<path class="st1" d="M75.1,80.5l-1-0.1l-0.7,1.2l-0.7,0.2l-0.9,0.1L71.4,82c0,0,0.5,2.4,3.2,2.2l-0.3-1.7
							C74.2,82.5,75.3,82.1,75.1,80.5z"/>
					</g>
				</g>
			</g>
			<g>
				<g>
					<g>
						<g>
							<g>
								<path class="st2" d="M74.2,84.4c-0.2,0-0.6,0-1-0.1c-0.8-0.2-1.7-0.9-1.9-2.5c0-0.1,0-0.1,0.1-0.2s0.1-0.1,0.2-0.1l1.6,0.1
									c0.1-0.2,0.4-0.7,0.6-1.2c0-0.1,0.1-0.2,0.2-0.2l1.1,0.1c0.1,0,0.2,0.1,0.2,0.2c0.1,0.4,0.1,1.4-0.8,2.1l0.2,1.6
									c0,0,0,0,0,0.1C74.8,84.4,74.6,84.4,74.2,84.4z M71.9,82c0.2,0.9,0.7,1.5,1.5,1.7c0.4,0.1,0.7,0.1,0.9,0.1L74,82.5
									c0-0.1,0-0.2,0.1-0.2c0.7-0.5,0.8-1.2,0.8-1.5l-0.7-0.1c-0.2,0.7-0.6,1.3-0.7,1.3c-0.1,0.1-0.1,0.1-0.2,0.1L71.9,82z"/>
							</g>
						</g>
					</g>
				</g>
				<g>
					<g>
						<g>
							<g>
								<path class="st2" d="M73.7,87c-0.4,0-0.6-0.2-0.6-0.4l0,0v-2.6h0.5v2.4c0,0,0.1,0,0.1,0v-2.3h0.5v2.4
									C74.2,86.7,74.1,87,73.7,87z"/>
							</g>
						</g>
					</g>
				</g>
				<g>
					<g>
						<g>
							<g>
								<path class="st2" d="M71.8,83l-2.6-0.6c-0.1-0.1-0.4-0.2-0.2-0.6c0.1-0.4,0.4-0.4,0.5-0.4l0,0l2.2,0.6l-0.1,0.5l-2.2-0.5
									c0,0,0,0,0,0.1V82l2.4,0.6L71.8,83z"/>
							</g>
						</g>
					</g>
				</g>
				<g>
					<g>
						<g>
							<g>
								<polygon class="st2" points="71.3,81.2 71.2,80.8 73.9,80.1 77.5,80.2 77.4,80.7 73.9,80.6 								"/>
							</g>
						</g>
					</g>
				</g>
				<g>
					<g>
						<g>
							<g>
								<path class="st2" d="M74.5,80.3c-0.5,0-0.9-0.4-0.9-0.9s0.4-0.9,0.9-0.9s0.9,0.4,0.9,0.9C75.4,79.9,75,80.3,74.5,80.3z
									 M74.5,78.9c-0.2,0-0.4,0.2-0.4,0.4c0,0.2,0.2,0.4,0.4,0.4s0.4-0.2,0.4-0.4C74.9,79.1,74.7,78.9,74.5,78.9z"/>
							</g>
						</g>
					</g>
				</g>
				<g>
					<g>
						<g>
							<g>
								<circle class="st2" cx="73.9" cy="78.7" r="0.4"/>
							</g>
						</g>
					</g>
				</g>
			</g>
		</g>
		<g>
			<g>
				<g>
					<g>
						<polygon class="st1" points="13.3,108.8 11.8,108.8 10.1,112.1 11.3,112.1 10.3,115.1 13.5,111 12.3,110.9 						"/>
					</g>
				</g>
			</g>
			<g>
				<g>
					<g>
						<path class="st2" d="M9.7,116.2l1.4-3.9H9.8l1.9-3.7h1.9l-1.1,2.1l1.3,0.1L9.7,116.2z M10.5,111.9h1.2l-0.7,2.1l2.2-2.8
							l-1.2-0.1l1.1-2.1H12L10.5,111.9z"/>
					</g>
				</g>
			</g>
		</g>
		<g>
			<g>
				<g>
					<path class="st1" d="M36,81.7c-0.9,0-1.6,0.7-1.6,1.6c0,0.9,0.7,1.6,1.6,1.6s1.6-0.7,1.6-1.6C37.6,82.3,36.9,81.7,36,81.7z
						 M36,84.3c-0.6,0-1-0.4-1-1c0-0.6,0.4-1,1-1s1,0.4,1,1C37.1,83.8,36.6,84.3,36,84.3z"/>
				</g>
			</g>
			<g>
				<g>
					<path class="st1" d="M36,79.8c-0.4,0-0.8,0.4-0.8,0.8s0.4,0.8,0.8,0.8s0.8-0.4,0.8-0.8C36.8,80.2,36.4,79.8,36,79.8z"/>
				</g>
			</g>
			<g>
				<g>
					<g>
						<path class="st2" d="M38.5,85.6h-4.9v-6.8h4.9V85.6z M34,85.1h4v-5.9h-4V85.1z"/>
					</g>
				</g>
			</g>
			<g>
				<g>
					<g>
						<path class="st2" d="M36,85c-1,0-1.8-0.8-1.8-1.8c0-1,0.8-1.8,1.8-1.8s1.8,0.8,1.8,1.8C37.8,84.2,37,85,36,85z M36,81.9
							c-0.7,0-1.3,0.6-1.3,1.3c0,0.7,0.6,1.3,1.3,1.3c0.7,0,1.3-0.6,1.3-1.3C37.3,82.5,36.7,81.9,36,81.9z"/>
					</g>
				</g>
			</g>
			<g>
				<g>
					<g>
						<path class="st2" d="M36,84.3c-0.6,0-1.1-0.5-1.1-1.1c0-0.6,0.5-1.1,1.1-1.1s1.1,0.5,1.1,1.1C37.1,83.8,36.6,84.3,36,84.3z
							 M36,82.7c-0.3,0-0.6,0.2-0.6,0.6c0,0.3,0.2,0.6,0.6,0.6c0.3,0,0.6-0.2,0.6-0.6S36.4,82.7,36,82.7z"/>
					</g>
				</g>
			</g>
			<g>
				<g>
					<g>
						<path class="st2" d="M36,81.5c-0.6,0-1-0.4-1-1c0-0.6,0.4-1,1-1s1,0.4,1,1C37,81,36.6,81.5,36,81.5z M36,80
							c-0.3,0-0.6,0.2-0.6,0.6s0.2,0.6,0.6,0.6s0.6-0.2,0.6-0.6C36.6,80.2,36.3,80,36,80z"/>
					</g>
				</g>
			</g>
			<g>
				<g>
					<g>
						<circle class="st2" cx="36" cy="80.5" r="0.3"/>
					</g>
				</g>
			</g>
			<g>
				<g>
					<g>
						<circle class="st2" cx="36" cy="83.3" r="0.3"/>
					</g>
				</g>
			</g>
			<g>
				<g>
					<g>
						<g>
							<circle class="st2" cx="37.7" cy="79.6" r="0.1"/>
						</g>
					</g>
				</g>
				<g>
					<g>
						<g>
							<circle class="st2" cx="37.7" cy="84.8" r="0.1"/>
						</g>
					</g>
				</g>
				<g>
					<g>
						<g>
							<circle class="st2" cx="34.3" cy="84.8" r="0.1"/>
						</g>
					</g>
				</g>
				<g>
					<g>
						<g>
							<circle class="st2" cx="34.3" cy="79.6" r="0.1"/>
						</g>
					</g>
				</g>
			</g>
		</g>
		<g>
			<g>
				<g>
					<g>
						<g>
							<path class="st1" d="M49.6,48.3c0,0,0.5,0.2,0.6,1l0.1,1.8l0.1,0.5c0,0-0.1,1-0.9,1.6c0,0-0.1-0.1-0.4-0.1
								c-0.2-0.1-0.4-0.1-0.4-0.2c-0.1-0.1-0.2-0.3-0.1-0.4c0-0.1-0.1-0.4,0.1-0.5s0.2-0.2,0.4-0.2c0.1-0.1,0.2-0.1,0.3-0.1
								s0.4-0.1,0.4-0.1l0.1-0.1c0,0,0.1-0.1,0.2-0.1c0.1,0,0,0,0.1-0.1c0.1-0.1,0.1-0.7,0.1-0.8c0-0.1-0.2-0.7-0.2-0.7l-2,0.9
								c0,0-0.2,0.3-0.1,0.5c0.1,0.2,0,1.3,0,1.4c-0.1,0.2-0.3,0.6-0.6,0.7c-0.3,0.1-0.5,0.2-0.8,0.2c-0.3-0.1-0.4,0-0.5-0.2
								c-0.1-0.2-0.2-0.3-0.2-0.5c0-0.2,0.1-0.7,0.4-0.7c0.4-0.1,0.6-0.2,0.7-0.2c0.1,0,0.3-0.1,0.4-0.1c0.1,0.1,0.1,0.2,0.1-0.1
								c0-0.2-0.1-2.2-0.1-2.2s0.4-0.4,0.5-0.5C48,48.9,49.6,48.3,49.6,48.3z"/>
						</g>
					</g>
				</g>
				<g>
					<g>
						<g>
							<g>
								<g>
									<path class="st2" d="M44.8,53c0-0.1,0-0.1,0-0.2C44.8,52.9,44.8,53,44.8,53z"/>
								</g>
							</g>
						</g>
					</g>
					<g>
						<g>
							<g>
								<g>
									<path class="st2" d="M46,54.4c-0.4,0-0.6-0.1-0.6-0.1c-0.4-0.2-0.7-0.6-0.8-1c0-0.1,0-0.2,0-0.3l0,0c0-0.1,0-0.1,0-0.1
										c0-0.1,0-0.2,0.1-0.4l0.2-2.7c0-0.2,0-0.3,0-0.4s-0.1-0.2-0.1-0.2S44.7,49,44.5,49h-0.1l-0.1-0.1c-0.1-0.2-0.1-0.3-0.1-0.4
										c0-0.1,0-0.2,0-0.4V48h0.2c0.4,0,1-0.1,1.7-0.1c0.2,0,0.3,0,0.4-0.1l0.6-0.1c0.2,0,0.3,0,0.4,0c0.7,0,1.2,0.1,1.7,0.3
										l0.3,0.2l-0.3,0.2c-0.4,0.2-0.7,0.4-1.1,0.6c-0.2,0.1-0.5,0.2-0.7,0.3l-0.1,0.1c0,0.1,0,0.2,0,0.3c0,0.1,0,0.2,0,0.4v0.1
										l0.1,1.6h-0.2l0,0c0,0,0,0-0.1,0c0,0,0,0-0.1,0c-0.4-0.1-0.7,0.1-1.1,0.3c-0.1,0.1-0.1,0.1-0.1,0.1
										c-0.1,0.1-0.2,0.3-0.1,0.6c0.1,0.2,0.2,0.3,0.4,0.3c0.1,0,0.2,0,0.4,0c0.2-0.1,0.4-0.1,0.6-0.3c0.2-0.1,0.2-0.3,0.2-0.6
										c0-0.7,0-0.7-0.1-0.8c0-0.1,0-0.2-0.1-0.7c0-0.2,0-0.4,0.3-0.4c0.4-0.2,0.9-0.4,1.4-0.6l0.4-0.2c0.1,0,0.1-0.1,0.1-0.1
										l0.1-0.1l0.3-0.2v0.3c0.1,0.7,0.1,1.3,0.1,1.7v0.1c0,0.1,0,0.1,0,0.1v0.2h-0.2h-0.1c-0.4-0.1-0.9,0.1-1.2,0.4
										c-0.1,0.1-0.2,0.3-0.1,0.5c0.1,0.2,0.2,0.3,0.4,0.3c0.1,0,0.1,0,0.1,0h0.9l-0.4,0.3c-0.1,0.1-0.2,0.2-0.4,0.3
										c-0.4,0.2-0.8,0.4-1.2,0.6c-0.1,0.1-0.3,0.1-0.6,0.1h-0.1C46.7,54.4,46.3,54.4,46,54.4z M45.7,54c0.1,0,0.2,0,0.4,0
										c0.3,0,0.7-0.1,1.2-0.1h0.1c0.3-0.1,0.5-0.1,0.6-0.1l0,0c0.4-0.1,0.7-0.3,1.1-0.5l0,0c-0.2-0.1-0.4-0.2-0.5-0.5
										c-0.1-0.4-0.1-0.7,0.2-0.9c0.4-0.4,0.9-0.6,1.4-0.5v-0.1c0-0.3,0-0.7-0.1-1.4H50l-0.4,0.2c-0.4,0.2-0.9,0.4-1.4,0.6
										c0,0,0,0-0.1,0c0,0,0,0,0,0.1c0,0.6,0.1,0.7,0.1,0.7c0,0.1,0,0.1,0.1,0.8c0,0.4-0.1,0.7-0.4,0.9c-0.2,0.2-0.5,0.3-0.7,0.4
										c-0.2,0.1-0.3,0.1-0.5,0c-0.4-0.1-0.6-0.2-0.7-0.6c-0.1-0.3-0.1-0.7,0.2-0.9c0.1-0.1,0.1-0.1,0.2-0.2
										c0.4-0.3,0.7-0.4,1.2-0.4l-0.2-1.2c0-0.1,0-0.3,0-0.4s0-0.2,0-0.3c0-0.2,0.1-0.3,0.2-0.4l0.1-0.1c0.2-0.1,0.5-0.2,0.7-0.3
										c0.2-0.1,0.4-0.2,0.7-0.3c-0.4-0.1-0.9-0.2-1.6-0.1l-0.6,0.1c-0.1,0-0.2,0-0.4,0.1c-0.7,0.1-1.2,0.1-1.6,0.1
										c0,0.1,0,0.1,0,0.1c0,0.1,0,0.1,0,0.2c0.1,0,0.2,0.1,0.3,0.1c0.1,0.1,0.2,0.2,0.2,0.4c0,0.1,0,0.2,0,0.5L45,52.5
										c0,0.1,0,0.2-0.1,0.4c0,0.1,0,0.1,0,0.2c0,0.1,0,0.1,0,0.2c0.1,0.3,0.2,0.6,0.6,0.7L45.7,54z"/>
								</g>
							</g>
						</g>
					</g>
				</g>
			</g>
			<g>
				<g>
					<g>
						<path class="st2" d="M48.3,54l-0.1-0.4c1.7-0.5,1.8-1.3,1.9-2c0-0.4,0-1.7,0-1.7c0-0.6-0.1-0.9-0.4-1.2
							c-0.5-0.4-1.2-0.4-1.2-0.4L48.3,48c0.1,0,0.9-0.1,1.5,0.4c0.4,0.4,0.6,0.9,0.6,1.5c0,0.1,0,1.3,0,1.7
							C50.3,52.5,50.1,53.4,48.3,54z"/>
					</g>
				</g>
			</g>
		</g>
		<g>
			<g>
				<g>
					<circle class="st1" cx="49.3" cy="112.1" r="0.9"/>
				</g>
			</g>
			<g>
				<g>
					<path class="st2" d="M49.3,113.2c-0.7,0-1.2-0.6-1.2-1.2c0-0.7,0.6-1.2,1.2-1.2c0.7,0,1.2,0.6,1.2,1.2
						C50.5,112.7,49.9,113.2,49.3,113.2z M49.3,111.4c-0.4,0-0.7,0.3-0.7,0.7c0,0.4,0.3,0.7,0.7,0.7c0.4,0,0.7-0.3,0.7-0.7
						C50,111.7,49.6,111.4,49.3,111.4z"/>
				</g>
			</g>
			<g>
				<g>
					<path class="st2" d="M49.3,115.4c-1.9,0-3.4-1.5-3.4-3.4s1.5-3.4,3.4-3.4s3.4,1.5,3.4,3.4S51.1,115.4,49.3,115.4z M49.3,109.1
						c-1.6,0-2.9,1.3-2.9,2.9c0,1.6,1.3,2.9,2.9,2.9s2.9-1.3,2.9-2.9C52.1,110.4,50.8,109.1,49.3,109.1z"/>
				</g>
			</g>
			<g>
				<g>
					<g>
						<path class="st2" d="M47.9,111.6l-0.4-0.1c0.2-0.8,1.1-1.2,1.1-1.2l0.2,0.4l-0.1-0.2l0.1,0.2C48.8,110.6,48.1,111,47.9,111.6z
							"/>
					</g>
				</g>
				<g>
					<g>
						<path class="st2" d="M47.2,111.4l-0.4-0.1c0.4-1.3,1.6-1.7,1.6-1.7l0.1,0.4l-0.1-0.2l0.1,0.2
							C48.5,110.1,47.5,110.3,47.2,111.4z"/>
					</g>
				</g>
			</g>
			<g>
				<g>
					<g>
						<path class="st2" d="M50,113.9l-0.2-0.4l0.1,0.2l-0.1-0.2c0,0,0.7-0.4,0.9-0.9l0.4,0.1C50.8,113.5,50,113.9,50,113.9z"/>
					</g>
				</g>
				<g>
					<g>
						<path class="st2" d="M50.1,114.5l-0.1-0.4l0.1,0.2l-0.1-0.2c0.1,0,1-0.3,1.3-1.4l0.4,0.1C51.4,114.2,50.2,114.5,50.1,114.5z"
							/>
					</g>
				</g>
			</g>
		</g>
		<g>
			<g>
				<g>
					<g>
						<rect x="97.4" y="112.4" class="st1" width="0.6" height="2.9"/>
					</g>
				</g>
				<g>
					<g>
						<path class="st2" d="M97.7,115.6c-0.3,0-0.6-0.2-0.6-0.6v-2.4c0-0.3,0.2-0.6,0.6-0.6c0.3,0,0.6,0.2,0.6,0.6v2.4
							C98.3,115.4,98,115.6,97.7,115.6z M97.7,112.5c-0.1,0-0.1,0.1-0.1,0.1v2.4c0,0.1,0.1,0.1,0.1,0.1s0.1-0.1,0.1-0.1v-2.4
							C97.8,112.5,97.7,112.5,97.7,112.5z"/>
					</g>
				</g>
				<g>
					<g>
						<path class="st2" d="M97.5,115.2c-0.8,0-1.5-0.7-1.5-1.5s0.7-1.5,1.5-1.5v0.4c-0.6,0-1.1,0.4-1.1,1.1c0,0.6,0.4,1.1,1.1,1.1
							V115.2z"/>
					</g>
				</g>
				<g>
					<g>
						<path class="st2" d="M96.6,113.2h-0.4v-1.4c0-0.6,0.2-1.2,0.6-1.6c0.9-0.8,2.2-0.8,2.3-0.8v0.4c0,0-1.2,0-1.9,0.7
							c-0.3,0.3-0.5,0.7-0.5,1.2L96.6,113.2L96.6,113.2z"/>
					</g>
				</g>
				<g>
					<g>
						<path class="st2" d="M97.5,111l-0.4-0.2c0.6-0.9,1.8-0.7,1.9-0.7l-0.1,0.4C99,110.4,98,110.3,97.5,111z"/>
					</g>
				</g>
			</g>
			<g>
				<g>
					<g>
						<rect x="100" y="112.4" class="st1" width="0.6" height="2.9"/>
					</g>
				</g>
				<g>
					<g>
						<path class="st2" d="M100.3,115.6c-0.3,0-0.6-0.2-0.6-0.6v-2.4c0-0.3,0.2-0.6,0.6-0.6s0.6,0.2,0.6,0.6v2.4
							C100.9,115.4,100.6,115.6,100.3,115.6z M100.3,112.5c-0.1,0-0.1,0.1-0.1,0.1v2.4c0,0.1,0.1,0.1,0.1,0.1c0.1,0,0.1-0.1,0.1-0.1
							v-2.4C100.4,112.5,100.3,112.5,100.3,112.5z"/>
					</g>
				</g>
				<g>
					<g>
						<path class="st2" d="M100.5,115.2v-0.4c0.6,0,1.1-0.4,1.1-1.1c0-0.6-0.4-1.1-1.1-1.1v-0.4c0.8,0,1.5,0.7,1.5,1.5
							S101.3,115.2,100.5,115.2z"/>
					</g>
				</g>
				<g>
					<g>
						<path class="st2" d="M101.8,113.2h-0.4v-1.4c0-0.5-0.2-0.9-0.5-1.2c-0.7-0.7-1.9-0.7-1.9-0.7v-0.4c0.1,0,1.4,0,2.3,0.8
							c0.4,0.4,0.6,0.9,0.6,1.6L101.8,113.2L101.8,113.2z"/>
					</g>
				</g>
				<g>
					<g>
						<path class="st2" d="M100.4,111c-0.5-0.6-1.4-0.6-1.4-0.6l-0.1-0.4c0.1,0,1.2-0.1,1.9,0.7L100.4,111z"/>
					</g>
				</g>
			</g>
		</g>
		<g>
			<g>
				<polygon class="st1" points="20.7,22.2 19.6,22.2 19.6,21.7 18.7,21.6 18.8,19.3 19.6,19.2 19.6,18.8 20.7,18.8 				"/>
				<polygon class="st1" points="24.2,22.2 25.4,22.2 25.4,21.7 26.2,21.6 26.2,19.3 25.4,19.2 25.4,18.8 24.2,18.8 				"/>
			</g>
			<g>
				<g>
					<path class="st2" d="M24.4,21h-3.7v-1.2h3.7V21z M21.1,20.7h2.9v-0.4h-2.9V20.7z"/>
				</g>
				<g>
					<g>
						<path class="st2" d="M25.2,22.4h-0.9c-0.2,0-0.4-0.2-0.4-0.4v-3.1c0-0.2,0.2-0.4,0.4-0.4h0.9c0.2,0,0.4,0.2,0.4,0.4V22
							C25.6,22.2,25.4,22.4,25.2,22.4z M24.3,22h0.9v-3h-0.9V22z"/>
					</g>
					<g>
						<path class="st2" d="M26.1,22h-0.6c-0.2,0-0.4-0.2-0.4-0.4v-2.2c0-0.2,0.2-0.4,0.4-0.4h0.6c0.2,0,0.4,0.2,0.4,0.4v2.2
							C26.5,21.8,26.3,22,26.1,22z M25.6,21.5H26v-2.1h-0.4V21.5z"/>
					</g>
				</g>
				<g>
					<g>
						<path class="st2" d="M20.7,22.4h-0.9c-0.2,0-0.4-0.2-0.4-0.4v-3.1c0-0.2,0.2-0.4,0.4-0.4h0.9c0.2,0,0.4,0.2,0.4,0.4V22
							C21.1,22.2,20.9,22.4,20.7,22.4z M19.8,22h0.9v-3h-0.9C19.8,19,19.8,22,19.8,22z"/>
					</g>
					<g>
						<path class="st2" d="M19.4,21.9h-0.6c-0.2,0-0.4-0.2-0.4-0.4v-2.2c0-0.2,0.2-0.4,0.4-0.4h0.6c0.2,0,0.4,0.2,0.4,0.4v2.2
							C19.7,21.8,19.6,21.9,19.4,21.9z M18.9,21.5h0.4v-2.1h-0.4V21.5z"/>
					</g>
				</g>
			</g>
		</g>
		<g>
			<path class="st1" d="M82.4,51.4c0.1-0.1,0.9-0.1,0.9-0.1l1-1.6l0.8,1.9l0.7-1.2l0.9,1.2l0.9,0.1l-1.1,0.5L86,51.7l-0.9,1.4
				l-0.8-1.8l-0.6,0.8l-1,0.1C82.7,52.1,82.2,51.4,82.4,51.4z"/>
			<g>
				<path class="st2" d="M85.5,54.9L85.5,54.9c-0.1,0-0.1-0.1-0.2-0.1l-2.6-2.5c-1.1-1.1-0.9-2.1-0.7-2.5c0.4-0.9,1.3-1.4,1.9-1.4
					c0.9,0,1.4,0.4,1.6,0.6c0.2-0.2,0.7-0.6,1.6-0.6c0.6,0,1.6,0.6,1.9,1.4c0.2,0.5,0.4,1.4-0.7,2.5l-2.6,2.5l-0.1,0.1
					C85.6,54.9,85.5,54.9,85.5,54.9L85.5,54.9z M84,48.8c-0.5,0-1.3,0.5-1.6,1.2c-0.2,0.5-0.2,1.2,0.6,2.1l2.5,2.4L88,52
					c0.9-0.9,0.8-1.6,0.6-2.1c-0.3-0.7-1.1-1.2-1.6-1.2c-1,0-1.3,0.6-1.3,0.6l-0.1,0.1c-0.1,0.1-0.1,0.1-0.2,0.1
					c-0.1,0-0.1-0.1-0.2-0.1l-0.1-0.1C85.3,49.3,84.9,48.8,84,48.8z"/>
			</g>
			<g>
				<path class="st2" d="M85,53.3L85,53.3c-0.1,0-0.1-0.1-0.2-0.1l-0.7-1.5l-0.3,0.5c-0.1,0.1-0.1,0.1-0.2,0.1l0,0h-1
					c-0.1,0-0.2-0.1-0.2-0.2c0-0.1,0.1-0.2,0.2-0.2l0,0h0.9l0.4-0.7c0.1-0.1,0.1-0.1,0.2-0.1c0.1,0,0.1,0.1,0.2,0.1l0.7,1.5l0.7-1.1
					c0.1-0.1,0.1-0.1,0.2-0.1c0.1,0,0.1,0,0.2,0.1l0.4,0.5l0.4-0.1h-0.2c-0.1,0-0.1-0.1-0.2-0.1l-0.7-1l-0.5,1.1
					c-0.1,0.1-0.1,0.1-0.2,0.1c-0.1,0-0.1-0.1-0.2-0.1l-0.7-1.6l-0.7,1.3c-0.1,0.1-0.1,0.1-0.2,0.1h-0.9c-0.1,0-0.2-0.1-0.2-0.2
					s0.1-0.2,0.2-0.2h0.8l0.9-1.6c0.1-0.1,0.1-0.1,0.2-0.1c0.1,0,0.1,0.1,0.2,0.1l0.6,1.6l0.5-0.9c0.1-0.1,0.1-0.1,0.2-0.1
					s0.1,0,0.2,0.1l0.8,1.2l1.2,0.1c0.1,0,0.1,0,0.1,0.1s0.1,0.1,0.1,0.2c0,0.1-0.1,0.1-0.1,0.2l-1.6,0.5c-0.1,0-0.2,0-0.2-0.1
					l-0.3-0.4l-0.7,1.2C85.1,53.2,85.1,53.3,85,53.3z"/>
			</g>
		</g>
	</g>
	<g>
		<g>
			<g>
				<g>
					<g>
						<g>
							<g>
								
									<rect x="126.9" y="47.6" transform="matrix(0.9106 -0.4132 0.4132 0.9106 -8.4019 56.8631)" class="st1" width="0.7" height="0.4"/>
							</g>
						</g>
					</g>
				</g>
				<g>
					<g>
						<g>
							<g>
								
									<rect x="126.6" y="47.1" transform="matrix(0.9103 -0.414 0.414 0.9103 -8.1807 56.8287)" class="st1" width="0.7" height="0.4"/>
							</g>
						</g>
					</g>
				</g>
				<g>
					<g>
						<g>
							<g>
								
									<rect x="125.5" y="48.3" transform="matrix(0.9104 -0.4138 0.4138 0.9104 -8.7878 56.4305)" class="st1" width="0.7" height="0.4"/>
							</g>
						</g>
					</g>
				</g>
				<g>
					<g>
						<g>
							<g>
								
									<rect x="125.3" y="47.7" transform="matrix(0.9105 -0.4136 0.4136 0.9105 -8.5758 56.2499)" class="st1" width="0.7" height="0.4"/>
							</g>
						</g>
					</g>
				</g>
				<g>
					<g>
						<g>
							
								<ellipse transform="matrix(0.9105 -0.4135 0.4135 0.9105 -10.0078 57.746)" class="st1" cx="128.4" cy="52" rx="0.6" ry="0.6"/>
						</g>
					</g>
				</g>
				<g>
					<g>
						<g>
							<path class="st2" d="M128.7,52.8c-0.4,0.2-0.9,0-1.1-0.4c-0.2-0.4,0-0.9,0.4-1.1c0.4-0.2,0.9,0,1.1,0.4
								C129.3,52.1,129.1,52.6,128.7,52.8z M128.2,51.6c-0.2,0.1-0.3,0.3-0.2,0.5c0.1,0.2,0.3,0.3,0.5,0.2c0.2-0.1,0.3-0.3,0.2-0.5
								C128.6,51.6,128.4,51.5,128.2,51.6z"/>
						</g>
					</g>
				</g>
				<g>
					<g>
						<g>
							<g>
								
									<rect x="128.5" y="53.2" transform="matrix(0.9103 -0.4139 0.4139 0.9103 -10.5323 58.1859)" class="st2" width="1" height="0.4"/>
							</g>
						</g>
					</g>
				</g>
			</g>
			<g>
				<g>
					<g>
						<path class="st2" d="M130.1,51.8c-0.2-0.1-0.3-0.4-0.3-0.6v-0.1c-0.1-0.5-0.3-0.9-0.7-1.1c-0.4-0.2-0.9-0.1-1.2-0.1l-0.7-1.6
							l0.2-0.1l-0.6-1.4l-1.5,0.7L126,49l0.2-0.1l0.7,1.6c-0.2,0.2-0.6,0.5-0.6,0.9c-0.1,0.4,0,0.8,0.4,1.2l0,0
							c0.1,0.1,0.4,0.4,0.3,0.6c-0.2,0.6-0.2,1.2,0,1.9c0.3,0.7,1.1,1.3,2.9,0.5c1.8-0.8,1.9-1.8,1.6-2.5
							C131.3,52.4,130.8,51.9,130.1,51.8z M126.3,48.4l-0.3-0.7l0.7-0.3l0.3,0.7l-0.2,0.1l0.9,1.9h-0.1c0,0-0.1,0-0.1,0.1
							c0,0-0.1,0-0.1,0.1l-0.9-1.9L126.3,48.4z M129.8,55.1c-1.2,0.6-2,0.4-2.4-0.2c-0.2-0.5-0.2-1.1,0-1.5c0.2-0.5-0.2-1-0.4-1.1
							c-0.2-0.3-0.3-0.6-0.2-0.9c0.1-0.4,0.4-0.6,0.7-0.7l0.4-0.2c0.2-0.1,0.7-0.2,1-0.1c0.2,0.1,0.4,0.4,0.5,0.7
							c0,0.1,0.1,0.9,0.6,1c0.5,0.1,0.9,0.5,1.1,1C131.4,53.9,131,54.6,129.8,55.1z"/>
					</g>
				</g>
			</g>
		</g>
		<g>
			<g>
				<g>
					<g>
						<g>
							<path class="st2" d="M225.7,79.3v4.6c-0.2-0.2-0.5-0.2-0.8-0.2c-0.7,0-1.3,0.5-1.3,1.1c0,0.6,0.6,1.1,1.3,1.1
								c0.7,0,1.2-0.5,1.3-1.1l0,0v-3.7l3.4-0.7v2.8c-0.2-0.2-0.5-0.2-0.8-0.2c-0.7,0-1.3,0.5-1.3,1.1c0,0.6,0.6,1.1,1.3,1.1
								c0.7,0,1.3-0.5,1.3-1.1v-5.6L225.7,79.3z M224.9,85.4c-0.4,0-0.8-0.3-0.8-0.7s0.4-0.7,0.8-0.7c0.4,0,0.8,0.3,0.8,0.7
								S225.3,85.4,224.9,85.4z M226.1,80.6v-0.9l3.4-0.7v0.9L226.1,80.6z M228.7,84.7c-0.4,0-0.8-0.3-0.8-0.7s0.4-0.7,0.8-0.7
								c0.4,0,0.8,0.3,0.8,0.7S229.2,84.7,228.7,84.7z"/>
						</g>
					</g>
				</g>
				<g>
					<g>
						<g>
							<polygon class="st1" points="226.1,80.6 226.1,79.7 229.5,79 229.5,79.9 							"/>
						</g>
					</g>
				</g>
			</g>
		</g>
		<g>
			<g>
				<g>
					<g>
						<polygon class="st1" points="182.9,21.2 181.9,20.2 179.2,23.1 179.5,23.8 180.6,23.4 						"/>
					</g>
				</g>
			</g>
			<g>
				<g>
					<g>
						<g>
							<g>
								
									<rect x="178.9" y="23.7" transform="matrix(0.7717 -0.636 0.636 0.7717 25.7419 119.4296)" class="st2" width="0.6" height="0.4"/>
							</g>
						</g>
					</g>
				</g>
				<g>
					<g>
						<g>
							<path class="st2" d="M184,18.1c0,0-1.3,0-1.7,0.6c-0.3,0.6,0.6,1.7,1.1,2.2c0.6,0.4,0.9,0.1,1.1,0c0.2-0.1,0.6-0.9,0.6-1
								c0-0.1,0.1-0.6,0-0.7s-0.4-0.6-0.4-0.6C184.5,18.5,184,18.1,184,18.1z"/>
						</g>
					</g>
				</g>
				<g>
					<g>
						<g>
							<path class="st2" d="M183.4,17.9c-1,0-1.7,0.8-1.7,1.7c0,0.1,0,0.2,0.1,0.4l-2.5,2.9c-0.1,0.1-0.1,0.1-0.1,0.2
								c-0.1,0.2,0,0.3,0.2,0.6c0.1,0.2,0.2,0.2,0.4,0.2l0,0c0.2,0,0.3-0.1,0.4-0.1l2.9-2.4c0.1,0,0.2,0.1,0.4,0.1
								c1,0,1.7-0.8,1.7-1.7C185.2,18.7,184.4,17.9,183.4,17.9z M183.7,18.7v-0.4c0.1,0,0.2,0.1,0.2,0.1v0.3H183.7z M184,19.1v0.2
								h-0.2v-0.2H184z M183.3,18.7h-0.2v-0.4c0.1,0,0.2,0,0.2-0.1V18.7z M183.3,19.1v0.2h-0.2v-0.2H183.3z M183.1,19.7h0.2v0.3
								h-0.2V19.7z M182.7,19.4h-0.2c-0.1-0.1-0.1-0.2-0.1-0.2h0.4V19.4z M183.3,20.4L183.3,20.4L183.3,20.4L183.3,20.4z
								 M183.7,20.8v-0.4h0.2v0.5C183.9,20.9,183.8,20.8,183.7,20.8z M183.7,20.1v-0.3h0.2v0.3H183.7z M184.3,19.7h0.4
								c0,0.1,0,0.2-0.1,0.3h-0.4V19.7z M184.3,19.4v-0.2h0.3c0.1,0.1,0.1,0.2,0.1,0.2H184.3z M184.4,18.7L184.4,18.7L184.4,18.7
								L184.4,18.7z M182.7,18.5v0.2h-0.3C182.5,18.6,182.6,18.6,182.7,18.5z M179.8,23.5L179.8,23.5c0,0-0.1,0.1-0.1,0.1
								s-0.1-0.1-0.1-0.1c-0.1-0.1-0.1-0.2-0.1-0.2l2.4-2.8c0.2,0.3,0.4,0.6,0.7,0.7L179.8,23.5z M182,19.7c0-0.1,0-0.2,0-0.3
								c0.2,0.5,0.7,1.2,1.4,1.7l0,0C182.6,21,182,20.4,182,19.7z M184.3,20.7v-0.2h0.2C184.5,20.5,184.5,20.6,184.3,20.7z"/>
						</g>
					</g>
				</g>
			</g>
		</g>
		<g>
			<g>
				<g>
					<g>
						<g>
							
								<rect x="218.3" y="19.3" transform="matrix(0.7299 -0.6835 0.6835 0.7299 44.8777 154.9663)" class="st2" width="0.4" height="2.7"/>
						</g>
					</g>
				</g>
				<g>
					<g>
						<g>
							
								<rect x="218.6" y="18.8" transform="matrix(0.7566 -0.6538 0.6538 0.7566 40.3043 147.8685)" class="st2" width="0.4" height="2.1"/>
						</g>
					</g>
				</g>
			</g>
			<g>
				<g>
					<g>
						<g>
							<g>
								
									<rect x="218.5" y="19" transform="matrix(0.7366 -0.6763 0.6763 0.7366 43.9054 153.2317)" class="st1" width="0.4" height="2.5"/>
							</g>
						</g>
					</g>
				</g>
				<g>
					<g>
						<g>
							<g>
								<g>
									<path class="st1" d="M217.9,25c-0.4,0-0.6-2.9-0.7-3.2l0.4-0.1c0.2,0.5,0.5,1.3,0.8,1.2c0.4,0,0.8-0.7,0.9-1.1l0.4,0.2
										c-0.1,0.1-0.2,3.1-1,3.2C218.8,25.2,218.4,25.5,217.9,25z"/>
								</g>
							</g>
						</g>
					</g>
					<g>
						<g>
							<g>
								<g>
									
										<rect x="217.3" y="19.9" transform="matrix(0.8635 -0.5043 0.5043 0.8635 19.6624 112.9424)" class="st1" width="2.4" height="0.4"/>
								</g>
							</g>
						</g>
					</g>
					<g>
						<g>
							<g>
								<g>
									<path class="st2" d="M218.4,25.5c-0.3,0-0.6-0.1-0.8-0.4l-0.1-0.1V25c0-0.1-0.3-2.4-0.4-3.9c0-0.8,0.3-1.5,0.6-2.1
										c0.2-0.6,0.5-1.1,0.5-1.6h0.4c0,0.7-0.2,1.2-0.6,1.8c-0.2,0.6-0.6,1.2-0.6,1.9c0,1.4,0.3,3.4,0.4,3.7
										c0.3,0.3,0.8,0.1,0.9,0.1c0.5-0.9,0.6-3.3,0.4-3.8c-0.1-0.4,0-1,0.1-1.6c0-0.1,0-0.2,0.1-0.3c0.1-0.7,0.6-2,0.6-2h0.4
										c0,0-0.6,1.4-0.6,2.1c0,0.1,0,0.2-0.1,0.3c-0.1,0.6-0.1,1.1-0.1,1.4c0.1,0.5,0.1,3.1-0.5,4.1v0.1h-0.1
										C219,25.4,218.7,25.5,218.4,25.5z"/>
								</g>
							</g>
						</g>
					</g>
				</g>
			</g>
			<g>
				<g>
					<g>
						<path class="st2" d="M218.5,23.2c-0.1,0-0.1,0-0.1,0c-0.8-0.2-1.2-1.5-1.2-1.6l0.4-0.1c0.1,0.3,0.4,1.2,0.9,1.3
							c0.4,0.1,0.7-0.7,0.8-1.1l0.4,0.1C219.7,21.9,219.3,23.2,218.5,23.2z"/>
					</g>
				</g>
			</g>
			<g>
				<g>
					<g>
						<g>
							
								<rect x="217.3" y="19.4" transform="matrix(0.879 -0.4769 0.4769 0.879 17.1099 106.6225)" class="st2" width="2.6" height="0.4"/>
						</g>
					</g>
				</g>
				<g>
					<g>
						<g>
							
								<rect x="217.2" y="20.4" transform="matrix(0.8668 -0.4986 0.4986 0.8668 18.8229 111.6599)" class="st2" width="2.5" height="0.4"/>
						</g>
					</g>
				</g>
			</g>
		</g>
		<g>
			<g>
				<g>
					<g>
						<path class="st1" d="M191.7,80.5l-1-0.1l-0.7,1.2l-0.7,0.2l-0.9,0.1l-0.3,0.1c0,0,0.5,2.4,3.2,2.2l-0.3-1.7
							C190.9,82.5,192,82.1,191.7,80.5z"/>
					</g>
				</g>
			</g>
			<g>
				<g>
					<g>
						<g>
							<g>
								<path class="st2" d="M190.9,84.4c-0.2,0-0.6,0-1-0.1c-0.8-0.2-1.7-0.9-1.9-2.5c0-0.1,0-0.1,0.1-0.2s0.1-0.1,0.2-0.1l1.6,0.1
									c0.1-0.2,0.4-0.7,0.6-1.2c0-0.1,0.1-0.2,0.2-0.2l1.1,0.1c0.1,0,0.2,0.1,0.2,0.2c0.1,0.4,0.1,1.4-0.8,2.1l0.2,1.6
									c0,0,0,0,0,0.1C191.5,84.4,191.2,84.4,190.9,84.4z M188.6,82c0.2,0.9,0.7,1.5,1.5,1.7c0.4,0.1,0.7,0.1,0.9,0.1l-0.2-1.4
									c0-0.1,0-0.2,0.1-0.2c0.7-0.5,0.8-1.2,0.8-1.5l-0.7-0.1c-0.2,0.7-0.6,1.3-0.7,1.3c-0.1,0.1-0.1,0.1-0.2,0.1L188.6,82z"/>
							</g>
						</g>
					</g>
				</g>
				<g>
					<g>
						<g>
							<g>
								<path class="st2" d="M190.4,87c-0.4,0-0.6-0.2-0.6-0.4l0,0v-2.6h0.5v2.4c0,0,0.1,0,0.1,0v-2.3h0.5v2.4
									C190.9,86.7,190.7,87,190.4,87z"/>
							</g>
						</g>
					</g>
				</g>
				<g>
					<g>
						<g>
							<g>
								<path class="st2" d="M188.4,83l-2.6-0.6c-0.1-0.1-0.4-0.2-0.2-0.6s0.4-0.4,0.5-0.4l0,0l2.2,0.6l-0.1,0.5l-2.2-0.5
									c0,0,0,0,0,0.1V82l2.4,0.6L188.4,83z"/>
							</g>
						</g>
					</g>
				</g>
				<g>
					<g>
						<g>
							<g>
								<polygon class="st2" points="188,81.2 187.9,80.8 190.6,80.1 194.2,80.2 194.1,80.7 190.6,80.6 								"/>
							</g>
						</g>
					</g>
				</g>
				<g>
					<g>
						<g>
							<g>
								<path class="st2" d="M191.2,80.3c-0.5,0-0.9-0.4-0.9-0.9s0.4-0.9,0.9-0.9s0.9,0.4,0.9,0.9C192.1,79.9,191.7,80.3,191.2,80.3
									z M191.2,78.9c-0.2,0-0.4,0.2-0.4,0.4c0,0.2,0.2,0.4,0.4,0.4s0.4-0.2,0.4-0.4C191.6,79.1,191.4,78.9,191.2,78.9z"/>
							</g>
						</g>
					</g>
				</g>
				<g>
					<g>
						<g>
							<g>
								<circle class="st2" cx="190.6" cy="78.7" r="0.4"/>
							</g>
						</g>
					</g>
				</g>
			</g>
		</g>
		<g>
			<g>
				<g>
					<g>
						<polygon class="st1" points="130,108.8 128.5,108.8 126.8,112.1 128,112.1 127,115.1 130.2,111 129,110.9 						"/>
					</g>
				</g>
			</g>
			<g>
				<g>
					<g>
						<path class="st2" d="M126.3,116.2l1.4-3.9h-1.2l1.9-3.7h1.9l-1.1,2.1l1.3,0.1L126.3,116.2z M127.1,111.9h1.2l-0.7,2.1l2.2-2.8
							l-1.2-0.1l1.1-2.1h-1.1L127.1,111.9z"/>
					</g>
				</g>
			</g>
		</g>
		<g>
			<g>
				<g>
					<path class="st1" d="M152.7,81.7c-0.9,0-1.6,0.7-1.6,1.6c0,0.9,0.7,1.6,1.6,1.6s1.6-0.7,1.6-1.6
						C154.2,82.3,153.6,81.7,152.7,81.7z M152.7,84.3c-0.6,0-1-0.4-1-1c0-0.6,0.4-1,1-1s1,0.4,1,1C153.7,83.8,153.2,84.3,152.7,84.3
						z"/>
				</g>
			</g>
			<g>
				<g>
					<path class="st1" d="M152.7,79.8c-0.4,0-0.8,0.4-0.8,0.8s0.4,0.8,0.8,0.8s0.8-0.4,0.8-0.8C153.5,80.2,153.1,79.8,152.7,79.8z"
						/>
				</g>
			</g>
			<g>
				<g>
					<g>
						<path class="st2" d="M155.2,85.6h-4.9v-6.8h4.9V85.6z M150.7,85.1h4v-5.9h-4V85.1z"/>
					</g>
				</g>
			</g>
			<g>
				<g>
					<g>
						<path class="st2" d="M152.7,85c-1,0-1.8-0.8-1.8-1.8c0-1,0.8-1.8,1.8-1.8s1.8,0.8,1.8,1.8C154.5,84.2,153.7,85,152.7,85z
							 M152.7,81.9c-0.7,0-1.3,0.6-1.3,1.3c0,0.7,0.6,1.3,1.3,1.3c0.7,0,1.3-0.6,1.3-1.3C154,82.5,153.4,81.9,152.7,81.9z"/>
					</g>
				</g>
			</g>
			<g>
				<g>
					<g>
						<path class="st2" d="M152.7,84.3c-0.6,0-1.1-0.5-1.1-1.1c0-0.6,0.5-1.1,1.1-1.1s1.1,0.5,1.1,1.1
							C153.8,83.8,153.3,84.3,152.7,84.3z M152.7,82.7c-0.3,0-0.6,0.2-0.6,0.6c0,0.3,0.2,0.6,0.6,0.6c0.3,0,0.6-0.2,0.6-0.6
							S153.1,82.7,152.7,82.7z"/>
					</g>
				</g>
			</g>
			<g>
				<g>
					<g>
						<path class="st2" d="M152.7,81.5c-0.6,0-1-0.4-1-1c0-0.6,0.4-1,1-1s1,0.4,1,1C153.7,81,153.2,81.5,152.7,81.5z M152.7,80
							c-0.3,0-0.6,0.2-0.6,0.6s0.2,0.6,0.6,0.6s0.6-0.2,0.6-0.6C153.2,80.2,153,80,152.7,80z"/>
					</g>
				</g>
			</g>
			<g>
				<g>
					<g>
						<circle class="st2" cx="152.7" cy="80.5" r="0.3"/>
					</g>
				</g>
			</g>
			<g>
				<g>
					<g>
						<circle class="st2" cx="152.7" cy="83.3" r="0.3"/>
					</g>
				</g>
			</g>
			<g>
				<g>
					<g>
						<g>
							<circle class="st2" cx="154.4" cy="79.6" r="0.1"/>
						</g>
					</g>
				</g>
				<g>
					<g>
						<g>
							<circle class="st2" cx="154.4" cy="84.8" r="0.1"/>
						</g>
					</g>
				</g>
				<g>
					<g>
						<g>
							<circle class="st2" cx="151" cy="84.8" r="0.1"/>
						</g>
					</g>
				</g>
				<g>
					<g>
						<g>
							<circle class="st2" cx="151" cy="79.6" r="0.1"/>
						</g>
					</g>
				</g>
			</g>
		</g>
		<g>
			<g>
				<g>
					<g>
						<g>
							<path class="st1" d="M166.3,48.3c0,0,0.5,0.2,0.6,1l0.1,1.8l0.1,0.5c0,0-0.1,1-0.9,1.6c0,0-0.1-0.1-0.4-0.1
								c-0.2-0.1-0.4-0.1-0.4-0.2c-0.1-0.1-0.2-0.3-0.1-0.4c0-0.1-0.1-0.4,0.1-0.5c0.2-0.1,0.2-0.2,0.4-0.2c0.1-0.1,0.2-0.1,0.3-0.1
								s0.4-0.1,0.4-0.1l0.1-0.1c0,0,0.1-0.1,0.2-0.1s0,0,0.1-0.1c0.1-0.1,0.1-0.7,0.1-0.8c0-0.1-0.2-0.7-0.2-0.7l-2,0.9
								c0,0-0.2,0.3-0.1,0.5c0.1,0.2,0,1.3,0,1.4c-0.1,0.2-0.3,0.6-0.6,0.7c-0.3,0.1-0.5,0.2-0.8,0.2c-0.3-0.1-0.4,0-0.5-0.2
								c-0.1-0.2-0.2-0.3-0.2-0.5c0-0.2,0.1-0.7,0.4-0.7c0.4-0.1,0.6-0.2,0.7-0.2c0.1,0,0.3-0.1,0.4-0.1c0.1,0.1,0.1,0.2,0.1-0.1
								c0-0.2-0.1-2.2-0.1-2.2s0.4-0.4,0.5-0.5C164.6,48.9,166.3,48.3,166.3,48.3z"/>
						</g>
					</g>
				</g>
				<g>
					<g>
						<g>
							<g>
								<g>
									<path class="st2" d="M161.5,53c0-0.1,0-0.1,0-0.2C161.5,52.9,161.5,53,161.5,53z"/>
								</g>
							</g>
						</g>
					</g>
					<g>
						<g>
							<g>
								<g>
									<path class="st2" d="M162.6,54.4c-0.4,0-0.6-0.1-0.6-0.1c-0.4-0.2-0.7-0.6-0.8-1c0-0.1,0-0.2,0-0.3l0,0c0-0.1,0-0.1,0-0.1
										c0-0.1,0-0.2,0.1-0.4l0.2-2.7c0-0.2,0-0.3,0-0.4s-0.1-0.2-0.1-0.2s-0.1-0.1-0.2-0.1h-0.1l-0.1-0.1
										c-0.1-0.2-0.1-0.3-0.1-0.4c0-0.1,0-0.2,0-0.4V48h0.2c0.4,0,1-0.1,1.7-0.1c0.2,0,0.3,0,0.4-0.1l0.6-0.1c0.2,0,0.3,0,0.4,0
										c0.7,0,1.2,0.1,1.7,0.3l0.3,0.2l-0.3,0.2c-0.4,0.2-0.7,0.4-1.1,0.6c-0.2,0.1-0.5,0.2-0.7,0.3l-0.1,0.1c0,0.1,0,0.2,0,0.3
										c0,0.1,0,0.2,0,0.4v0.1l0.1,1.6h-0.2l0,0c0,0,0,0-0.1,0c0,0,0,0-0.1,0c-0.4-0.1-0.7,0.1-1.1,0.3c-0.1,0.1-0.1,0.1-0.1,0.1
										c-0.1,0.1-0.2,0.3-0.1,0.6c0.1,0.2,0.2,0.3,0.4,0.3c0.1,0,0.2,0,0.4,0c0.2-0.1,0.4-0.1,0.6-0.3c0.2-0.1,0.2-0.3,0.2-0.6
										c0-0.7,0-0.7-0.1-0.8c0-0.1,0-0.2-0.1-0.7c0-0.2,0-0.4,0.3-0.4c0.4-0.2,0.9-0.4,1.4-0.6l0.4-0.2c0.1,0,0.1-0.1,0.1-0.1
										l0.1-0.1l0.3-0.2v0.3c0.1,0.7,0.1,1.3,0.1,1.7v0.1c0,0.1,0,0.1,0,0.1v0.2h-0.2h-0.1c-0.4-0.1-0.9,0.1-1.2,0.4
										c-0.1,0.1-0.2,0.3-0.1,0.5c0.1,0.2,0.2,0.3,0.4,0.3c0.1,0,0.1,0,0.1,0h0.9l-0.4,0.3c-0.1,0.1-0.2,0.2-0.4,0.3
										c-0.4,0.2-0.8,0.4-1.2,0.6c-0.1,0.1-0.3,0.1-0.6,0.1h-0.1C163.4,54.4,163,54.4,162.6,54.4z M162.3,54c0.1,0,0.2,0,0.4,0
										c0.3,0,0.7-0.1,1.2-0.1h0.1c0.3-0.1,0.5-0.1,0.6-0.1l0,0c0.4-0.1,0.7-0.3,1.1-0.5l0,0c-0.2-0.1-0.4-0.2-0.5-0.5
										c-0.1-0.4-0.1-0.7,0.2-0.9c0.4-0.4,0.9-0.6,1.4-0.5v-0.1c0-0.3,0-0.7-0.1-1.4h-0.1l-0.4,0.2c-0.4,0.2-0.9,0.4-1.4,0.6
										c0,0,0,0-0.1,0c0,0,0,0,0,0.1c0,0.6,0.1,0.7,0.1,0.7c0,0.1,0,0.1,0.1,0.8c0,0.4-0.1,0.7-0.4,0.9c-0.2,0.2-0.5,0.3-0.7,0.4
										c-0.2,0.1-0.3,0.1-0.5,0c-0.4-0.1-0.6-0.2-0.7-0.6c-0.1-0.3-0.1-0.7,0.2-0.9c0.1-0.1,0.1-0.1,0.2-0.2
										c0.4-0.3,0.7-0.4,1.2-0.4l-0.2-1.2c0-0.1,0-0.3,0-0.4s0-0.2,0-0.3c0-0.2,0.1-0.3,0.2-0.4l0.1-0.1c0.2-0.1,0.5-0.2,0.7-0.3
										c0.2-0.1,0.4-0.2,0.7-0.3c-0.4-0.1-0.9-0.2-1.6-0.1l-0.6,0.1c-0.1,0-0.2,0-0.4,0.1c-0.7,0.1-1.2,0.1-1.6,0.1
										c0,0.1,0,0.1,0,0.1c0,0.1,0,0.1,0,0.2c0.1,0,0.2,0.1,0.3,0.1c0.1,0.1,0.2,0.2,0.2,0.4c0,0.1,0,0.2,0,0.5l-0.2,2.7
										c0,0.1,0,0.2-0.1,0.4c0,0.1,0,0.1,0,0.2c0,0.1,0,0.1,0,0.2c0.1,0.3,0.2,0.6,0.6,0.7L162.3,54z"/>
								</g>
							</g>
						</g>
					</g>
				</g>
			</g>
			<g>
				<g>
					<g>
						<path class="st2" d="M165,54l-0.1-0.4c1.7-0.5,1.8-1.3,1.9-2c0-0.4,0-1.7,0-1.7c0-0.6-0.1-0.9-0.4-1.2
							c-0.5-0.4-1.2-0.4-1.2-0.4L165,48c0.1,0,0.9-0.1,1.5,0.4c0.4,0.4,0.6,0.9,0.6,1.5c0,0.1,0,1.3,0,1.7
							C167,52.5,166.8,53.4,165,54z"/>
					</g>
				</g>
			</g>
		</g>
		<g>
			<g>
				<g>
					<circle class="st1" cx="166" cy="112.1" r="0.9"/>
				</g>
			</g>
			<g>
				<g>
					<path class="st2" d="M166,113.2c-0.7,0-1.2-0.6-1.2-1.2c0-0.7,0.6-1.2,1.2-1.2c0.7,0,1.2,0.6,1.2,1.2
						C167.1,112.7,166.6,113.2,166,113.2z M166,111.4c-0.4,0-0.7,0.3-0.7,0.7c0,0.4,0.3,0.7,0.7,0.7c0.4,0,0.7-0.3,0.7-0.7
						C166.7,111.7,166.3,111.4,166,111.4z"/>
				</g>
			</g>
			<g>
				<g>
					<path class="st2" d="M166,115.4c-1.9,0-3.4-1.5-3.4-3.4s1.5-3.4,3.4-3.4c1.9,0,3.4,1.5,3.4,3.4S167.8,115.4,166,115.4z
						 M166,109.1c-1.6,0-2.9,1.3-2.9,2.9c0,1.6,1.3,2.9,2.9,2.9s2.9-1.3,2.9-2.9C168.8,110.4,167.5,109.1,166,109.1z"/>
				</g>
			</g>
			<g>
				<g>
					<g>
						<path class="st2" d="M164.6,111.6l-0.4-0.1c0.2-0.8,1.1-1.2,1.1-1.2l0.2,0.4l-0.1-0.2l0.1,0.2
							C165.5,110.6,164.8,111,164.6,111.6z"/>
					</g>
				</g>
				<g>
					<g>
						<path class="st2" d="M163.9,111.4l-0.4-0.1c0.4-1.3,1.6-1.7,1.6-1.7l0.1,0.4l-0.1-0.2l0.1,0.2
							C165.1,110.1,164.2,110.3,163.9,111.4z"/>
					</g>
				</g>
			</g>
			<g>
				<g>
					<g>
						<path class="st2" d="M166.6,113.9l-0.2-0.4l0.1,0.2l-0.1-0.2c0,0,0.7-0.4,0.9-0.9l0.4,0.1
							C167.5,113.5,166.6,113.9,166.6,113.9z"/>
					</g>
				</g>
				<g>
					<g>
						<path class="st2" d="M166.8,114.5l-0.1-0.4l0.1,0.2l-0.1-0.2c0.1,0,1-0.3,1.3-1.4l0.4,0.1
							C168.1,114.2,166.9,114.5,166.8,114.5z"/>
					</g>
				</g>
			</g>
		</g>
		<g>
			<g>
				<g>
					<g>
						<rect x="214.1" y="112.4" class="st1" width="0.6" height="2.9"/>
					</g>
				</g>
				<g>
					<g>
						<path class="st2" d="M214.3,115.6c-0.3,0-0.6-0.2-0.6-0.6v-2.4c0-0.3,0.2-0.6,0.6-0.6c0.3,0,0.6,0.2,0.6,0.6v2.4
							C215,115.4,214.7,115.6,214.3,115.6z M214.3,112.5c-0.1,0-0.1,0.1-0.1,0.1v2.4c0,0.1,0.1,0.1,0.1,0.1c0.1,0,0.1-0.1,0.1-0.1
							v-2.4C214.5,112.5,214.4,112.5,214.3,112.5z"/>
					</g>
				</g>
				<g>
					<g>
						<path class="st2" d="M214.2,115.2c-0.8,0-1.5-0.7-1.5-1.5s0.7-1.5,1.5-1.5v0.4c-0.6,0-1.1,0.4-1.1,1.1c0,0.6,0.4,1.1,1.1,1.1
							V115.2z"/>
					</g>
				</g>
				<g>
					<g>
						<path class="st2" d="M213.3,113.2h-0.4v-1.4c0-0.6,0.2-1.2,0.6-1.6c0.9-0.8,2.2-0.8,2.3-0.8v0.4c0,0-1.2,0-1.9,0.7
							c-0.3,0.3-0.5,0.7-0.5,1.2L213.3,113.2L213.3,113.2z"/>
					</g>
				</g>
				<g>
					<g>
						<path class="st2" d="M214.2,111l-0.4-0.2c0.6-0.9,1.8-0.7,1.9-0.7l-0.1,0.4C215.7,110.4,214.7,110.3,214.2,111z"/>
					</g>
				</g>
			</g>
			<g>
				<g>
					<g>
						<rect x="216.7" y="112.4" class="st1" width="0.6" height="2.9"/>
					</g>
				</g>
				<g>
					<g>
						<path class="st2" d="M217,115.6c-0.3,0-0.6-0.2-0.6-0.6v-2.4c0-0.3,0.2-0.6,0.6-0.6c0.3,0,0.6,0.2,0.6,0.6v2.4
							C217.6,115.4,217.3,115.6,217,115.6z M217,112.5c-0.1,0-0.1,0.1-0.1,0.1v2.4c0,0.1,0.1,0.1,0.1,0.1s0.1-0.1,0.1-0.1v-2.4
							C217.1,112.5,217,112.5,217,112.5z"/>
					</g>
				</g>
				<g>
					<g>
						<path class="st2" d="M217.2,115.2v-0.4c0.6,0,1.1-0.4,1.1-1.1c0-0.6-0.4-1.1-1.1-1.1v-0.4c0.8,0,1.5,0.7,1.5,1.5
							S218,115.2,217.2,115.2z"/>
					</g>
				</g>
				<g>
					<g>
						<path class="st2" d="M218.5,113.2h-0.4v-1.4c0-0.5-0.2-0.9-0.5-1.2c-0.7-0.7-1.9-0.7-1.9-0.7v-0.4c0.1,0,1.4,0,2.3,0.8
							c0.4,0.4,0.6,0.9,0.6,1.6L218.5,113.2L218.5,113.2z"/>
					</g>
				</g>
				<g>
					<g>
						<path class="st2" d="M217.1,111c-0.5-0.6-1.4-0.6-1.4-0.6l-0.1-0.4c0.1,0,1.2-0.1,1.9,0.7L217.1,111z"/>
					</g>
				</g>
			</g>
		</g>
		<g>
			<g>
				<polygon class="st1" points="137.4,22.2 136.2,22.2 136.2,21.7 135.4,21.6 135.5,19.3 136.2,19.2 136.2,18.8 137.4,18.8 				"/>
				<polygon class="st1" points="140.9,22.2 142.1,22.2 142.1,21.7 142.9,21.6 142.8,19.3 142.1,19.2 142.1,18.8 140.9,18.8 				"/>
			</g>
			<g>
				<g>
					<path class="st2" d="M141,21h-3.7v-1.2h3.7V21z M137.7,20.7h2.9v-0.4h-2.9V20.7z"/>
				</g>
				<g>
					<g>
						<path class="st2" d="M141.9,22.4H141c-0.2,0-0.4-0.2-0.4-0.4v-3.1c0-0.2,0.2-0.4,0.4-0.4h0.9c0.2,0,0.4,0.2,0.4,0.4V22
							C142.3,22.2,142.1,22.4,141.9,22.4z M141,22h0.9v-3H141V22z"/>
					</g>
					<g>
						<path class="st2" d="M142.8,22h-0.6c-0.2,0-0.4-0.2-0.4-0.4v-2.2c0-0.2,0.2-0.4,0.4-0.4h0.6c0.2,0,0.4,0.2,0.4,0.4v2.2
							C143.2,21.8,143,22,142.8,22z M142.3,21.5h0.4v-2.1h-0.4V21.5z"/>
					</g>
				</g>
				<g>
					<g>
						<path class="st2" d="M137.4,22.4h-0.9c-0.2,0-0.4-0.2-0.4-0.4v-3.1c0-0.2,0.2-0.4,0.4-0.4h0.9c0.2,0,0.4,0.2,0.4,0.4V22
							C137.7,22.2,137.5,22.4,137.4,22.4z M136.5,22h0.9v-3h-0.9C136.5,19,136.5,22,136.5,22z"/>
					</g>
					<g>
						<path class="st2" d="M136.1,21.9h-0.6c-0.2,0-0.4-0.2-0.4-0.4v-2.2c0-0.2,0.2-0.4,0.4-0.4h0.6c0.2,0,0.4,0.2,0.4,0.4v2.2
							C136.4,21.8,136.3,21.9,136.1,21.9z M135.6,21.5h0.4v-2.1h-0.4V21.5z"/>
					</g>
				</g>
			</g>
		</g>
		<g>
			<path class="st1" d="M199.1,51.4c0.1-0.1,0.9-0.1,0.9-0.1l1-1.6l0.8,1.9l0.7-1.2l0.9,1.2l0.9,0.1l-1.1,0.5l-0.6-0.6l-0.9,1.4
				l-0.8-1.8l-0.6,0.8l-1,0.1C199.4,52.1,198.9,51.4,199.1,51.4z"/>
			<g>
				<path class="st2" d="M202.2,54.9L202.2,54.9c-0.1,0-0.1-0.1-0.2-0.1l-2.6-2.5c-1.1-1.1-0.9-2.1-0.7-2.5c0.4-0.9,1.3-1.4,1.9-1.4
					c0.9,0,1.4,0.4,1.6,0.6c0.2-0.2,0.7-0.6,1.6-0.6c0.6,0,1.6,0.6,1.9,1.4c0.2,0.5,0.4,1.4-0.7,2.5l-2.6,2.5l-0.1,0.1
					C202.3,54.9,202.2,54.9,202.2,54.9L202.2,54.9z M200.6,48.8c-0.5,0-1.3,0.5-1.6,1.2c-0.2,0.5-0.2,1.2,0.6,2.1l2.5,2.4l2.5-2.4
					c0.9-0.9,0.8-1.6,0.6-2.1c-0.3-0.7-1.1-1.2-1.6-1.2c-1,0-1.3,0.6-1.3,0.6l-0.1,0.1c-0.1,0.1-0.1,0.1-0.2,0.1s-0.1-0.1-0.2-0.1
					l-0.1-0.1C202,49.3,201.6,48.8,200.6,48.8z"/>
			</g>
			<g>
				<path class="st2" d="M201.7,53.3L201.7,53.3c-0.1,0-0.1-0.1-0.2-0.1l-0.7-1.5l-0.3,0.5c-0.1,0.1-0.1,0.1-0.2,0.1l0,0h-1
					c-0.1,0-0.2-0.1-0.2-0.2c0-0.1,0.1-0.2,0.2-0.2l0,0h0.9l0.4-0.7c0.1-0.1,0.1-0.1,0.2-0.1c0.1,0,0.1,0.1,0.2,0.1l0.7,1.5l0.7-1.1
					c0.1-0.1,0.1-0.1,0.2-0.1c0.1,0,0.1,0,0.2,0.1l0.4,0.5l0.4-0.1h-0.2c-0.1,0-0.1-0.1-0.2-0.1l-0.7-1l-0.5,1.1
					c-0.1,0.1-0.1,0.1-0.2,0.1s-0.1-0.1-0.2-0.1l-0.7-1.6l-0.7,1.3c-0.1,0.1-0.1,0.1-0.2,0.1h-0.9c-0.1,0-0.2-0.1-0.2-0.2
					s0.1-0.2,0.2-0.2h0.8l0.9-1.6c0.1-0.1,0.1-0.1,0.2-0.1c0.1,0,0.1,0.1,0.2,0.1l0.6,1.6l0.5-0.9c0.1-0.1,0.1-0.1,0.2-0.1
					s0.1,0,0.2,0.1l0.8,1.2l1.2,0.1c0.1,0,0.1,0,0.1,0.1s0.1,0.1,0.1,0.2c0,0.1-0.1,0.1-0.1,0.2l-1.6,0.5c-0.1,0-0.2,0-0.2-0.1
					l-0.3-0.4l-0.7,1.2C201.8,53.2,201.8,53.3,201.7,53.3z"/>
			</g>
		</g>
	</g>
</g>
</svg>
