<svg xmlns="http://www.w3.org/2000/svg" width="19.495" height="21.042"><path fill="#430098" d="M19.462 8.782c.01-1.17.021-2.177.02-2.257 0-2.128-.715-3.642-1.957-4.755C15.7.136 13.264.097 12.795.11A16.085 16.085 0 0 0 10.969 0c-.465 0-.955.017-1.465.052L7.631.211a21.67 21.67 0 0 1-1.24.112C3.891.494 1.966.598.668.631L.127.644l-.069.538a5.661 5.661 0 0 0-.046 1.155c.02.301.088.718.208 1.276l.104.485.496.015c.659.018.86.14.896.165 0 .001.121.092.154.562.02.302-.004.745-.071 1.325l-.886 8.75c-.04.432-.081.809-.123 1.137-.023.181-.047.346-.072.495l-.007.053a4.12 4.12 0 0 0 .043.978 4.146 4.146 0 0 0 2.527 3.147c.246.142.788.318 1.96.318 1.031 0 2.359-.136 3.946-.403l.124-.021c.924-.157 1.583-.319 2.013-.491.399-.125.797-.273 1.192-.432l.011.034c5.013-1.522 6.966-4.491 6.926-7.629l-.001-.086.024-.576c.008-.146.016-.295.018-.444l.001-.243c.003-.539-.01-1.209-.033-1.97zm-3.487 7.461a3.829 3.829 0 0 1-.372-.023c-.731-.09-1.194-.431-1.411-1.042-.229-.641-.1-1.212.385-1.701 1.024-1.033 2.257-1.458 3.602-1.297-.112 1.382-.687 2.751-2.204 4.063zm-5.336-7c.092 1.913.117 2.255.133 2.482.018.25.023.332.109 2.553.029.743-.246 1.354-.819 1.821-.646.525-1.289.852-1.968 1.001a3.9 3.9 0 0 1-1.227.072c-.742-.072-1.2-.392-1.437-1.004-.245-.635-.132-1.21.341-1.711.139-.149.292-.293.453-.428.952-.804 2.093-1.117 3.33-.946l.101.019c.046.009.093.018.118.021l.065.011.801-.097-.272-5.292-.027-.287c-.041-.44-.054-.879-.067-1.344-.011-.328-.021-.657-.041-1.006l.317-.13a48.903 48.903 0 0 0 2.318-1.011 120.74 120.74 0 0 0 3.118-1.56c.189.126.376.264.555.425.653.589 1.144 1.302 1.394 2.25l-.051.024-.501.219-1.491.639c-1.422.609-2.892 1.24-4.346 1.828-.846.341-.933.926-.906 1.451zm3.923 8.016a16.234 16.234 0 0 1-3.641 1.671l-.051.018c-.231.096-.729.246-1.771.426l-.128.021c-1.516.255-2.771.384-3.731.384-.616 0-.975-.055-1.162-.099l-.278-.109A2.876 2.876 0 0 1 2 17.37a2.814 2.814 0 0 1-.03-.653 30.483 30.483 0 0 0 .2-1.679l.883-8.736c.077-.658.102-1.164.075-1.55-.048-.706-.274-1.209-.673-1.498-.263-.19-.622-.311-1.094-.368a6.01 6.01 0 0 1-.09-.636 3.778 3.778 0 0 1-.006-.373c1.284-.045 3.033-.144 5.212-.293.556-.039.986-.078 1.287-.117l1.838-.155a16.463 16.463 0 0 1 3.243.078l.003.028c.008 0 .267.005.648.061.366.068.716.15 1.047.25-.727.369-1.473.741-2.219 1.099-.736.351-1.51.672-2.259.983l-.374.155c-.52.214-.764.6-.726 1.142.023.348.035.695.045 1.043.014.464.027.945.072 1.422l.229 4.215c-1.467-.104-2.777.327-3.899 1.274a6.568 6.568 0 0 0-.561.53c-.81.86-1.022 1.936-.599 3.032.412 1.062 1.273 1.688 2.494 1.806.557.053 1.092.02 1.618-.096.864-.189 1.703-.611 2.494-1.255.886-.72 1.329-1.705 1.285-2.849-.087-2.243-.093-2.332-.113-2.597-.016-.22-.04-.553-.13-2.451-.006-.085-.002-.137 0-.164a.92.92 0 0 1 .117-.055 224.234 224.234 0 0 0 4.37-1.84l1.489-.638.225-.098c.015.301.026.575.038.854.028.889.072 2.472.073 3.664-1.731-.177-3.259.393-4.533 1.681-.832.838-1.073 1.909-.679 3.016.284.793.819 1.353 1.569 1.651-.001.004-.005.005-.007.006z"/><path fill="#FFB819" d="M14.576 13.477c-.484.489-.613 1.061-.385 1.701.217.611.68.951 1.411 1.042.123.015.247.02.372.023 1.518-1.312 2.093-2.681 2.203-4.063-1.344-.162-2.576.263-3.601 1.297zm1.409-11.07a124.045 124.045 0 0 1-3.118 1.56c-.766.365-1.555.694-2.318 1.011l-.317.13c.021.35.03.678.041 1.006.014.464.026.904.067 1.344l.027.287.272 5.292-.801.097-.065-.011-.118-.021a3.583 3.583 0 0 1-.101-.019c-1.237-.17-2.378.143-3.33.946a5.125 5.125 0 0 0-.453.428c-.473.501-.586 1.077-.341 1.711.236.613.694.933 1.437 1.004.42.042.826.017 1.227-.072.679-.149 1.322-.476 1.968-1.001.573-.466.849-1.078.819-1.821-.086-2.221-.092-2.304-.109-2.553-.016-.228-.041-.569-.133-2.482-.026-.525.061-1.11.906-1.452 1.454-.588 2.924-1.219 4.346-1.828l1.491-.639.501-.219.051-.024c-.25-.948-.74-1.661-1.394-2.25a4.948 4.948 0 0 0-.555-.424z"/></svg>