<svg xmlns="http://www.w3.org/2000/svg" width="24.794" height="25.152"><path fill="#430098" d="M24.794 5.232l-6.972-.146a2.698 2.698 0 0 0 1.077-2.15A2.711 2.711 0 0 0 16.19.226c-.347 0-.678.072-.982.191a1.06 1.06 0 0 0-.83-.417 1.08 1.08 0 0 0-1.079 1.079c0 .331.157.616.391.813-.135.321-.21.673-.21 1.043 0 .84.393 1.582.993 2.079l-.134-.002-7.862 1.967.352 1.407 6.746-1.687a13.242 13.242 0 0 1-1.312 2.608l-4.565-.181a.711.711 0 0 0-.743.742l-5.34-1.296-.065-.014C1.159 8.5.35 8.689.069 9.829c-.278 1.139.352 1.682.727 1.81l7.123 1.81c1.045 2.055 2.714 3.085 4.223 3.595v6.909l.003.065c.036.393.413 1.134 1.585 1.134 1.174 0 1.55-.742 1.585-1.134l.004-6.47h.021c.936 0 1.675 0 1.675-.777 0-.04-.003-.08-.011-.119l-.773-4.584c2.288-1.759 2.678-4.074 2.518-5.514l6.016.125.029-1.447zm-9.761 5.914a.725.725 0 0 0-.308.72l.714 4.233a8.95 8.95 0 0 1-2.534-.333c-2.443-.711-3.923-2.444-4.402-5.156l4.101.162a.74.74 0 0 0 .609-.29c.055-.072 1.249-1.68 1.919-3.856l2.175.13c.084.897-.029 2.863-2.274 4.39zm1.157-9.47c.693 0 1.26.564 1.26 1.26 0 .694-.566 1.26-1.26 1.26a1.263 1.263 0 0 1-1.261-1.26 1.263 1.263 0 0 1 1.261-1.26zM1.454 10.311a1.11 1.11 0 0 1 .065-.269l5.675 1.378c.029.127.062.251.095.373l-5.835-1.482zm12.412 13.382a1.125 1.125 0 0 1-.272 0V17.4c.092.015.184.03.272.042v6.251z"/><path fill="#FFB819" d="M15.132 6.625c-.67 2.176-1.864 3.784-1.919 3.856a.741.741 0 0 1-.609.29l-4.101-.162c.479 2.712 1.959 4.445 4.402 5.156a8.881 8.881 0 0 0 2.534.333l-.714-4.233a.721.721 0 0 1 .308-.72c2.245-1.526 2.357-3.493 2.273-4.391l-2.174-.129z"/></svg>