<svg xmlns="http://www.w3.org/2000/svg" width="137.729" height="70.527"><path fill="#430098" d="M132.672 13.93c-.099-.02-.189-.036-.29-.057l.362-1.01c1.042-2.293 1.681-4.062 1.916-5.301.376-1.967-.083-3.227-1.375-3.776-1.041.294-2.361.486-3.964.578-1.605.091-3.148.07-4.635-.061-.308 1.162-.854 2.684-1.639 4.565.038.079-.897 2.405-1.014 2.365-.3-.1-.6-.196-.896-.287 0 0-7.765-3.168-11.6-1.281l-.07.033-.057.027-1.467.72a12.12 12.12 0 0 0-2.381 1.895c-1.834 1.861-3.156 4.111-3.965 6.748l-1.18 3.783-.054.006c.439-1.321.8-2.785 1.078-4.387.277-1.603.429-2.928.453-3.978.004-.598-.007-1.008-.033-1.229-.078-.665-.274-1.211-.587-1.641-.312-.43-.804-.792-1.475-1.087a30.6 30.6 0 0 1-5.251 2.276c-1.745.562-3.738 1.013-5.978 1.352-.339 1.237-.416 2.647-.225 4.231 1.249-.148 2.125-.101 2.62.138.495.242.792.768.888 1.577.043.361.037 1.073-.014 2.121-.02.191-.517 4.496-4.004 9.191-.869 1.039-1.895 1.998-3.108 2.78-.111.07-.211.128-.312.186-.574.326-1.068.472-1.477.434-.403-.036-.642-.235-.72-.596a1.605 1.605 0 0 1-.022-.476c.051-.556.354-1.682.92-3.382l3.471-10.586c.221-.799.346-1.347.373-1.643.114-1.256-.345-2.379-1.373-3.366-1.698.221-3.74.354-6.129.398-1.903-.805-3.999-1.311-6.291-1.518-4.952-.447-8.904.407-11.855 2.562-2.953 2.156-4.991 5.139-6.118 8.949-.393 1.457-.644 2.793-.754 4.012-.239 2.661.161 4.932 1.202 6.815 1.042 1.882 2.948 2.949 5.718 3.199 2.552.231 4.811-.44 6.779-2.015 1.967-1.572 3.787-4.185 5.457-7.835l.165.014a25.507 25.507 0 0 0-1.493 4.17 11.712 11.712 0 0 0-.235 1.375c-.145 1.589.194 2.896 1.015 3.919.82 1.026 2.209 1.624 4.169 1.804a16.71 16.71 0 0 0 1.413.06c3.582.02 6.536-1.354 8.88-3.246 1.282-1.031 2.381-2.217 3.303-3.413.092-.119.183-.239.271-.359l-.001.022c1.066-1.351 2.11-2.957 2.731-4.654 0 0-.497 2.927-1.745 5.81h-.002s-.162.244-.24.722c-.236 1.449.004 3.056 1.927 4.135 4.032 2.26 8.658-1.215 8.646-6.39 0 0 .298-8.47 1.368-10.576.698-1.354 1.492-2.083 2.376-2.188.479-.057.915.079 1.31.405.394.327.622.748.683 1.264.027.222.028.389.004.505.225.01.577-.013 1.057-.069 1.916-.227 3.518-.753 4.802-1.578-.178-1.811-.206-3.777-.082-5.904l.002-.047c1.431-.093 3.36.093 5.929.873l-3.028 6.676c-.836 1.806-3.65 6.941-3.972 8.618-.471 2.478-.233 4.507.712 6.085.946 1.578 2.659 2.603 5.138 3.075 1.64.312 3.415.311 5.329-.005 1.908-.316 3.377-.867 4.395-1.656.088-.662.07-1.403-.06-2.221-.126-.817-.325-1.516-.593-2.095a4.108 4.108 0 0 1-1.392.613c-.496.114-.94.132-1.342.056-.583-.112-.979-.356-1.191-.737-.209-.379-.228-1.025-.055-1.937.234-1.238 3.055-6.3 3.982-8.39l2.395-5.457c2.09.372 4.111.53 5.454.159.199-.034.312-.06.312-.06a.905.905 0 0 0 .099-.076c.005-.004 1.112-.806 1.697-4.522 0 .004-1.952.144-5.057-.209zm-57.773 7.221c-1.188 4.065-2.466 6.968-3.832 8.708-1.367 1.74-2.625 2.559-3.77 2.455-1.221-.111-1.73-1.256-1.535-3.437.114-1.256.434-2.736.96-4.44.686-2.248 1.482-3.955 2.392-5.122.905-1.166 2.023-1.691 3.354-1.57.48.043 1.049.15 1.703.321.655.173 1.177.368 1.568.589l-.84 2.496zM1.623 36.873c.058-.354.114-.747.169-1.175a7.88 7.88 0 0 0-.169 1.175z"/><path fill="#FFB819" d="M53.426 1.331a3.29 3.29 0 0 0-.688-.826c-.067-.067-.136-.136-.212-.206-.013.007-.023.015-.034.022-2.132-1.389-5.185 2.159-5.931 2.509a.781.781 0 0 0-.375.405l-.031.005c-.005.034-.007.068-.013.102-.103.29-.116.645-.098.963-.033.662-.009 1.363.091 2.118.779-.08.928.066 1.183.329.235.243.403.596.428 1.275 0 0-.359 4.202.717 5.407 1.075 1.204 4.731-1.693 5.126-3.9l.16-2.827.134-2.816a11.742 11.742 0 0 0-.077-1.349c-.069-.503-.195-.906-.38-1.211zM40.248 26.759s-6.978-.175-9.232 3.943l.004.007a1.143 1.143 0 0 0-.161.485 1.115 1.115 0 0 0 1.021 1.199c.032.002.062-.001.093 0l.003.008s.871.092 1.754-.976c.882-1.068 3.702-3.451 6.188-3.67 2.486-.219 1.575-1.043.33-.996zM27.2 8.803s-2.23.747-2.238 1.766c-.008 1.018 7.253-2.68 10.058-3.297 2.804-.617 3.317-3.735.398-2.478C32.497 6.05 27.2 8.803 27.2 8.803zm-7.398 20.515s-3.344-.082-6.15 1.232c-1.247.584-2.389 1.443-3.083 2.71l.005.009a1.094 1.094 0 0 0-.16.484c-.05.613.407 1.15 1.021 1.199.032.003.062 0 .094 0l.003.008s.871.092 1.752-.977c.401-.487 1.21-1.248 2.202-1.951 1.185-.84 2.634-1.6 3.985-1.719 2.487-.217 1.574-1.04.331-.995z"/><path fill="#430098" d="M40.988 11.382c-.898.393-1.501.663-2.107.924-4.455 1.898-8.89 3.84-13.376 5.653-1.026.415-1.224.88-1.173 1.914.452 9.458.19 2.069.556 11.529.083 2.126-.72 3.97-2.405 5.34-1.56 1.268-3.252 2.175-5.104 2.582a10.358 10.358 0 0 1-3.257.191c-2.077-.202-3.708-1.181-4.493-3.214-.779-2.015-.361-3.902 1.073-5.425.374-.397.761-.761 1.161-1.097 2.452-2.066 5.373-2.953 8.756-2.485.187.027.371.07.559.098.035.007.074-.009.205-.028l-.553-10.716c-.021-.21-.042-.427-.062-.656-.173-1.861-.137-3.74-.263-5.606-.047-.659.197-.946.769-1.182 2.044-.852 4.097-1.683 6.094-2.638 2.671-1.276 5.311-2.623 7.941-3.981C31.537.677 26.576-.068 20.417.356l-4.223.355c-.734.095-1.709.183-2.923.266-5.766.398-10.148.634-13.15.71-.114.879-.148 1.666-.099 2.358.041.608.191 1.513.448 2.715 1.353.038 2.306.254 2.855.652.55.399.864 1.183.944 2.354.053.778-.001 1.873-.165 3.278L2.081 33.047a76.367 76.367 0 0 1-.289 2.65c-.055.428-.111.822-.169 1.175a7.92 7.92 0 0 0 .082 1.895 7.994 7.994 0 0 0 5.023 6.146l.003.004s1.848 1.477 12.602-.333l.016-.002.261-.044c2.177-.373 3.552-.729 4.361-1.061 2.939-.917 5.82-2.237 8.647-3.968.98-.6 1.887-1.301 2.718-2.099-.418 0-.839-.024-1.271-.077-2.071-.257-3.678-1.279-4.41-3.332-.727-2.035-.258-3.909 1.217-5.393 2.746-2.775 6.088-3.969 10.006-3.323.154.027.309.064.465.095l.091.019c.037.008.076-.008.205-.022.02-.473.055-.962.061-1.451.004-.174.004-.358.005-.542.014-3.161-.169-7.646-.41-12.194l-.307.192z"/><g fill="#FFB819"><path d="M53.655 61.296a.752.752 0 0 0-.55-.175.692.692 0 0 0-.5.275 7.38 7.38 0 0 1-.999.888c-.333.241-.747.5-1.238.774a8.748 8.748 0 0 1-1.713.713c-.649.2-1.373.342-2.174.425s-1.674.066-2.624-.05c-1.418-.167-2.574-.875-3.474-2.124-.568-.818-1.014-1.842-1.339-3.075-.325-1.233-.538-2.667-.637-4.299l2.899-.351a.772.772 0 0 0 .513-.288.708.708 0 0 0 .137-.562.81.81 0 0 0-.286-.5.64.64 0 0 0-.538-.149l-2.774.325a22.113 22.113 0 0 1 .012-1.663c.024-.575.055-1.17.089-1.787.065-1.1.161-2.146.286-3.137.125-.992.25-1.859.374-2.6.126-.741.233-1.333.325-1.775.092-.441.139-.671.139-.687a.776.776 0 0 0-.101-.538.682.682 0 0 0-.424-.337.648.648 0 0 0-.539.037.852.852 0 0 0-.386.413c0 .017-.099.275-.288.775-.192.5-.454 1.159-.788 1.975a71.726 71.726 0 0 1-1.211 2.775 64.216 64.216 0 0 1-1.563 3.149 55.814 55.814 0 0 1-1.273 2.275c-.418.7-.835 1.34-1.252 1.925l-1.898.225a.805.805 0 0 0-.5.287.666.666 0 0 0-.15.563.783.783 0 0 0 .263.462.718.718 0 0 0 .487.188h.075l.424-.05c-.716.85-1.391 1.466-2.023 1.849-.617.417-1.217.626-1.8.626a.707.707 0 0 0-.538.225.74.74 0 0 0-.213.525.726.726 0 0 0 .751.75c.866 0 1.741-.284 2.624-.85.751-.5 1.533-1.208 2.35-2.125l.999-1.25 4.301-.525c.034.333.062.65.087.95.025.3.053.6.088.9.35 2.649 1.041 4.716 2.075 6.199 1.116 1.599 2.616 2.525 4.498 2.775a16.57 16.57 0 0 0 1.775.099c.433 0 .865-.021 1.3-.062a12.52 12.52 0 0 0 1.274-.188 11.62 11.62 0 0 0 1.612-.462 12.043 12.043 0 0 0 1.538-.688c.849-.466 1.487-.909 1.913-1.325.424-.417.653-.641.686-.675a.685.685 0 0 0 .175-.537.704.704 0 0 0-.276-.513zM37.058 48.411c-.033.375-.065.754-.1 1.138a154.71 154.71 0 0 0-.087 1.938 28.263 28.263 0 0 0-.014 1.837l-3.123.375c.315-.483.628-1 .936-1.55.309-.55.621-1.125.938-1.725a62.878 62.878 0 0 0 1.549-3.1c-.033.35-.067.712-.099 1.087z"/><path d="M115.553 67.859a.735.735 0 0 0-.514-.238 29.742 29.742 0 0 0-1.225-.098c-.799-.056-1.833-.196-3.096-.417a26.915 26.915 0 0 1-1.911-.384 40.443 40.443 0 0 1-2.201-.589l-.032-.012.063-.127.009-.002a28.213 28.213 0 0 0 .949-2.544 44.51 44.51 0 0 0 1.188-4.691c.05-.245.093-.48.142-.725h-.007c.285-1.303.567-2.532.853-3.685a32.28 32.28 0 0 1 .854-2.941.613.613 0 0 0-.012-.553.836.836 0 0 0-.417-.402.66.66 0 0 0-.563 0 .783.783 0 0 0-.416.402c-.22.486-.438 1.039-.666 1.658-.225.622-.465 1.283-.717 1.987-.044.128-.094.262-.14.391-.001.008-.004.015-.004.022-.075.165-.157.357-.258.527a9.486 9.486 0 0 1-.462.712c-.04.057-.079.106-.12.161-.356.487-.705.874-1.042 1.152-.376.308-.704.462-.988.462-.182 0-.316-.025-.399-.075a.645.645 0 0 1-.199-.175c-.085-.1-.16-.288-.225-.563-.068-.274-.076-.699-.025-1.274.05-.575.183-1.329.399-2.263.215-.933.566-2.099 1.05-3.499a.719.719 0 0 0-.038-.575.833.833 0 0 0-.412-.399.724.724 0 0 0-.574.037.81.81 0 0 0-.399.438c-.621 1.805-1.056 3.333-1.299 4.588a9.654 9.654 0 0 1-.378.586c-.132.184-.279.397-.437.638a9.115 9.115 0 0 1-.537.737c-.468.584-.908 1.029-1.325 1.338-.416.308-.774.462-1.074.462a1.12 1.12 0 0 1-.225-.025c-.083-.017-.143-.041-.176-.075-.034-.033-.067-.121-.1-.262-.033-.142-.033-.396 0-.763.032-.3.092-.637.175-1.012.082-.375.183-.804.3-1.288l.249-1c.251-.983.423-1.783.514-2.4.091-.616-.005-1.116-.287-1.5-.101-.116-.239-.229-.414-.337s-.411-.163-.711-.163c-.385 0-.778.134-1.188.399-.409.268-.871.675-1.386 1.225-.352.384-.727.837-1.127 1.363a29.88 29.88 0 0 0-1.25 1.787l-.249.351c.149-.8.241-1.466.274-2 .033-.533.039-.975.012-1.325a3.54 3.54 0 0 0-.137-.825 1.771 1.771 0 0 0-.225-.475 1.767 1.767 0 0 0-.438-.362 1.057 1.057 0 0 0-.537-.137c-.384 0-.78.134-1.188.399-.41.268-.872.675-1.388 1.225l-.762.926c-.275.333-.556.7-.838 1.099l.925-2.625c.082-.2.079-.391-.013-.575s-.237-.316-.438-.4a.7.7 0 0 0-.563.038.726.726 0 0 0-.387.412 304.645 304.645 0 0 0-1.174 3.349l-.389 1.128c-.01.018-.027.029-.038.047-.098.2-.225.399-.373.599-.134.184-.292.388-.477.613a9.06 9.06 0 0 1-.624.688c-1.215 1.217-2.541 1.825-3.976 1.825-.481 0-.957-.083-1.424-.25-.466-.167-.808-.492-1.025-.975 1.019-.083 1.934-.375 2.751-.875a6.717 6.717 0 0 0 2.199-2.049c.433-.65.721-1.296.862-1.937.142-.642.12-1.196-.062-1.663-.167-.383-.416-.662-.75-.837-.333-.175-.724-.238-1.174-.188-.484.05-1.009.234-1.575.55a6.825 6.825 0 0 0-1.576 1.225 8.228 8.228 0 0 0-1.399 1.938 8.458 8.458 0 0 0-.546 1.332c-.001.002-.003.003-.003.005-.117.2-.25.409-.399.625-.133.184-.279.397-.437.638a6.87 6.87 0 0 1-.539.712c-.467.583-.906 1.033-1.324 1.349-.417.318-.776.476-1.075.476-.184 0-.32-.029-.413-.088a.523.523 0 0 1-.188-.187c-.083-.116-.158-.33-.225-.638s-.058-.804.024-1.487c.101-.966.393-2.233.875-3.8.35-1.149.802-2.44 1.352-3.874a119.488 119.488 0 0 1 1.999-4.849.73.73 0 0 0 .013-.575.713.713 0 0 0-.413-.425c-.183-.083-.371-.083-.562 0s-.329.217-.412.4l-.763 1.8c-.275.649-.558 1.333-.85 2.05s-.574 1.45-.851 2.2c-.173.473-.335.943-.492 1.41-.491-.473-1.133-.631-1.693-.66a2.346 2.346 0 0 0-.808.036 4.078 4.078 0 0 0-.433.082l.011.039c-.066.022-.13.04-.195.068-.6.25-1.2.65-1.801 1.2a9.602 9.602 0 0 0-1.639 1.975c-.271.437-.5.895-.693 1.367a.755.755 0 0 0-.092.132c0 .017-.13.23-.387.638-.26.409-.598.862-1.014 1.362-.484.583-.938 1.033-1.362 1.349-.425.318-.786.476-1.088.476a.584.584 0 0 1-.3-.062.518.518 0 0 1-.15-.138c-.182-.232-.278-.7-.286-1.399-.01-.7.153-1.674.487-2.924a.767.767 0 0 0 .023-.194c.436-1.538.115-3.032-.884-3.711-.504-.342-1.138-.376-1.665-.317a3.04 3.04 0 0 0-1.049.248c-.602.25-1.199.65-1.801 1.2a9.525 9.525 0 0 0-1.636 1.975c-.291.464-.531.95-.73 1.453-.018.026-.042.043-.059.072-.099.2-.224.399-.375.599-.132.184-.285.388-.46.613a7.917 7.917 0 0 1-.614.688c-1.249 1.217-2.583 1.825-4 1.825-1.031 0-1.758-.25-2.175-.75-.349-.417-.45-1.025-.299-1.825a7.49 7.49 0 0 1 .648-1.837 7.124 7.124 0 0 1 1.126-1.612c.45-.467.867-.792 1.251-.975.381-.183.69-.275.924-.275a.31.31 0 0 1 .137.05c.06.034.105.142.138.325a1.49 1.49 0 0 1-.025.813c-.082.258-.175.413-.273.462a.684.684 0 0 0-.376.424.769.769 0 0 0 .025.576.685.685 0 0 0 .425.375.754.754 0 0 0 .574-.025c.5-.233.852-.674 1.05-1.324.084-.267.135-.542.151-.825s-.01-.55-.076-.8c-.115-.483-.329-.862-.637-1.137s-.679-.413-1.112-.413c-.5 0-1.038.154-1.612.463a6.668 6.668 0 0 0-1.637 1.262 8.683 8.683 0 0 0-1.389 1.95 8.164 8.164 0 0 0-.787 2.25c-.149.784-.141 1.42.025 1.912.167.493.357.872.574 1.138.717.867 1.833 1.3 3.35 1.3.917 0 1.804-.196 2.664-.587.823-.376 1.597-.922 2.322-1.63.021.17.047.337.088.494.118.399.297.741.537 1.024.242.284.538.492.888.625.518.184 1.075.175 1.675-.025.566-.167 1.143-.491 1.724-.975.235-.2.467-.42.702-.662.233-.241.458-.504.674-.788.051.767.251 1.375.601 1.825.383.517.925.775 1.624.775.634 0 1.309-.267 2.023-.8.252-.2.51-.43.776-.688.204-.197.408-.423.611-.665.021.12.034.241.064.353.115.399.296.741.536 1.024.241.284.538.492.889.625.132.034.262.063.387.087.125.026.263.038.412.038.284 0 .575-.05.874-.15.567-.167 1.143-.491 1.726-.975.251-.217.497-.45.738-.7s.479-.525.711-.825c.017.367.067.688.15.963.083.275.192.529.325.762.15.217.371.429.663.637.291.209.696.313 1.212.313.633 0 1.309-.267 2.025-.8a10.69 10.69 0 0 0 1.549-1.575l.035-.044c.158.445.337.795.539 1.044.718.867 1.834 1.3 3.349 1.3.919 0 1.805-.196 2.662-.587a7.7 7.7 0 0 0 1.56-.965c-.144.43-.222.663-.222.678a.647.647 0 0 0 .025.525.811.811 0 0 0 .399.375c.101.05.202.075.302.075a.732.732 0 0 0 .373-.1.67.67 0 0 0 .275-.3c.284-.516.541-.979.775-1.387.232-.408.512-.871.837-1.388.325-.516.663-1.041 1.013-1.574.517-.767.971-1.4 1.363-1.9s.731-.899 1.024-1.2c.291-.3.529-.516.712-.65a3.23 3.23 0 0 1 .426-.274c.016.083.028.212.036.387.01.175.004.409-.012.7a20.445 20.445 0 0 1-.35 2.613c-.084.484-.175.946-.275 1.387-.101.441-.195.846-.287 1.212l-.239.951c-.064.267-.115.45-.148.55a.661.661 0 0 0 .026.537.783.783 0 0 0 .399.388.706.706 0 0 0 .949-.35c.283-.516.541-.979.775-1.387.232-.408.512-.871.838-1.388.322-.516.661-1.041 1.011-1.574.584-.867 1.087-1.563 1.514-2.087a16.79 16.79 0 0 1 1.073-1.226c.292-.291.521-.487.688-.587.165-.1.282-.158.35-.175v.25c0 .1-.018.242-.05.425-.05.25-.113.525-.188.825-.074.3-.154.634-.236 1l-.25 1.025c-.117.483-.225.95-.326 1.399-.101.45-.165.871-.198 1.262-.034.392-.023.751.036 1.076.058.325.179.612.363.862.365.45.899.675 1.6.675.632 0 1.307-.267 2.024-.8a10.566 10.566 0 0 0 1.522-1.543c.071.607.236 1.099.501 1.468.151.2.371.396.663.587.292.192.679.288 1.162.288.422 0 .85-.124 1.289-.369.215-.121.731-.492 1.078-.768a51.893 51.893 0 0 1-.72 3.554l.02.004c-.11.393-.225.781-.346 1.162a18.965 18.965 0 0 1-1.043 2.76 17.952 17.952 0 0 0-1.711-.344 9.698 9.698 0 0 0-1.276-.111c-.771.031-1.431.245-1.986.636-.521.374-.878.833-1.074 1.379a2.663 2.663 0 0 0-.093 1.438c.104.464.329.858.679 1.179.453.4 1.006.596 1.659.585.656-.011 1.384-.208 2.19-.594.902-.475 1.699-1.287 2.389-2.44l.007-.015c.089.028.179.059.266.085.796.245 1.563.449 2.299.613.736.166 1.407.302 2.014.409.642.106 1.237.198 1.781.274a33.005 33.005 0 0 0 2.354.246c.226.014.354.017.376.011a.725.725 0 0 0 .543-.201.729.729 0 0 0 .256-.519.758.758 0 0 0-.21-.55zM59.036 52.993c-.521 1.153-1.028 2.048-1.531 2.68-.518.65-.958 1.133-1.326 1.45-.449.367-.84.596-1.174.687-.333.092-.591.105-.775.038-.282-.1-.458-.378-.525-.837-.066-.458-.008-1.013.176-1.662.185-.683.47-1.338.862-1.962a8.351 8.351 0 0 1 1.363-1.663c.482-.45.911-.745 1.286-.887.213-.08.521-.173.521-.173.343-.064.711-.077.884.041.439.297.598 1.238.239 2.288zm11.99-.201l-.021.056c-.018.021-.029.039-.029.05-.534 1.199-1.057 2.125-1.574 2.774-.516.65-.958 1.133-1.325 1.45-.45.367-.841.596-1.175.687-.332.092-.591.105-.774.038-.284-.1-.457-.378-.524-.837-.066-.458-.009-1.013.175-1.662.184-.683.47-1.338.862-1.962a8.313 8.313 0 0 1 1.362-1.663c.483-.45.912-.745 1.287-.887.261-.098.459-.152.603-.165l.003-.008c.379-.016.811.036 1.029.265.284.296.378.934.101 1.864zm8.6-.894c.434-.45.854-.775 1.261-.976.411-.2.729-.316.964-.35a.283.283 0 0 1 .125-.025c.167 0 .25.042.25.125.084.183.075.475-.025.874-.101.4-.309.833-.625 1.3a5.16 5.16 0 0 1-1.612 1.562 5.028 5.028 0 0 1-2.088.713 6.603 6.603 0 0 1 .65-1.725 6.966 6.966 0 0 1 1.1-1.498zm23.178 16.679c-.479.255-.907.398-1.292.432-.386.032-.673-.04-.864-.216a.651.651 0 0 1-.232-.406.964.964 0 0 1 .067-.543c.104-.306.304-.549.6-.729.293-.18.65-.278 1.067-.297l.025-.001c.235.007.535.037.896.089.365.051.781.126 1.257.224-.461.672-.969 1.156-1.524 1.447z"/></g></svg>