<svg xmlns="http://www.w3.org/2000/svg" viewBox="0 0 254.6 67.04"><defs><style>.a{fill:#0ff}.b{fill:#00f}.c{fill:#ff0}.d{fill:red}.e{fill:#e31c24}.f{fill:#39ab4a}.g{fill:#008845}.h{fill:#f0f}.i{fill:#e75a24}.j{fill:#0f0}.k{fill:#ed891e}.l{fill:#22ab73}.m{fill:#231f20}.o{fill:#e41e79}.p{fill:#662d88}.q{fill:#e41c24}.s{fill:#39ac4a}.t{fill:#430098}</style></defs><path class="a" d="M65.78 10.9c1.32.42 2.62.13 2.9-.66s-.56-1.78-1.88-2.23-2.62-.13-2.9.66.56 1.8 1.88 2.23zm-.12-2.65c.43-.2 1.06.18 1.41.85s.28 1.38-.15 1.59-1.06-.18-1.4-.86-.3-1.38.14-1.58z"/><path class="b" d="M67.98 23.04l.83.99 4.27-5.64-.82-.99-4.28 5.64zm3.04 3.65l.81.99 4.28-5.64-.82-.99-4.27 5.64z"/><path class="b" d="M74.35 27.43l-.47.35-6.02-7.24.48-.35 6.01 7.24zm1.95-2.95l-.47.36-6.02-7.24.48-.36 6.01 7.24zm5.22-12.47l1.49.65-7.89-7a2.9 2.9 0 0 0 1.78-1.48c.65-1.17.55-2.43-.22-2.82s-1.93.24-2.58 1.41a2.24 2.24 0 0 0 0 2.67z"/><path class="b" d="M81.42 11.29l1.53 1.36s-.14.22-.65.1c-2.91-.71-2.84 1.9-5.45.54-.18-.1-.08-.26.09-.21 2.31.78 1.87-1.73 4.48-1.79z"/><path class="a" d="M65.78 10.9c1.32.42 2.62.13 2.9-.66s-.56-1.78-1.88-2.23-2.62-.13-2.9.66.56 1.8 1.88 2.23zm-.12-2.65c.43-.2 1.06.18 1.41.85s.28 1.38-.15 1.59-1.06-.18-1.4-.86-.3-1.38.14-1.58z"/><path class="b" d="M81.52 12.01l1.49.65-7.89-7a2.9 2.9 0 0 0 1.78-1.48c.65-1.17.55-2.43-.22-2.82s-1.93.24-2.58 1.41a2.24 2.24 0 0 0 0 2.67z"/><path class="b" d="M81.42 11.29l1.53 1.36s-.14.22-.65.1c-2.91-.71-2.84 1.9-5.45.54-.18-.1-.08-.26.09-.21 2.31.78 1.87-1.73 4.48-1.79z"/><path class="c" d="M45.54 8.89l-.17-.42-2.07 1.46.17.41 2.07-1.45zm-.61-1.54l-.16-.41-2.07 1.45.16.42 2.07-1.46z"/><path class="c" d="M43.9 6.76l.2-.06 1.2 3.03-.2.08-1.2-3.05zm-.99.8l.2-.08 1.2 3.05-.2.07-1.2-3.04z"/><path class="d" d="M33.03 17.17l.32.18 4.06-6.43a2.14 2.14 0 0 0 1.39 1c1 .27 1.91 0 2.09-.58s-.48-1.33-1.45-1.56a1.86 1.86 0 0 0-2 .42zm6.12 1.84l.33.18 4-6.43a2.2 2.2 0 0 0 1.39 1c1 .26 1.92 0 2.09-.58s-.44-1.33-1.44-1.59a1.86 1.86 0 0 0-2 .42z"/><path class="d" d="M33.99 15.66l6.45 1.99-1.08 1.71-6.45-1.99 1.08-1.71z"/><path class="a" d="M36.25 22.64c.89.47 1.86.41 2.17-.13s-.17-1.34-1.06-1.8-1.87-.4-2.18.13.17 1.34 1.07 1.8zm.27-1.91c.33-.1.74.25.9.78s0 1-.32 1.12-.74-.26-.9-.78-.03-1.03.32-1.12zm10.92 1.28l.31.1 2.3-6.13a1.88 1.88 0 0 0 1.36.61c.88.07 1.62-.3 1.67-.83s-.63-1-1.51-1.07a1.58 1.58 0 0 0-1.64.68c-.06.14-2.49 6.64-2.49 6.64zM40.45 5.84l.41-.72-4.17 3.63a1.46 1.46 0 0 0-.75-.94c-.61-.38-1.31-.38-1.55 0s.05 1 .66 1.34a1.35 1.35 0 0 0 1.47.1z"/><path class="a" d="M40.05 5.83l.81-.71s.12.09 0 .33c-.51 1.42.93 1.5.07 2.74-.06.09-.15 0-.11-.06.56-1.12-.84-1-.77-2.3z"/><path class="b" d="M47.65 23.86l1 .63-4.75-5.94a2.17 2.17 0 0 0 1.47-.86c.62-.76.71-1.68.21-2s-1.42-.05-2 .71a1.62 1.62 0 0 0-.34 1.92z"/><path class="b" d="M47.7 23.34l.93 1.15s-.14.15-.48 0c-2-.85-2.3 1-4-.26-.11-.09 0-.19.1-.13 1.56.83 1.57-1.03 3.45-.76zm24.59-20.4h-.19l.82 3.87a1.17 1.17 0 0 0-.9.08c-.48.23-.74.64-.59.92s.65.34 1.13.11.68-.55.62-.83c-.03-.08-.89-4.15-.89-4.15zm-3.02 1.35h-.2l.82 3.82a1.22 1.22 0 0 0-.9.09c-.47.23-.73.64-.59.92s.66.33 1.13.11.68-.56.62-.83c-.02-.07-.88-4.11-.88-4.11z"/><path class="b" d="M72.49 3.85l-3.22 1.38-.21-1.02 3.21-1.38.22 1.02z"/><path class="e" d="M76.29 10.15v-.43l-9.54.3a2.38 2.38 0 0 0 .13-2c-.36-1.12-1.25-1.85-2-1.64s-1 1.3-.69 2.41 1.07 1.7 1.76 1.68z"/><path class="f" d="M49.42 4.81l-.66-.44 3.14 4.09a1.49 1.49 0 0 0-1 .56c-.43.51-.51 1.13-.17 1.39s1 .06 1.39-.45a1.12 1.12 0 0 0 .26-1.3z"/><path class="f" d="M49.37 5.16l-.61-.79s.09-.1.33 0c1.34.6 1.57-.68 2.7.22.08.07 0 .14-.06.09-1.05-.57-1.09.69-2.36.48z"/><path class="c" d="M61.52 9.43l.58-1.08-6 5.59a2.19 2.19 0 0 0-1.15-1.38c-.94-.53-2-.51-2.33 0s.12 1.44 1.06 2a2 2 0 0 0 2.2.1z"/><path class="c" d="M60.95 9.44l1.17-1.09s.18.12.06.49c-.66 2.17 1.46 2.17.23 4.07-.08.14-.21 0-.16-.07.73-1.69-1.35-1.46-1.3-3.4z"/><path class="c" d="M59.79 10.51l1.17-1.09s.18.12.06.49c-.69 2.1 1.5 2.19.23 4.1-.08.13-.21 0-.16-.08.73-1.71-1.35-1.48-1.3-3.42z"/><path class="g" d="M47.52 7.01c-.5-.44-1.14-.56-1.44-.26s-.13.9.37 1.35 1.14.57 1.44.27.1-.96-.37-1.36zm-.51 1.22c-.24 0-.44-.29-.45-.66s.17-.68.4-.68.44.28.45.65-.2.63-.43.64z"/><path class="h" d="M64.52 22.82l.28-.21-4.72-5.54a2.06 2.06 0 0 0 1.37-.86c.57-.74.63-1.62.14-2s-1.35 0-1.92.73a1.56 1.56 0 0 0-.27 1.84zm3.67-4.53l.28-.22-4.73-5.54a2.05 2.05 0 0 0 1.38-.86c.57-.74.63-1.62.14-2s-1.36 0-1.92.73a1.54 1.54 0 0 0-.27 1.84z"/><path class="h" d="M59.69 26.11l7.67-9.34 1.25 1.47-7.67 9.34-1.25-1.47z"/><path class="h" d="M60.79 27.41l.28-.22-4.72-5.54a2.07 2.07 0 0 0 1.38-.86c.57-.74.63-1.62.13-2s-1.35 0-1.92.73a1.54 1.54 0 0 0-.26 1.84z"/><path class="i" d="M56.76 7.75h.23V3.04a1.42 1.42 0 0 0 1.08.09c.62-.16 1-.59.93-1s-.7-.54-1.31-.38-.94.51-.94.85c-.03.18.01 5.15.01 5.15zm3.91-.93h.23V2.11a1.44 1.44 0 0 0 1.09.09c.61-.16 1-.59.92-1s-.72-.5-1.34-.34-.94.51-.94.85c0 .14.04 5.11.04 5.11z"/><path class="i" d="M56.75 6.65l4.15-.93.01 1.25-4.15.93-.01-1.25z"/><path class="j" d="M64.35 4.6l.09.06 1.27-1.79a.6.6 0 0 0 .38.3c.28.09.55 0 .61-.14s-.11-.37-.39-.46a.54.54 0 0 0-.59.09zm1.71.61l.09.06 1.27-1.79a.6.6 0 0 0 .38.3c.28.09.55 0 .61-.14s-.11-.37-.39-.46a.54.54 0 0 0-.59.09z"/><path class="j" d="M62.92 3.57l3.53 1.28-.34.48-3.53-1.29.34-.47z"/><path class="j" d="M62.62 4.01l.09.05 1.27-1.79a.6.6 0 0 0 .38.3c.28.09.55 0 .61-.13s-.11-.38-.39-.47a.54.54 0 0 0-.59.09z"/><path class="c" d="M68.46 9.01h-.3l-.64 5.84a1.76 1.76 0 0 0-1.34-.27c-.79.12-1.37.6-1.3 1.08s.79.76 1.58.64 1.25-.5 1.3-.93c-.01-.16.7-6.36.7-6.36z"/><path class="h" d="M48.45 15.46l-.31-.16-.44 1.77.3.16.45-1.77zm-1.12-.59l-.3-.16-.44 1.76.3.16.44-1.76z"/><path class="h" d="M46.45 15l.08-.13 2.2 1.18-.07.13L46.45 15zm-.16.9l.08-.13 2.2 1.18-.08.13-2.2-1.18z"/><path class="a" d="M55.05 6.47l.47-.06-2.74-.46a.69.69 0 0 0 .17-.56c0-.33-.24-.59-.47-.58s-.38.31-.35.65a.6.6 0 0 0 .39.55z"/><path class="a" d="M54.94 6.32l.58.09s0 .07-.13.11c-.73.24-.33.79-1.1.85 0 0-.06-.05 0-.06.55-.14.09-.63.65-.99z"/><path class="a" d="M54.41 6.24l.53.08s0 .07-.12.11c-.74.24-.34.8-1.11.85v-.06c.61-.14.14-.62.7-.98z"/><path class="k" d="M55.27 10.7c.73-.33 1.15-.94.93-1.38s-1-.53-1.71-.2-1.15 1-.93 1.38.96.51 1.71.2zm-1.17-1c.1-.25.52-.34 1-.19s.7.47.61.72-.52.33-1 .18-.7-.52-.61-.76z"/><path class="b" d="M56.29.49l-5.77 2.58a1.64 1.64 0 0 0-.47-1.25c-.53-.59-1.24-.81-1.63-.5s-.28 1.06.25 1.65a1.5 1.5 0 0 0 1.54.58l6.21-2.8zm-7.23 2.26c-.48-.34-.73-.79-.56-1s.7-.11 1.18.23.73.79.56 1-.72.11-1.18-.23z"/><path class="f" d="M209.87 9.12l.88.51-4.35-4.93a1.88 1.88 0 0 0 1.23-.8c.5-.68.54-1.47.09-1.77s-1.22 0-1.72.68a1.4 1.4 0 0 0-.21 1.67z"/><path class="f" d="M209.9 8.67l.85 1s-.12.13-.42 0c-1.76-.65-1.93 1-3.45-.06-.1-.08 0-.17.08-.12 1.38.63 1.31-.98 2.94-.82z"/><path class="j" d="M85.12 1.45L85 1.39l-1.48 2.37a.8.8 0 0 0-.52-.35c-.36-.09-.7 0-.76.22s.18.47.54.56a.7.7 0 0 0 .74-.18zM82.89.82l-.12-.06-1.44 2.37a.8.8 0 0 0-.52-.35c-.36-.09-.7 0-.76.22s.18.47.54.56a.68.68 0 0 0 .73-.16z"/><path class="j" d="M87.03 2.66l-4.59-1.34.38-.63 4.59 1.34-.38.63z"/><path class="j" d="M87.36 2.1l-.11-.09-1.45 2.4a.84.84 0 0 0-.52-.4c-.36-.09-.7 0-.76.23s.18.46.54.55a.68.68 0 0 0 .74-.16c.03-.03 1.56-2.53 1.56-2.53z"/><path class="l" d="M83.68 14.83h.38l.31-7.52a2.25 2.25 0 0 0 1.73.23c1-.21 1.69-.87 1.54-1.46s-1.06-.91-2.05-.7-1.54.74-1.57 1.29l-.34 8.16z"/><path class="m" d="M92.91 7.71c-.76.07-1.33.49-1.29.94s.69.77 1.45.7 1.33-.49 1.29-.94-.69-.76-1.45-.7zm.68 1.3c-.17.19-.57.13-.91-.13s-.46-.63-.29-.82.57-.14.9.13.46.62.3.82z"/><path class="b" d="M87.1 9.38l7-3.73a2.06 2.06 0 0 0 .7 1.54c.73.71 1.7.93 2.17.5s.26-1.36-.47-2.07a1.87 1.87 0 0 0-1.98-.61l-7.62 4zm9-3.45c.63.4 1 1 .79 1.23s-.88.19-1.51-.2-1-1-.8-1.23.84-.19 1.48.2z"/><g opacity=".24"><path class="c" d="M107.06 49.25l.04.69 3.76-1.28-.04-.68-3.76 1.27zm.17 2.53l.04.69 3.76-1.28-.04-.68-3.76 1.27z"/><path class="c" d="M108.48 53.09l-.33.02-.33-5.02.33-.01.33 5.01zm1.84-.74l-.33.02-.33-5.02.32-.02.34 5.02z"/><path class="d" d="M129.52 42.32l-.4-.42-9.06 7.8a3.14 3.14 0 0 0-1.59-2c-1.33-.82-2.84-.83-3.38 0s.1 2.1 1.42 2.91 2.53.8 3.19.24zm-8.23-5.31l-.39-.42-9.06 7.81a3.22 3.22 0 0 0-1.6-2.06c-1.32-.81-2.83-.82-3.37 0s.1 2.09 1.43 2.91 2.52.81 3.18.24z"/><path class="d" d="M127.39 44.15l-8.61-5.71 2.4-2.07 8.62 5.71-2.41 2.07z"/><path class="a" d="M127.35 32.82c-1.11-1.06-2.58-1.39-3.29-.73s-.38 2.06.72 3.13 2.58 1.4 3.28.73.39-2.06-.71-3.13zm-1.3 2.74c-.54 0-1-.7-1-1.55s.45-1.53 1-1.52 1 .69 1 1.54-.46 1.53-1 1.53zm-15.62-6.55l-.41-.29-6.3 8.1a2.88 2.88 0 0 0-1.73-1.48c-1.27-.48-2.56-.25-2.88.51s.46 1.77 1.73 2.24a2.54 2.54 0 0 0 2.76-.3l6.83-8.78zm2.72 26.93l-1 .88 7.91-3.59a2.21 2.21 0 0 0 .65 1.72c.74.81 1.77 1.12 2.31.68s.39-1.46-.35-2.27a2.06 2.06 0 0 0-2.13-.8z"/><path class="a" d="M113.73 56.12l-1.54.7s-.13-.17.11-.5c1.44-1.89-.67-2.61 1.2-4.09.13-.1.23 0 .14.13-1.31 1.43.82 1.87.09 3.76z"/><path class="b" d="M131.62 19.5l-.3-1.39-7.33 3.63.3 1.4 7.33-3.64zm-1.11-5.14l-.3-1.4-7.33 3.63.3 1.4 7.33-3.63z"/><path class="b" d="M127.54 12l.67-.13 2.2 10.22-.67.12-2.2-10.21zM124 14.03l.67-.12 2.19 10.21-.67.13L124 14.03zm-12.98 12.12l-1.16-1.37 4.23 10.85a3.47 3.47 0 0 0-2.59.64c-1.28.86-1.85 2.18-1.28 3s2.07.69 3.35-.17 1.73-1.92 1.42-2.71z"/><path class="b" d="M110.69 26.89l-.82-2.11s.27-.15.71.21c2.56 2.12 3.89-.55 5.8 2.09.13.19-.07.3-.21.17-1.91-1.91-2.82.84-5.48-.36zM64.57 46.6h.3l.61-6a1.78 1.78 0 0 0 1.37.26c.81-.13 1.4-.63 1.31-1.12s-.81-.73-1.64-.64-1.27.53-1.32 1c.01.14-.63 6.5-.63 6.5zm5.12-.7h.3l.61-6a1.78 1.78 0 0 0 1.37.25c.81-.13 1.4-.62 1.31-1.11s-.81-.77-1.62-.64-1.27.53-1.32 1c-.01.14-.65 6.5-.65 6.5z"/><path class="b" d="M64.72 45.18l5.42-.67-.16 1.6-5.42.67.16-1.6z"/><path class="e" d="M62.06 34.2l-.19.65 14.29 3.64a3.76 3.76 0 0 0-1.15 2.89c0 1.81 1 3.28 2.18 3.28s2.17-1.47 2.17-3.28c0-1.63-.79-3-1.82-3.24z"/><path class="f" d="M99.36 53.61l.77.95-2.72-7.41a2.36 2.36 0 0 0 1.77-.41c.88-.56 1.29-1.45.91-2s-1.39-.49-2.27.07-1.2 1.29-1 1.82c.07.23 2.54 6.98 2.54 6.98z"/><path class="f" d="M99.6 53.11l.53 1.45s-.19.1-.48-.16c-1.71-1.47-2.65.33-3.9-1.49-.09-.12 0-.2.13-.1 1.28 1.31 1.93-.54 3.72.3z"/><path class="c" d="M83.59 41.58l-1.38 1.35 11.6-5.69a3.33 3.33 0 0 0 1.06 2.54c1.13 1.18 2.69 1.59 3.47.91s.5-2.18-.63-3.37-2.37-1.49-3.19-1.08z"/><path class="c" d="M84.52 41.82l-2.26 1.11s-.21-.25.14-.75c2-2.87-1.12-3.86 1.59-6.14.19-.15.34 0 .21.19-1.94 2.18 1.26 2.78.32 5.59z"/><path class="c" d="M86.69 40.73l-2.26 1.11s-.21-.25.15-.75c2-2.87-1.13-3.86 1.58-6.14.19-.16.35 0 .21.19-1.85 2.18 1.32 2.74.32 5.59z"/><path class="g" d="M103.24 51.25c.53.88 1.43 1.33 2 1s.63-1.28.09-2.16-1.43-1.32-2-1-.62 1.29-.09 2.16zm1.34-1.57c.35.09.51.61.35 1.16s-.57.93-.92.84-.52-.61-.36-1.16.58-.93.93-.84z"/><path class="d" d="M85.52 20.46l-.52.19 4.38 10.24a3.28 3.28 0 0 0-2.45.68c-1.2.86-1.7 2.14-1.14 2.85s2 .6 3.2-.26 1.59-1.88 1.27-2.62zm-7.59 5.15l-.51.2 4.37 10.2a3.33 3.33 0 0 0-2.45.69c-1.2.86-1.7 2.14-1.14 2.85s2 .6 3.2-.26 1.59-1.88 1.27-2.62z"/><path class="d" d="M94.25 17.66l-15.8 10.56-1.16-2.72 15.8-10.55 1.16 2.71z"/><path class="d" d="M93.22 15.26l-.52.19 4.37 10.24a3.3 3.3 0 0 0-2.45.68c-1.19.86-1.7 2.14-1.13 2.85s2 .6 3.19-.26 1.59-1.88 1.28-2.62c-.13-.33-4.74-11.08-4.74-11.08z"/><path class="i" d="M89.88 46.12l-.36-.11-2.19 7a2.18 2.18 0 0 0-1.56-.61c-1 0-1.81.44-1.83 1s.78 1.1 1.77 1.12a1.78 1.78 0 0 0 1.81-.81zm-6.24-.3l-.35-.1-2.19 7a2.18 2.18 0 0 0-1.56-.6c-1 0-1.81.44-1.82 1s.8 1.12 1.8 1.15a1.77 1.77 0 0 0 1.79-.86c.03-.2 2.33-7.59 2.33-7.59z"/><path class="i" d="M89.37 47.76l-6.59-.39.58-1.86 6.59.4-.58 1.85z"/><path class="j" d="M77.14 47.54l-.11-.13-2.73 2.12a1 1 0 0 0-.43-.62c-.37-.25-.8-.28-1-.06s0 .61.36.86a.83.83 0 0 0 .91.12zm-2.25-1.64l-.11-.12-2.73 2.11a.93.93 0 0 0-.43-.61c-.37-.25-.8-.28-1-.06s0 .6.36.86a.85.85 0 0 0 .92.12c.1-.07 2.99-2.3 2.99-2.3z"/><path class="j" d="M78.77 49.7l-4.63-3.42.73-.56 4.62 3.41-.72.57z"/><path class="j" d="M79.41 49.19l-.11-.12-2.73 2.11a1 1 0 0 0-.43-.61c-.37-.25-.8-.28-1-.06s0 .61.36.86a.85.85 0 0 0 .92.12z"/><path class="c" d="M73.12 39.27l.43.17 3.78-8.43a2.68 2.68 0 0 0 1.86 1c1.24.17 2.32-.3 2.43-1s-.79-1.48-2-1.64a2.26 2.26 0 0 0-2.37.82c-.13.17-4.13 9.08-4.13 9.08z"/><path class="h" d="M105.87 38.25l.37.37 1.49-2.42-.37-.37-1.49 2.42zm1.36 1.36l.37.37 1.49-2.42-.37-.37-1.49 2.42z"/><path class="h" d="M108.61 39.79l-.18.16-2.71-2.69.17-.16 2.72 2.69zm.66-1.26l-.18.17-2.71-2.7.18-.16 2.71 2.69z"/><path class="a" d="M91.8 48.75l-.65-.1 3.84 1.86a1.12 1.12 0 0 0-.51.75c-.11.52.07 1 .41 1.06s.72-.29.83-.81a.91.91 0 0 0-.31-1z"/><path class="a" d="M91.9 49.01l-.74-.36s0-.11.23-.11c1.2 0 .87-1 2-.78.08 0 .06.09 0 .08-.95-.04-.5.88-1.49 1.17z"/><path class="a" d="M92.64 49.37l-.75-.36s0-.1.24-.11c1.2 0 .87-1 2-.78.08 0 .06.1 0 .09-.96-.06-.5.87-1.49 1.16z"/><path class="k" d="M93.52 42.38c-1.24.17-2.15.91-2 1.65s1.21 1.2 2.45 1 2.14-.91 2-1.65-1.26-1.17-2.45-1zm1.23 2.07c-.26.33-.93.27-1.5-.13s-.81-1-.55-1.33.92-.26 1.49.14.78.99.52 1.32z"/></g><path class="c" d="M181.89 40.55l.08 1.07 5.87-1.99-.08-1.07-5.87 1.99zm.27 3.96l.07 1.07 5.87-1.99-.07-1.07-5.87 1.99z"/><path class="c" d="M184.12 46.56l-.51.03-.53-7.85.51-.02.53 7.84zm2.87-1.17l-.51.03-.53-7.84.51-.03.53 7.84z"/><path class="a" d="M213.59 14.89c-1.72-1.67-4-2.18-5.13-1.15s-.6 3.22 1.12 4.89 4 2.18 5.13 1.15.61-3.22-1.12-4.89zm-2 4.27c-.85 0-1.53-1.09-1.52-2.41s.71-2.4 1.56-2.39 1.53 1.09 1.51 2.41-.72 2.4-1.57 2.39zM187.17 8.95l-.65-.45-9.85 12.65a4.49 4.49 0 0 0-2.71-2.32c-2-.74-4-.38-4.49.81s.72 2.75 2.71 3.5c1.78.67 3.59.44 4.3-.47.28-.37 10.69-13.72 10.69-13.72zm4.24 42.06l-1.49 1.37 12.35-5.61a3.44 3.44 0 0 0 1 2.68c1.15 1.28 2.77 1.76 3.61 1.07s.6-2.28-.55-3.55-2.43-1.64-3.33-1.24z"/><path class="a" d="M192.32 51.29l-2.4 1.09s-.21-.27.17-.78c2.24-3-1-4.08 1.87-6.39.21-.16.37 0 .21.2-2.04 2.24 1.29 2.92.15 5.88z"/><path class="b" d="M188.09 4.46l-1.81-2.13 6.61 16.94a5.47 5.47 0 0 0-4.05 1c-2 1.35-2.9 3.41-2 4.61s3.23 1.07 5.23-.27c1.8-1.21 2.7-3 2.22-4.22-.18-.48-6.2-15.93-6.2-15.93z"/><path class="b" d="M187.57 5.62l-1.29-3.29s.43-.24 1.11.33c4 3.31 6.08-.87 9.07 3.26.2.29-.1.47-.32.26-2.99-2.98-4.41 1.31-8.57-.56zm-72.05 30.79h.47l1-9.41a2.82 2.82 0 0 0 2.14.4c1.26-.2 2.18-1 2-1.74s-1.27-1.2-2.53-1-2 .83-2.06 1.51c-.02.31-1.02 10.24-1.02 10.24zm8-1.1h.48l1-9.41a2.82 2.82 0 0 0 2.14.4c1.26-.2 2.18-1 2.05-1.74s-1.27-1.2-2.54-1-2 .83-2 1.51c-.13.31-1.13 10.24-1.13 10.24z"/><path class="b" d="M115.74 34.2l8.48-1.05-.25 2.49-8.48 1.06.25-2.5z"/><path class="e" d="M111.59 17.01l-.29 1 22.33 5.68a5.81 5.81 0 0 0-1.79 4.52c0 2.82 1.52 5.12 3.39 5.12s3.4-2.3 3.4-5.13c0-2.54-1.23-4.64-2.84-5z"/><path class="f" d="M169.87 47.37l1.2 1.48-4.24-11.58a3.73 3.73 0 0 0 2.76-.63c1.38-.89 2-2.28 1.43-3.1s-2.18-.77-3.56.12-1.87 2-1.56 2.83z"/><path class="f" d="M170.24 46.59l.83 2.26s-.29.15-.75-.24c-2.67-2.3-4.14.51-6.1-2.34-.13-.2.07-.31.22-.16 1.99 2.06 3.01-.84 5.8.48z"/><path class="c" d="M145.23 28.58l-2.16 2.1 18.13-8.89a5.18 5.18 0 0 0 1.65 4c1.77 1.85 4.2 2.49 5.43 1.44s.78-3.42-1-5.27c-1.6-1.66-3.72-2.34-5-1.69z"/><path class="c" d="M146.6 28.95l-3.53 1.73s-.32-.4.23-1.17c3.19-4.48-1.76-6 2.48-9.59.29-.24.54 0 .32.29-2.94 3.41 2.06 4.28.5 8.74z"/><path class="c" d="M150.08 27.25l-3.56 1.76s-.33-.4.22-1.17c3.19-4.49-1.76-6 2.49-9.6.29-.24.54 0 .32.29-2.91 3.39 2.08 4.26.53 8.72z"/><path class="g" d="M175.93 43.68c.83 1.37 2.23 2.08 3.14 1.58s1-2 .15-3.37-2.24-2.08-3.14-1.58-.97 2.01-.15 3.37zm2.09-2.46c.55.14.8 1 .56 1.82s-.89 1.45-1.45 1.31-.8-1-.56-1.82.95-1.45 1.45-1.31z"/><path class="i" d="M155.06 35.66l-.55-.16-3.42 10.95a3.36 3.36 0 0 0-2.44-.95c-1.55 0-2.83.68-2.85 1.61s1.21 1.71 2.76 1.74c1.39 0 2.55-.54 2.8-1.33.1-.31 3.7-11.86 3.7-11.86zm-9.74-.46l-.56-.16-3.41 10.97a3.44 3.44 0 0 0-2.45-.95c-1.54 0-2.82.69-2.85 1.61s1.21 1.71 2.76 1.75c1.39 0 2.56-.55 2.8-1.34z"/><path class="i" d="M154.27 38.23l-10.3-.62.9-2.9 10.3.62-.9 2.9z"/><path class="j" d="M135.15 37.88l-.17-.2-4.27 3.33a1.44 1.44 0 0 0-.66-1c-.58-.39-1.26-.43-1.52-.09s0 .95.57 1.34a1.28 1.28 0 0 0 1.42.18zm-3.51-2.55l-.17-.2-4.27 3.3a1.47 1.47 0 0 0-.67-1c-.57-.39-1.25-.43-1.52-.09s0 1 .57 1.34a1.31 1.31 0 0 0 1.43.19z"/><path class="j" d="M137.7 41.25l-7.23-5.34 1.13-.88 7.23 5.34-1.13.88z"/><path class="j" d="M138.7 40.47l-.17-.2-4.27 3.31a1.44 1.44 0 0 0-.66-1c-.58-.4-1.26-.44-1.52-.1s0 1 .56 1.34a1.33 1.33 0 0 0 1.43.19z"/><path class="c" d="M128.88 25.01l.67.26 5.91-13.26a4.19 4.19 0 0 0 2.9 1.51c1.93.26 3.63-.46 3.8-1.62s-1.25-2.3-3.17-2.55c-1.73-.24-3.28.33-3.7 1.28z"/><path class="l" d="M122.37 62.56l.66.27 5.91-13.19a4.14 4.14 0 0 0 2.91 1.51c1.92.26 3.62-.46 3.8-1.62s-1.25-2.29-3.13-2.52c-1.73-.23-3.27.33-3.7 1.29z"/><path class="h" d="M180.04 23.37l.57.58 2.33-3.79-.57-.57-2.33 3.78zm2.13 2.13l.58.57 2.32-3.79-.57-.57-2.33 3.79z"/><path class="h" d="M184.31 25.77l-.28.25-4.23-4.2.28-.26 4.23 4.21zm1.04-1.96l-.27.25-4.24-4.21.28-.25 4.23 4.21z"/><path class="a" d="M158.06 39.77l-1-.15 6 2.9a1.71 1.71 0 0 0-.8 1.18c-.18.81.1 1.55.64 1.66s1.12-.46 1.29-1.27a1.4 1.4 0 0 0-.48-1.6z"/><path class="a" d="M158.22 40.19l-1.17-.57s.05-.16.37-.17c1.88 0 1.36-1.6 3.18-1.21.13 0 .09.14 0 .13-1.54-.08-.83 1.35-2.38 1.82z"/><path class="a" d="M159.37 40.74l-1.17-.56s0-.16.37-.17c1.88 0 1.36-1.61 3.18-1.22.13 0 .09.15 0 .14-1.55-.09-.83 1.35-2.38 1.81z"/><path class="k" d="M160.68 29.82c-1.94.27-3.35 1.43-3.18 2.58s1.89 1.88 3.82 1.61 3.35-1.43 3.17-2.58-1.88-1.88-3.81-1.61zm1.93 3.19c-.41.52-1.45.42-2.34-.21s-1.28-1.55-.87-2.06 1.44-.42 2.33.21 1.28 1.59.88 2.06z"/><path class="m" d="M143.87 55.81c-1.39-.36-2.72 0-3 .85s.69 1.81 2.08 2.18 2.72 0 3-.85-.68-1.81-2.08-2.18zm.29 2.74c-.43.24-1.11-.12-1.52-.8s-.37-1.42.06-1.65 1.11.12 1.52.8.37 1.42-.06 1.65z"/><path class="b" d="M132.33 55.06l15.19-2.14a3.82 3.82 0 0 0 .16 3.2c.8 1.72 2.36 2.74 3.5 2.27s1.44-2.25.65-4c-.71-1.55-2.05-2.52-3.14-2.36l-16.47 2.34zm18.41-.4c.86 1.11 1.11 2.32.55 2.7s-1.7-.22-2.56-1.33-1.1-2.33-.55-2.71 1.71.23 2.56 1.34z"/><path class="d" d="M188.98 13.01l.18-.31-6.73-3.45a2 2 0 0 0 .94-1.24c.23-.92-.08-1.77-.68-1.9s-1.28.49-1.51 1.4a1.61 1.61 0 0 0 .51 1.83zm1.54-5.68l.18-.31-6.73-3.45a2 2 0 0 0 .94-1.33c.23-.9-.08-1.75-.68-1.89s-1.28.49-1.5 1.4a1.61 1.61 0 0 0 .5 1.84z"/><path class="d" d="M187.41 12.23l1.75-6.02 1.79.92-1.76 6.02-1.78-.92z"/><path class="a" d="M194.42 2.85c.44-.84.33-1.74-.22-2s-1.36.21-1.8 1-.33 1.73.23 2 1.36-.16 1.79-1zm-2-.16c-.11-.31.23-.69.75-.86s1.05-.07 1.16.24-.23.69-.76.86-1 .08-1.11-.24zm-15.3 24.01l-.74-.36 3.87 3.67a1.46 1.46 0 0 0-.93.72c-.35.58-.33 1.23.06 1.44s1-.09 1.34-.67a1.15 1.15 0 0 0 0-1.36z"/><path class="a" d="M177.13 27.06l-.75-.71s.08-.12.33-.05c1.47.41 1.48-.92 2.79-.18.09.06 0 .14 0 .11-1.21-.44-1.04.85-2.37.83zM166.79 4.37c.41-.85.29-1.74-.27-2s-1.36.24-1.77 1.09-.3 1.74.27 2 1.35-.24 1.77-1.09zm-2-.12c-.12-.3.21-.7.74-.88s1-.08 1.16.22-.22.7-.74.88-1.01.08-1.13-.22zm-15.37-2.71l-.75-.34 3.95 3.62a1.45 1.45 0 0 0-.91.74c-.34.58-.31 1.23.09 1.43s1-.11 1.32-.69a1.16 1.16 0 0 0 0-1.36z"/><path class="a" d="M149.44 1.91l-.76-.7s.07-.12.33-.05c1.51.38 1.51-.95 2.78-.24.09.06 0 .14-.05.11-1.17-.42-.97.87-2.3.88z"/><path class="b" d="M174.94 5.82l.79-.47-3.85-3.28-.79.47 3.85 3.28zm2.93-1.74l.79-.47-3.85-3.28-.79.47 3.85 3.28z"/><path class="b" d="M178.67 1.91l.22.34-5.81 3.47-.22-.35 5.81-3.46zM176.64.38l.22.35-5.81 3.46-.23-.34 5.82-3.47z"/><path class="c" d="M127.98 8.47l-.11.42 2.49-.08.11-.42-2.49.08zm-.41 1.54l-.11.42 2.49-.08.11-.42-2.49.08z"/><path class="c" d="M128.05 11.02l-.2-.05.81-3.05.2.05-.81 3.05zm1.25-.11l-.2-.05.81-3.05.19.05-.8 3.05z"/><path class="d" d="M142.74 8.42l-.15-.32-7 3a1.94 1.94 0 0 0-.54-1.51c-.63-.72-1.53-1-2-.63s-.36 1.26.26 2a1.78 1.78 0 0 0 1.85.72zm-3.83-4.65l-.15-.32-7 3a2 2 0 0 0-.54-1.52c-.63-.72-1.52-1-2-.63s-.37 1.27.26 2a1.77 1.77 0 0 0 1.84.72z"/><path class="d" d="M141.11 9.12l-3.98-4.96 1.84-.8 3.99 4.97-1.85.79z"/><path class="a" d="M143.35 2.37c-.44-.84-1.25-1.3-1.8-1s-.65 1.16-.2 2 1.25 1.3 1.8 1 .65-1.17.2-2zm-1.32 1.39c-.32-.1-.44-.59-.26-1.09s.57-.83.9-.73.44.59.26 1.09-.57.83-.9.73zm-13.98-2.75l-.19-.25-5.34 3.71a1.68 1.68 0 0 0-.73-1.19c-.66-.52-1.48-.62-1.82-.22s-.08 1.13.58 1.65a1.59 1.59 0 0 0 1.7.32zm2.21 12.55l-.75.35 5.43-.7a1.35 1.35 0 0 0 .05 1.14c.27.62.82 1 1.23.82s.53-.8.25-1.41a1.24 1.24 0 0 0-1.11-.86z"/><path class="a" d="M130.57 13.77l-1.05.14s0-.13.17-.28c1.23-.86.12-1.67 1.53-2.21.1 0 .14.05.06.1-1.08.61.1 1.26-.71 2.25z"/><path class="f" d="M122.52 9.68l.26.7-.12-4.91a1.5 1.5 0 0 0 1.13.08c.64-.18 1.06-.63.94-1s-.73-.55-1.37-.37-1 .54-1 .9c.04.13.16 4.6.16 4.6z"/><path class="f" d="M122.76 9.42v1s-.13 0-.25-.18c-.73-1.19-1.64-.29-2-1.6 0-.09.07-.11.11 0 .48.94 1.24-.05 2.14.78z"/><path class="g" d="M125.3 9.01c.14.62.58 1 1 1s.63-.65.49-1.27-.58-1-1-1-.63.62-.49 1.27zm1.11-.69c.19.12.18.46 0 .76s-.53.44-.72.33-.18-.46 0-.76.53-.49.72-.37z"/><path class="i" d="M118.38 3.49l-.19-.12-2.67 3.77a1.33 1.33 0 0 0-.81-.64c-.59-.19-1.17-.07-1.29.28s.24.79.82 1a1.15 1.15 0 0 0 1.24-.19c.04-.11 2.9-4.1 2.9-4.1zm-3.66-1.3l-.2-.13-2.7 3.78a1.29 1.29 0 0 0-.81-.65c-.58-.19-1.16-.07-1.29.28s.24.79.83 1a1.16 1.16 0 0 0 1.24-.18c.07-.12 2.93-4.1 2.93-4.1z"/><path class="i" d="M117.75 4.38l-3.85-1.43.72-1 3.84 1.43-.71 1z"/><path class="j" d="M110.52 2.01v-.1l-2 .77a.55.55 0 0 0-.13-.45c-.17-.21-.42-.31-.57-.21s-.12.36 0 .58a.49.49 0 0 0 .52.23zm-1-1.36v-.1l-2.05.77a.55.55 0 0 0-.13-.45c-.17-.21-.42-.31-.57-.21s-.12.36 0 .58a.51.51 0 0 0 .52.23z"/><path class="j" d="M111.04 3.61L108.98.74l.54-.21 2.07 2.88-.55.2z"/><path class="j" d="M111.52 3.42v-.09l-2 .77a.55.55 0 0 0-.13-.45c-.17-.21-.42-.31-.56-.21s-.13.36 0 .58a.51.51 0 0 0 .52.23z"/><path class="l" d="M102.46 9.95l.22.18 3.94-4.34a1.6 1.6 0 0 0 .92.91c.7.33 1.44.25 1.65-.17s-.18-1-.88-1.34a1.41 1.41 0 0 0-1.57.06c-.12.12-4.28 4.7-4.28 4.7z"/><path class="h" d="M129.48 1.71l.14.29L131 .82l-.15-.28-1.37 1.17zm.54 1.06l.14.28 1.38-1.17-.15-.29-1.37 1.18z"/><path class="h" d="M130.8 3.12l-.14.06-1.07-2.09.13-.07 1.08 2.1zm.65-.63l-.14.07-1.07-2.1.13-.06 1.08 2.09z"/><path class="a" d="M118.99 5.41l-.37-.18 1.9 1.78a.74.74 0 0 0-.46.36c-.17.29-.16.6 0 .71s.49-.05.66-.34a.54.54 0 0 0 0-.66z"/><path class="a" d="M119 5.59l-.37-.36h.16c.72.2.72-.45 1.37-.09 0 0 0 .06 0 0-.64-.13-.51.45-1.16.45z"/><path class="a" d="M119.37 5.93l-.38-.35s0-.06.17 0c.72.2.72-.46 1.36-.1 0 0 0 .07 0 0-.59-.18-.5.46-1.15.45z"/><path class="k" d="M121.27 1.92c-.77-.12-1.46.15-1.54.62s.47.93 1.24 1.05 1.47-.15 1.55-.58-.48-1-1.25-1.09zm.32 1.45c-.22.15-.61 0-.87-.35s-.28-.74-.06-.89.6 0 .86.36.29.73.07.88z"/><path class="m" d="M111.52 9.87c-.48-.3-1-.31-1.24 0s0 .77.52 1.08 1 .31 1.23 0-.02-.77-.51-1.08zm-.24 1.08c-.2 0-.41-.17-.47-.48s0-.59.23-.62.41.17.47.48.01.58-.23.62z"/><path class="b" d="M107.22 8.25l6.06.94a1.57 1.57 0 0 0-.35 1.24c.08.75.55 1.32 1 1.28s.84-.7.76-1.45a1.34 1.34 0 0 0-.85-1.25l-6.57-1zm7.07 2c.18.53.12 1-.14 1.1s-.62-.28-.8-.81-.12-1 .14-1.09.61.26.8.78z"/><path class="c" d="M99.75 31.27l.03.43 2.34-.82-.03-.43-2.34.82zm.12 1.58l.03.43 2.34-.82-.03-.43-2.34.82z"/><path class="c" d="M100.67 33.66l-.21.02-.25-3.14.21-.01.25 3.13zm1.14-.47l-.21.01-.24-3.14.2-.01.25 3.14z"/><path class="j" d="M113.74 26.79l-.25-.26-5.61 4.94a2 2 0 0 0-1-1.27c-.84-.5-1.78-.5-2.12 0s.08 1.31.92 1.81a1.84 1.84 0 0 0 2 .13zm-5.22-3.26l-.25-.26-5.61 4.94a2 2 0 0 0-1-1.27c-.84-.5-1.78-.5-2.11 0s.07 1.31.91 1.81a1.84 1.84 0 0 0 2 .13z"/><path class="j" d="M112.42 27.95L107 24.43l1.48-1.3 5.43 3.51-1.49 1.31z"/><path class="a" d="M112.31 20.87c-.7-.67-1.62-.86-2.06-.44s-.22 1.29.47 1.95 1.62.86 2.06.44.23-1.29-.47-1.95zm-.79 1.71c-.34 0-.61-.43-.62-1s.27-1 .61-1 .62.43.62 1-.27 1-.61 1zm-9.81-3.98l-.26-.18-3.88 5.11a1.8 1.8 0 0 0-1.05-.92c-.8-.29-1.6-.14-1.79.34s.3 1.1 1.1 1.39a1.57 1.57 0 0 0 1.72-.21zm1.89 16.81l-.59.56 4.92-2.3a1.38 1.38 0 0 0 .42 1.07c.46.51 1.11.69 1.45.41s.23-.91-.24-1.42a1.3 1.3 0 0 0-1.34-.48z"/><path class="a" d="M103.97 35.52l-1 .45s-.09-.11.07-.31c.88-1.19-.44-1.63.71-2.57.08-.06.15 0 .09.08-.77.9.57 1.16.13 2.35z"/><path class="b" d="M114.89 12.51l-.2-.87-4.56 2.32.2.87 4.56-2.32zm-.73-3.21l-.2-.87-4.56 2.32.2.87 4.56-2.32z"/><path class="b" d="M112.28 7.85l.42-.09 1.45 6.37-.42.09-1.45-6.37zm-2.2 1.29l.42-.08 1.45 6.37-.42.08-1.45-6.37zm-8.03 7.66l-.73-.85 2.72 6.75a2.22 2.22 0 0 0-1.61.42c-.79.55-1.14 1.38-.78 1.86s1.3.41 2.09-.13 1.07-1.21.87-1.7c-.09-.14-2.56-6.35-2.56-6.35z"/><path class="b" d="M101.85 17.27l-.53-1.32s.17-.1.45.13c1.62 1.31 2.43-.37 3.64 1.27.08.11 0 .19-.13.1-1.2-1.18-1.76.56-3.43-.18zM73.16 29.89h.19l.34-3.77a1.09 1.09 0 0 0 .85.15c.51-.08.87-.4.82-.7s-.52-.48-1-.39-.79.34-.82.61zm3.2-.48h.19l.33-3.77a1.12 1.12 0 0 0 .86.15c.51-.09.87-.4.81-.7s-.51-.48-1-.39-.79.34-.81.61c-.03.12-.38 4.1-.38 4.1z"/><path class="b" d="M73.24 29l3.39-.45-.09 1-3.38.45.08-1z"/><path class="e" d="M71.52 22.15l-.11.41 9 2.18a2.35 2.35 0 0 0-.7 1.82c0 1.13.64 2 1.39 2s1.35-.93 1.33-2.06a2 2 0 0 0-1.16-2z"/><path class="f" d="M94.96 34.01l.49.58-1.75-4.58a1.51 1.51 0 0 0 1.1-.27c.55-.36.8-.92.56-1.24s-.88-.3-1.43.06-.74.81-.61 1.14z"/><path class="f" d="M95.11 33.73l.34.9s-.11.07-.3-.09c-1.08-.91-1.65.22-2.45-.91-.06-.08 0-.13.08-.06.81.81 1.2-.35 2.33.16z"/><path class="c" d="M85.01 26.63l-.85.85 7.22-3.63a2.07 2.07 0 0 0 .67 1.58c.72.73 1.7 1 2.18.54s.3-1.36-.41-2.1a1.9 1.9 0 0 0-2-.65z"/><path class="c" d="M85.57 26.77l-1.41.71s-.13-.16.09-.47c1.25-1.81-.74-2.41.94-3.85.12-.1.22 0 .14.11-1.17 1.38.84 1.74.24 3.5z"/><path class="c" d="M86.95 26.08l-1.4.7s-.14-.15.08-.47c1.26-1.81-.73-2.4 1-3.84.12-.1.21 0 .13.11-1.24 1.43.76 1.71.19 3.5z"/><path class="g" d="M97.37 32.55c.34.54.9.82 1.27.62s.38-.81 0-1.35-.9-.83-1.27-.63-.33.82 0 1.36zm.83-1c.22.06.32.38.23.73s-.35.58-.57.53-.33-.38-.24-.73.36-.58.58-.53z"/><path class="d" d="M86.07 13.41l-.32.12 2.77 6.37a2.09 2.09 0 0 0-1.53.45c-.74.54-1.05 1.34-.69 1.79s1.26.36 2-.19 1-1.18.77-1.64zm-4.71 3.27l-.32.13 2.81 6.37a2.07 2.07 0 0 0-1.53.44c-.74.55-1 1.35-.69 1.79s1.26.36 2-.18a1.55 1.55 0 0 0 .78-1.65z"/><path class="d" d="M91.51 11.61L81.7 18.3l-.74-1.68 9.81-6.71.74 1.7z"/><path class="d" d="M90.84 10.1l-.32.13 2.81 6.37a2 2 0 0 0-1.53.45c-.73.54-1 1.34-.68 1.79s1.25.36 2-.19 1-1.18.78-1.64z"/><path class="i" d="M88.98 29.42l-.22-.06-1.31 4.39a1.36 1.36 0 0 0-1-.36c-.62 0-1.12.28-1.13.65s.49.68 1.11.69 1-.23 1.11-.55c.05-.12 1.44-4.76 1.44-4.76zm-3.9-.14l-.22-.06-1.34 4.39a1.36 1.36 0 0 0-1-.37c-.62 0-1.13.29-1.13.66s.49.68 1.11.69 1-.23 1.11-.55z"/><path class="i" d="M88.68 30.46l-4.13-.21.35-1.16 4.13.2-.35 1.17z"/><path class="j" d="M81.02 30.39l-.06-.08-1.7 1.35a.58.58 0 0 0-.27-.39c-.23-.15-.5-.17-.61 0s0 .38.24.54a.51.51 0 0 0 .57.06zm-1.41-1l-.09-.08-1.7 1.34a.54.54 0 0 0-.27-.38c-.23-.16-.5-.17-.61 0s0 .37.24.53a.52.52 0 0 0 .57.07z"/><path class="j" d="M82.06 31.73l-2.91-2.1.44-.36 2.92 2.11-.45.35z"/><path class="j" d="M82.46 31.41l-.07-.07-1.7 1.34a.54.54 0 0 0-.27-.38c-.23-.16-.5-.17-.6 0s0 .37.23.53a.54.54 0 0 0 .57.07z"/><path class="c" d="M78.45 25.25l.27.11 2.31-5.35a1.65 1.65 0 0 0 1.17.6c.77.09 1.45-.2 1.51-.67s-.51-.91-1.28-1a1.43 1.43 0 0 0-1.48.53c-.06.18-2.5 5.78-2.5 5.78z"/><path class="l" d="M76.02 40.33l.27.1 2.3-5.3a1.7 1.7 0 0 0 1.17.59c.78.1 1.45-.2 1.52-.66s-.51-.92-1.29-1a1.39 1.39 0 0 0-1.47.53c-.07.14-2.5 5.74-2.5 5.74z"/><path class="h" d="M98.92 24.4l.24.23.91-1.52-.23-.23-.92 1.52zm.87.84l.23.23.91-1.52-.23-.23-.91 1.52z"/><path class="h" d="M100.65 25.34l-.12.11-1.71-1.67.11-.1 1.72 1.66zm.4-.79l-.11.11-1.71-1.67.11-.1 1.71 1.66z"/><path class="a" d="M90.2 31.01l-.4-.05 2.41 1.13a.71.71 0 0 0-.31.48c-.07.32.05.62.26.66s.44-.19.51-.51a.57.57 0 0 0-.2-.64z"/><path class="a" d="M90.27 31.22l-.47-.21s0-.06.15-.07c.75 0 .53-.65 1.26-.5v.06c-.62-.04-.32.51-.94.72z"/><path class="a" d="M90.73 31.44l-.47-.22s0-.07.15-.07c.75 0 .54-.65 1.27-.5v.05c-.62-.03-.33.55-.95.74z"/><path class="k" d="M91.2 27.06c-.77.12-1.33.59-1.26 1.05s.77.74 1.54.63 1.33-.59 1.26-1.05-.76-.74-1.54-.63zm.79 1.29c-.16.2-.58.17-.94-.08s-.51-.61-.36-.82.58-.17.94.07.52.62.36.83z"/><path class="m" d="M84.6 37.53c-.56-.14-1.09 0-1.18.35s.28.73.84.87 1.09 0 1.18-.35-.28-.72-.84-.87zm.13 1.1c-.18.09-.45 0-.61-.32s-.16-.56 0-.66.45 0 .61.32.17.56 0 .66z"/><path class="b" d="M79.98 37.28l6.06-.92a1.54 1.54 0 0 0 .08 1.28c.33.69 1 1.09 1.41.9s.56-.91.24-1.6a1.38 1.38 0 0 0-1.25-.93l-6.57 1zm7.36-.27c.35.45.45.93.23 1.08s-.68-.08-1-.52-.45-.93-.23-1.08.65.11 1 .52z"/><path class="c" d="M176.68 14.91l.03.43 2.34-.82-.03-.43-2.34.82zm.12 1.58l.03.43 2.35-.82-.04-.43-2.34.82z"/><path class="c" d="M177.6 17.31l-.21.01-.24-3.13.2-.02.25 3.14zm1.14-.48l-.21.01-.24-3.13.2-.02.25 3.14z"/><path class="d" d="M190.67 10.43l-.25-.26-5.61 4.94a2 2 0 0 0-1-1.27c-.84-.5-1.78-.5-2.11 0s.08 1.31.91 1.81a1.8 1.8 0 0 0 2 .13zm-5.15-3.26l-.25-.26-5.61 4.94a2 2 0 0 0-1-1.27c-.84-.5-1.78-.5-2.11 0s.08 1.31.91 1.81a1.82 1.82 0 0 0 2 .13z"/><path class="d" d="M189.35 11.59l-5.42-3.51 1.49-1.31 5.42 3.51-1.49 1.31z"/><path class="a" d="M189.24 4.51c-.7-.66-1.62-.86-2.06-.44s-.22 1.29.48 2 1.61.86 2.05.44.23-1.34-.47-2zm-.79 1.72c-.34 0-.61-.43-.62-1s.28-1 .62-1 .61.42.61 1-.27.99-.61 1zm-9.81-3.99l-.26-.17-3.86 5.1a1.8 1.8 0 0 0-1.1-.92c-.79-.29-1.6-.14-1.79.34s.3 1.1 1.1 1.39a1.59 1.59 0 0 0 1.72-.2zm1.88 16.82l-.59.55 4.92-2.3a1.37 1.37 0 0 0 .42 1.07c.46.51 1.11.69 1.45.41s.23-.91-.24-1.41a1.27 1.27 0 0 0-1.34-.48z"/><path class="a" d="M180.9 19.16l-1 .45s-.09-.11.07-.31c.88-1.19-.44-1.63.71-2.56.09-.07.15 0 .09.07-.77.91.57 1.2.13 2.35z"/><path class="b" d="M178.99 2.44l-.74-.85 2.73 6.76a2.14 2.14 0 0 0-1.62.42c-.79.54-1.14 1.37-.78 1.85s1.3.41 2.09-.13 1.07-1.21.87-1.7c-.02-.19-2.55-6.35-2.55-6.35z"/><path class="b" d="M178.78 2.91l-.53-1.32s.17-.09.45.13c1.62 1.29 2.43-.37 3.64 1.29.08.11 0 .19-.12.1-1.21-1.19-1.76.53-3.44-.2zm-31.69 17.62h.19l.34-3.78a1.15 1.15 0 0 0 .86.16c.5-.09.86-.4.81-.71s-.52-.47-1-.39-.79.34-.82.61zm3.2-.47h.23l.33-3.77a1.12 1.12 0 0 0 .86.15c.51-.08.87-.4.81-.7s-.51-.48-1-.39-.79.34-.81.61z"/><path class="b" d="M147.18 19.65l3.38-.46-.09 1-3.38.46.09-1z"/><path class="e" d="M145.43 12.79l-.11.41 9 2.18a2.37 2.37 0 0 0-.7 1.82c0 1.13.64 2 1.39 2s1.35-.93 1.33-2.06a2 2 0 0 0-1.16-2z"/><path class="f" d="M168.89 24.69l.49.59-1.75-4.62a1.54 1.54 0 0 0 1.1-.26c.55-.36.8-.92.56-1.25s-.88-.3-1.42.06-.74.81-.62 1.14z"/><path class="f" d="M169.04 24.38l.34.89s-.11.07-.3-.09c-1.08-.91-1.65.22-2.45-.91-.06-.07 0-.12.08-.06.81.8 1.2-.35 2.33.17z"/><path class="c" d="M158.95 17.27l-.86.85 7.22-3.63a2 2 0 0 0 .68 1.58c.71.73 1.69 1 2.17.55s.3-1.37-.41-2.1a1.93 1.93 0 0 0-2-.66z"/><path class="c" d="M159.52 17.41l-1.41.71s-.13-.16.09-.47c1.25-1.81-.73-2.4 1-3.84.11-.1.21 0 .13.11-1.23 1.38.77 1.71.19 3.49z"/><path class="c" d="M160.88 16.72l-1.4.71s-.14-.16.08-.47c1.26-1.81-.73-2.41 1-3.85.12-.1.21 0 .13.11-1.17 1.38.83 1.71.19 3.5z"/><path class="g" d="M171.3 23.19c.34.54.91.82 1.27.62s.38-.81 0-1.35-.9-.82-1.26-.62-.34.81-.01 1.35zm.83-1c.22 0 .32.38.23.72s-.35.59-.57.53-.33-.38-.23-.73.35-.57.57-.51z"/><path class="d" d="M160 4.01l-.32.13 2.84 6.4a2.09 2.09 0 0 0-1.53.45c-.74.54-1.05 1.35-.68 1.79s1.25.36 2-.18 1-1.19.77-1.65c-.11-.18-3.08-6.94-3.08-6.94zm-4.71 3.31l-.32.13 2.81 6.37a2.07 2.07 0 0 0-1.53.44c-.74.55-1 1.35-.68 1.79s1.25.37 2-.18a1.55 1.55 0 0 0 .78-1.65z"/><path class="d" d="M165.44 2.25l-9.8 6.7-.75-1.69 9.81-6.7.74 1.69z"/><path class="d" d="M164.78.75l-.33.12 2.81 6.37a2.1 2.1 0 0 0-1.53.45c-.73.54-1 1.34-.68 1.79s1.25.36 2-.18a1.55 1.55 0 0 0 .78-1.65z"/><path class="i" d="M162.91 20.06l-.22-.06-1.31 4.4a1.36 1.36 0 0 0-1-.37c-.62 0-1.12.28-1.13.65s.49.68 1.11.69a1.12 1.12 0 0 0 1.12-.54zm-3.9-.14l-.22-.06-1.27 4.39a1.36 1.36 0 0 0-1-.37c-.62 0-1.13.29-1.13.66s.49.68 1.11.69 1-.23 1.11-.55c.01-.12 1.4-4.76 1.4-4.76z"/><path class="i" d="M162.61 21.1l-4.12-.21.34-1.16 4.13.2-.35 1.17z"/><path class="j" d="M154.95 21.01l-.06-.07-1.7 1.34a.54.54 0 0 0-.27-.38c-.23-.16-.5-.17-.61 0s0 .37.24.53a.54.54 0 0 0 .57.07zm-1.43-1l-.07-.08-1.69 1.34a.58.58 0 0 0-.28-.38c-.23-.15-.5-.17-.6 0s0 .38.23.53a.52.52 0 0 0 .57.07z"/><path class="j" d="M155.99 22.38l-2.91-2.11.45-.36 2.91 2.11-.45.36z"/><path class="j" d="M156.39 22.06l-.07-.05-1.69 1.34a.63.63 0 0 0-.27-.38c-.24-.16-.51-.17-.61 0s0 .38.23.53a.52.52 0 0 0 .57.07z"/><path class="c" d="M152.39 15.9l.27.1 2.3-5.3a1.7 1.7 0 0 0 1.17.59c.77.1 1.45-.2 1.51-.66s-.51-.92-1.28-1a1.37 1.37 0 0 0-1.47.53c-.07.14-2.5 5.74-2.5 5.74z"/><path class="l" d="M149.95 31.01l.27.1 2.3-5.3a1.67 1.67 0 0 0 1.18.59c.77.1 1.44-.2 1.51-.66s-.51-.92-1.28-1a1.41 1.41 0 0 0-1.48.53c-.06.1-2.5 5.74-2.5 5.74z"/><path class="h" d="M172.85 15.04l.24.23.91-1.52-.23-.23-.92 1.52zm.87.85l.23.22.92-1.52-.24-.23-.91 1.53z"/><path class="h" d="M174.58 15.99l-.11.1-1.72-1.67.11-.1 1.72 1.67zm.4-.79l-.11.1-1.71-1.67.11-.1 1.71 1.67z"/><path class="a" d="M164.13 21.7l-.4-.06 2.41 1.14a.66.66 0 0 0-.31.47c-.07.33.05.62.26.66s.45-.19.51-.51a.56.56 0 0 0-.2-.64z"/><path class="a" d="M164.2 21.86l-.47-.22s0-.06.15-.07c.75 0 .53-.65 1.26-.5v.06c-.62-.03-.32.54-.94.73z"/><path class="a" d="M164.66 22.08l-.47-.22s0-.06.15-.07c.75 0 .54-.65 1.27-.5v.06c-.62-.03-.33.54-.95.73z"/><path class="k" d="M165.13 17.71c-.77.11-1.33.58-1.25 1s.76.74 1.53.63 1.34-.59 1.26-1.05-.76-.7-1.54-.58zm.79 1.3c-.16.21-.58.17-.93-.07s-.52-.62-.36-.83.57-.17.93.08.52.59.36.82z"/><path class="m" d="M158.52 28.18c-.56-.14-1.09 0-1.18.35s.28.72.84.86 1.09 0 1.18-.35-.27-.72-.84-.86zm.13 1.09c-.18.1-.45 0-.61-.31s-.16-.57 0-.66.45 0 .61.31.18.57.01.66z"/><path class="b" d="M153.91 27.92l6.06-.92a1.54 1.54 0 0 0 .08 1.28c.33.69 1 1.09 1.41.9s.56-.91.24-1.6a1.39 1.39 0 0 0-1.26-.93l-6.58 1zm7.36-.23c.35.44.46.92.23 1.07s-.68-.07-1-.52-.45-.92-.23-1.08.66.08 1 .53z"/><path class="c" d="M48.18 4.84l.04.43 2.34-.82-.04-.43-2.34.82zm.13 1.58l.03.43 2.34-.82-.03-.42-2.34.81z"/><path class="c" d="M49.1 7.24l-.2.01-.25-3.13.21-.02.24 3.14zm1.15-.48l-.21.01-.24-3.13.2-.02.25 3.14z"/><path class="a" d="M48.15.17l-.26-.16L44 5.11a1.78 1.78 0 0 0-1.09-.92c-.8-.28-1.6-.13-1.79.34s.3 1.1 1.1 1.39a1.59 1.59 0 0 0 1.72-.2zm3.89 8.84l-.59.55 4.92-2.29a1.38 1.38 0 0 0 .42 1.07c.46.5 1.11.69 1.45.41s.28-.94-.24-1.44a1.27 1.27 0 0 0-1.34-.48z"/><path class="a" d="M52.41 9.1l-1 .44s-.09-.11.06-.31c.89-1.19-.43-1.63.72-2.56.08-.07.15 0 .09.07-.76.91.57 1.17.13 2.36z"/><path class="b" d="M194.99 1.95l-.73-.85 2.72 6.76a2.12 2.12 0 0 0-1.61.42c-.8.54-1.15 1.37-.78 1.85s1.3.41 2.09-.13 1.07-1.21.87-1.7z"/><path class="b" d="M194.79 2.42l-.53-1.32s.17-.09.45.13c1.62 1.31 2.43-.37 3.64 1.27.08.11 0 .19-.13.1-1.21-1.18-1.7.55-3.43-.18z"/><path class="e" d="M15.94.73l-.11.41 9 2.17a2.38 2.38 0 0 0-.7 1.82c0 1.13.63 2 1.39 2s1.35-.94 1.33-2.07a2 2 0 0 0-1.16-2z"/><path class="f" d="M39.4 12.62l.49.59-1.75-4.62a1.45 1.45 0 0 0 1.1-.26c.55-.36.8-.92.56-1.25s-.88-.3-1.43.06-.74.81-.61 1.14z"/><path class="f" d="M39.52 12.31l.34.9s-.12.06-.3-.1c-1.08-.9-1.66.23-2.45-.9-.06-.08 0-.13.08-.07.84.81 1.23-.35 2.33.17z"/><path class="c" d="M29.45 5.2l-.85.81 7.22-3.59a2.07 2.07 0 0 0 .7 1.59c.72.73 1.7 1 2.18.55s.3-1.37-.42-2.1a1.91 1.91 0 0 0-2-.66z"/><path class="c" d="M30 5.35l-1.4.7s-.13-.15.08-.47c1.26-1.8-.73-2.4.95-3.84.12-.1.22 0 .14.11-1.17 1.38.84 1.71.23 3.5z"/><path class="c" d="M31.39 4.65l-1.41.71s-.13-.16.09-.47c1.25-1.81-.73-2.41 1-3.85.11-.1.21 0 .13.11-1.21 1.38.79 1.71.19 3.5z"/><path class="g" d="M41.81 11.12c.34.55.9.82 1.27.62s.38-.81 0-1.35-.91-.82-1.27-.62-.29.81 0 1.35zm.83-1c.22.05.32.38.23.72s-.35.59-.58.53-.32-.38-.23-.72.36-.58.58-.52z"/><path class="i" d="M33.42 8.01l-.22-.06-1.32 4.39a1.36 1.36 0 0 0-1-.37c-.62 0-1.13.28-1.13.66s.49.68 1.11.68 1-.23 1.11-.54zm-3.9-.16l-.22-.06-1.32 4.39a1.32 1.32 0 0 0-1-.36c-.62 0-1.13.28-1.13.65s.49.68 1.11.69 1-.23 1.11-.55c.06-.12 1.45-4.76 1.45-4.76z"/><path class="i" d="M33.12 9.03l-4.13-.2.35-1.17 4.13.21-.35 1.16z"/><path class="j" d="M25.46 9.01l-.06-.08-1.7 1.34a.56.56 0 0 0-.27-.38c-.23-.16-.5-.17-.61 0s0 .38.24.53a.52.52 0 0 0 .57.07zm-1.42-1l-.06-.08-1.7 1.34a.58.58 0 0 0-.27-.38c-.23-.15-.5-.17-.61 0s0 .38.24.54a.51.51 0 0 0 .57.06z"/><path class="j" d="M26.5 10.31L23.59 8.2l.44-.36 2.92 2.11-.45.36z"/><path class="j" d="M26.89 10.01l-.06-.08-1.7 1.34a.58.58 0 0 0-.27-.38c-.23-.16-.5-.17-.6 0s0 .38.23.53a.52.52 0 0 0 .57.07z"/><path class="c" d="M19.89 6.83l.27.1 2.36-5.3a1.64 1.64 0 0 0 1.17.59c.77.1 1.45-.2 1.51-.66s-.51-.92-1.28-1a1.41 1.41 0 0 0-1.48.53c-.11.14-2.55 5.74-2.55 5.74z"/><path class="l" d="M20.46 18.9l.27.1 2.3-5.3a1.67 1.67 0 0 0 1.17.59c.78.1 1.45-.2 1.51-.66s-.5-.91-1.28-1a1.42 1.42 0 0 0-1.47.53c-.07.14-2.5 5.74-2.5 5.74z"/><path class="h" d="M43.36 2.98l.23.23.92-1.53-.23-.23-.92 1.53zm.87.84l.23.22.91-1.52-.23-.23-.91 1.53z"/><path class="h" d="M45.09 3.92l-.12.1-1.71-1.67.11-.1 1.72 1.67zm.4-.79l-.11.1-1.71-1.67.11-.1 1.71 1.67z"/><path class="a" d="M34.64 9.63l-.41-.06 2.42 1.14a.66.66 0 0 0-.31.48c-.07.32 0 .61.26.65s.44-.18.51-.51a.58.58 0 0 0-.2-.64z"/><path class="a" d="M34.71 9.8l-.47-.23s0-.06.15-.06c.74 0 .53-.65 1.26-.5v.05c-.62-.05-.32.54-.94.74z"/><path class="a" d="M35.17 10.01l-.47-.22s0-.06.15-.07c.75 0 .53-.65 1.26-.5v.06c-.59-.03-.32.54-.94.73z"/><path class="k" d="M35.64 5.64c-.77.11-1.33.58-1.26 1s.77.75 1.54.63 1.33-.58 1.26-1-.77-.75-1.54-.63zm.79 1.28c-.16.21-.58.17-.94-.07s-.52-.62-.36-.83.58-.17.94.08.52.61.36.82z"/><path class="m" d="M29.04 16.11c-.56-.14-1.09 0-1.18.35s.28.72.84.86 1.09 0 1.18-.35-.28-.72-.84-.86zm.12 1.09c-.17.1-.44 0-.61-.31s-.15-.57 0-.66.45 0 .61.31.18.57 0 .66z"/><path class="b" d="M24.42 15.85l6.1-.92a1.56 1.56 0 0 0 0 1.29c.33.68 1 1.08 1.41.89s.56-.91.24-1.59a1.41 1.41 0 0 0-1.27-.94l-6.57 1zm7.36-.23c.35.44.45.92.23 1.08s-.68-.08-1-.53-.45-.92-.23-1.08.65.09 1 .53z"/><path class="a" d="M47.43 19.62c-.46.9-.89 1.74-1.26 2.48-.77.15-1.51.3-2.19.46-5.76 1.37-6.71 7.93-5.54 7.86a7.11 7.11 0 0 0 6.55-4.57c.14-.29.5-1 .81-1.59 3.36-.64 7.52-1.39 9.55-3.52 2.9-3 .73-6.59-3.85-7.84l1.63-3.2c1.48-2.93 6-1.51 5.4.05-1.74-1.43-4.33 0-3.26 1.52a2.67 2.67 0 0 0 4.09-.26c2.27-3.3-4.84-5.31-6.67-1.77l-1.78 3.51c-6.8-1.44-10.25 5.57-3.48 6.87zm-5.91 5.75a14.38 14.38 0 0 1 3.48-1c-.13.25-.36.68-.75 1.46-2.28 4.44-8.73 2.59-2.73-.46zm12.8-5.94c-1.5 1.35-4.55 2-7.41 2.53l1.14-2.24c4.65.57 6.46-3.26 4.09-4.67-.23-.13-.52 0-.33.24 1.56 1.94-.9 3.23-3 2.88l2.47-4.86c4.36 1.25 4.85 4.48 3.04 6.12zm-3.62-6.26l-2.47 4.84c-4.03-1.21-.97-5.43 2.47-4.84z"/><path class="o" d="M57.77 40.65l.46-.11L55 33.7a3.55 3.55 0 0 0 2.13-.37c1.07-.52 1.57-1.33 1.12-1.82s-1.68-.5-2.73.06-1.46 1.17-1.23 1.67c.08.19 3.48 7.41 3.48 7.41zm6.85-3.15l.45-.12-3.23-6.84a3.59 3.59 0 0 0 2.14-.37c1.07-.52 1.57-1.33 1.11-1.82s-1.68-.46-2.75.06-1.46 1.17-1.22 1.67z"/><path class="o" d="M65.17 37.6l-.27-.58-7.29 3.28.27.57 7.29-3.27zm-.85-1.82l-7.3 3.27.27.58 7.3-3.27-.27-.58z"/><path class="a" d="M23.85 43.81l-.16.13 3.54 2.41a1.29 1.29 0 0 0-.81.51c-.29.4-.25.83.1 1a1.12 1.12 0 0 0 1.16-.48c.27-.36.26-.75 0-.92zM21.9 46.3l-.16.12 3.54 2.42a1.29 1.29 0 0 0-.81.51c-.29.4-.25.83.1 1a1.09 1.09 0 0 0 1.16-.48c.27-.35.26-.74 0-.91z"/><path class="a" d="M21.63 46.35l.3.2 2.11-2.6-.3-.21-2.11 2.61zm.94.64l2.11-2.61-.3-.2-2.11 2.61.3.2z"/><path class="d" d="M93.2 36.27l.81.46 13.3-12.29a5.43 5.43 0 0 0 3.42 2.37c2.56.79 5.18.48 5.87-.68s-.83-2.76-3.39-3.54c-2.3-.71-4.64-.53-5.6.36z"/><path class="c" d="M215.91 27.64l1.09-2.15c.67-.13 1.31-.26 1.9-.4 5-1.18 5.81-6.86 4.79-6.8a6.12 6.12 0 0 0-5.66 4c-.13.24-.44.85-.71 1.38-2.91.54-6.51 1.2-8.26 3-2.52 2.63-.63 5.71 3.32 6.79l-1.4 2.77c-1.29 2.53-5.18 1.31-4.68 0 1.51 1.24 3.75 0 2.82-1.31a2.32 2.32 0 0 0-3.54.22c-2 2.86 4.22 4.6 5.78 1.53.12-.25.73-1.44 1.54-3 5.89 1.16 8.87-4.9 3.01-6.03zm5.15-5a12.29 12.29 0 0 1-3 .82c.12-.21.32-.58.66-1.26 1.91-3.78 7.47-2.19 2.34.47zm-11.11 5.17c1.3-1.17 3.94-1.71 6.41-2.2-.3.6-.63 1.26-1 1.94-4-.49-5.6 2.82-3.54 4 .19.12.44 0 .28-.2-1.35-1.68.77-2.8 2.58-2.5l-2.16 4.25c-3.72-1.09-4.14-3.88-2.57-5.29zm3.13 5.42l2.13-4.22c3.5 1.07.85 4.73-2.13 4.22z"/><path class="p" d="M194.86 9.88l-.45.11 3.23 6.84a3.67 3.67 0 0 0-2.14.37c-1.07.52-1.57 1.33-1.11 1.82s1.68.46 2.75-.06 1.46-1.17 1.22-1.66zm-6.84 3.13l-.45.11 3.23 6.89a3.65 3.65 0 0 0-2.14.37c-1.07.52-1.57 1.33-1.12 1.82s1.69.46 2.76-.06 1.45-1.17 1.22-1.66z"/><path class="p" d="M187.47 12.94l.27.57 7.3-3.27-.27-.57-7.3 3.27zm.86 1.82l7.29-3.28-.27-.57-7.29 3.27.27.58z"/><path class="d" d="M168.03 20.89l-.47-.27-7.75 7.16a3.12 3.12 0 0 0-2-1.38c-1.49-.46-3-.28-3.42.4s.49 1.6 2 2.06a3.75 3.75 0 0 0 3.27-.21z"/><path class="q" d="M128.58 62.01l-.29-.17-4.77 4.39a2 2 0 0 0-1.22-.85c-.91-.28-1.84-.17-2.08.25s.29 1 1.2 1.26a2.33 2.33 0 0 0 2-.13z"/><path class="a" d="M125.74 33.06c-.24.49-.47.94-.68 1.35l-1.18.24c-3.12.74-3.64 4.3-3 4.26a3.83 3.83 0 0 0 3.54-2.48l.44-.86c1.82-.34 4.07-.75 5.17-1.9 1.57-1.64.4-3.57-2.08-4.25.48-.93.83-1.62.88-1.73.8-1.58 3.24-.82 2.92 0-.94-.77-2.34 0-1.76.82a1.44 1.44 0 0 0 2.21-.14c1.23-1.79-2.63-2.87-3.61-.95l-1 1.89c-3.64-.75-5.51 3.05-1.85 3.75zm-3.22 3.11a7.89 7.89 0 0 1 1.89-.51c-.07.13-.2.36-.41.78-1.21 2.39-4.68 1.38-1.48-.27zm7-3.16c-.81.73-2.46 1.07-4 1.37l.62-1.21c2.52.3 3.5-1.77 2.21-2.53-.12-.07-.28 0-.18.13.85 1.05-.48 1.75-1.61 1.56l1.34-2.63c2.29.62 2.56 2.37 1.62 3.31zm-2-3.44l-1.34 2.63c-2.18-.66-.53-2.95 1.34-2.63z"/><path d="M85.41 51.08l-.89-1.27c.2-.28.39-.54.55-.8 1.38-2.16-1.86-4.85-2.25-4.49-1.61 1.5-.26 3.08.08 3.57l.58.82c-.9 1.2-2 2.67-1.61 4 .6 2 3.34 2.65 5.71 1.79.63.9 1.08 1.55 1.16 1.65 1 1.51-1.38 2.28-2 1.53 1.43 0 1.59-1.25.38-1.49-1-.2-1.78.48-1.37 1.27 1 1.86 4.7.56 3.42-1.27l-1.26-1.8c3.27-1.39.71-4.97-2.5-3.51zm-1-3.82a4 4 0 0 1-.76 1.35l-.52-.75c-1.53-2.27 1.84-3.43 1.33-.6zm-1.48 5.87c-.19-.92.59-2 1.34-3.06l.81 1.16c-2 1.12-.61 3.05 1 2.89.16 0 .19-.15 0-.18-1.56-.27-1.36-1.45-.4-1.93l1.75 2.5c-2.28.8-4.23-.25-4.45-1.38zm4.75 1.28l-1.75-2.5c2.21-.71 3.39 1.73 1.8 2.5z" fill="#29a2d9"/><path class="s" d="M141.67 50.72l.42-.1-2.95-6.25a3.24 3.24 0 0 0 1.95-.33c1-.48 1.43-1.22 1-1.67a2.45 2.45 0 0 0-2.52.06c-.87.42-1.33 1.07-1.11 1.52.06.18 3.21 6.77 3.21 6.77zm6.25-2.88l.41-.1-2.95-6.25a3.35 3.35 0 0 0 2-.34c1-.47 1.43-1.22 1-1.66s-1.53-.42-2.51.05-1.35 1.07-1.15 1.52c.09.18 3.2 6.78 3.2 6.78z"/><path class="s" d="M148.43 47.93l-.25-.52-6.66 2.99.25.52 6.66-2.99zm-.78-1.66l-6.66 2.99.24.53 6.66-2.99-.24-.53z"/><path class="a" d="M229.06 6.15l-.45.89c-.27 0-.54.1-.78.16-2.06.49-2.4 2.84-2 2.81a2.53 2.53 0 0 0 2.34-1.63l.35-.57c1.2-.23 2.69-.5 3.42-1.26 1-1.09.26-2.36-1.38-2.8.32-.62.55-1.08.58-1.15.53-1 2.14-.54 1.94 0-.63-.51-1.55 0-1.17.54a1 1 0 0 0 1.46-.09c.81-1.18-1.74-1.9-2.38-.63-.06.1-.31.6-.64 1.25-2.47-.49-3.71 2.01-1.29 2.48zm-2.13 2.05a6.28 6.28 0 0 1 1.25-.34l-.27.52c-.8 1.63-3.1.92-.98-.18zm4.59-2.12a6.24 6.24 0 0 1-2.65.91c.12-.25.26-.52.4-.8 1.67.2 2.32-1.17 1.47-1.67-.08 0-.19 0-.12.08.56.7-.32 1.16-1.07 1l.89-1.74c1.56.48 1.74 1.63 1.08 2.22zm-1.3-2.24c-.26.53-.58 1.14-.88 1.74-1.43-.44-.34-1.95.89-1.74z"/><path class="j" d="M232.76 13.67h.17l-1.16-2.44a1.39 1.39 0 0 0 .77-.13c.38-.19.56-.48.4-.66a1 1 0 0 0-1 0c-.34.17-.52.42-.44.6zm2.45-1.13h.16l-1.15-2.44a1.28 1.28 0 0 0 .76-.14c.39-.18.56-.47.4-.65s-.6-.16-1 0-.52.42-.44.6z"/><path class="j" d="M235.41 12.58l-.09-.2-2.61 1.17.1.2 2.6-1.17zm-.3-.65l-2.61 1.17.09.21 2.62-1.17-.1-.21z"/><path class="h" d="M246.16 9.27l.29.17 4.76-4.43a2 2 0 0 0 1.22.85c.92.28 1.86.17 2.1-.25s-.29-1-1.21-1.27a2.32 2.32 0 0 0-2 .13zm-241.19.74l-.67 1.3c-.4.08-.79.15-1.15.24-3 .72-3.54 4.18-2.92 4.14a3.72 3.72 0 0 0 3.45-2.41c.08-.15.26-.52.43-.84 1.77-.33 4-.73 5-1.85 1.57-1.58.41-3.48-1.99-4.14l.86-1.69c.78-1.54 3.15-.79 2.84 0-.92-.75-2.28 0-1.71.8a1.41 1.41 0 0 0 2.15-.13c1.2-1.75-2.57-2.81-3.52-.94-.07.16-.44.89-.94 1.85-3.58-.73-5.4 2.97-1.83 3.67zm-3.14 3a7.51 7.51 0 0 1 1.84-.51l-.4.77c-1.18 2.34-4.56 1.37-1.44-.26zM8.6 9.87c-.79.72-2.4 1-3.91 1.34.19-.36.39-.76.6-1.18 2.46.3 3.41-1.72 2.16-2.46-.12-.07-.27 0-.17.12.82 1-.47 1.71-1.57 1.52l1.3-2.56c2.29.68 2.51 2.36 1.59 3.24zm-1.9-3.3L5.39 9.16c-2.12-.65-.51-2.88 1.31-2.57z"/><path class="q" d="M24.46 18.89l.24-.05-1.71-3.62a1.83 1.83 0 0 0 1.13-.21c.56-.27.83-.7.59-1s-.89-.24-1.45 0-.77.62-.65.88zm3.61-1.66l.24-.06-1.71-3.61a1.91 1.91 0 0 0 1.13-.19c.56-.28.83-.71.59-1a1.38 1.38 0 0 0-1.45 0c-.51.24-.77.61-.65.87z"/><path class="q" d="M28.36 17.28l-.14-.3-3.85 1.73.15.3 3.84-1.73zm-.45-.96l-3.85 1.73.15.3 3.84-1.72-.14-.31zm149.46 31.37l-.29.18 5.44 4.46a2.37 2.37 0 0 0-1.46.76c-.58.63-.61 1.36-.06 1.63a2 2 0 0 0 2.06-.67c.53-.57.6-1.21.21-1.54zm-3.85 3.94l-.29.18 5.39 4.46a2.35 2.35 0 0 0-1.46.76c-.59.63-.61 1.36-.06 1.63a2 2 0 0 0 2.06-.66c.53-.58.6-1.22.21-1.54z"/><path class="q" d="M173.09 51.68l.46.37 4.11-4.13-.45-.37-4.12 4.13zm1.44 1.18l4.11-4.13-.45-.37-4.12 4.13.46.37z"/><path class="t" d="M173.61 12.41l-.26-.05.32-.85a20.48 20.48 0 0 0 1.68-4.5c.33-1.65-.07-2.71-1.2-3.17a18.23 18.23 0 0 1-3.48.48 28.89 28.89 0 0 1-4.07 0 30.22 30.22 0 0 1-1.44 3.84 10 10 0 0 1-.89 2l-.75-.26s-6.81-2.67-10.18-1.08h-.11l-1.29.61a10.15 10.15 0 0 0-2.09 1.59 13.53 13.53 0 0 0-3.48 5.67l-1 3.19a24.8 24.8 0 0 0 .94-3.69 21.64 21.64 0 0 0 .4-3.34v-1a2.85 2.85 0 0 0-.51-1.38 3.16 3.16 0 0 0-1.3-.91 27.62 27.62 0 0 1-4.61 1.91 34.43 34.43 0 0 1-5.25 1.14 9 9 0 0 0-.19 3.56 4.77 4.77 0 0 1 2.3.11 1.57 1.57 0 0 1 .78 1.33 13.53 13.53 0 0 1 0 1.78 16.69 16.69 0 0 1-3.51 7.73 11.75 11.75 0 0 1-2.9 2.35l-.27.16a2.36 2.36 0 0 1-1.3.36.62.62 0 0 1-.63-.5 1.26 1.26 0 0 1 0-.4 15.12 15.12 0 0 1 .81-2.84l3-8.91a8.2 8.2 0 0 0 .39-1.33 3.31 3.31 0 0 0-1.2-2.83 51.52 51.52 0 0 1-5.38.34 18.89 18.89 0 0 0-5.53-1.28q-6.51-.57-10.4 2.15a13.89 13.89 0 0 0-5.37 7.53 19.17 19.17 0 0 0-.67 3.38 9.5 9.5 0 0 0 1.02 5.71c.91 1.58 2.59 2.48 5 2.69a8.27 8.27 0 0 0 6-1.7 17.85 17.85 0 0 0 4.79-6.59h.14a21.72 21.72 0 0 0-1.31 3.51 8.55 8.55 0 0 0-.2 1.16 4.27 4.27 0 0 0 .89 3.29 5.12 5.12 0 0 0 3.66 1.52h1.24a12.41 12.41 0 0 0 7.79-2.73 16.78 16.78 0 0 0 2.9-2.87l.24-.3a14.64 14.64 0 0 0 2.4-3.92 23.53 23.53 0 0 1-1.56 4.94 1.71 1.71 0 0 0-.21.61 3.05 3.05 0 0 0 1.69 3.48c3.54 1.9 7.6-1 7.59-5.38 0 0 .27-7.12 1.2-8.89.62-1.14 1.31-1.76 2.09-1.84a1.49 1.49 0 0 1 1.15.34 1.52 1.52 0 0 1 .6 1.06 1.43 1.43 0 0 1 0 .42 7.35 7.35 0 0 0 .93-.05 10.24 10.24 0 0 0 4.22-1.33 31.16 31.16 0 0 1-.08-5 15.53 15.53 0 0 1 5.2.74l-2.66 5.61c-.73 1.52-3.2 5.84-3.48 7.25a6.86 6.86 0 0 0 .62 5.12 6.34 6.34 0 0 0 4.51 2.59 13.87 13.87 0 0 0 4.68 0 8.82 8.82 0 0 0 3.86-1.39 6.3 6.3 0 0 0-.06-1.87 6.2 6.2 0 0 0-.52-1.76 3.45 3.45 0 0 1-1.22.51 2.81 2.81 0 0 1-1.18.05 1.39 1.39 0 0 1-1-.62 2.54 2.54 0 0 1-.05-1.63c.21-1 2.68-5.3 3.5-7l2.1-4.59a12.69 12.69 0 0 0 4.79.13h.27l.09-.06s1-.68 1.49-3.81a26.54 26.54 0 0 1-4.48-.29zm-50.72 6.07a22.07 22.07 0 0 1-3.37 7.32c-1.2 1.47-2.3 2.16-3.31 2.07s-1.52-1.06-1.35-2.89a17.64 17.64 0 0 1 .85-3.74 13.12 13.12 0 0 1 2.1-4.3 3.22 3.22 0 0 1 2.94-1.32 8.33 8.33 0 0 1 1.49.27 5.57 5.57 0 0 1 1.38.49zM58.57 31.7c.05-.29.1-.63.15-1a6.77 6.77 0 0 0-.15 1z"/><path d="M104.04 1.81a2.57 2.57 0 0 0-.6-.69l-.19-.18c-1.87-1.17-4.55 1.82-5.2 2.11a.64.64 0 0 0-.33.34.25.25 0 0 1 0 .08 2.2 2.2 0 0 0-.09.81 9.92 9.92 0 0 0 .08 1.78c.69-.06.82.06 1 .28a1.43 1.43 0 0 1 .38 1.07s-.32 3.54.63 4.55 4.15-1.42 4.5-3.28l.14-2.38.09-2.29a10.1 10.1 0 0 0-.07-1.13 2.5 2.5 0 0 0-.34-1.07zM92.52 23.2s-6.17-.19-8.15 3.31a1 1 0 0 0-.15.41 1 1 0 0 0 .9 1h.08a1.94 1.94 0 0 0 1.54-.82c.78-.9 3.25-2.9 5.44-3.09s1.39-.85.34-.81zM81.02 8.09s-2 .63-2 1.49 6.4-2.25 8.87-2.77 2.91-3.14.35-2.09-7.22 3.37-7.22 3.37zm-6.5 17.26a14.33 14.33 0 0 0-5.4 1 5.81 5.81 0 0 0-2.71 2.28.84.84 0 0 0-.14.41.94.94 0 0 0 .89 1h.09a2 2 0 0 0 1.54-.82 10.51 10.51 0 0 1 1.93-1.64 7.8 7.8 0 0 1 3.5-1.44c2.2-.13 1.4-.83.3-.79z" fill="#ffb819"/><path class="t" d="M93.13 10.26l-1.85.75c-3.91 1.63-7.76 3.26-11.76 4.79a1.33 1.33 0 0 0-1 1.61c.4 8 .17 1.74.49 9.69a5.19 5.19 0 0 1-2.11 4.49 10.87 10.87 0 0 1-4.48 2.17 9 9 0 0 1-2.86.16 4.34 4.34 0 0 1-3.94-2.7 4 4 0 0 1 .9-4.56 12.46 12.46 0 0 1 1-.92 9.71 9.71 0 0 1 7.69-2.09l.49.08h.18l-.49-9v-.55c-.16-1.56-.12-3.14-.23-4.71 0-.56.17-.8.67-1 1.78-.75 3.59-1.46 5.34-2.26 2.34-1.07 4.66-2.2 7-3.34Q83.18.45 75.07 1.01l-3.71.3c-.64.08-1.5.15-2.56.22-5.07.34-8.91.54-11.55.6a9.12 9.12 0 0 0-.08 2 15.45 15.45 0 0 0 .35 2.25 4.84 4.84 0 0 1 2.5.54 2.49 2.49 0 0 1 .83 2 15.29 15.29 0 0 1-.14 2.76l-1.74 16.8c-.08.85-.16 1.59-.25 2.23-.05.36-.1.7-.15 1a6.65 6.65 0 0 0 .07 1.6 6.8 6.8 0 0 0 4.41 5.16s1.63 1.24 11.07-.28h.23a20.24 20.24 0 0 0 3.83-.89 34.23 34.23 0 0 0 7.59-3.34 13.25 13.25 0 0 0 2.38-1.77 10.6 10.6 0 0 1-1.11-.06 4.35 4.35 0 0 1-3.87-2.8 4 4 0 0 1 1.07-4.54 9.83 9.83 0 0 1 8.79-2.78l.41.08h.26v-1.67c0-2.66-.15-6.43-.36-10.26z"/></svg>