<svg xmlns="http://www.w3.org/2000/svg" viewBox="0 0 256 144"><defs><style>.b{mask:url(#a)}.c{opacity:.1}.c,.h{mix-blend-mode:lighten}.d{fill:#f0f}.f{fill:#662d91}.g{mask:url(#e)}.h{opacity:.2}.i{fill:#0ff}.j{mask:url(#g)}.k{fill:#fcee21}.l{mask:url(#i)}.m{fill:#f7931e}.n{mask:url(#k)}</style><filter id="b" x="0" y="-8267" width="32" height="32766" filterUnits="userSpaceOnUse" color-interpolation-filters="sRGB"><feFlood flood-color="#fff" result="bg"/><feBlend in="SourceGraphic" in2="bg"/></filter><filter id="d" x="56" y="-8267" width="32" height="32766" filterUnits="userSpaceOnUse" color-interpolation-filters="sRGB"><feFlood flood-color="#fff" result="bg"/><feBlend in="SourceGraphic" in2="bg"/></filter><filter id="f" x="168" y="-8267" width="32" height="32766" filterUnits="userSpaceOnUse" color-interpolation-filters="sRGB"><feFlood flood-color="#fff" result="bg"/><feBlend in="SourceGraphic" in2="bg"/></filter><filter id="h" x="112" y="-8267" width="32" height="32766" filterUnits="userSpaceOnUse" color-interpolation-filters="sRGB"><feFlood flood-color="#fff" result="bg"/><feBlend in="SourceGraphic" in2="bg"/></filter><filter id="j" x="224" y="-8267" width="32" height="32766" filterUnits="userSpaceOnUse" color-interpolation-filters="sRGB"><feFlood flood-color="#fff" result="bg"/><feBlend in="SourceGraphic" in2="bg"/></filter><filter id="l" x="58" y="-8267" width="32" height="32766" filterUnits="userSpaceOnUse" color-interpolation-filters="sRGB"><feFlood flood-color="#fff" result="bg"/><feBlend in="SourceGraphic" in2="bg"/></filter></defs><g style="isolation:isolate"><g class="b"><g class="c"><circle class="d" cx="16" cy="16" r="16"/></g></g><g class="c" mask="url(#c)"><circle class="f" cx="72" cy="16" r="16"/></g><g class="g"><g class="h"><circle class="i" cx="184" cy="16" r="16"/></g></g><g class="j"><g class="c"><circle class="k" cx="128" cy="16" r="16"/></g></g><g class="l"><g class="h"><circle class="m" cx="240" cy="16" r="16"/></g></g><g class="n"><g class="c"><circle class="d" cx="74" cy="72" r="16"/></g></g><g class="b"><g class="h"><circle class="m" cx="16" cy="72" r="16"/></g></g><g class="j"><g class="c"><circle class="f" cx="128" cy="72" r="16"/></g></g><g class="g"><g class="c"><circle class="k" cx="184" cy="72" r="16"/></g></g><g class="l"><g class="h"><circle class="i" cx="240" cy="72" r="16"/></g></g><g class="j"><g class="c"><circle class="d" cx="128" cy="128" r="16"/></g></g><g class="n"><g class="h"><circle class="m" cx="74" cy="128" r="16"/></g></g><g class="b"><g class="h"><circle class="i" cx="16" cy="128" r="16"/></g></g><g class="g"><g class="c"><circle class="f" cx="184" cy="128" r="16"/></g></g><g class="l"><g class="c"><circle class="k" cx="240" cy="128" r="16"/></g></g></g></svg>