<svg xmlns="http://www.w3.org/2000/svg" width="23.021" height="20.607"><path fill="#430098" d="M22.554 4.528C21.404 1.732 18.471 0 16.419 0c-2.764 0-4.253 1.217-4.905 1.968C10.868 1.228 9.384 0 6.609 0 4.554 0 1.621 1.732.472 4.528c-.627 1.529-1.178 4.59 2.204 7.931l8.261 7.833c.074.115.181.21.313.267a.63.63 0 0 0 .24.047l.055-.003a.66.66 0 0 0 .508-.276l8.309-7.875c3.368-3.334 2.817-6.395 2.192-7.924zM2.903 10.816a8.358 8.358 0 0 1-.653-.879h2.487a.647.647 0 0 0 .554-.318l2.378-4.091 2.097 5.13a.638.638 0 0 0 .572.396c.236-.013.486-.128.599-.355l1.626-3.281 2.162 3.088a.635.635 0 0 0 .499.274l.758.027-1.336.429-1.291-1.64a.642.642 0 0 0-1.056.068L10.127 13.3l-2.07-4.65a.632.632 0 0 0-.544-.38.636.636 0 0 0-.587.303l-1.379 2.25-2.644-.007zm16.565.714l-7.957 7.542-7.352-6.97 1.747.002a.642.642 0 0 0 .548-.308l.926-1.515 2.077 4.667c.099.22.309.366.548.379.016 0 .027.003.042.003a.642.642 0 0 0 .548-.314l2.327-3.896.989 1.258c.17.21.45.294.701.213l5.074-1.63c.233-.074.356-.308.39-.552.034-.243-.12-.517-.323-.652a.613.613 0 0 0-.331-.108l-3.834-.142-2.596-3.71a.668.668 0 0 0-.571-.27.63.63 0 0 0-.527.354l-1.476 2.977-2.053-5.023a.643.643 0 0 0-.552-.395.628.628 0 0 0-.597.317L4.368 8.655H1.84a.631.631 0 0 0-.225.045c-.554-1.473-.344-2.745.043-3.684.918-2.232 3.301-3.731 4.951-3.731 3.092 0 4.137 1.777 4.147 1.78l.146.365a.638.638 0 1 0 1.17.04l.166-.335c.041-.073 1.086-1.85 4.181-1.85 1.646 0 4.03 1.499 4.946 3.731.621 1.501.788 3.856-1.897 6.514z"/><path fill="#FFB819" d="M7.513 8.27a.633.633 0 0 1 .544.378l2.07 4.65 2.172-3.636a.642.642 0 0 1 1.056-.068l1.291 1.64 1.336-.429-.758-.027a.635.635 0 0 1-.499-.274l-2.162-3.088-1.626 3.281c-.112.227-.362.342-.599.355a.636.636 0 0 1-.572-.396l-2.097-5.13-2.378 4.092a.645.645 0 0 1-.554.319H2.25c.184.288.403.582.653.879l2.644.007 1.379-2.25a.636.636 0 0 1 .587-.303z"/></svg>