<svg id="Layer_1" data-name="Layer 1" xmlns="http://www.w3.org/2000/svg" viewBox="0 0 63.99 69.07"><defs><style>.cls-1{fill:#fff}</style></defs><path class="cls-1" d="M3.62 2.82H36.5v9.91H3.62z"/><path class="cls-1" d="M31.63 2.05h16.42v7.31H31.63z"/><path class="cls-1" d="M33.53 4.56h8.49v7.94h-8.49zM8.08 9.37h24.96v31.44H8.08z"/><path class="cls-1" d="M6.27 39.87h14.71v4.48H6.27z"/><path class="cls-1" d="M5.24 42.77h14v20.37h-14z"/><path class="cls-1" d="M4.15 56.06h39.01v5.43H4.15z"/><path class="cls-1" d="M7.13 59.91h32.24v5H7.13z"/><path class="cls-1" d="M35.37 51.74h10.54v8.73H35.37z"/><path class="cls-1" d="M43.15 54.17h7.71v4.6h-7.71z"/><path class="cls-1" d="M34.82 54.17h10.15v7.79H34.82z"/><path class="cls-1" d="M37.78 28.38h7.66v31.07h-7.66z"/><path class="cls-1" d="M41.26 26.33h19.11v11.88H41.26z"/><path class="cls-1" d="M42.6 35.77h6.29v5.82H42.6zm12.82-16.75h6.21V39h-6.21z"/><path class="cls-1" d="M50.86 21.69h6.53V37.1h-6.53z"/><path d="M63.88 28.83c0-3.85.07-7.15.06-7.41 0-7-2.34-12-6.42-15.61C51.53.45 43.53.32 42 .36A51.84 51.84 0 0 0 36 0c-1.52 0-3.13.06-4.81.17l-6.14.52c-1 .13-2.33.25-4.07.37-8.21.56-14.53.9-18.79 1l-1.77.06-.23 1.76A18.5 18.5 0 0 0 0 7.67a32.36 32.36 0 0 0 .68 4.19l.35 1.59 1.62.05a5.86 5.86 0 0 1 2.98.5s.4.3.51 1.85a27 27 0 0 1-.24 4.35L3 49c-.14 1.41-.27 2.65-.41 3.73-.07.59-.15 1.13-.23 1.62v.18A13.54 13.54 0 0 0 10.77 68c.81.47 2.59 1 6.43 1a81.19 81.19 0 0 0 13-1.33l.4-.06a34.39 34.39 0 0 0 6.61-1.62c1.31-.41 2.62-.89 3.91-1.41v.11c16.45-5 22.86-14.74 22.73-25a2.53 2.53 0 0 0 0-.28l.08-1.9c0-.47.06-1 .06-1.45v-.8c.01-1.74.01-3.94-.11-6.43zM52.43 53.31c-.41 0-.81 0-1.21-.07a5.1 5.1 0 0 1-4.64-3.42 5 5 0 0 1 1.27-5.59A13.74 13.74 0 0 1 59.67 40c-.37 4.51-2.26 9-7.24 13.31zm-17.51-23c.3 6.28.38 7.4.43 8.14s.08 1.1.36 8.38a7 7 0 0 1-2.68 6 15.47 15.47 0 0 1-6.46 3.29 12.63 12.63 0 0 1-4 .23c-2.44-.23-3.94-1.29-4.72-3.29a5 5 0 0 1 1.12-5.62A18.19 18.19 0 0 1 20.43 46a13.56 13.56 0 0 1 10.93-3.1l.33.06.39.07h.21l2.63-.32L34 25.42l-.09-.94c-.14-1.44-.18-2.89-.22-4.41 0-1.08-.07-2.16-.14-3.3l1-.43c2.51-1 5.1-2.12 7.61-3.32 3.5-1.67 7-3.43 10.24-5.12a17.7 17.7 0 0 1 1.82 1.4 14.72 14.72 0 0 1 4.57 7.38l-.17.08-1.64.72-4.9 2.09c-4.66 2-9.49 4.08-14.26 6a4.29 4.29 0 0 0-2.9 4.77zM47.8 56.65a53.74 53.74 0 0 1-11.95 5.48l-.17.06a30.48 30.48 0 0 1-5.81 1.4l-.42.07a78.24 78.24 0 0 1-12.25 1.26 16.7 16.7 0 0 1-3.81-.33l-.92-.36A9.4 9.4 0 0 1 6.57 57a8.89 8.89 0 0 1-.1-2.14c.08-.5.15-1.06.23-1.66.15-1.11.29-2.4.43-3.85L10 20.68a28.72 28.72 0 0 0 .25-5.08c-.16-2.32-.9-4-2.21-4.92a7.66 7.66 0 0 0-3.57-1.21 18.53 18.53 0 0 1-.29-2.08 12.24 12.24 0 0 1 0-1.23c4.22-.15 10-.47 17.11-1 1.83-.13 3.24-.26 4.22-.38l6-.51a54.34 54.34 0 0 1 10.65.25v.1a16.54 16.54 0 0 1 2.13.2 30.75 30.75 0 0 1 3.43.82c-2.38 1.21-4.83 2.43-7.28 3.6s-5 2.21-7.41 3.23l-1.22.53a3.5 3.5 0 0 0-2.39 3.74c.08 1.15.12 2.29.15 3.43.05 1.52.09 3.1.24 4.67l.75 13.83a17.34 17.34 0 0 0-12.8 4.18 23.43 23.43 0 0 0-1.84 1.74 9.39 9.39 0 0 0 6.22 15.88 17.08 17.08 0 0 0 5.31-.31 19.71 19.71 0 0 0 8.19-4.12 11.07 11.07 0 0 0 4.21-9.35c-.28-7.37-.3-7.66-.36-8.53s-.13-1.81-.43-8a3 3 0 0 1 0-.54 3.68 3.68 0 0 1 .38-.18c4.82-2 9.66-4 14.35-6l4.88-2.1c.25-.1.49-.2.74-.32.05 1 .09 1.89.13 2.81.09 2.91.23 8.11.24 12a17.63 17.63 0 0 0-14.88 5.48 9.11 9.11 0 0 0-2.23 9.9 8.79 8.79 0 0 0 5.15 5.42z" fill="#492d8c"/><path d="M47.84 44.23a5 5 0 0 0-1.26 5.59 5.09 5.09 0 0 0 4.63 3.42c.4 0 .81.06 1.22.07 5-4.3 6.87-8.8 7.23-13.33a13.76 13.76 0 0 0-11.82 4.25zM52.47 7.9c-3.29 1.69-6.74 3.44-10.23 5.1-2.52 1.2-5.11 2.28-7.61 3.32l-1.05.43c.07 1.14.1 2.22.14 3.3 0 1.52.08 3 .22 4.41l.09.94.89 17.37-2.63.32h-.21l-.39-.09-.33-.06A13.56 13.56 0 0 0 20.43 46 16.57 16.57 0 0 0 19 47.45a5 5 0 0 0-1.13 5.62c.78 2 2.28 3.06 4.72 3.29a12.63 12.63 0 0 0 4-.23A15.47 15.47 0 0 0 33 52.84a7 7 0 0 0 2.69-6c-.28-7.29-.31-7.56-.36-8.38s-.13-1.86-.44-8.14a4.3 4.3 0 0 1 3-4.77c4.78-1.93 9.6-4 14.27-6l4.89-2.1 1.65-.72.17-.07a14.72 14.72 0 0 0-4.58-7.39 17.91 17.91 0 0 0-1.82-1.37z" fill="#fdb71b"/></svg>